<svg xmlns="http://www.w3.org/2000/svg" xmlns:xlink="http://www.w3.org/1999/xlink" viewBox="0 0 1830 1202.24"><defs><style>.a,.f,.h,.i,.k,.o{fill:none;}.b{fill:#00656a;}.c{fill:#289e9b;}.d{fill:#72cfdb;opacity:0.5;}.e{fill:#7d9e67;}.f,.h,.i{stroke:#422f18;}.f,.h,.i,.k,.o{stroke-miterlimit:10;}.f{stroke-width:50px;}.g{fill:#7a592a;}.h{stroke-width:25px;}.i{stroke-width:20px;}.j{fill:#fff;}.k{stroke:#000;stroke-width:5px;}.l{fill:#efcfaf;}.m{fill:#e5b580;}.n{fill:#939393;}.o{stroke:#3a3a3a;}.p{fill:#4c8e25;}.q{clip-path:url(#a);}</style><clipPath id="a"><path class="a" d="M456.11,491.08s76.47,213.49,118.5,264,540,143.95,634.47,131.95,244.48-249,244.48-249S817.6,588.58,456.11,491.08Z"/></clipPath></defs><title>feature_anchi_ai</title><path class="b" d="M1659.86,1088.69c-191.68-49.32-415,4.82-548.24-23.35S794.49,853.7,666.7,832.55s-283.55,57.18-383,46.21-166.42-82.44-166.42-82.44l-.87-112.92s75.78,62.1,175.76,60S536.4,643.28,665.86,647.55s335.75,162.15,471.52,172.68S1487.49,747.9,1684,771.75Z"/><path class="c" d="M1805.89,1099.55c-191.67-49.32-415,4.82-548.23-23.35S940.53,864.55,812.74,843.41s-283.55,57.18-382.95,46.2-166.43-82.44-166.43-82.44l-.87-112.91s75.78,62.1,175.77,60S682.44,654.14,811.9,658.41s335.74,162.15,471.51,172.67,350.11-72.33,546.59-48.47Z"/><path class="d" d="M1543.4,1024c-191.68-49.32-415,4.83-548.23-23.35S678,789,550.25,767.84,266.7,825,167.29,814.05.87,731.61.87,731.61L0,618.69s75.78,62.1,175.77,60S420,578.57,549.4,582.85,885.15,745,1020.92,755.52s350.11-72.33,546.59-48.47Z"/><path class="e" d="M1056.25,362.74V335s-8.94,2.27-20.84,9.51"/><line class="f" x1="1008.85" y1="159.86" x2="944.09" y2="695.14"/><polygon class="g" points="886.29 348.04 897.06 491.3 1041.9 508.46 1082.63 371.31 886.29 348.04"/><line class="f" x1="886.29" y1="348.04" x2="1082.63" y2="371.31"/><line class="h" x1="891.95" y1="490.69" x2="1045.54" y2="508.89"/><line class="i" x1="932.38" y1="364.8" x2="930.35" y2="495.24"/><line class="i" x1="984.46" y1="359.67" x2="967.87" y2="499.69"/><line class="i" x1="1038.96" y1="366.13" x2="1010.45" y2="504.73"/><path d="M1034.9,299.5c-129.2-65.3-258.41,74.44-387.61-48.42C663.19,179.49,679.1,103.92,695,25.24c129.21,65.3,258.41-74.44,387.61,48.42C1066.71,145.25,1050.8,220.82,1034.9,299.5Z"/><path class="j" d="M958.32,246.66C885.56,219.86,812.8,228.78,740,189.91q5.69-10.56,11.35-21.5c72.76,34.12,145.52,24.8,218.28,55.55Q964,235.15,958.32,246.66Z"/><path class="j" d="M982.31,229.72c-3.76,7.12-12.47,10.45-19.45,7.78S953.27,226.69,957,219s12.47-11.6,19.45-8.36S986.07,222.61,982.31,229.72Z"/><path class="j" d="M972.09,249.46c-3.76,7.33-12.47,11.12-19.45,8.77s-9.59-10.4-5.83-18.24,12.47-12.16,19.45-9.29S975.86,242.14,972.09,249.46Z"/><path class="j" d="M763.58,174.2c-3.77,7.52-12.48,11-19.46,7.43a14.27,14.27,0,0,1-5.83-19.39,15.56,15.56,0,0,1,19.46-6.8C764.73,158.43,767.34,166.67,763.58,174.2Z"/><path class="j" d="M753.36,194.26c-3.76,7.32-12.47,10.37-19.45,6.32s-9.6-13.11-5.84-19.76,12.48-9,19.46-5.64S757.12,186.92,753.36,194.26Z"/><path class="j" d="M981.18,177.52c-82.31,11.94-164.62,80.8-246.94,85.65q-1.07-12-2.14-23.92c82.31-3.73,164.62-72.51,246.94-85.43Q980.11,165.67,981.18,177.52Z"/><path class="j" d="M993.34,152.16c.71,7.93-5.12,14.69-13,15.88s-14.88-3.64-15.59-11.44,5.11-15.69,13-17S992.63,144.24,993.34,152.16Z"/><path class="j" d="M995.27,173.66c.71,7.93-5.11,14.63-13,15.73s-14.88-3.79-15.59-11.6,5.11-15.65,13-16.86S994.56,165.73,995.27,173.66Z"/><path class="j" d="M746.13,238.42c.72,7.84-5.11,15.19-13,15.61s-14.88-6.41-15.59-14.41,5.12-14,13-14.32S745.42,230.54,746.13,238.42Z"/><path class="j" d="M748.07,259.78c.71,7.84-5.12,15.25-13,15.76s-14.88-6.21-15.59-14.21,5.12-14.1,13-14.48S747.36,251.92,748.07,259.78Z"/><path class="j" d="M858,201.48c-8.43,1.6-16.85,3.15-25.28,4.55,0,0,2.36-7.73,4-22.68,1.68-14.58-35.93-30.26-30.17-62.71,5.77-31.58,38.49-60.91,77.92-68.7,39.43-7.47,63.32,16.63,57.55,48.19C936.32,130.87,891,158.07,887.33,174c-3.7,15.32-4,22.72-4,22.72C874.87,198.26,866.44,199.89,858,201.48Z"/><path d="M857.24,112.52c-1.7,9.61-10.36,18.81-19.33,20.36s-14.86-5.15-13.16-14.69,10.36-18.43,19.34-20.07S859,102.89,857.24,112.52Z"/><path d="M922,101.69c-1.71,9.47-10.36,18-19.33,19.46s-14.87-5-13.16-14.64,10.36-18.67,19.33-20S923.65,92.22,922,101.69Z"/><path d="M861.37,145c1.32.36.62,4.05-.25,5.7s-2.63,2.69-4,2.33-1.7-2-.83-3.64S860.05,144.65,861.37,145Z"/><path d="M873.44,142.71c-1.55.91-2.15,4.58-1.83,6s1.83,1.85,3.38.95a4.35,4.35,0,0,0,2.22-4.22C876.89,144,875,141.81,873.44,142.71Z"/><path class="k" d="M862.07,178.64,858,201.48"/><path class="k" d="M875.89,176l-4,22.84"/><path class="k" d="M847.07,181.45,843,204.25"/><circle class="l" cx="1093.8" cy="349.74" r="7.7"/><circle class="m" cx="1078.46" cy="320.75" r="31.71"/><polygon class="n" points="1092.97 335.8 1111.84 342.44 1101.52 360.35 1085.81 348.22 1092.97 335.8"/><polygon class="n" points="1078.7 329.65 1093.92 335 1085.6 349.44 1072.93 339.66 1078.7 329.65"/><polygon class="n" points="1105.22 340.91 1127.45 348.73 1115.3 369.82 1096.79 355.54 1105.22 340.91"/><line class="o" x1="1093.92" y1="335" x2="1085.6" y2="349.44"/><line class="o" x1="1111.84" y1="342.44" x2="1101.52" y2="360.34"/><line class="o" x1="1127.45" y1="348.73" x2="1115.3" y2="369.82"/><circle class="l" cx="1072.98" cy="344.51" r="7.7"/><path class="p" d="M1106.38,335.8s-23.87-19.37-58.67-7.25c-5-12.88,2.55-31.59,8.36-33.22s13.67-10.33,25.5-8,25.17,9,27.83,16.84S1115.36,329.43,1106.38,335.8Z"/><path class="p" d="M1049.24,327.33s-12-2.33-13.83,3.84C1042.32,336.81,1049.24,327.33,1049.24,327.33Z"/><path class="p" d="M1048.38,327.74s-11.52,4.09-10,10.34C1047.24,339.41,1048.38,327.74,1048.38,327.74Z"/><path class="g" d="M456.11,491.08s76.47,213.49,118.5,264,540,143.95,634.47,131.95,244.48-249,244.48-249S817.6,588.58,456.11,491.08Z"/><g class="q"><path class="f" d="M445.71,570.29s291.83,92,1019.62,136.88"/><path class="f" d="M445.71,666s291.83,92,1019.62,136.88"/></g><circle class="n" cx="740.61" cy="621.58" r="5.15"/><circle class="n" cx="740.61" cy="642.27" r="5.15"/><circle class="n" cx="1014" cy="656.6" r="5.15"/><circle class="n" cx="1014" cy="677.29" r="5.15"/><circle class="n" cx="1278.67" cy="684.74" r="5.15"/><circle class="n" cx="1278.67" cy="705.44" r="5.15"/><circle class="n" cx="873" cy="735.13" r="5.15"/><circle class="n" cx="873" cy="755.82" r="5.15"/><circle class="n" cx="1137.15" cy="766.48" r="5.15"/><circle class="n" cx="1137.15" cy="787.17" r="5.15"/><circle class="n" cx="642.5" cy="700.29" r="5.15"/><circle class="n" cx="642.5" cy="720.98" r="5.15"/><path class="b" d="M1659.86,1196.39c-191.68-49.32-415,4.82-548.24-23.35S794.49,961.39,666.7,940.24s-283.55,57.19-383,46.21S117.33,904,117.33,904l-.87-112.91s75.78,62.1,175.76,60S536.4,751,665.86,755.25s335.75,162.15,471.52,172.67,350.11-72.33,546.58-48.47Z"/><path class="c" d="M1805.89,1202.24c-191.67-49.32-415,4.83-548.23-23.35S940.53,967.25,812.74,946.1s-283.55,57.18-382.95,46.21-166.43-82.44-166.43-82.44L262.49,797s75.78,62.1,175.77,60S682.44,756.83,811.9,761.11s335.74,162.14,471.51,172.67,350.11-72.33,546.59-48.47Z"/><path class="d" d="M1543.4,1131.68c-191.68-49.32-415,4.82-548.23-23.35S678,896.69,550.25,875.54s-283.55,57.18-383,46.2S.87,839.3.87,839.3L0,726.39s75.78,62.1,175.77,60S420,686.27,549.4,690.54s335.75,162.15,471.52,172.68,350.11-72.33,546.59-48.48Z"/></svg>