<svg xmlns="http://www.w3.org/2000/svg" viewBox="0 0 520.36 535.23"><defs><style>.cls-1{fill:#e8cb7f;}.cls-2{fill:#c1a56c;}.cls-3{fill:#5f9635;}.cls-4{fill:#608934;}.cls-5{fill:#fff;}.cls-6{fill:#702b2a;}.cls-7{fill:#917b53;}.cls-8{fill:#933b35;}.cls-9{fill:#423207;}.cls-10,.cls-11{fill:none;stroke-miterlimit:10;}.cls-10{stroke:#000;}.cls-11{stroke:#fff;stroke-width:8px;}.cls-12{fill:#061907;}.cls-13{fill:#969696;}.cls-14{fill:#e4e83f;}.cls-15{fill:#5e5a13;}.cls-16{fill:#dbdbdb;}.cls-17{fill:#c14946;}.cls-18{fill:#6d6d6d;}.cls-19{fill:#424242;}.cls-20{fill:#2b2b2b;}.cls-21{fill:#1c1c1c;}.cls-22{fill:#636363;}</style></defs><title>banner小島2</title><g id="圖層_45" data-name="圖層 45"><path class="cls-1" d="M1843,430.91s3.74,157.42-44,237c-29.15,48.58-83.46,63.08-210.89,63.08s-181.74-14.49-210.89-63.08c-47.74-79.57-44-237-44-237Z" transform="translate(-1329.23 -195.75)"/><path class="cls-2" d="M1583.75,731c127.43,0,186.12-14.49,215.27-63.08,47.74-79.57,44-237,44-237H1583.75Z" transform="translate(-1329.23 -195.75)"/><path class="cls-3" d="M1842.77,430c-5.75-11-117.55-19.75-254.65-19.75-138.89,0-251.82,9-254.82,20.18a15.25,15.25,0,0,0-4.07,10.35v28.6a15.38,15.38,0,0,0,15.33,15.33,15.2,15.2,0,0,0,8.27-2.45,19.61,19.61,0,0,0,19.21,16,19.35,19.35,0,0,0,9.71-2.62,19.59,19.59,0,0,0,17.68,11.3h0A19.6,19.6,0,0,0,1419,487.45V458.62a11,11,0,0,0,8.41,3.94h11.48a11,11,0,0,0,9-4.73v20.94A19.51,19.51,0,0,0,1482.68,491v2.85a10.09,10.09,0,0,0,18.71,5.25,19.48,19.48,0,0,0,31.78,5.79,19.54,19.54,0,0,0,38.22-5.72v-8.58a19.5,19.5,0,0,0,36.41-3.45,13.08,13.08,0,0,0,7.32,2.23,13.22,13.22,0,0,0,13.18-13.18V461.53a10.9,10.9,0,0,0,5.82,1.69h44.61a10.9,10.9,0,0,0,5.74-1.64v6.77a24.64,24.64,0,0,0,46.45,11.49v7.07a19.52,19.52,0,0,0,36.3,10v14.53a12.73,12.73,0,0,0,25.45,0V497.93a19.47,19.47,0,0,0,34.12,1.79,13.15,13.15,0,0,0,22.79-9V441.55A13.21,13.21,0,0,0,1842.77,430Zm-50.11,13.2.73-.08c-.25.43-.49.86-.71,1.31v-.82C1792.68,443.5,1792.66,443.37,1792.66,443.23Z" transform="translate(-1329.23 -195.75)"/><path class="cls-4" d="M1842.77,430c-5.75-11-117.55-19.75-254.64-19.75h-4.38v90.57a19.31,19.31,0,0,0,5.21.72,19.6,19.6,0,0,0,18.85-14.49,13.08,13.08,0,0,0,7.32,2.23,13.22,13.22,0,0,0,13.18-13.18V461.53a10.9,10.9,0,0,0,5.82,1.69h44.61a10.9,10.9,0,0,0,5.74-1.64v6.77a24.64,24.64,0,0,0,46.45,11.49v7.07a19.52,19.52,0,0,0,36.3,10v14.53a12.73,12.73,0,0,0,25.45,0V497.93a19.47,19.47,0,0,0,34.12,1.79,13.15,13.15,0,0,0,22.79-9V441.55A13.21,13.21,0,0,0,1842.77,430Zm-50.09,14.43v-.82c0-.14,0-.27,0-.41l.73-.08C1793.13,443.58,1792.89,444,1792.68,444.46Z" transform="translate(-1329.23 -195.75)"/><rect class="cls-3" x="62.36" y="316.82" width="21.66" height="21.66" rx="10.83" ry="10.83"/><rect class="cls-4" x="439.89" y="351.69" width="21.66" height="21.66" rx="10.83" ry="10.83"/><rect class="cls-3" x="205.43" y="351.69" width="34.39" height="34.39" rx="17.2" ry="17.2"/></g><g id="圖層_16" data-name="圖層 16"><polygon class="cls-5" points="424.18 236.79 419.18 236.79 420.18 62.72 423.18 62.72 424.18 236.79"/><path class="cls-5" d="M1788.18,210.76s-33.21,31.88-38.37,49C1766.11,258.82,1788.18,210.76,1788.18,210.76Z" transform="translate(-1329.23 -195.75)"/><path class="cls-5" d="M1690.72,250.63s44.21,12.82,61.66,8.71C1743.37,245.72,1690.72,250.63,1690.72,250.63Z" transform="translate(-1329.23 -195.75)"/><path class="cls-5" d="M1773.91,315.07s-11-44.7-23.29-57.75C1743.33,271.93,1773.91,315.07,1773.91,315.07Z" transform="translate(-1329.23 -195.75)"/><polygon class="cls-5" points="338.65 221.78 333.65 221.78 334.65 47.71 337.65 47.71 338.65 221.78"/><path class="cls-5" d="M1702.66,195.75s-33.21,31.88-38.37,49C1680.59,243.81,1702.66,195.75,1702.66,195.75Z" transform="translate(-1329.23 -195.75)"/><path class="cls-5" d="M1605.2,235.62s44.21,12.82,61.66,8.71C1657.85,230.71,1605.2,235.62,1605.2,235.62Z" transform="translate(-1329.23 -195.75)"/><path class="cls-5" d="M1688.39,300.06s-11-44.7-23.29-57.75C1657.8,256.92,1688.39,300.06,1688.39,300.06Z" transform="translate(-1329.23 -195.75)"/></g><g id="小島"><path class="cls-6" d="M1534.58,308.68s50.17,18.71,103.25,0C1594.45,328.72,1570.19,327.11,1534.58,308.68Z" transform="translate(-1329.23 -195.75)"/><path class="cls-7" d="M1555.37,316.12s-3,31.13-43.52,33.27c34.16,9.83,129.46,1.71,129.46,1.71S1619.64,330,1620.5,315.9C1578.6,321,1555.37,316.12,1555.37,316.12Z" transform="translate(-1329.23 -195.75)"/><polygon class="cls-8" points="135.14 224.11 288.31 224.11 277.64 155.89 155.31 155.89 135.14 224.11"/><path class="cls-8" d="M1592.31,315.9s9.84,5.66,21.26,3c0,8.37,10.66,28.56,23.46,30.73-15.06,2.67-23.9,2-23.9,2S1592.47,331.32,1592.31,315.9Z" transform="translate(-1329.23 -195.75)"/><polygon class="cls-6" points="288.31 224.11 324.92 221.39 303.93 154.25 277.64 155.89 288.31 224.11"/><path class="cls-2" d="M1516.15,314.41s-3.55,36.4-50.9,38.9c40,11.5,151.4,2,151.4,2s-25.33-24.66-24.33-41.16C1543.32,320.14,1516.15,314.41,1516.15,314.41Z" transform="translate(-1329.23 -195.75)"/><path class="cls-8" d="M1493.37,304.12s60.33,22.5,124.17,0C1565.38,328.21,1536.2,326.28,1493.37,304.12Z" transform="translate(-1329.23 -195.75)"/><polygon class="cls-9" points="196.09 180.56 223.09 180.56 227.75 224.11 181.75 224.11 196.09 180.56"/><line class="cls-10" x1="202.12" y1="224.11" x2="208.95" y2="180.56"/></g><g id="砲台"><ellipse class="cls-11" cx="402.14" cy="225.84" rx="22.42" ry="1.96"/><path class="cls-12" d="M1740.49,374.43s15.88,53.92-9.14,53.92-9.14-53.92-9.14-53.92Z" transform="translate(-1329.23 -195.75)"/><path class="cls-13" d="M1722.21,374.43s3.4-13.39,9.14-18.9c6.11,6,9.14,18.9,9.14,18.9Z" transform="translate(-1329.23 -195.75)"/><path class="cls-14" d="M1744.92,414s-4.05,3-13.57,3c-9.22,0-13.57-3-13.57-3a33.07,33.07,0,0,1-.54-7.85s4.47,2.91,14.11,2.91c9.95,0,14.11-2.91,14.11-2.91A26.74,26.74,0,0,1,1744.92,414Z" transform="translate(-1329.23 -195.75)"/><ellipse class="cls-11" cx="402.18" cy="234.56" rx="29.42" ry="1.96"/><ellipse class="cls-11" cx="402.18" cy="229.8" rx="26.06" ry="1.96"/><path class="cls-11" d="M1753.8,421.59c0,1.08-10,2-22.42,2s-22.42-.88-22.42-2" transform="translate(-1329.23 -195.75)"/><path class="cls-15" d="M1730.92,378.06c.09.06.14.12.14.16s0,0,0,0l-.08.11a3.1,3.1,0,0,1-.41.48,1.73,1.73,0,0,1-.37.27.54.54,0,0,1-.19.08h0l0,0a3.1,3.1,0,0,0,.39-.36,2.59,2.59,0,0,0,.32-.44.55.55,0,0,0,.09-.28s0-.07,0-.07Zm.1-.71.08,0a.49.49,0,0,1,.37.27,5.27,5.27,0,0,0,.57.87,2.06,2.06,0,0,0,.49.37l.33.17.12.07a0,0,0,0,1,0,0l-.53,0h-.13a.34.34,0,0,1-.17-.14,12.14,12.14,0,0,1-.78-1.34.45.45,0,0,0-.31-.21c-.05,0-.08,0-.08-.09a0,0,0,0,1,0,0Z" transform="translate(-1329.23 -195.75)"/><path class="cls-15" d="M1732.81,382.15c.09.05.14.11.14.15s0,.06-.11.06h-.57q-.36,0-.88,0a7.14,7.14,0,0,0-.88.11l-.18,0a.42.42,0,0,1-.2-.09c-.08,0-.12-.09-.12-.11s0,0,.08,0a5.18,5.18,0,0,0,.6,0l1-.09.58,0,.36,0A.67.67,0,0,1,1732.81,382.15Zm-.72-1.23c.06,0,.08.06.08.09s0,0-.08,0l-.42.08q-.5.07-.65.07a.57.57,0,0,1-.26,0s-.07-.06-.07-.09,0,0,.12,0l.62-.09.38-.08.07,0A.49.49,0,0,1,1732.09,380.93Z" transform="translate(-1329.23 -195.75)"/><path class="cls-15" d="M1732.73,385.71c.1.05.15.1.15.15s-.07.06-.21.06h-.57l-.84,0a5.47,5.47,0,0,0-.79.1l-.15,0a.57.57,0,0,1-.2-.06c-.09,0-.14-.07-.14-.1s0,0,.09-.05a4.79,4.79,0,0,0,.69,0l.91-.07c.31,0,.55-.05.72-.08l.13,0Zm-.59-1.69s.07,0,.07.08,0,0-.1.06a3.87,3.87,0,0,1-.5.1,7.66,7.66,0,0,1-.77.08.5.5,0,0,1-.23,0s-.07-.06-.07-.08,0,0,.14,0,.47-.05.74-.1l.45-.1.08,0A.43.43,0,0,1,1732.14,384Zm-.1.9s.07,0,.07.08,0,0-.08,0l-.41.07-.62.06a.5.5,0,0,1-.23,0s-.07-.06-.07-.08,0,0,.12,0l.6-.08.37-.07.07,0A.43.43,0,0,1,1732,384.92Z" transform="translate(-1329.23 -195.75)"/><path class="cls-15" d="M1730.59,387.06l.11.05c.06,0,.08.06.08.09a.18.18,0,0,1,0,.07,1.32,1.32,0,0,0,0,.25V388a3.51,3.51,0,0,1-.07.64,1.63,1.63,0,0,1-.16.47,1,1,0,0,1-.27.33.65.65,0,0,1-.23.13s0,0,0,0a2.23,2.23,0,0,0,.33-.43,1.6,1.6,0,0,0,.17-.51,2.73,2.73,0,0,0,.07-.64v-.26a2.5,2.5,0,0,0,0-.37.55.55,0,0,0,0-.16.19.19,0,0,1,0-.07s0-.05.06-.05Zm-.39,1a.36.36,0,0,1,.14.12.32.32,0,0,1,0,.14c0,.09,0,.13-.12.13s-.09-.06-.15-.18a.84.84,0,0,1-.11-.24s0,0,0,0A.38.38,0,0,1,1730.21,388Zm.44.74.18.07a.46.46,0,0,1,.15.11.19.19,0,0,1,0,.1.25.25,0,0,1,0,.09.07.07,0,0,1-.06,0l0,0a.6.6,0,0,1-.12-.14l-.15-.18s0,0,0-.05,0,0,0,0Zm.33-1.21a.27.27,0,0,1,.12.07c.05,0,.08.08.08.11a.08.08,0,0,1,0,.07l-.19.12a.77.77,0,0,1-.23.15s0,0,0,0v0a1.13,1.13,0,0,0,.14-.2,1.43,1.43,0,0,0,.1-.25S1731,387.56,1731,387.56Zm.23.68.06,0c.05,0,.08.06.08.09a.43.43,0,0,1,0,.11,3.32,3.32,0,0,0,0,.67.32.32,0,0,0,.07.23.4.4,0,0,0,.21.1,1.92,1.92,0,0,0,.34,0,1.61,1.61,0,0,0,.39,0,.46.46,0,0,0,.3-.17.43.43,0,0,0,.06-.19l0-.21s0,0,0,0,0,0,0,0l0,.2a.9.9,0,0,0,.08.2.13.13,0,0,1,0,.07.19.19,0,0,1-.07.12.89.89,0,0,1-.34.16,1.85,1.85,0,0,1-.48.05,1.43,1.43,0,0,1-.44-.05.86.86,0,0,1-.25-.12.42.42,0,0,1-.15-.18.66.66,0,0,1,0-.22l0-.71a.53.53,0,0,0,0-.1.19.19,0,0,1,0-.06s0,0,0,0Zm.5-1.22c.09.06.13.11.13.15a.08.08,0,0,1,0,0l-.05.11a3.25,3.25,0,0,1-.25.48,1.29,1.29,0,0,1-.23.27c-.06.05-.1.08-.11.08h0l0,0a2.82,2.82,0,0,0,.2-.36,3.13,3.13,0,0,0,.16-.43.93.93,0,0,0,0-.28s0-.06,0-.06Zm0,1.14.12.06s.05,0,.05.07a.11.11,0,0,1,0,.08.57.57,0,0,0-.08.16l-.07.22a.07.07,0,0,1-.07,0s-.07,0-.07,0a.41.41,0,0,1,0-.06c0-.08,0-.14,0-.2a1.13,1.13,0,0,0,0-.15s0,0,0,0l-.11,0-.18,0a.11.11,0,0,1-.07,0l0,0s0,0,0,0l.22,0,.18-.07.05,0Zm-.08.52.08,0s.06,0,.06.07,0,0,0,0l-.14,0-.2,0h-.09a.14.14,0,0,1-.09,0,.07.07,0,0,1,0,0s0,0,0,0a1,1,0,0,0,.27-.07l.09,0Zm.82-1c.07,0,.1.09.1.13a.13.13,0,0,1,0,.06.75.75,0,0,0-.06.24,5,5,0,0,1-.09.56.57.57,0,0,1-.16.3.18.18,0,0,1-.1,0v-.27s0,0,.05-.05a1.53,1.53,0,0,0,.1-.41,2.78,2.78,0,0,0,0-.39c0-.06,0-.09-.1-.09l-.2,0-.31.11h-.06a.25.25,0,0,1-.13,0s-.07-.05-.07-.07,0,0,.06,0a2,2,0,0,0,.38-.07,2.27,2.27,0,0,0,.42-.12h0Zm-.35,1.06V389s0,0-.07-.07a1.64,1.64,0,0,0-.18-.25h0Z" transform="translate(-1329.23 -195.75)"/><path class="cls-15" d="M1731.39,392.15l.12,0s.05,0,.05.07,0,0-.08,0a8.19,8.19,0,0,0-1.11.17l-.18,0-.16,0c-.05,0-.08-.06-.08-.08s0,0,.07,0l1.13-.16Zm-1.23-1.49,0,0c.06,0,.09,0,.09.08a.48.48,0,0,0,0,.06,2.12,2.12,0,0,1,0,.28.16.16,0,0,1,0,.07s0,0,0,0,0,0,0,0a.18.18,0,0,1,0-.1l0-.13a.66.66,0,0,0,0-.14.15.15,0,0,0-.06-.08h0s0,0,0,0Zm.47-.1.11.05s0,0,0,.07a.08.08,0,0,1,0,.05.44.44,0,0,0,0,.11l0,.15a.07.07,0,0,1-.07,0s-.07,0-.07,0v0s0-.09,0-.13,0-.07,0-.1,0,0,0,0l-.1,0-.16,0-.07,0,0,0s0,0,0,0l.19,0,.16-.07,0,0Zm-.32.74.05,0c.08,0,.11.06.11.09a.62.62,0,0,0,0,.1,3.26,3.26,0,0,1,.05.45.19.19,0,0,1,0,.09s0,0,0,0,0,0-.05,0a.23.23,0,0,1,0-.12l0-.21a1.07,1.07,0,0,0,0-.23.23.23,0,0,0-.08-.12l0,0s0,0,0,0Zm.3-.36.06,0s0,0,0,.05,0,0,0,0l-.12,0-.17,0h-.07a.11.11,0,0,1-.08,0,.06.06,0,0,1,0,0s0,0,0,0a.79.79,0,0,0,.23-.07l.08,0Zm.67.19.14.07c.07,0,.1.08.1.11a.08.08,0,0,1,0,0,.38.38,0,0,0-.05.15l-.1.4c0,.06-.05.09-.1.09s0,0-.07-.1v0a1.71,1.71,0,0,0,0-.26,2,2,0,0,0,0-.24s0-.06,0-.06l-.42.07a1.66,1.66,0,0,1-.39,0c-.06,0-.09,0-.09-.08a2.7,2.7,0,0,0,.78-.14l.17,0Zm-.14.69.08,0s.06,0,.06.07,0,0,0,0l-.23,0-.32,0h-.13a.14.14,0,0,1-.1,0,.07.07,0,0,1,0,0s0,0,0,0a2.6,2.6,0,0,0,.46-.08l.16,0Zm0-.31q.08,0,.08,0s0,0-.1.05H1731l-.24,0h-.25s-.06,0-.06,0,0,0,.1,0l.42-.07h.07Zm-.4-.23h.16v.16c0,.3,0,.56,0,.8s0,.38,0,.49v.11a.52.52,0,0,1,0,.14c0,.08-.05.12-.07.12s0,0-.07-.11a.54.54,0,0,1,0-.15s0-.06,0-.1,0-.22,0-.34,0-.55,0-.91C1730.79,391.44,1730.79,391.37,1730.78,391.29Zm.13-.73,0,0c.06,0,.09,0,.09.08s0,0,0,.06,0,.21,0,.26a.16.16,0,0,1,0,.07s0,0,0,0,0,0,0,0a.17.17,0,0,1,0-.1l0-.12a.58.58,0,0,0,0-.13.13.13,0,0,0-.05-.07h0s0,0,0,0Zm.47-.09.11.05s0,0,0,.07a.07.07,0,0,1,0,0,.36.36,0,0,0-.06.1l-.05.14a.07.07,0,0,1-.07,0s-.07,0-.07,0v0l0-.12s0-.07,0-.09,0,0,0,0l-.09,0-.14,0a.1.1,0,0,1-.06,0l0,0s0,0,0,0l.18,0,.15-.06,0,0Zm0,.37.06,0s0,0,0,.05,0,0,0,0l-.12,0-.17,0h-.07l-.08,0a.06.06,0,0,1,0,0s0,0,0,0a.89.89,0,0,0,.23-.06l.08,0Zm1.22.79c.06,0,.09.07.09.12a.09.09,0,0,1,0,0l-.14.18a2.3,2.3,0,0,1-.37.55,1.47,1.47,0,0,1-.58.41.66.66,0,0,1-.21.07,0,0,0,0,1,0,0,3.53,3.53,0,0,0,.59-.48,2.1,2.1,0,0,0,.35-.48.7.7,0,0,0,.1-.34l0-.09s0,0,0,0A.38.38,0,0,1,1732.56,391.63Zm-.12-.38a0,0,0,0,1,0,0s0,0-.06.07a4.21,4.21,0,0,1-.62.2l-.19,0c-.06,0-.09,0-.09,0l0,0,.67-.24a.29.29,0,0,1,.13,0Zm-.72-.91.12.06c.07,0,.11.08.11.13l0,.09a1.06,1.06,0,0,0,0,.3,3.45,3.45,0,0,0,.13.88,2.44,2.44,0,0,0,.37.73c.13.15.21.23.26.23s0,0,.06-.08l.06-.16s0,0,0,0,0,0,0,.06a1.7,1.7,0,0,0,0,.39.46.46,0,0,1,0,.15c0,.06,0,.09-.06.09a.6.6,0,0,1-.35-.21,1.85,1.85,0,0,1-.49-.73,6.24,6.24,0,0,1-.3-1.5.52.52,0,0,0-.05-.23l0-.08s0-.06.08-.06Zm.47.31.18.06a.45.45,0,0,1,.15.1.15.15,0,0,1,0,.09.23.23,0,0,1,0,.09.07.07,0,0,1-.06,0l0,0a.51.51,0,0,1-.12-.13l-.15-.16s0,0,0,0,0,0,0,0Z" transform="translate(-1329.23 -195.75)"/><path class="cls-15" d="M1730.25,394l.1,0s.07.05.07.08a.19.19,0,0,1,0,.06,1.41,1.41,0,0,0,0,.22v.42a4.12,4.12,0,0,1,0,.58,1.87,1.87,0,0,1-.11.42.91.91,0,0,1-.19.29c-.08.08-.13.12-.15.12s0,0,0,0a2.09,2.09,0,0,0,.21-.38,1.87,1.87,0,0,0,.11-.46,3.47,3.47,0,0,0,0-.57v-.23a2.11,2.11,0,0,0,0-.33.45.45,0,0,0,0-.14l0-.06s0,0,.05,0Zm.67,0s.06,0,.06.07a.19.19,0,0,1,0,.07,1.11,1.11,0,0,0,0,.26v1.53a.62.62,0,0,1-.08.33q-.06.11-.13.11l-.06-.31s0-.05.07-.16,0-.7,0-1.49a1.35,1.35,0,0,0,0-.26,0,0,0,0,0,0,0l-.18,0-.2,0-.09,0,0,0s0,0,.07,0a2.08,2.08,0,0,0,.43-.12l.09,0Zm-.17,1.15a0,0,0,0,1,0,0s0,0-.07.07l-.3,0h-.09q-.1,0-.1-.05l0,0,.31-.08h.16Zm0-.51a0,0,0,0,1,0,0s0,0-.07.07l-.27,0h-.08c-.06,0-.1,0-.1-.05l0,0,.28-.08h.15Zm-.21,1.38.15.05.06.31s0,0-.06-.06a2.43,2.43,0,0,0-.18-.24s0,0,0-.05,0,0,0,0Zm1.25-2.34q.09.05.09.09a.19.19,0,0,1,0,.06,1.73,1.73,0,0,0,0,.2,6.38,6.38,0,0,1-.13.66,2,2,0,0,1-.26.54.81.81,0,0,1-.36.31l-.11,0s0,0,0,0,0,0,0-.05a2.15,2.15,0,0,0,.32-.36,1.79,1.79,0,0,0,.18-.38,3,3,0,0,0,.12-.46,3.09,3.09,0,0,0,0-.45.55.55,0,0,0,0-.15v0a.06.06,0,0,1,.06,0A.33.33,0,0,1,1731.77,393.64Zm.57,1c.07,0,.11.08.11.1s0,0-.1,0l-.58,0-.49.08h-.07a.28.28,0,0,1-.14,0c-.05,0-.08,0-.08-.06l.06,0,1-.16.17,0Zm-.57.45s.07.06.07.09a.1.1,0,0,1,0,0l-.09.16a2.23,2.23,0,0,1-.23.49,1,1,0,0,1-.36.36.33.33,0,0,1-.13.07h0a2.49,2.49,0,0,0,.34-.42,2,2,0,0,0,.2-.42.9.9,0,0,0,.06-.3l0-.07s0,0,0,0A.3.3,0,0,1,1731.76,395.13Zm-.52-1.09.15.06a.13.13,0,0,1,0,.1c0,.08,0,.11-.09.11l-.05,0a1.07,1.07,0,0,1-.15-.21v0s0,0,0,0Zm.95,1.39c.07,0,.1.08.1.11s0,0,0,0a.44.44,0,0,0-.07.18,2.51,2.51,0,0,1-.1.42.42.42,0,0,1-.18.22l-.11,0v-.28a.08.08,0,0,0,.07,0,.65.65,0,0,0,.13-.27,1,1,0,0,0,0-.26s0-.07-.1-.07l-.21,0-.33.09h-.06a.21.21,0,0,1-.11,0s-.06,0-.06-.06l.05,0a2.53,2.53,0,0,0,.39-.06,2.73,2.73,0,0,0,.43-.1h0Zm-.09-1.1c.05,0,.08,0,.08,0s0,0-.1.05l-.19,0-.35.07-.22,0h-.1s-.06,0-.06,0,0,0,.1,0a6.36,6.36,0,0,0,.63-.13l.1,0Zm-.31,1.83v.28s0,0-.07-.07a1.62,1.62,0,0,0-.18-.25h0Zm.24-1.28a3,3,0,0,0,.45.3,3.88,3.88,0,0,0,.48.17l0,0s0,0,0,0a1.55,1.55,0,0,1-.34.07.28.28,0,0,1-.12,0,3.36,3.36,0,0,1-.38-.35l-.18-.17a.6.6,0,0,0-.16-.09s0,0,0,0,0,0,.07,0A.48.48,0,0,1,1732,394.88Zm.15-1a.35.35,0,0,1,.14.07c.08.06.11.1.11.12s0,0,0,0l-.41.16h0s0,0,0,0v0l.13-.16a.72.72,0,0,0,.09-.17S1732.17,393.84,1732.18,393.84Z" transform="translate(-1329.23 -195.75)"/><path class="cls-15" d="M1731,398.06a.23.23,0,0,1,0,.09.21.21,0,0,1,0,.1,2.72,2.72,0,0,1-.48.64,1.45,1.45,0,0,1-.37.27.31.31,0,0,1-.15.05s0,0,0,0a2.67,2.67,0,0,0,.5-.47,2.74,2.74,0,0,0,.44-.7l0,0S1730.95,398,1731,398.06Zm.45-.2.13,0s.06.05.06.08,0,0-.08,0a7.69,7.69,0,0,0-1.11.19l-.18,0a.49.49,0,0,1-.17,0c-.06,0-.08-.06-.08-.09s0,0,.07,0q.35,0,1.13-.17Zm-.12-.71q.09.06.09.09s0,.06-.08.08a3.23,3.23,0,0,0-.52.19,1.06,1.06,0,0,1-.33.09c-.05,0-.08,0-.08,0l.06,0a2.39,2.39,0,0,0,.37-.21,1.51,1.51,0,0,0,.29-.25l0,0A.28.28,0,0,1,1731.29,397.14Zm-.37.26.12.07c.06,0,.09.08.09.12v0a1.27,1.27,0,0,0,0,.26q0,.45,0,.67v.85a.38.38,0,0,1,0,.17s0,.08-.07.08,0,0-.06-.08a.55.55,0,0,1-.06-.2.45.45,0,0,1,0-.12,2,2,0,0,0,.05-.35,7.45,7.45,0,0,0,0-.87,2.27,2.27,0,0,0,0-.4.36.36,0,0,0,0-.13l0-.05a0,0,0,0,1,.06-.06Zm.21.9a.89.89,0,0,1,.25.11.24.24,0,0,1,.07.18c0,.07,0,.1-.09.1a.16.16,0,0,1-.1,0,1.71,1.71,0,0,1-.27-.31l0,0s0,0,0,0Zm.86-.68c.06,0,.09.06.09.1a1.78,1.78,0,0,0,0,.2q0,.34,0,.6a.41.41,0,0,1,0,.16c0,.06,0,.09-.07.09s0,0-.08-.09a.54.54,0,0,1-.05-.19l0,0a.66.66,0,0,0,0-.17c0-.07,0-.15,0-.24a1,1,0,0,0,0-.33.16.16,0,0,1,0-.06s0-.05,0-.05A.25.25,0,0,1,1732,397.62Zm.6-.55q.12.07.12.14l0,.07a.82.82,0,0,0-.07.28c0,.26,0,.62,0,1.06V399c0,.13,0,.25,0,.37a.48.48,0,0,1-.08.27q-.07.11-.11.11s-.07,0-.11-.08a1.85,1.85,0,0,0-.29-.31s0,0,0-.06,0,0,0,0l.28.06a.06.06,0,0,0,.07,0,1.52,1.52,0,0,0,0-.31c0-.32,0-.68,0-1.08,0-.25,0-.43,0-.56a.6.6,0,0,0,0-.2l0-.09c0-.05,0-.08.07-.08A.53.53,0,0,1,1732.6,397.06Z" transform="translate(-1329.23 -195.75)"/><path class="cls-15" d="M1730.2,402.41a.74.74,0,0,1,.23.13.33.33,0,0,1,.07.22c0,.08,0,.13-.1.13a.12.12,0,0,1-.08,0,2,2,0,0,1-.24-.37.1.1,0,0,1,0,0s0,0,0,0Zm.6-2,.12.06a.17.17,0,0,1,.07.11.24.24,0,0,1-.07.11l-.38.5a.17.17,0,0,0,0,.06s0,0,0,0h.37s.05,0,.05,0,0,0-.07,0l-.29.07-.15,0-.08,0s0,0-.07-.07a.21.21,0,0,1,0-.11s0,0,.06-.07a1.14,1.14,0,0,0,.28-.35,1.34,1.34,0,0,0,.15-.41S1730.77,400.43,1730.81,400.43Zm.3.44s.06,0,.1.08a.29.29,0,0,1,.06.12.14.14,0,0,1-.06.11l-.28.32a5,5,0,0,0-.34.4h0l.4-.15.13,0s0,0,0,0,0,.06-.11.08a2.63,2.63,0,0,0-.57.27l0,0a.13.13,0,0,1-.09,0,.22.22,0,0,1-.07-.13s0,0,0-.06a.67.67,0,0,0,.22-.22l.34-.44a.91.91,0,0,0,.15-.33S1731.07,400.87,1731.1,400.87Zm-.42,1.38.17.06a.12.12,0,0,1,0,.1q0,.12-.1.12l-.06,0a1.11,1.11,0,0,1-.16-.22v0s0,0,0,0Zm.36-.17a.64.64,0,0,1,.18.07.15.15,0,0,1,.05.12q0,.1-.08.1l-.06,0a1.21,1.21,0,0,1-.18-.23l0,0s0,0,0,0Zm0-.48a.54.54,0,0,1,.16.08.21.21,0,0,1,0,.15c0,.07,0,.1-.09.1a.08.08,0,0,1-.06,0,1.37,1.37,0,0,1-.16-.26v0s0,0,0,0Zm1.21-.77.16.08s.08.06.08.1a.12.12,0,0,1-.05.09.62.62,0,0,0-.11.18l-.09.25a.1.1,0,0,1-.1.06c-.07,0-.1,0-.1,0a.37.37,0,0,1,0-.06,2.29,2.29,0,0,0,.06-.22.91.91,0,0,0,0-.17s0,0,0,0l-.21,0-.35.06a.15.15,0,0,1-.1,0s-.06,0-.06,0,0,0,0,0a2.3,2.3,0,0,0,.37-.05,1.33,1.33,0,0,0,.3-.1l.09,0Zm-.12.67.08,0s.07.05.07.07,0,0,0,0l-.25,0-.35,0h-.15a.15.15,0,0,1-.1,0,.08.08,0,0,1,0-.05s0,0,0,0a3.14,3.14,0,0,0,.51-.08l.17,0Zm-.65.14.07,0c.06,0,.08.07.08.1a.25.25,0,0,1,0,.08,2,2,0,0,0,0,.47.23.23,0,0,0,.06.17.32.32,0,0,0,.17.08l.27,0a1.16,1.16,0,0,0,.32,0,.38.38,0,0,0,.25-.16.47.47,0,0,0,0-.18l0-.21s0,0,0,0,0,0,0,0l0,.19a.79.79,0,0,0,.09.19.12.12,0,0,1,0,.07.22.22,0,0,1-.06.13.71.71,0,0,1-.29.18,1.28,1.28,0,0,1-.41.06,1.25,1.25,0,0,1-.38,0,.76.76,0,0,1-.22-.1.37.37,0,0,1-.13-.16.58.58,0,0,1,0-.19v-.47a.58.58,0,0,0,0-.11.22.22,0,0,1,0-.06s0,0,0,0Z" transform="translate(-1329.23 -195.75)"/><path class="cls-15" d="M1731.32,403.66c.09.07.14.13.14.17a.1.1,0,0,1,0,.05l-.09.14q-.11.17-.31.44a2.43,2.43,0,0,1-.54.48,1,1,0,0,1-.4.19s0,0,0,0l0,0a3.06,3.06,0,0,0,.6-.53,2.64,2.64,0,0,0,.42-.56.52.52,0,0,0,.07-.28c0-.06,0-.09.05-.09Zm-.83,2s0,0,0,0a.42.42,0,0,1,0,.17.66.66,0,0,1-.07.28.35.35,0,0,1-.1.16.11.11,0,0,1-.08,0,.1.1,0,0,1-.09-.06.29.29,0,0,1,0-.1.33.33,0,0,1,0-.11,2.09,2.09,0,0,0,.22-.37S1730.47,405.63,1730.49,405.63Zm1.17-.81.15.08c.08,0,.12.09.12.13s0,0-.07.06a1.32,1.32,0,0,0-.28.19l-.17.13a.26.26,0,0,1-.14.07s0,0,0,0l0,0a3.71,3.71,0,0,0,.25-.35l0-.05s0,0,0,0l-.1,0-.43.12-.08,0-.11,0c-.05,0-.08-.06-.08-.07s0,0,.07,0a2.41,2.41,0,0,0,.43-.06l.34-.1.07,0Zm-.78.84a.11.11,0,0,1,0,.07.77.77,0,0,0,.14.32.62.62,0,0,0,.23.17.8.8,0,0,0,.33.07,1,1,0,0,0,.34,0s.05,0,.05,0a.85.85,0,0,0-.09-.25.16.16,0,0,1,0-.06s0,0,0,0,0,0,.06,0a1.65,1.65,0,0,0,.35.27.13.13,0,0,1,.08.12s-.06.09-.17.14a1.25,1.25,0,0,1-.46.08,1.33,1.33,0,0,1-.42-.06.75.75,0,0,1-.33-.22.87.87,0,0,1-.17-.32l-.06-.18,0-.06s0,0,0,0Zm.71-1.19q.09,0,.09.05s0,0-.11.06l-.1,0-.19,0-.12,0H1731s-.07,0-.07,0,0,0,.11,0l.33-.09h.05Zm0-.48a4.27,4.27,0,0,0,.61.51,4.63,4.63,0,0,0,.66.29s.06,0,.06,0,0,0-.06,0a2.57,2.57,0,0,1-.46.07.33.33,0,0,1-.17-.05,5.09,5.09,0,0,1-.52-.57,3.14,3.14,0,0,0-.25-.27.78.78,0,0,0-.22-.15s0,0,0,0,0,0,.07,0A.6.6,0,0,1,1731.6,404Zm-.22,1.6a.85.85,0,0,1,.22.08.16.16,0,0,1,.06.13c0,.08,0,.13-.1.13a.12.12,0,0,1-.08,0,1.36,1.36,0,0,1-.22-.26l0,0s0,0,0,0Zm.76-.17.28.1a.71.71,0,0,1,.23.15.22.22,0,0,1,0,.13.28.28,0,0,1,0,.1.08.08,0,0,1-.07,0l-.07,0a.81.81,0,0,1-.2-.18,2.19,2.19,0,0,0-.24-.23s-.06-.05-.06-.06,0,0,0,0Z" transform="translate(-1329.23 -195.75)"/><path class="cls-16" d="M1640.25,425.55s25.42-83.93,91.25-83.93,90.2,83.93,90.2,83.93h-21s-27.07-77.34-69.17-77.34-69.92,77.34-69.92,77.34Z" transform="translate(-1329.23 -195.75)"/><path class="cls-17" d="M1717.15,344.21l.12.06c.06,0,.1.06.1.1a.25.25,0,0,1,0,.08,1.83,1.83,0,0,0,0,.28v.54a5.27,5.27,0,0,1-.06.74,2.28,2.28,0,0,1-.14.53,1.17,1.17,0,0,1-.24.37c-.1.1-.17.15-.2.15s0,0,0,0a2.6,2.6,0,0,0,.26-.49,2.36,2.36,0,0,0,.14-.59,4.46,4.46,0,0,0,.05-.73V345a2.71,2.71,0,0,0,0-.42.58.58,0,0,0,0-.18.21.21,0,0,1,0-.08s0-.06.07-.06Zm.86,0c.05,0,.08.06.08.09a.24.24,0,0,1,0,.09,1.45,1.45,0,0,0-.05.34v2a.79.79,0,0,1-.11.42c-.05.09-.11.14-.16.14l-.07-.4s.06-.07.09-.2,0-.9,0-1.91a1.71,1.71,0,0,0,0-.33,0,0,0,0,0,0,0l-.23,0-.26,0a.19.19,0,0,1-.11,0s0,0,0,0,0,0,.08,0a2.71,2.71,0,0,0,.55-.15l.12,0Zm-.22,1.47a.05.05,0,0,1,0,.06s0,.06-.08.09l-.38.05h-.12c-.08,0-.12,0-.12-.07l.06,0,.4-.1h.2Zm0-.65a.05.05,0,0,1,0,.06s0,.06-.08.09l-.34.05h-.1c-.08,0-.12,0-.12-.07l.06,0,.36-.1h.19Zm-.28,1.77.2.07.07.4s0,0-.08-.08a3,3,0,0,0-.23-.31s0-.05,0-.07,0,0,0,0Zm1.61-3c.08,0,.11.08.11.11a.23.23,0,0,1,0,.08,2.35,2.35,0,0,0-.05.25,8.07,8.07,0,0,1-.17.85,2.53,2.53,0,0,1-.33.7,1,1,0,0,1-.46.4l-.14.06s0,0,0,0,0,0,.06-.07a2.88,2.88,0,0,0,.41-.46,2.43,2.43,0,0,0,.23-.49,3.92,3.92,0,0,0,.15-.59,4,4,0,0,0,.06-.57.69.69,0,0,0,0-.2.25.25,0,0,1,0-.06.07.07,0,0,1,.07-.05A.41.41,0,0,1,1719.09,343.79Zm.73,1.34c.09.06.14.1.14.13s0,0-.13,0-.46,0-.74.06l-.63.11-.09,0a.37.37,0,0,1-.17,0c-.07,0-.1-.05-.1-.08s0,0,.08,0q.79-.11,1.29-.21l.22,0Zm-.74.57c.06,0,.1.08.1.12a.13.13,0,0,1,0,.06l-.11.21a2.86,2.86,0,0,1-.3.63,1.27,1.27,0,0,1-.46.46.42.42,0,0,1-.17.08,0,0,0,0,1,0,0,3.24,3.24,0,0,0,.43-.54,2.55,2.55,0,0,0,.25-.54,1.13,1.13,0,0,0,.07-.38l0-.09s0,0,0,0A.38.38,0,0,1,1719.08,345.7Zm-.66-1.4a.72.72,0,0,1,.2.07.16.16,0,0,1,.06.13c0,.1,0,.15-.12.15a.1.1,0,0,1-.07,0,1.37,1.37,0,0,1-.19-.27l0,0s0,0,0,0Zm1.22,1.78c.09.05.13.1.13.14s0,0,0,.06a.56.56,0,0,0-.09.23,3.31,3.31,0,0,1-.13.53.54.54,0,0,1-.23.28.32.32,0,0,1-.14,0l0-.35a.11.11,0,0,0,.08,0,.83.83,0,0,0,.17-.34,1.24,1.24,0,0,0,.06-.33c0-.06,0-.09-.12-.09l-.28,0-.42.11h-.08a.26.26,0,0,1-.14-.05c-.05,0-.08-.06-.08-.08s0,0,.07,0a3.14,3.14,0,0,0,.5-.07,3.5,3.5,0,0,0,.55-.13h.06Zm-.11-1.41c.07,0,.1,0,.1.06s0,0-.12.07l-.24,0-.45.09-.28,0-.13,0c-.05,0-.08,0-.08-.06s0,0,.12-.05q.41-.06.8-.16l.13,0Zm-.4,2.35,0,.35s-.06,0-.09-.09a2.17,2.17,0,0,0-.24-.32s0,0,0,0A1.21,1.21,0,0,0,1719.12,347Zm.31-1.64a4,4,0,0,0,.57.38,4.92,4.92,0,0,0,.62.22s.06,0,.06,0,0,0-.05.05a2,2,0,0,1-.44.09.36.36,0,0,1-.16,0,4.43,4.43,0,0,1-.49-.45l-.23-.21a.74.74,0,0,0-.21-.12s0,0,0,0,0-.05.08-.05A.61.61,0,0,1,1719.43,345.38Zm.19-1.34a.44.44,0,0,1,.18.09c.1.08.15.13.15.16s0,0,0,0l-.53.2h-.06s0,0,0,0l0,0,.16-.21a.93.93,0,0,0,.12-.21S1719.61,344,1719.62,344Z" transform="translate(-1329.23 -195.75)"/><path class="cls-17" d="M1730.91,345.17a.29.29,0,0,1,0,.11.27.27,0,0,1,0,.13,3.49,3.49,0,0,1-.61.83,1.85,1.85,0,0,1-.47.35.4.4,0,0,1-.19.07s0,0,0,0a3.39,3.39,0,0,0,.65-.6,3.43,3.43,0,0,0,.56-.9s0,0,0,0S1730.88,345.11,1730.91,345.17Zm.58-.26a.43.43,0,0,1,.17,0s.07.07.07.1,0,0-.1,0a9.81,9.81,0,0,0-1.43.24l-.23,0a.62.62,0,0,1-.21-.06c-.07,0-.11-.08-.11-.11s0,0,.09,0q.45,0,1.45-.22Zm-.16-.91c.07.05.11.09.11.12s0,.08-.11.1a4.1,4.1,0,0,0-.67.24,1.35,1.35,0,0,1-.42.12c-.07,0-.1,0-.1,0s0,0,.08,0a3,3,0,0,0,.47-.26,1.93,1.93,0,0,0,.37-.32l.06,0A.35.35,0,0,1,1731.33,344Zm-.47.33.16.09c.08,0,.12.1.12.15a.17.17,0,0,1,0,.05,1.59,1.59,0,0,0-.05.33q-.05.58-.05.85v1.09a.48.48,0,0,1-.06.22c0,.06-.06.1-.09.1s0,0-.08-.1a.72.72,0,0,1-.08-.26.57.57,0,0,1,0-.15,2.39,2.39,0,0,0,.07-.44,9.14,9.14,0,0,0,.06-1.11,2.71,2.71,0,0,0,0-.51.46.46,0,0,0,0-.17l0-.06a.06.06,0,0,1,.07-.07Zm.27,1.15a1.14,1.14,0,0,1,.32.14.3.3,0,0,1,.09.23c0,.09,0,.13-.11.13a.2.2,0,0,1-.12-.05,2.17,2.17,0,0,1-.35-.4.09.09,0,0,1,0,0s0,0,0,0Zm1.1-.87c.08,0,.11.08.11.13a2.36,2.36,0,0,0,0,.25q0,.44,0,.77a.51.51,0,0,1,0,.2c0,.08-.06.12-.09.12s-.06,0-.1-.12a.7.7,0,0,1-.07-.25l0-.06a.81.81,0,0,0,.05-.21c0-.09,0-.19,0-.31a1.28,1.28,0,0,0-.05-.43.21.21,0,0,1,0-.08s0-.07,0-.07A.31.31,0,0,1,1732.22,344.61Zm.77-.71c.1.06.15.12.15.18a.31.31,0,0,1,0,.08,1,1,0,0,0-.08.36q-.05.5-.05,1.36v.49c0,.16,0,.32,0,.47a.62.62,0,0,1-.1.34c-.06.1-.1.14-.14.14s-.08,0-.13-.11a2.39,2.39,0,0,0-.37-.4s-.06-.06-.06-.07,0,0,0,0a1.92,1.92,0,0,0,.36.08.08.08,0,0,0,.08-.06,2,2,0,0,0,.06-.4q0-.62,0-1.38c0-.32,0-.56,0-.71a.75.75,0,0,0-.06-.25l0-.12c0-.06,0-.1.09-.1A.68.68,0,0,1,1733,343.9Z" transform="translate(-1329.23 -195.75)"/><path class="cls-17" d="M1743.2,344.19a.17.17,0,0,1,.07.15,22.81,22.81,0,0,1-.13,2.6c0,.12-.06.17-.12.17s-.07,0-.11-.1a.5.5,0,0,1-.07-.25.34.34,0,0,1,0-.16,2.57,2.57,0,0,0,.13-.58,9.48,9.48,0,0,0,.05-1.22,1.23,1.23,0,0,0-.08-.53.21.21,0,0,1,0-.08s0-.05.08-.05A.35.35,0,0,1,1743.2,344.19Zm.7-.19.17.09c.08.06.13.1.13.14a.16.16,0,0,1,0,.07.68.68,0,0,0-.08.24l-.15.66c0,.08-.07.11-.13.11s-.06,0-.09-.12a.36.36,0,0,1,0-.07,2.67,2.67,0,0,0,.07-.43,3.39,3.39,0,0,0,0-.41c0-.05,0-.08-.06-.08l-.33,0a1.44,1.44,0,0,1-.3,0c-.07,0-.11,0-.11-.11a2.16,2.16,0,0,0,.67-.13l.15,0Zm-.11.59c.07,0,.1,0,.1.06s0,0-.12.07h-.11l-.21,0h-.13l-.13,0c-.05,0-.08,0-.08-.06s0,0,.12-.05l.36-.08h.06Zm-.07.48.1,0c.05,0,.08.06.08.09s0,0,0,0l-.2,0-.28,0-.12,0a.17.17,0,0,1-.12,0,.09.09,0,0,1,0-.06s0,0,.05,0a1.63,1.63,0,0,0,.38-.09l.13,0Zm1-1.09c.06,0,.09.05.09.08v1a.29.29,0,0,1,0,.12s0,.06-.06.06,0,0-.07-.08a.23.23,0,0,1,0-.1.54.54,0,0,1,0-.07c0-.06,0-.11,0-.16s0-.33,0-.5a1.11,1.11,0,0,0-.05-.26.17.17,0,0,1,0-.06s0-.05,0-.05Zm1-.06c.08.05.12.09.12.13a.18.18,0,0,1,0,.09,1.41,1.41,0,0,0-.06.49q0,1,0,1.42t0,.79a1,1,0,0,1-.08.44c-.06.11-.12.17-.17.17l-.12-.43s.05,0,.07-.1a11.6,11.6,0,0,0,0-1.33q0-.5,0-1.32a.62.62,0,0,0,0-.18.09.09,0,0,0-.07,0l-.2,0-.38.07-.07,0a.18.18,0,0,1-.1,0s0-.05,0-.07,0,0,0,0l.49-.07.3-.09.08,0A.65.65,0,0,1,1745.76,343.91Zm-.26,1,.11.05c.05,0,.08.07.08.09s0,0,0,0l-.25,0-.36.06-.15,0a.19.19,0,0,1-.13,0,.1.1,0,0,1,0-.07s0,0,.06,0a2.44,2.44,0,0,0,.5-.1l.17,0Zm-.06-.45c.07,0,.1,0,.1.06s0,0-.12.07h-.12l-.22,0H1745l-.13,0c-.05,0-.08,0-.08-.06s0,0,.12-.05l.37-.08h.06Zm-.33,2.53.33.06.12.43s-.06,0-.09-.06-.26-.25-.38-.35L1745,347a0,0,0,0,1,0,0Z" transform="translate(-1329.23 -195.75)"/><path d="M1649.92,404.51h-37.63a4.52,4.52,0,0,0-4.58,5l1.44,16.43a5.58,5.58,0,0,0,5.45,5h42.61V404.51Z" transform="translate(-1329.23 -195.75)"/><path class="cls-18" d="M1584.26,379.26s30.4,15.93,47.46,21.06,21.51,14,16,23.8-15.38,10.63-28.66-1.24-42.74-29.49-42.74-29.49" transform="translate(-1329.23 -195.75)"/><ellipse class="cls-19" cx="1580.3" cy="386.32" rx="8.2" ry="1.51" transform="translate(-858.54 1380.25) rotate(-60.73)"/><ellipse class="cls-20" cx="1580.27" cy="386.3" rx="7.06" ry="1.3" transform="translate(-858.54 1380.22) rotate(-60.73)"/><path class="cls-20" d="M1649.38,416.29h-37.63a4.52,4.52,0,0,0-4.58,5l1.44,16.43a5.58,5.58,0,0,0,5.45,5h42.61V416.29Z" transform="translate(-1329.23 -195.75)"/><polygon class="cls-20" points="327.99 235.21 327.45 246.99 284.83 246.99 288.37 235.47 327.99 235.21"/><polygon class="cls-21" points="327.99 208.76 327.45 220.53 327.45 246.99 327.99 235.21 327.99 208.76"/><path class="cls-22" d="M1657.22,404.51l-.54,11.78h-19.93s7.64-5.5,4.93-11.78Z" transform="translate(-1329.23 -195.75)"/></g></svg>