<svg xmlns="http://www.w3.org/2000/svg" viewBox="0 0 936.6 616.56"><title>banner_Logotype</title><rect x="146.89" y="11.1" width="227.28" height="16.07"/><path d="M202,27.17H256s-22.17,48-29.85,65.93c0,0-29.49,64.6-79.21,53.45Z"/><rect x="241.17" y="87.51" width="133" height="16.07"/><path d="M311.32,101.21,239.58,260.77S277,266.23,294.1,247c18.36-20.66,42.48-64.28,74-145.78Z"/><rect x="112.9" y="245.41" width="295.27" height="16.07"/><path d="M248.81,181.35c-7.9-2.73-15-5.87-22.37-7.54-9.54-2.16-13.06-8.35-13.61-17.09-.71-11.39,6.4-22.1,16.37-25.14,9-2.74,15.54.91,20.5,8.15C258.61,152.76,257.7,171.19,248.81,181.35Z"/><path d="M230,208.12c-7.22,4.21-14.21,7.51-20.32,12-7.87,5.81-14.85,4.44-21.83-.86-9.08-6.9-12.55-19.27-8.34-28.81,3.81-8.62,10.83-11.17,19.56-10.2C214.8,182,228.16,194.76,230,208.12Z"/><rect x="489.96" y="36.41" width="251.37" height="16.07"/><rect x="595.06" width="41.18" height="131.44"/><rect x="516.44" y="129.9" width="41.18" height="151.75"/><rect x="671.54" y="129.9" width="41.18" height="151.75"/><rect x="531.14" y="129.9" width="169.02" height="8.04"/><rect x="516.44" y="245.41" width="127.06" height="16.07"/><rect x="128.65" y="368.33" width="143.66" height="16.07"/><rect x="179.89" y="347.99" width="41.18" height="59.38"/><rect x="138.71" y="405.81" width="41.18" height="117.04"/><rect x="221.07" y="405.81" width="41.18" height="117.04"/><rect x="128.65" y="529.34" width="143.66" height="16.07"/><rect x="157.15" y="464.74" width="91.22" height="8.04"/><rect x="157.15" y="435.62" width="91.22" height="8.04"/><rect x="157.15" y="493.85" width="91.22" height="8.04"/><path d="M142.22,613.56c16.2-26.5,22.06-53.94,18.31-84.22h37.85C207.05,566.59,180.29,607.64,142.22,613.56Z"/><path d="M256.1,608.83c-7.9-2.72-15-5.86-22.37-7.54-9.54-2.16-13.06-8.34-13.61-17.09-.71-11.38,6.4-22.09,16.37-25.13,9-2.75,15.54.9,20.5,8.15C265.9,580.24,265,598.68,256.1,608.83Z"/><rect x="12.51" y="351.53" width="92.51" height="8.04"/><rect x="17.07" y="460.72" width="91.97" height="16.07"/><path d="M24.7,358.44,0,432s20.65,2.64,33.1-7.16,31.07-65.91,31.07-65.91Z"/><path d="M64.17,358.94s6,68.36,64.48,75.34c0,0-23.46-31.09-23.55-74.71Z"/><rect x="47.66" y="398.31" width="31.53" height="185.19"/><path d="M88.89,511v44.52c15.81,1.77,26.82-16.12,27.51-44.52Z"/><path d="M40.65,511H14.4s-4.28,44.89,19.4,78.7H50.07S38.66,555.29,40.65,511Z"/><path d="M0,587.87v21.46s66.53-8,92.74-24.41c23.66-14.78,28.67-25.72,28.67-25.72S59.93,579.2,0,587.87Z"/><rect x="373.97" y="355.84" width="219.3" height="16.07"/><path d="M374,371.91s1.16,182.44-27.61,244.65c0,0,28.26-4.58,38.79-23.73,16.44-38,22.9-111.54,27.93-220.92Z"/><path d="M592.55,391.35s-.78,168.91,21.29,225.21c0,0-48.87-14.07-51.24-225.21Z"/><rect x="438.7" y="394.16" width="98.33" height="16.07"/><rect x="427.53" y="457.68" width="29.07" height="63.04"/><rect x="519.14" y="457.68" width="29.07" height="63.04"/><rect x="407.67" y="597.42" width="111.48" height="16.07"/><path d="M533.68,570.75c.48,8.35,1.59,16,1.2,23.58-.51,9.77,4.5,14.83,12.76,17.73,10.77,3.77,23-.17,28.63-8.95,5.08-7.93,3.34-15.2-2.3-21.93C563.85,569.06,545.86,565,533.68,570.75Z"/><rect x="467.59" y="406.03" width="41.18" height="195.89"/><rect x="671.54" y="427.75" width="265.06" height="16.6"/><rect x="704.53" y="377.9" width="148.4" height="16.6"/><rect x="737.58" y="480.22" width="43.42" height="135.77"/><rect x="850.58" y="480.22" width="43.42" height="135.77"/><rect x="737.58" y="480.22" width="146.05" height="8.3"/><rect x="737.55" y="582.32" width="94.95" height="16.6"/><rect x="737.55" y="527.12" width="94.95" height="16.6"/><rect x="776.36" y="347.99" width="43.42" height="96.35"/><path d="M891.85,368.77S753,484.72,662.14,513.05c0,0,67.76,34.25,269.72-144.28Z"/></svg>