<svg xmlns="http://www.w3.org/2000/svg" xmlns:xlink="http://www.w3.org/1999/xlink" viewBox="0 0 693.06 563.9"><defs><style>.a,.g,.h{fill:none;}.b,.q{fill:#fff;}.b{stroke:#702b2a;stroke-width:6.17px;}.b,.g,.h{stroke-miterlimit:10;}.c{fill:#af0e0e;}.d{fill:#9c0400;}.e{fill:#32a013;}.f{fill:#659b56;}.g{stroke:#9c0400;}.g,.h{stroke-width:2.47px;}.h{stroke:#ffd400;}.i{fill:#247c08;}.j{fill:#ffdd50;}.k{fill:#0031ff;}.l{fill:#52fffa;}.m{fill:#fff24d;}.n{clip-path:url(#a);}.o{fill:#7a7330;}.p{fill:#efeaac;}.r{fill:#cca658;}.s{fill:#ffd400;}.t{fill:#bcaa80;}</style><clipPath id="a"><path class="a" d="M154,15.17H259.37A18.26,18.26,0,0,1,277.47,31L291.9,139.33A18.27,18.27,0,0,1,273.79,160H149.65a18.27,18.27,0,0,1-18.26-19l4.31-108.3A18.26,18.26,0,0,1,154,15.17Z"/></clipPath></defs><title>banner_lion</title><path class="b" d="M683.78,303.84C613.84,354.62,483.94,343.6,434.08,337a55.14,55.14,0,0,0-20.21-3h0a55.54,55.54,0,0,0-5.68,110.52h0A55.31,55.31,0,0,0,442.94,438C506.39,424.22,638.62,386.42,683.78,303.84Z"/><path class="b" d="M234.85,323.19a66.27,66.27,0,0,0-66.32-66.33c-23.5-20.38-55.57-34-85.18-13-21,14.8-25.9,41.94-13.56,64.14,8.63,14.8,24.67,22.2,40.7,21,14.8-2.47,29.6-12.33,32.07-28.37,2.47-17.27-8.63-34.54-25.9-34.54-11.1,0-22.2,8.64-19.74,21,1.24,6.17,8.64,11.1,14.8,6.17,1.24-1.23-1.23-4.93,2.47-4.93,4.94,1.23,6.17,6.16,3.7,11.1-2.47,3.7-6.17,4.93-8.63,6.16-12.34,2.47-23.44-9.86-23.44-21,0-9.87,6.17-21,16-25.91,16-8.63,34.53-2.46,44.4,11.1,16,21,8.64,49.34-12.33,64.14-32.07,19.74-74,0-82.74-35.64a45.5,45.5,0,0,0-4.1-9.62,66.43,66.43,0,0,0-33.85,69,64.84,64.84,0,0,0,2.49,10.15C2,387-1.75,412.86,10.58,435.07c16,27.13,51.81,34.53,76.48,14.8,17.26-14.8,23.43-40.71,8.63-59.21-8.63-11.1-22.2-17.27-37-14.8-9.87,1.23-17.27,7.4-22.21,16-4.93,9.86-4.93,22.2,2.47,30.83,7.4,7.4,18.5,9.87,27.14,4.94,3.7-3.7,7.4-7.4,6.16-13.57-1.23-4.94-7.4-12.34-12.33-6.17-1.23-1.23-2.47-3.7-1.23-4.93,3.7-3.7,8.63-3.7,13.56-1.24,6.17,4.94,9.87,13.57,6.17,21-8.63,19.74-35.77,18.5-48.1,2.47-8.64-13.57-7.4-28.37,0-40.7,9.86-16,30.83-22.21,48.1-17.27,25.9,8.63,40.71,37,33.3,62.9-6.16,22.21-25.9,35.77-47.45,41.69-4.65,1.33-5.84,2.31-8.12,3.2a66.33,66.33,0,1,0,92.14-88.66,66.36,66.36,0,0,0,86.56-63.17Z"/><path class="b" d="M409.18,464.24a66.28,66.28,0,0,0,57.9-73.8c3.58-13.35,14.68-22,15.91-36.78,4.94-32.07-19.73-65.37-53-60.44-12.34,1.23-23.44,8.63-30.84,18.5-8.63,14.8-7.4,33.3,7.4,44.41,11.1,8.63,28.37,4.93,33.3-7.41,1.24-4.93,0-11.1-4.93-13.56-2.47,0-6.17-1.24-7.4,2.46-7.4-3.7-2.47-12.33,3.7-13.56,8.63-2.47,16,2.46,19.73,9.86,9.87,18.51-6.16,39.47-25.9,41.94-22.2,2.47-43.17-14.8-46.87-37-3.7-25.91,12.34-50.57,35.73-60.55a62.09,62.09,0,0,0,7.09-4.62A66.45,66.45,0,0,0,343.4,250a60.1,60.1,0,0,1-8.73-2.81c-25.59-11.95-60.13-3.32-72.46,23.82-4.94,12.33-6.17,27.13,0,39.47,7.4,16,28.37,24.67,44.4,17.27,7.4-3.7,12.34-8.64,14.8-16,1.24-7.4,0-14.8-6.17-19.73-6.16-3.7-14.8-1.24-13.56,6.16-6.17,1.24-8.64-4.93-7.4-9.86,1.23-3.7,3.7-8.64,8.63-9.87,16-3.7,32.07,7.4,33.3,23.43,2.47,18.51-9.86,35.77-27.13,41.94-24.67,8.64-50.57-3.7-62.46-24.88C241.85,310,239.3,307.15,237,305a66.33,66.33,0,1,0,99.07,80.85,66.34,66.34,0,0,0,73.08,78.37Z"/><path class="b" d="M294.65,363.89a64.46,64.46,0,0,0-54-63.6c-1.85-.5-3.72-1-5.79-1.61-12.13-14.09-28.17-24-47.9-20.26-22.21,4.93-35.77,27.13-27.14,48.1,4.93,9.87,14.8,18.5,25.9,17.27,9.87-1.23,17.27-7.4,18.5-17.27A11.77,11.77,0,0,0,193.13,313c-3.7,0-8.63,6.17-9.87,4.94-11.1-7.4,2.47-21,12.34-21,21,1.23,32.07,23.44,24.67,41.94-12.34,32.07-55.51,28.37-75.17,6.5a40,40,0,0,0-7.85,5.05,64.45,64.45,0,0,0-15.6,81.32c1.3,2.32,2.63,4.61,3.94,6.88-10.17,11.26-18.8,22.36-18.8,37.16A42.33,42.33,0,0,0,130.23,514c13.56,6.17,29.6,2.46,39.47-9.87,3.7-6.17,6.16-12.33,4.93-19.73-1.23-8.64-6.17-16-16-18.51a13.1,13.1,0,0,0-16,16c2.47,6.17,6.17,2.47,11.1,2.47,6.17,1.23,2.47,7.4,1.24,9.86-2.47,2.47-6.17,4.94-9.87,4.94-8.64,0-14.8-6.17-18.5-13.57-6.17-17.27,7.4-35.77,24.67-38.24,13.56-2.47,27.13,4.94,35.77,14.8,13.56,18.5,6.16,39.47.13,57.7a63,63,0,0,0,9.92,2.44,64.43,64.43,0,0,0,62.76-101.21A64.4,64.4,0,0,0,294.65,363.89Z"/><path class="b" d="M232.92,407.25a64.5,64.5,0,0,0-3,97.55,63.76,63.76,0,0,0,7.24,5.74c2.8,20.74,13.91,42.94,36.11,49.11C293,564.58,314,553.48,320.18,535c2.47-7.4,2.47-16-1.23-23.44-7.41-13.57-22.21-21-37-13.57-9.87,6.17-13.57,19.74-6.17,28.37,3.7,3.7,12.34,3.7,13.57-1.23,1.24-3.7-2.46-8.64,3.7-9.87,6.17,0,8.64,4.94,8.64,9.87,0,12.33-12.34,18.5-23.44,16-13.57-3.7-19.73-16-19.73-28.37,1.23-14.8,12.33-27.13,27.13-30.83C319,474.54,341.15,507.84,336,538c1.2,1.16,2.71,1.21,4.26,1.08a64.16,64.16,0,0,0,35.16-14.17,66.11,66.11,0,0,0,6.18-5.72,23.58,23.58,0,0,1,3.93-2.9c24.74.15,51.88-13.41,53.11-40.55,0-16-7.4-30.84-22.2-37-18.5-7.4-43.17,6.16-39.47,28.37,2.46,11.1,13.57,18.5,23.43,12.33,2.47-1.23,7.4-6.17,3.7-11.1-2.46-2.47-6.16,0-7.4-1.23-1.23-2.47,0-7.4,3.7-8.64,9.87-3.7,16,6.17,17.27,14.8,0,7.4-4.93,13.57-11.1,18.51-11.1,6.16-23.44,3.7-33.3-3.7-17.27-16-14.8-41.94,2.46-56.74,11.11-8.64,25.91-12.34,39.66-8.86,8.54,1.83,9.86.83,10.26-.64a64.46,64.46,0,0,0-91.49-65c-2.36.19-4.59.51-10.92-1.47-21.51-7.88-44.95-2.94-57.28,16.79-7.4,13.57-8.64,28.37,0,41.94a35.59,35.59,0,0,0,33.3,16c12.33-1.23,21-9.86,24.67-21,2.47-11.1-2.47-22.2-13.57-27.13-7.4-3.7-17.27,0-21,6.17-1.23,3.7-1.23,11.1,3.7,13.56,2.47,1.24,7.4,1.24,6.17-3.7,6.17,1.24,2.47,9.87-2.47,11.1-11.1,1.24-17.27-9.86-16-19.73,2.46-13.57,16-18.5,28.37-17.27,7.4,1.23,13.57,6.17,18.5,12.34,13.57,21,1.23,48.1-23.44,54.27-27.13,6.16-50.57-14.8-55.68-40.86a62.74,62.74,0,0,0-8,4.06A65.14,65.14,0,0,0,232.92,407.25Z"/><path class="c" d="M319.46,303.32c25.8,2.65,44.26,14.09,67.33,13.42-3.32,3.55-2.24,12.17-7.88,15.13-4.29,2.24-8.14-.05-12.56-.19-2.1-.07-4.35-.19-6.06-1.42a10.32,10.32,0,0,1-3-4.34C355.39,321.7,324.07,303.79,319.46,303.32Z"/><path class="d" d="M139.49,146.82c-13,20.62-18.79,46.29-18.9,71.56s5.17,50.24,12.64,74.08c5.05,16.11,11.9,32.87,25,41.59,6.86,4.57,14.82,6.49,22.64,8.27,38.31,8.76,77.18,16.08,116.27,15S347,354.61,380,331.09c-.55.4-27-29.65-29.2-32.16-13.31-15.47-27.05-31.78-35.48-50.78-8.29-18.68-12.57-38.92-17.63-58.72-4.07-15.94-7.9-33.42-19.49-43.71-10.43-9.27-24.71-10.42-38-10.73a582.49,582.49,0,0,0-62.52,1.9C165,138,139.49,146.82,139.49,146.82Z"/><rect class="e" x="145.55" y="99.57" width="127.04" height="280.89" rx="62.27"/><rect class="f" x="160.42" y="123.03" width="97.3" height="210.3" rx="48.65"/><path class="g" d="M194.84,225.84h0c0-2.54,2.12-4.18,4.62-4.62,6.42-1.13,18.5-1.19,24.52,0,2.49.49,4.62,2.08,4.62,4.62h0c0,2.55-2.1,4.31-4.62,4.63a118.75,118.75,0,0,1-24.52,0C196.94,230.14,194.84,228.39,194.84,225.84Z"/><path class="g" d="M216.46,210h0c2.5-.45,4.59,1.32,5.37,3.74a116.59,116.59,0,0,1,4.33,24.13c.1,2.54-1.23,4.92-3.73,5.37h0c-2.51.45-4.58-1.32-5.37-3.74-2-6.15-3.92-17.69-4.34-24.13C212.56,212.85,214,210.47,216.46,210Z"/><path class="g" d="M207.76,210h0c-2.51-.45-4.52,1.34-5.37,3.74-2,5.76-4,17.34-4.33,24.13-.11,2.54,1.23,4.92,3.73,5.37h0c2.5.45,4.49-1.35,5.37-3.74,1.81-4.89,4-17.58,4.33-24.13C211.64,212.85,210.26,210.47,207.76,210Z"/><rect class="h" x="206.56" y="246.13" width="12.31" height="24.61" rx="6.15"/><rect class="h" x="206.56" y="265.33" width="12.31" height="24.61" rx="6.15"/><path class="i" d="M145.71,209c19.87.07,26.76,3.18,47.53,3.18,0,6.5.51,16-4.42,24.36-3.7,2.68-28.09-.59-43.26-3.8C145.57,227.61,145.71,209,145.71,209Z"/><path class="i" d="M272.45,209c-19.88.07-22.32,3.13-43.09,3.13,0,6.51-.84,15.21,4.09,23.62,3.7,2.67,24,.2,39.14-3C272.58,227.61,272.45,209,272.45,209Z"/><path class="e" d="M137.79,155.64c-1.16,20.89.46,48.23,0,69.15,0,1.48,0,3.09.85,4.24,1,1.35,45.33,8.49,48.47,4.29a12.88,12.88,0,0,0,1.84-4.65c1.16-4.58,2-16.67,1.09-16.71-15.26-.6-18.15-2-33.27-4.18a5.22,5.22,0,0,1-3-1.08c-1.13-1.06-1.25-2.87-1.29-4.47l-.74-30.41c-.06-2.76-.25-5.83-2.12-7.74C147.49,161.84,137.79,155.64,137.79,155.64Z"/><path class="e" d="M283.14,153.3c1.17,20.85.69,50.63,1.12,71.51,0,1.47,0,3.08-.85,4.23-1,1.35-45.34,8.48-48.48,4.28a12.94,12.94,0,0,1-1.84-4.64c-1.16-4.57-2-16.64-1.08-16.67,15.25-.61,18.14-2,33.27-4.17a5.26,5.26,0,0,0,3-1.09c1.13-1.06,1.25-2.85,1.28-4.46l.74-30.35c.07-2.75.25-5.81,2.12-7.72Z"/><path class="j" d="M144.81,21.85c1-.87-4.4-6.05-5.05-6.69-4.09-4-9.06-7.4-14.77-8.5-9.64-1.86-19.77,3.31-23.37,15-1.05,3.39-2.82,9.23-.3,13.29.46-.67,1.39-1.53,2-2.38.85-.92,3.19-11.39,4-12.32,2.81-3.16,4.35-4.27,7.15-5.52,10-4.49,21.13,1.55,25.86,10.32C140.61,25.57,144.81,21.85,144.81,21.85Z"/><path class="j" d="M265.16,15.56c-1-.87,4.4-6.05,5-6.69,4.09-4,9.06-7.4,14.77-8.5,9.64-1.86,19.77,3.31,23.37,15,1,3.4,2.82,9.23.3,13.29-.46-.67-1.39-1.53-2-2.37-.85-.93-3.19-11.39-4-12.32-2.81-3.17-4.35-4.27-7.15-5.53C285.51,4,274.37,10,269.64,18.76,269.36,19.29,265.16,15.56,265.16,15.56Z"/><path class="k" d="M141.05,25.87a23.7,23.7,0,0,0-11.81-12.21,19.84,19.84,0,0,0-16.66.18c-4.7,2.32-10.27,13.48-9.27,18.72,1.74-2,4.58-4.29,7.13-4.94,7.25-1.86,13.1,3.91,17.31,9.18,2.29,2.87,4.56,5.82,6.7,8.81.75,1,3.47,6.5,5,6.5s.74-20.82.84-22.31.35-3.36,1.76-3.76Z"/><path class="k" d="M269.2,19.59A23.6,23.6,0,0,1,281,7.37a19.87,19.87,0,0,1,16.66.18c4.7,2.33,10.26,13.49,9.26,18.73-1.74-2-4.58-4.3-7.12-5-7.26-1.86-13.11,3.92-17.31,9.18-2.29,2.88-4.56,5.83-6.7,8.81-.76,1-3.47,6.5-5,6.5S270.06,25,270,23.52s-.36-3.37-1.76-3.77Z"/><path class="l" d="M121.77,52.15c-3.89,5.85-2.59,15.46,4,17.84-5.91,2.26-11.35,6.19-14.48,11.68s-3.66,12.65-.48,18.13,10.31,8.61,16.24,6.41c-6.39,7.91-12.18,16.73-14.13,26.71s.62,21.38,8.55,27.76c1.65,1.32,3.48,2.41,5.08,3.8a34.79,34.79,0,0,1,5,5.83c7,9.49,4.87,17.82,11.83,27.32.31-10.18,0-20.5,3.52-28.44,1.83,12.34,3.37,21.21,10.72,31.52,2.61-5.6,1.33-19.47,6.53-22.82,0,9.12,12,27.48,12.95,27.14,1.54-.59,7.19-24.26,7.19-22.62,0,6.17,9.2,19.54,13.57,25.7,2.86-7.81,2.57-11.63,6.89-19.12,3.28,6.6,6,16.45,13.35,22.62,5.87-6.38,10-15.42,11.8-21.21.66-2.09.79,12.15,7,18.74,5.9-6,11.55-26.54,12.75-24,2.69,5.6,3.49,11.71,3.08,23.43,11.31-9,14.14-24.23,17.27-29.4,2.64,5.08,2.57,17.27,2.57,24.06,8.32-9.46,10-27.47,14-35.77,1.42,2.72-2.78,17.47-3.81,26.52,15.63-16.45,15.88-28.44,17.32-39a6.77,6.77,0,0,1,.94-3.07,10.63,10.63,0,0,1,2.58-2.11c3.36-2.48,10.93-10.61,8-25.6-1.44-7.45-6.6-15.67-20.13-16.39,12.62-1.74,21.49-6.06,21.27-18-.26-13.76-9-22.45-21.9-20.79,11.57-1.49,10.13-17.09,4-24.67a18.61,18.61,0,0,0-11.72-6.17c-8.54-.69-135.43,3.45-147.68,4.64C135.49,42.84,125.66,46.31,121.77,52.15Z"/><path class="l" d="M137.79,155.64c1.34,1.33,5.35,12.6,6.58,14.67,5.66,9.49,4,17.82,9.61,27.32.25-10.18,0-20.5,2.86-28.44,1.48,12.34,2.73,21.21,8.7,31.52,2.11-5.6,1.08-19.47,5.29-22.82,0,9.12,9.78,27.48,10.51,27.14,1.25-.59,5.84-24.26,5.84-22.62,0,6.17,7.47,19.54,11,25.7,2.32-7.81,2.08-11.63,5.58-19.12,2.67,6.6,4.86,16.45,10.84,22.62,4.77-6.38,8.1-15.42,9.58-21.21.54-2.09.64,12.15,5.7,18.74,4.79-6,9.37-26.54,10.34-24,2.19,5.6,2.84,11.71,2.51,23.43,9.17-9,11.47-24.23,14-29.4,2.15,5.08,2.09,17.27,2.09,24.06,6.75-9.46,8.14-27.47,11.34-35.77,1.16,2.72-2.25,17.47-3.08,26.52,12.68-16.45,12.88-28.44,14.05-39C281.28,153.89,131.36,149.26,137.79,155.64Z"/><path class="m" d="M154,15.17H259.37A18.26,18.26,0,0,1,277.47,31l10.16,108.51c1.46,10.95-8.37,20.48-19.42,20.48H149.65a18.27,18.27,0,0,1-18.26-19l4.31-108.3A18.26,18.26,0,0,1,154,15.17Z"/><path class="l" d="M144.72,160.88c6.38.88,12.27-1.91,18.48-3.63,2.69-.74,5.39-1.74,8.18-1.56a21.22,21.22,0,0,1,4.69,1.06c5,1.52,20.79,3.3,32.33,2.95,12.58-.38,21.29-1.27,32-4.14a22.56,22.56,0,0,1,8.37-1.07c3.44.4,6.51,2.27,9.67,3.71a42,42,0,0,0,15.9,3.76,210.29,210.29,0,0,1-21.74,1.27c-23.46.55-47,1.1-70.32-1.59-9.65-1.11-16.2,0-25.87.83C153.3,162.75,144.72,160.88,144.72,160.88Z"/><g class="n"><path class="o" d="M132.73,42c-2.66,1.61-2.95,5.28-2.89,8.38,0,2,.25,4.26,1.85,5.43a6.31,6.31,0,0,0,3.64.89,81,81,0,0,0,17.38-1.32c5.44-1,11.37-2.52,16.26.08,3.53,1.88,5.71,5.53,7.38,9.16a64.89,64.89,0,0,1,4.49,13.55A5.08,5.08,0,0,0,181.5,80c1,1.42,3.06,1.38,4.77,1.2,17.65-1.88,35.44-3.13,53.14-1.84-.2-5.66,0-11.51,2.35-16.68s7.14-9.54,12.79-9.85c4.46-.24,8.62,2,12.73,3.72s8.91,3.06,12.92,1.1a6.6,6.6,0,0,0,2.58-2.16A8.64,8.64,0,0,0,283.94,52c1-6.32-1-13.76-6.66-16.65a20.27,20.27,0,0,0-5.19-1.59,280.21,280.21,0,0,0-109.15-1c-10.31,1.95-20.63,4.53-29.93,9.39"/></g><circle class="p" cx="157.62" cy="89.83" r="22.68"/><circle class="p" cx="259.77" cy="89.83" r="22.68"/><circle class="q" cx="165.53" cy="67.15" r="18.62"/><circle class="q" cx="252.57" cy="67.21" r="18.62"/><path class="r" d="M195.23,69.59c1.22-2.35-1.6-8.3,2.44-12.26,3.78-3.7,8.92-5.22,14.21-5.22,4.59,0,11.14,1.79,13.34,5.79,2.06,3.73,1.28,10.12,3.23,12.32,2.27,2.56,10.91,4.91,14,10,1.31,2.18,5.53,8.65,2.69,16.43-1.11,3-5.1,7.5-13.29,7.88-3.47.17-11.9-3.2-13.81-4.32-5.21-3.06-8.68-2.94-15.59-.25-4.61,1.79-11.59,6.16-20.39,3.51-5.05-1.53-6.86-7.22-7.28-11.58a20.84,20.84,0,0,1,1.57-11C179.42,74.21,192.83,74.2,195.23,69.59Z"/><circle cx="165.53" cy="63.77" r="11.66"/><circle cx="252.57" cy="63.83" r="11.66"/><circle class="q" cx="165.53" cy="60.88" r="5.35"/><circle class="q" cx="251.79" cy="60.94" r="5.35"/><path class="s" d="M136.12,20.32c-3.64,4.23-6.39,11.12-4.7,17.25a11.53,11.53,0,0,0,8,8.24c3.42.9,6.94.15,10.36-.69,12.05-2.95,24-7,36.15-8.54a90.84,90.84,0,0,1,25.51.33c3.46.54,6.93,1.27,10.39.82,4.85-.63,9.44-3.57,14.3-4,6.53-.64,12.78,3.18,19.11,5.48a42.83,42.83,0,0,0,21,2.21,5.83,5.83,0,0,0,2.82-1c1.59-1.26,2.31-3.94,2.38-6.46.28-9-5.8-15.82-11.67-19.81A53,53,0,0,0,245,4.92c-5.84-.54-11.69,0-17.52.52-15.3,1.42-30.59,2.94-45.89,4.45l-34.06,3.39S139.76,16.1,136.12,20.32Z"/><path class="l" d="M144.37,31.86a4.18,4.18,0,0,1,.88-4.87c2.26-2.45,6-3.24,9.17-3.87A117.92,117.92,0,0,1,175,21.28c2.46-.05,5.77.17,7.44,2.2.91,1.11,1.74,2.7,1.27,4.16-.6,1.84-3,2.69-4.63,3.31a79.79,79.79,0,0,1-16.36,4c-5.11.77-11,1.95-15.8-.62A5.76,5.76,0,0,1,144.37,31.86Z"/><path class="l" d="M232,25.55a4.17,4.17,0,0,1,1.65-4.66c2.62-2.06,6.47-2.23,9.67-2.35A117.51,117.51,0,0,1,263.87,20c2.43.34,5.67,1.09,7,3.36.72,1.24,1.29,2.94.59,4.31-.89,1.72-3.38,2.18-5.1,2.52a80.75,80.75,0,0,1-16.79,1.34c-5.17-.07-11.16.16-15.5-3.15A5.84,5.84,0,0,1,232,25.55Z"/><path class="d" d="M160.42,124.87c-3,.56-4.91,5.95-4.91,10.93,0,4.65,2.85,9.38,7.33,10.48,6.59,1.63,9.14-2.72,21.39-2.72,17.86,0,41.23.17,55.4,0,12.67-.15,16.83,4.9,24,1.87,6.14-2.6,6.73-7.1,6.08-12.87-.19-1.67.47-5-5.49-7.69-6.5-2.9-9.41,2.52-13.73,2.45-13.41-.21-26.4-7.15-38.47-7.14-10,0-22.92,7.81-32.87,8C165.53,128.35,172.57,122.59,160.42,124.87Z"/><path class="t" d="M160,123.38c-7.35,2.63-7.4,15-3.43,20.31,4.67,6.26,11.3,4.27,17.65,2.65,11.25-2.88,24.26-1.21,35.79-1.18,10.92,0,22.12-.73,33,0,7.53.52,15.48,5,22.7.94,5.79-3.28,7.13-11.06,5-17.08-1-3-4-5-6.85-5.93-4.13-1.4-6.79.18-10.46,1.78-5.61,2.42-13.31-.33-18.92-1.81-5.86-1.54-11.7-3.4-17.74-4.13-13-1.59-23.71,6.62-36.32,7.58a17.58,17.58,0,0,1-11-2.57c-3-1.68-6.15-1.15-9.43-.59-1.95.34-1.12,3.31.82,3,2.95-.51,5.09-.8,7.63.7a14.64,14.64,0,0,0,5.38,2.29c7.89,1.38,15.54-1.5,22.88-4,4.17-1.42,8.42-2.94,12.82-3.44,5.32-.6,10.67.6,15.8,1.91,4.79,1.23,9.51,2.68,14.34,3.7,3.7.78,8.41,2,12.19,1.22,2.95-.57,5.31-3,8.37-3.17,5.34-.22,7.79,3.77,8.05,8.31.3,5-1.21,9.11-6.56,10.59-3.49,1-6.88-.23-10.28-1-7.42-1.74-14.9-1.36-22.47-1.34-9.36,0-18.72,0-28.08,0s-19-1-28,1.45c-3.15.84-6.36,2.21-9.65,1.29-3.62-1-5.6-4.31-6.06-7.81-.37-2.91.16-9.38,3.64-10.62C162.69,125.69,161.89,122.71,160,123.38Z"/><path class="q" d="M174.11,128.85a9.44,9.44,0,0,0,4.79,7.26,1.66,1.66,0,0,0,.86.26,1.7,1.7,0,0,0,1.12-.87,24.35,24.35,0,0,0,3.16-6.2,1.25,1.25,0,0,0,.1-.63c-.12-.59-.91-.7-1.51-.68l-8,.34Z"/><path class="q" d="M252.57,128.85a9.47,9.47,0,0,1-4.79,7.26,1.7,1.7,0,0,1-.87.26,1.72,1.72,0,0,1-1.12-.87,24.35,24.35,0,0,1-3.16-6.2,1.36,1.36,0,0,1-.09-.63c.11-.59.9-.7,1.51-.68l8,.34Z"/><path class="q" d="M197,138.66c11.48-3,20.67-3.74,29.63.68a29.33,29.33,0,0,1-.42,4.92c-3.8.34-23.65.94-28.81-.39C197.38,143.87,196.45,138.8,197,138.66Z"/><path class="q" d="M174.61,144.34a7.45,7.45,0,0,1,.85-3,24.92,24.92,0,0,1,1.49-2.64c.19-.28.41-.58.73-.62s.72.28,1,.59c1,1.22,2.9,4.29,2.74,4.44S174.61,144.34,174.61,144.34Z"/><path class="q" d="M253.22,144.34a7.45,7.45,0,0,0-.85-3,24.92,24.92,0,0,0-1.49-2.64c-.18-.28-.41-.58-.73-.62s-.72.28-1,.59c-1,1.22-2.9,4.29-2.74,4.44S253.22,144.34,253.22,144.34Z"/><path class="t" d="M160,123.38c-7.35,2.63-7.4,15-3.43,20.31,4.67,6.26,11.3,4.27,17.65,2.65,11.25-2.88,24.26-1.21,35.79-1.18,10.92,0,22.12-.73,33,0,7.53.52,15.48,5,22.7.94,5.79-3.28,7.13-11.06,5-17.08-1-3-4-5-6.85-5.93-4.13-1.4-6.79.18-10.46,1.78-5.61,2.42-13.31-.33-18.92-1.81-5.86-1.54-11.7-3.4-17.74-4.13-13-1.59-23.71,6.62-36.32,7.58a17.58,17.58,0,0,1-11-2.57c-3-1.68-6.15-1.15-9.43-.59-1.95.34-1.12,3.31.82,3,2.95-.51,5.09-.8,7.63.7a14.64,14.64,0,0,0,5.38,2.29c7.89,1.38,15.54-1.5,22.88-4,4.17-1.42,8.42-2.94,12.82-3.44,5.32-.6,10.67.6,15.8,1.91,4.79,1.23,9.51,2.68,14.34,3.7,3.7.78,8.41,2,12.19,1.22,2.95-.57,5.31-3,8.37-3.17,5.34-.22,7.79,3.77,8.05,8.31.3,5-1.21,9.11-6.56,10.59-3.49,1-6.88-.23-10.28-1-7.42-1.74-14.9-1.36-22.47-1.34-9.36,0-18.72,0-28.08,0s-19-1-28,1.45c-3.15.84-6.36,2.21-9.65,1.29-3.62-1-5.6-4.31-6.06-7.81-.37-2.91.16-9.38,3.64-10.62C162.69,125.69,161.89,122.71,160,123.38Z"/><path class="b" d="M234.85,323.19a66.27,66.27,0,0,0-66.32-66.33c-23.5-20.38-55.57-34-85.18-13-21,14.8-25.9,41.94-13.56,64.14,8.63,14.8,24.67,22.2,40.7,21,14.8-2.47,29.6-12.33,32.07-28.37,2.47-17.27-8.63-34.54-25.9-34.54-11.1,0-22.2,8.64-19.74,21,1.24,6.17,8.64,11.1,14.8,6.17,1.24-1.23-1.23-4.93,2.47-4.93,4.94,1.23,6.17,6.16,3.7,11.1-2.47,3.7-6.17,4.93-8.63,6.16-12.34,2.47-23.44-9.86-23.44-21,0-9.87,6.17-21,16-25.91,16-8.63,34.53-2.46,44.4,11.1,16,21,8.64,49.34-12.33,64.14-32.07,19.74-74,0-82.74-35.64a45.5,45.5,0,0,0-4.1-9.62,66.43,66.43,0,0,0-33.85,69,64.84,64.84,0,0,0,2.49,10.15C2,387-1.75,412.86,10.58,435.07c16,27.13,51.81,34.53,76.48,14.8,17.26-14.8,23.43-40.71,8.63-59.21-8.63-11.1-22.2-17.27-37-14.8-9.87,1.23-17.27,7.4-22.21,16-4.93,9.86-4.93,22.2,2.47,30.83,7.4,7.4,18.5,9.87,27.14,4.94,3.7-3.7,7.4-7.4,6.16-13.57-1.23-4.94-7.4-12.34-12.33-6.17-1.23-1.23-2.47-3.7-1.23-4.93,3.7-3.7,8.63-3.7,13.56-1.24,6.17,4.94,9.87,13.57,6.17,21-8.63,19.74-35.77,18.5-48.1,2.47-8.64-13.57-7.4-28.37,0-40.7,9.86-16,30.83-22.21,48.1-17.27,25.9,8.63,40.71,37,33.3,62.9-6.16,22.21-25.9,35.77-47.45,41.69-4.65,1.33-5.84,2.31-8.12,3.2a66.33,66.33,0,1,0,92.14-88.66,66.36,66.36,0,0,0,86.56-63.17Z"/><path class="b" d="M294.65,363.89a64.46,64.46,0,0,0-54-63.6c-1.85-.5-3.72-1-5.79-1.61-12.13-14.09-28.17-24-47.9-20.26-22.21,4.93-35.77,27.13-27.14,48.1,4.93,9.87,14.8,18.5,25.9,17.27,9.87-1.23,17.27-7.4,18.5-17.27A11.77,11.77,0,0,0,193.13,313c-3.7,0-8.63,6.17-9.87,4.94-11.1-7.4,2.47-21,12.34-21,21,1.23,32.07,23.44,24.67,41.94-12.34,32.07-55.51,28.37-75.17,6.5a40,40,0,0,0-7.85,5.05,64.45,64.45,0,0,0-15.6,81.32c1.3,2.32,2.63,4.61,3.94,6.88-10.17,11.26-18.8,22.36-18.8,37.16A42.33,42.33,0,0,0,130.23,514c13.56,6.17,29.6,2.46,39.47-9.87,3.7-6.17,6.16-12.33,4.93-19.73-1.23-8.64-6.17-16-16-18.51a13.1,13.1,0,0,0-16,16c2.47,6.17,6.17,2.47,11.1,2.47,6.17,1.23,2.47,7.4,1.24,9.86-2.47,2.47-6.17,4.94-9.87,4.94-8.64,0-14.8-6.17-18.5-13.57-6.17-17.27,7.4-35.77,24.67-38.24,13.56-2.47,27.13,4.94,35.77,14.8,13.56,18.5,6.16,39.47.13,57.7a63,63,0,0,0,9.92,2.44,64.43,64.43,0,0,0,62.76-101.21A64.4,64.4,0,0,0,294.65,363.89Z"/><path class="b" d="M232.92,407.25a64.5,64.5,0,0,0-3,97.55,63.76,63.76,0,0,0,7.24,5.74c2.8,20.74,13.91,42.94,36.11,49.11C293,564.58,314,553.48,320.18,535c2.47-7.4,2.47-16-1.23-23.44-7.41-13.57-22.21-21-37-13.57-9.87,6.17-13.57,19.74-6.17,28.37,3.7,3.7,12.34,3.7,13.57-1.23,1.24-3.7-2.46-8.64,3.7-9.87,6.17,0,8.64,4.94,8.64,9.87,0,12.33-12.34,18.5-23.44,16-13.57-3.7-19.73-16-19.73-28.37,1.23-14.8,12.33-27.13,27.13-30.83C319,474.54,341.15,507.84,336,538c1.2,1.16,2.71,1.21,4.26,1.08a64.16,64.16,0,0,0,35.16-14.17,66.11,66.11,0,0,0,6.18-5.72,23.58,23.58,0,0,1,3.93-2.9c24.74.15,51.88-13.41,53.11-40.55,0-16-7.4-30.84-22.2-37-18.5-7.4-43.17,6.16-39.47,28.37,2.46,11.1,13.57,18.5,23.43,12.33,2.47-1.23,7.4-6.17,3.7-11.1-2.46-2.47-6.16,0-7.4-1.23-1.23-2.47,0-7.4,3.7-8.64,9.87-3.7,16,6.17,17.27,14.8,0,7.4-4.93,13.57-11.1,18.51-11.1,6.16-23.44,3.7-33.3-3.7-17.27-16-14.8-41.94,2.46-56.74,11.11-8.64,25.91-12.34,39.66-8.86,8.54,1.83,9.86.83,10.26-.64a64.46,64.46,0,0,0-91.49-65c-2.36.19-4.59.51-10.92-1.47-21.51-7.88-44.95-2.94-57.28,16.79-7.4,13.57-8.64,28.37,0,41.94a35.59,35.59,0,0,0,33.3,16c12.33-1.23,21-9.86,24.67-21,2.47-11.1-2.47-22.2-13.57-27.13-7.4-3.7-17.27,0-21,6.17-1.23,3.7-1.23,11.1,3.7,13.56,2.47,1.24,7.4,1.24,6.17-3.7,6.17,1.24,2.47,9.87-2.47,11.1-11.1,1.24-17.27-9.86-16-19.73,2.46-13.57,16-18.5,28.37-17.27,7.4,1.23,13.57,6.17,18.5,12.34,13.57,21,1.23,48.1-23.44,54.27-27.13,6.16-50.57-14.8-55.68-40.86a62.74,62.74,0,0,0-8,4.06A65.14,65.14,0,0,0,232.92,407.25Z"/></svg>