<svg xmlns="http://www.w3.org/2000/svg" viewBox="0 0 392.72 388.51"><defs><style>.cls-1{fill:#e8cb7f;}.cls-2{fill:#c1a56c;}.cls-3{fill:#5f9635;}.cls-4{fill:#608934;}.cls-5{fill:#8c8c8c;}.cls-6{fill:#4c4c4c;}.cls-7{fill:none;stroke:#bcbcbc;}.cls-10,.cls-16,.cls-7{stroke-miterlimit:10;}.cls-8{fill:#db2a4c;}.cls-9{fill:#3355c1;}.cls-10{fill:#c1ad4c;}.cls-10,.cls-16{stroke:#aa904f;}.cls-11{fill:#ddc662;}.cls-12{fill:#efd875;}.cls-13{fill:#dddd0e;}.cls-14{fill:#fff;}.cls-15{fill:#2b2b2b;}.cls-16{fill:#86c44b;}</style></defs><title>banner小島1</title><g id="圖層_12" data-name="圖層 12"><path class="cls-1" d="M1297.2,708.13S1300,826.94,1264,887c-22,36.67-63,47.61-159.16,47.61S967.67,923.67,945.67,887c-36-60.06-33.21-178.87-33.21-178.87Z" transform="translate(-909.44 -546.09)"/><path class="cls-2" d="M1101.53,934.61c96.17,0,140.46-10.94,162.46-47.61,36-60.06,33.21-178.87,33.21-178.87H1101.53Z" transform="translate(-909.44 -546.09)"/><path class="cls-3" d="M1297,707.46c-4.34-8.29-88.72-14.9-192.18-14.9-104.82,0-190.05,6.79-192.32,15.23a11.51,11.51,0,0,0-3.07,7.81v21.58A11.61,11.61,0,0,0,921,748.76a11.47,11.47,0,0,0,6.24-1.85,14.8,14.8,0,0,0,14.5,12.1,14.61,14.61,0,0,0,7.33-2,14.78,14.78,0,0,0,13.35,8.53h0a14.79,14.79,0,0,0,14.75-14.75V729a8.3,8.3,0,0,0,6.35,3h8.66a8.31,8.31,0,0,0,6.81-3.57v15.81a14.73,14.73,0,0,0,26.25,9.2v2.15a7.61,7.61,0,0,0,14.12,4,14.7,14.7,0,0,0,24,4.37,14.75,14.75,0,0,0,28.85-4.32v-6.48a14.72,14.72,0,0,0,27.48-2.61,9.87,9.87,0,0,0,5.52,1.69,10,10,0,0,0,9.95-9.95v-11a8.23,8.23,0,0,0,4.39,1.27h33.66a8.23,8.23,0,0,0,4.33-1.24v5.11a18.6,18.6,0,0,0,35.06,8.67v5.34a14.73,14.73,0,0,0,27.4,7.53v11a9.6,9.6,0,1,0,19.21,0V758.71a14.7,14.7,0,0,0,25.75,1.35,9.93,9.93,0,0,0,17.2-6.78V716.16A10,10,0,0,0,1297,707.46Zm-37.82,10,.55-.06c-.19.32-.37.65-.53,1v-.62C1259.21,717.64,1259.2,717.53,1259.19,717.43Z" transform="translate(-909.44 -546.09)"/><path class="cls-4" d="M1297,707.46c-4.34-8.29-88.72-14.9-192.18-14.9h-3.3v68.36a14.57,14.57,0,0,0,3.93.54,14.8,14.8,0,0,0,14.23-10.93,9.87,9.87,0,0,0,5.52,1.69,10,10,0,0,0,9.95-9.95v-11a8.23,8.23,0,0,0,4.39,1.27h33.66a8.23,8.23,0,0,0,4.33-1.24v5.11a18.6,18.6,0,0,0,35.06,8.67v5.34a14.73,14.73,0,0,0,27.4,7.53v11a9.6,9.6,0,1,0,19.21,0V758.71a14.7,14.7,0,0,0,25.75,1.35,9.93,9.93,0,0,0,17.2-6.78V716.16A10,10,0,0,0,1297,707.46Zm-37.8,10.89v-.62c0-.1,0-.21,0-.31l.55-.06C1259.55,717.69,1259.37,718,1259.21,718.36Z" transform="translate(-909.44 -546.09)"/><rect class="cls-3" x="47.06" y="223.67" width="16.35" height="16.35" rx="8.17" ry="8.17"/><rect class="cls-4" x="331.99" y="249.99" width="16.35" height="16.35" rx="8.17" ry="8.17"/><rect class="cls-3" x="155.04" y="249.99" width="25.96" height="25.96" rx="12.98" ry="12.98"/></g><g id="圖層_44" data-name="圖層 44"><path class="cls-5" d="M1104.83,636.87a31.71,31.71,0,0,1,31.71,31.67h0V705.6h53.13V595.49h-12.51V608h-9.94V595.49h-12.51V608h-9.94V595.49h-12.51V608h-9.94V595.49H1109.8V608h-5" transform="translate(-909.44 -546.09)"/><path class="cls-6" d="M1177.16,595.49V608h-9.94V595.49h-12.51V608h-9.94V595.49h-12.51V608h-9.94V595.49H1109.8V608h-5v28.87a31.71,31.71,0,0,1,31.71,31.67h0V705.6h53.13V595.49Z" transform="translate(-909.44 -546.09)"/><path class="cls-5" d="M1099.86,595.49h-12.51V608h-9.94V595.49H1064.9V608H1055V595.49h-12.51V608h-9.94V595.49H1020V705.6h53.13V668.54h0a31.71,31.71,0,0,1,31.71-31.67V608h-5Z" transform="translate(-909.44 -546.09)"/><line class="cls-7" x1="195.39" y1="61.91" x2="195.39" y2="1.64"/><path class="cls-8" d="M1104.83,570.63c-12.48-8.8-25,8.8-37.44,0q0-11,0-22c12.48,8.8,25-8.8,37.44,0Z" transform="translate(-909.44 -546.09)"/><path class="cls-9" d="M1104.83,559.63c-6.24-4.4-12.48-2.2-18.72,0v-11c6.24-2.2,12.48-4.4,18.72,0Z" transform="translate(-909.44 -546.09)"/></g><g id="圖層_14" data-name="圖層 14"><ellipse class="cls-10" cx="102.77" cy="157.45" rx="65.25" ry="11.38"/><ellipse class="cls-11" cx="102.77" cy="156.2" rx="62.5" ry="10.9"/><ellipse class="cls-12" cx="102.77" cy="154.55" rx="60.49" ry="10.55"/><polygon class="cls-13" points="59.84 70.17 53.27 70.17 52.66 58.18 60.45 58.18 59.84 70.17"/><path class="cls-14" d="M966,700.05H955.71s-1.62-52.74,2.8-57.16,3.66-31.61,3.66-31.61h7.66s-.76,27.19,3.66,31.61,2.8,57.16,2.8,57.16H966" transform="translate(-909.44 -546.09)"/><polygon class="cls-13" points="151.84 70.17 145.27 70.17 144.66 58.18 152.45 58.18 151.84 70.17"/><path class="cls-14" d="M1058,700.05h-10.29s-1.62-52.74,2.8-57.16,3.66-31.61,3.66-31.61h7.66s-.76,27.19,3.66,31.61,2.8,57.16,2.8,57.16H1058" transform="translate(-909.44 -546.09)"/><rect class="cls-15" x="53.1" y="134.47" width="99.35" height="20.5"/><ellipse class="cls-16" cx="102.77" cy="153.11" rx="22.83" ry="7.7"/></g></svg>