<svg xmlns="http://www.w3.org/2000/svg" viewBox="0 0 367.49 175.39"><defs><style>.a{fill:#ceeabe;}.b{fill:#22301b;}.c{fill:#fff;}</style></defs><title>BulletinBoard_title</title><rect class="a" x="6.74" y="20.7" width="354" height="134"/><rect class="b" x="6.74" y="20.7" width="354" height="134" transform="translate(-9.17 22.61) rotate(-6.87)"/><path class="c" d="M88.61,92.53l-.72-6a4.08,4.08,0,0,1,1.71-4,6.26,6.26,0,0,1,3-1.13,5.41,5.41,0,0,1,4.3,1.11,4.15,4.15,0,0,1,1.45,2.79l.62,5.16,15-2.93c.31-.06.7-.12,1.18-.18,2.68-.32,4.64.25,5.88,1.74q1.44,1.71,2,5.9,1.85,15.31.58,20.84c-.75,3.23-2.67,5-5.74,5.41a22,22,0,0,1-8-1,16.1,16.1,0,0,1-3.37-1.23,3.6,3.6,0,0,1-2-2.76q-.36-3,2.43-3.38a5,5,0,0,1,1.38,0,12,12,0,0,0,3.19.17c1.13-.14,1.78-.93,2-2.38A47.68,47.68,0,0,0,113,99.85q-.26-2.11-1.32-2.37a3.05,3.05,0,0,0-1.07,0L100,99.61l3.72,30.93a3.92,3.92,0,0,1-.69,2.79,5.39,5.39,0,0,1-4,2.24,5,5,0,0,1-4.9-1.77,4,4,0,0,1-.8-2l-3.63-30.17L79,103.73l3.23,17.86,0,.29a3.49,3.49,0,0,1-1.54,3.58,6.85,6.85,0,0,1-3.32,1.3A4.82,4.82,0,0,1,73,125.32a3.84,3.84,0,0,1-1-2l-2.65-14.92q-7.56,9.66-10.77,10a3.8,3.8,0,0,1-3.23-1.15,4.1,4.1,0,0,1-1.33-2.5,3.67,3.67,0,0,1,.79-2.76c.12-.16.65-.75,1.58-1.78Q66.53,99.15,73.09,82.68L58.87,85.42l-2.06.38-.34,0a3.92,3.92,0,0,1-2.87-.68,4.92,4.92,0,0,1-1.94-3.63c-.36-3,.79-4.69,3.45-5.18l21.31-4.12Q77.73,67,78.63,61.71q.8-4.82,4.56-5.27a8,8,0,0,1,3.39.32,4.16,4.16,0,0,1,3.11,3.74c.13,1.1-.39,4.26-1.56,9.46l32.72-6.3.34,0a3.9,3.9,0,0,1,3.24.9A5.4,5.4,0,0,1,126.05,68c.36,3-.79,4.74-3.45,5.27L85,80.43a106.84,106.84,0,0,1-6.45,14.09Z"/><path class="c" d="M164.09,63l8.54-1.85-1.29-10.62a4,4,0,0,1,1.76-3.94,6.33,6.33,0,0,1,3-1.18,5.86,5.86,0,0,1,4.33,1A4,4,0,0,1,182,49.25l1.16,9.65,16.44-3.57.59-.12a3.55,3.55,0,0,1,4,2.53,6.74,6.74,0,0,1,.53,1.86c.33,2.74-.76,4.37-3.27,4.91L184.27,68l1,8.08L213,70.75l.34,0c2.7-.32,4.24,1,4.59,3.91s-.72,4.77-3.23,5.24L147.06,92.7l-.33,0c-2.69.32-4.21-1.06-4.58-4.13q-.5-4.06,3.33-4.78l29.19-5.67-.95-8L160,73q-4.3,7.83-7.73,8.23a3.62,3.62,0,0,1-2.15-.38,3.74,3.74,0,0,1-2.21-3,7.7,7.7,0,0,1,1-3.64,65.67,65.67,0,0,0,5.5-16.68q.69-3.94,4.33-4.38a6.77,6.77,0,0,1,2.77.22,4.41,4.41,0,0,1,3.57,4A15.74,15.74,0,0,1,164.09,63Zm43.64,45.14c2,.15,3.19,1.49,3.49,4,.35,2.85-.79,4.5-3.39,5L174.15,123c-.39,2.25-2,3.55-4.94,3.9q-4.69.57-5.69-3.44l-6-23.65a5.12,5.12,0,0,1-.13-.72,4.21,4.21,0,0,1,2.47-4.46,8.12,8.12,0,0,1,2.73-.8,5.06,5.06,0,0,1,4.65,1.5L199,89.06c.47-.09,1-.16,1.47-.23q7.11-.85,7.87,5.41a15.48,15.48,0,0,1,.07,2.74Zm-10.57,1.7.16-9.42c0-.06,0-.2,0-.42-.11-.88-.66-1.26-1.64-1.14l-.34,0-25.51,4.88,2.59,10.46Z"/><path class="c" d="M270.27,63.85l-6.75,1.68,5.39,44.72q.45,3.72-3.7,4.22c-3,.37-4.67-.69-5-3.17l-3.52-29.2A4.11,4.11,0,0,1,253.86,84q-2,.24-3.76-2.34c-.45-.66-1-1.39-1.68-2.2l4,32.79a3.35,3.35,0,0,1-.83,2.76,4.85,4.85,0,0,1-3.24,1.64,4.42,4.42,0,0,1-4.26-1.5,3.82,3.82,0,0,1-.69-1.81L240,85.19A49.21,49.21,0,0,1,236.25,95a3.94,3.94,0,0,1-3,2.37,3.26,3.26,0,0,1-2.21-.5,2.83,2.83,0,0,1-1.5-2.1,11.39,11.39,0,0,1,1.05-4.07,117.2,117.2,0,0,0,6-22.93L232,68.9a5,5,0,0,1-.72.13,3.62,3.62,0,0,1-4-2.35,7.14,7.14,0,0,1-.55-2,4.16,4.16,0,0,1,1.3-3.85,4.33,4.33,0,0,1,1.7-.85l7-1.62L235,43.6a3.47,3.47,0,0,1,1.51-3.49,5.5,5.5,0,0,1,2.51-.94,4.78,4.78,0,0,1,3.62.85A3.49,3.49,0,0,1,244,42.51l1.65,13.71,2.71-.63.47-.05c2.72-.16,4.27,1.23,4.62,4.16q.47,3.86-3.12,4.71l-3.59.91.68,5.63a35.19,35.19,0,0,1,8.73,6.2L252,43.05c-.3-2.49,1-3.9,3.91-4.25a4.29,4.29,0,0,1,4,1.19L269,37.65a9.17,9.17,0,0,1,1.22-.23q4.74-.57,5.22,4.82l1.57,18q.19,3.75-3.53,4.2A4.36,4.36,0,0,1,270.27,63.85Zm-2-15.51L268,46c-.09-.94-.51-1.36-1.27-1.27l-.38,0-5.2,1.4.45,3.72Zm.75,9.44L268.69,54l-6.38,1.54.46,3.81Zm18.2,34.13.11,1q10.05,1.07,10.54,5.17a3.6,3.6,0,0,1-.46,2.2,3.47,3.47,0,0,1-2.69,1.92,3.3,3.3,0,0,1-2.32-.71q-2.69-2-4.4-3l1.06,8.81A3.22,3.22,0,0,1,286,111q-3.46.42-3.88-3l-.89-7.4q-6.39,7.17-9.27,7.51a2.06,2.06,0,0,1-1.77-.82,2.48,2.48,0,0,1-.78-1.49c-.1-.79.49-1.85,1.76-3.18a53.77,53.77,0,0,0,7-9l-1.89.35a3.1,3.1,0,0,1-2.47,1.59A2.84,2.84,0,0,1,270.27,93l-2.69-13.45c0-.06,0-.17,0-.34q-.35-2.88,2.74-3.25a3.34,3.34,0,0,1,2.25.5l5.52-1.18-.3-2.49-6.49,1.38-.42.05a2.52,2.52,0,0,1-3-2.47,2.75,2.75,0,0,1,2.38-3.42L277,66.9l-.09-.76c-.27-2.26.77-3.53,3.14-3.81s3.7.73,4,3L290.76,64l.38-.09q2.75-.33,3.14,2.93A2.53,2.53,0,0,1,292,69.86l-7.2,1.52.3,2.49,6.07-1.29.63-.07c3-.37,4.62,1.06,4.81,4.27l.72,11.67c.08,2.06-1,3.21-3.14,3.47a3,3,0,0,1-2.69-.88ZM279.37,82l-.22-1.82-4.86,1,.35,1.77Zm.49,4.06-4.4.87.44,2.23,4.23-.86Zm17.58-27.27-8.37,1.82a4,4,0,0,1-3.36,2q-3.85.46-4.25-2.79l-2.62-21.75q-.42-3.46,3.48-3.94a3.9,3.9,0,0,1,3.62,1.2l10.13-2.51a11.13,11.13,0,0,1,1.47-.26q5.46-.66,6.23,5.81l7.8,64.66q.8,6.67-4.49,7.32a22.21,22.21,0,0,1-8.77-1.22q-3.71-1.14-4-3.55c-.22-1.84.57-2.86,2.37-3.08.15,0,.44,0,.9-.06a20.9,20.9,0,0,0,2.09-.13,6.18,6.18,0,0,0,2-.46c.57-.32.78-1,.64-2.18Zm-11.95,22,4.7-1-.08-.6v-.3Q290,78,289,78.12l-.26,0-3.52.72Zm.49,4.06.27,2.24,4.36-.91L290.47,84Zm9.57-41.72-.24-2c-.12-1-.65-1.51-1.58-1.39a1.3,1.3,0,0,0-.34.08l-6.25,1.57.44,3.59Zm.69,5.71-8,1.82.44,3.64,8-1.69Z"/></svg>