<svg xmlns="http://www.w3.org/2000/svg" xmlns:xlink="http://www.w3.org/1999/xlink" viewBox="0 0 308 427"><defs><style>.a,.f,.g{fill:none;}.b{fill:#af0e0e;}.c{fill:#9c0400;}.d{fill:#32a013;}.e{fill:#659b56;}.f{stroke:#9c0400;}.f,.g{stroke-miterlimit:10;stroke-width:2.47px;}.g{stroke:#ffd400;}.h{fill:#247c08;}.i{fill:#ffdd50;}.j{fill:#0031ff;}.k{fill:#52fffa;}.l{fill:#fff24d;}.m{clip-path:url(#a);}.n{fill:#7a7330;}.o{fill:#efeaac;}.p{fill:#fff;}.q{fill:#cca658;}.r{fill:#ffd400;}.s{fill:#bcaa80;}</style><clipPath id="a"><path class="a" d="M58.06,17H171.11c9.82,0,18.12,7.61,19.42,17.8L206,156.37c1.56,12.29-7.58,23.21-19.42,23.21H53.45c-11.13,0-20-9.68-19.58-21.32L38.49,36.71C38.9,25.71,47.55,17,58.06,17Z"/></clipPath></defs><title>anchi</title><path class="b" d="M235.55,340.42c27.67,3,47.47,15.82,72.21,15.06-3.57,4-2.41,13.67-8.46,17-4.59,2.52-8.72-.05-13.46-.22-2.26-.08-4.67-.21-6.51-1.59a11.74,11.74,0,0,1-3.21-4.86C274.08,361.05,240.5,341,235.55,340.42Z"/><path class="c" d="M42.55,164.78c-14,23.15-20.15,51.95-20.26,80.31s5.54,56.4,13.55,83.15c5.41,18.08,12.76,36.89,26.8,46.68C70,380,78.53,382.2,86.91,384.2,128,394,169.69,402.25,211.61,401s53.48-3,88.87-29.44c-.6.45-29-33.28-31.32-36.09-14.27-17.36-29-35.67-38.05-57-8.89-21-13.47-43.67-18.9-65.9-4.37-17.89-8.47-37.5-20.9-49-11.19-10.4-26.5-11.7-40.77-12.05a598,598,0,0,0-67,2.14C69.86,154.84,42.55,164.78,42.55,164.78Z"/><rect class="d" x="49.05" y="111.75" width="136.24" height="315.25" rx="62.27"/><rect class="e" x="65" y="138.08" width="104.34" height="236.03" rx="48.65"/><path class="f" d="M101.91,253.47h0c0-2.85,2.27-4.7,5-5.19,6.88-1.27,19.83-1.33,26.29,0,2.67.55,5,2.34,5,5.19h0a5.36,5.36,0,0,1-5,5.19,120.83,120.83,0,0,1-26.29,0A5.35,5.35,0,0,1,101.91,253.47Z"/><path class="f" d="M125.1,235.72h0c2.68-.51,4.92,1.47,5.76,4.19A136.67,136.67,0,0,1,135.5,267c.1,2.85-1.32,5.52-4,6h0c-2.69.5-4.91-1.48-5.76-4.2-2.17-6.9-4.21-19.85-4.65-27.08C120.92,238.89,122.41,236.22,125.1,235.72Z"/><path class="f" d="M115.76,235.72h0c-2.68-.51-4.84,1.5-5.75,4.19-2.2,6.47-4.35,19.47-4.65,27.08-.11,2.85,1.32,5.52,4,6h0c2.68.5,4.81-1.52,5.75-4.2,1.95-5.49,4.24-19.73,4.65-27.08C119.93,238.89,118.45,236.22,115.76,235.72Z"/><rect class="g" x="114.48" y="276.24" width="13.2" height="27.63" rx="6.15"/><rect class="g" x="114.48" y="297.79" width="13.2" height="27.63" rx="6.15"/><path class="h" d="M49.23,234.61c21.31.09,28.7,3.57,51,3.57,0,7.3.55,17.91-4.74,27.35-4,3-30.11-.67-46.38-4.27C49.08,255.45,49.23,234.61,49.23,234.61Z"/><path class="h" d="M185.14,234.61c-21.31.09-23.94,3.52-46.2,3.52,0,7.3-.91,17.07,4.38,26.5,4,3,25.71.23,42-3.37C185.28,255.45,185.14,234.61,185.14,234.61Z"/><path class="d" d="M40.74,174.68c-1.25,23.44.49,54.13,0,77.61,0,1.66,0,3.47.91,4.75,1.1,1.53,48.62,9.54,52,4.82a14.82,14.82,0,0,0,2-5.21c1.24-5.15,2.16-18.72,1.16-18.76-16.35-.68-19.45-2.24-35.67-4.69A5.52,5.52,0,0,1,57.94,232c-1.21-1.19-1.34-3.21-1.38-5l-.79-34.13c-.07-3.1-.27-6.54-2.27-8.68C51.13,181.64,40.74,174.68,40.74,174.68Z"/><path class="d" d="M196.61,172.06c1.25,23.39.73,56.82,1.19,80.25,0,1.65,0,3.46-.91,4.75-1.1,1.52-48.62,9.52-52,4.81a15.11,15.11,0,0,1-2-5.21c-1.24-5.13-2.16-18.68-1.16-18.72,16.36-.67,19.46-2.24,35.68-4.68a5.46,5.46,0,0,0,3.18-1.22c1.21-1.18,1.34-3.2,1.38-5L182.8,193c.07-3.09.27-6.53,2.28-8.66C187.44,181.8,196.61,172.06,196.61,172.06Z"/><path class="i" d="M48.26,24.52c1-1-4.71-6.79-5.42-7.5C38.46,12.57,33.13,8.71,27,7.47,16.67,5.38,5.81,11.19,1.94,24.3c-1.12,3.81-3,10.36-.32,14.91.5-.75,1.49-1.72,2.14-2.66.9-1,3.41-12.79,4.3-13.83,3-3.55,4.66-4.79,7.67-6.2,10.71-5,22.65,1.74,27.72,11.59C43.76,28.7,48.26,24.52,48.26,24.52Z"/><path class="i" d="M177.33,17.47c-1.05-1,4.71-6.79,5.41-7.51,4.38-4.45,9.71-8.31,15.84-9.54,10.33-2.09,21.2,3.71,25.06,16.82,1.12,3.81,3,10.36.32,14.92-.5-.75-1.49-1.72-2.14-2.67-.9-1-3.41-12.78-4.3-13.83-3-3.55-4.66-4.79-7.67-6.2-10.71-5-22.65,1.74-27.72,11.59C181.82,21.65,177.33,17.47,177.33,17.47Z"/><path class="j" d="M44.23,29A26.07,26.07,0,0,0,31.56,15.33a20.45,20.45,0,0,0-17.87.2c-5,2.61-11,15.14-9.93,21C5.62,34.36,8.67,31.73,11.4,31,19.18,28.91,25.45,35.39,30,41.3c2.46,3.23,4.89,6.54,7.19,9.89.81,1.18,3.72,7.29,5.35,7.29s.8-23.36.9-25,.38-3.78,1.89-4.23Z"/><path class="j" d="M181.65,22A26.07,26.07,0,0,1,194.32,8.27a20.42,20.42,0,0,1,17.87.21c5,2.6,11,15.13,9.93,21-1.86-2.19-4.91-4.82-7.64-5.55-7.78-2.08-14.06,4.39-18.56,10.31-2.46,3.22-4.89,6.53-7.19,9.88-.81,1.18-3.72,7.3-5.35,7.3s-.8-23.37-.9-25-.38-3.77-1.89-4.22Z"/><path class="k" d="M23.55,58.53c-4.17,6.56-2.77,17.35,4.31,20-6.33,2.54-12.16,7-15.53,13.12S8.41,105.86,11.82,112s11.06,9.67,17.42,7.2c-6.86,8.89-13.06,18.77-15.16,30s.67,24,9.17,31.15C25,181.82,27,183,28.7,184.6A39.3,39.3,0,0,1,34,191.14c7.47,10.66,5.22,20,12.69,30.66.33-11.42,0-23,3.77-31.91,2,13.84,3.62,23.81,11.5,35.37,2.79-6.29,1.43-21.84,7-25.61,0,10.24,12.92,30.84,13.89,30.46,1.64-.66,7.71-27.23,7.71-25.38,0,6.92,9.87,21.93,14.55,28.84,3.07-8.77,2.76-13,7.39-21.46,3.51,7.41,6.42,18.46,14.32,25.39,6.29-7.16,10.7-17.31,12.65-23.8.71-2.36.85,13.63,7.53,21,6.33-6.7,12.38-29.79,13.67-27,2.89,6.29,3.74,13.15,3.3,26.3,12.13-10.15,15.16-27.19,18.52-33,2.84,5.7,2.77,19.38,2.77,27,8.92-10.61,10.75-30.82,15-40.14,1.52,3.05-3,19.61-4.08,29.76,16.76-18.46,17-31.91,18.57-43.73a8,8,0,0,1,1-3.45,11.26,11.26,0,0,1,2.77-2.36c3.6-2.79,11.72-11.91,8.62-28.74-1.54-8.36-7.08-17.58-21.59-18.39,13.54-2,23-6.81,22.81-20.16-.28-15.45-9.66-25.19-23.48-23.34,12.4-1.66,10.85-19.17,4.3-27.68a19.66,19.66,0,0,0-12.57-6.92c-9.16-.78-145.24,3.86-158.37,5.2C38.27,48.08,27.72,52,23.55,58.53Z"/><path class="k" d="M40.74,174.68c1.43,1.49,5.73,14.15,7,16.46,6.06,10.66,4.24,20,10.3,30.66.27-11.42,0-23,3.07-31.91,1.58,13.84,2.93,23.81,9.33,35.37,2.26-6.29,1.15-21.84,5.67-25.61,0,10.24,10.5,30.84,11.28,30.46,1.34-.66,6.26-27.23,6.26-25.38,0,6.92,8,21.93,11.81,28.84,2.49-8.77,2.24-13,6-21.46,2.86,7.41,5.22,18.46,11.63,25.39,5.1-7.16,8.68-17.31,10.27-23.8.58-2.36.69,13.63,6.11,21,5.13-6.7,10.05-29.79,11.09-27,2.35,6.29,3,13.15,2.69,26.3,9.84-10.15,12.3-27.19,15-33,2.3,5.7,2.24,19.38,2.24,27,7.24-10.61,8.73-30.82,12.16-40.14,1.24,3.05-2.42,19.61-3.31,29.76,13.6-18.46,13.82-31.91,15.07-43.73C194.61,172.72,33.84,167.52,40.74,174.68Z"/><path class="l" d="M58.06,17H171.11c9.82,0,18.12,7.61,19.42,17.8L201.42,156.6c1.56,12.29-9,23-20.83,23H53.45c-11.13,0-20-9.68-19.58-21.32L38.49,36.71C38.9,25.71,47.55,17,58.06,17Z"/><path class="k" d="M48.16,180.56c6.85,1,13.16-2.14,19.82-4.07,2.89-.84,5.79-2,8.77-1.75a21,21,0,0,1,5,1.19c5.4,1.7,22.3,3.7,34.67,3.3,13.5-.42,22.84-1.42,34.35-4.64,2.93-.82,6-1.58,9-1.2,3.69.45,7,2.54,10.37,4.16a43.55,43.55,0,0,0,17,4.23,218.65,218.65,0,0,1-23.32,1.42c-25.15.62-50.41,1.24-75.4-1.78-10.35-1.25-17.38,0-27.75.93C57.37,182.67,48.16,180.56,48.16,180.56Z"/><g class="m"><path class="n" d="M35.3,47.09C32.46,48.9,32.14,53,32.21,56.5c0,2.23.27,4.77,2,6.09a6.63,6.63,0,0,0,3.91,1,83.81,83.81,0,0,0,18.63-1.49c5.84-1.14,12.2-2.83,17.44.09,3.78,2.1,6.12,6.21,7.91,10.28A76,76,0,0,1,86.9,87.69a5.79,5.79,0,0,0,.71,2.11c1.06,1.59,3.27,1.55,5.12,1.34,18.92-2.1,38-3.51,57-2.07-.21-6.35,0-12.91,2.51-18.71s7.66-10.71,13.73-11c4.77-.27,9.24,2.21,13.64,4.17s9.56,3.44,13.86,1.23a7.1,7.1,0,0,0,2.77-2.42,9.92,9.92,0,0,0,1.24-3.91c1.06-7.09-1-15.44-7.14-18.69a21.3,21.3,0,0,0-5.57-1.78,287.39,287.39,0,0,0-117-1.13C56.65,39,45.58,41.86,35.61,47.32"/></g><ellipse class="o" cx="62" cy="100.82" rx="24.33" ry="25.46"/><ellipse class="o" cx="171.54" cy="100.82" rx="24.33" ry="25.46"/><ellipse class="p" cx="70.48" cy="75.37" rx="19.97" ry="20.9"/><ellipse class="p" cx="163.82" cy="75.43" rx="19.97" ry="20.9"/><path class="q" d="M102.33,78.1c1.31-2.64-1.72-9.31,2.62-13.76,4-4.15,9.56-5.86,15.23-5.86,4.93,0,11.95,2,14.32,6.5,2.2,4.19,1.36,11.36,3.46,13.83,2.43,2.87,11.7,5.52,15,11.27,1.4,2.45,5.93,9.71,2.88,18.44-1.18,3.4-5.47,8.41-14.25,8.85-3.72.18-12.76-3.6-14.81-4.86-5.59-3.44-9.31-3.29-16.72-.28-4.94,2-12.43,6.92-21.86,3.94-5.41-1.71-7.36-8.1-7.81-13a24.33,24.33,0,0,1,1.69-12.31C85.38,83.28,99.76,83.28,102.33,78.1Z"/><ellipse cx="70.48" cy="71.57" rx="12.5" ry="13.08"/><ellipse cx="163.82" cy="71.63" rx="12.5" ry="13.08"/><ellipse class="p" cx="70.48" cy="68.33" rx="5.74" ry="6.01"/><ellipse class="p" cx="162.99" cy="68.39" rx="5.74" ry="6.01"/><path class="r" d="M38.94,22.81c-3.91,4.74-6.85,12.48-5,19.36a12.69,12.69,0,0,0,8.56,9.25c3.67,1,7.44.16,11.11-.78,12.92-3.31,25.71-7.82,38.77-9.58a92.94,92.94,0,0,1,27.36.37c3.7.6,7.42,1.42,11.13.92,5.21-.71,10.13-4,15.34-4.55,7-.71,13.71,3.57,20.49,6.15a44.08,44.08,0,0,0,22.58,2.48,5.9,5.9,0,0,0,3-1.13c1.7-1.4,2.47-4.41,2.56-7.24.29-10.11-6.23-17.76-12.53-22.24a55.3,55.3,0,0,0-26.58-10.3c-6.25-.61-12.53,0-18.79.59-16.4,1.58-32.8,3.29-49.21,5L51.18,14.9S42.84,18.07,38.94,22.81Z"/><path class="k" d="M47.79,35.75a4.87,4.87,0,0,1,.94-5.46c2.42-2.75,6.47-3.63,9.83-4.34a119.92,119.92,0,0,1,22-2.06c2.64-.06,6.19.19,8,2.46,1,1.24,1.87,3,1.36,4.67-.64,2.07-3.2,3-5,3.71a82.64,82.64,0,0,1-17.54,4.5c-5.49.86-11.79,2.19-17-.7A6.35,6.35,0,0,1,47.79,35.75Z"/><path class="k" d="M141.72,28.68a4.81,4.81,0,0,1,1.77-5.23c2.81-2.31,6.94-2.51,10.36-2.64a119.3,119.3,0,0,1,22.08,1.66c2.62.38,6.09,1.23,7.5,3.77.78,1.39,1.39,3.3.63,4.83-.95,1.94-3.62,2.45-5.46,2.84a82.44,82.44,0,0,1-18,1.5c-5.55-.08-12,.18-16.62-3.53A6.59,6.59,0,0,1,141.72,28.68Z"/><path class="c" d="M65,140.15c-3.19.62-5.26,6.67-5.26,12.26,0,5.23,3,10.53,7.85,11.77,7.07,1.82,9.8-3.06,22.94-3.06,19.16,0,44.22.2,59.41,0,13.6-.17,18.05,5.5,25.75,2.1,6.58-2.92,7.21-8,6.51-14.44-.2-1.88.5-5.66-5.88-8.63-7-3.25-10.09,2.82-14.73,2.75-14.38-.24-28.31-8-41.25-8-10.73,0-24.58,8.77-35.25,8.94C70.48,144.05,78,137.59,65,140.15Z"/><path class="s" d="M64.59,138.66c-7.94,2.84-7.79,16.69-3.67,22.48,5,7.06,12.2,4.68,19.11,2.85,5.5-1.46,11.08-1.33,16.73-1.32l19.93.05c12.12,0,24.5-.73,36.6,0,8.11.51,16.72,5.64,24.49,1.15,6.37-3.67,7.45-12,5.55-18.66-1-3.58-4.58-6.15-8-7.13-4.22-1.2-7,.74-10.75,2.38-5.67,2.52-13.79-.43-19.55-2-6.59-1.79-13.13-4-20-4.83-13.07-1.56-23.91,6.21-36.39,8.28-5.24.87-9.49.31-13.81-2.46-3.19-2.05-6.66-1.46-10.25-.81-2,.35-1.12,3.32.82,3,3.32-.59,5.58-.94,8.35.89a14.37,14.37,0,0,0,6.4,2.59c8.8,1.22,17-2.26,25.15-5.12,4.42-1.56,9-3.23,13.72-3.52,5.7-.36,11.42,1.15,16.87,2.65,5,1.37,9.94,2.94,15,4,3.94.82,9,2.09,13,1,3.71-1.06,6.33-4.23,10.56-3,5.53,1.6,6.24,5.56,6.39,10.39.17,5.3-2,9.55-7.53,11-3.55.91-7-.34-10.48-1.2-8.3-2.07-16.67-1.58-25.15-1.56-10.37,0-20.74,0-31.11,0-9.8,0-19.81-.85-29.32,2-3.73,1.11-7.68,2.5-11.34.22-3.12-1.94-4.57-5.86-4.65-9.38-.07-3,.67-9.54,4.13-10.78C67.27,141,66.47,138,64.59,138.66Z"/><path class="p" d="M79.68,144.62a10.64,10.64,0,0,0,5.13,8.14,1.67,1.67,0,0,0,.93.29c.52,0,.9-.52,1.2-1a27.72,27.72,0,0,0,3.39-7,1.45,1.45,0,0,0,.1-.71c-.12-.66-1-.79-1.61-.76l-8.57.38Z"/><path class="p" d="M163.82,144.62a10.63,10.63,0,0,1-5.14,8.14,1.67,1.67,0,0,1-.92.29c-.53,0-.91-.52-1.21-1a27.69,27.69,0,0,1-3.38-7,1.45,1.45,0,0,1-.11-.71c.13-.66,1-.79,1.62-.76l8.57.38Z"/><path class="p" d="M104.21,155.62c12.31-3.38,22.16-4.19,31.77.77a34.94,34.94,0,0,1-.45,5.52c-4.08.39-25.36,1.05-30.89-.44C104.64,161.47,103.64,155.78,104.21,155.62Z"/><path class="p" d="M80.22,162a8.75,8.75,0,0,1,.91-3.34,27.62,27.62,0,0,1,1.6-3c.2-.31.43-.65.78-.7s.77.32,1,.67c1,1.37,3.11,4.82,2.94,5S80.22,162,80.22,162Z"/><path class="p" d="M164.52,162a8.75,8.75,0,0,0-.91-3.34,29.52,29.52,0,0,0-1.6-3c-.2-.31-.44-.65-.79-.7s-.76.32-1,.67c-1,1.37-3.1,4.82-2.94,5S164.52,162,164.52,162Z"/><path class="s" d="M64.59,138.66c-7.94,2.84-7.79,16.69-3.67,22.48,5,7.06,12.2,4.68,19.11,2.85,5.5-1.46,11.08-1.33,16.73-1.32l19.93.05c12.12,0,24.5-.73,36.6,0,8.11.51,16.72,5.64,24.49,1.15,6.37-3.67,7.45-12,5.55-18.66-1-3.58-4.58-6.15-8-7.13-4.22-1.2-7,.74-10.75,2.38-5.67,2.52-13.79-.43-19.55-2-6.59-1.79-13.13-4-20-4.83-13.07-1.56-23.91,6.21-36.39,8.28-5.24.87-9.49.31-13.81-2.46-3.19-2.05-6.66-1.46-10.25-.81-2,.35-1.12,3.32.82,3,3.32-.59,5.58-.94,8.35.89a14.37,14.37,0,0,0,6.4,2.59c8.8,1.22,17-2.26,25.15-5.12,4.42-1.56,9-3.23,13.72-3.52,5.7-.36,11.42,1.15,16.87,2.65,5,1.37,9.94,2.94,15,4,3.94.82,9,2.09,13,1,3.71-1.06,6.33-4.23,10.56-3,5.53,1.6,6.24,5.56,6.39,10.39.17,5.3-2,9.55-7.53,11-3.55.91-7-.34-10.48-1.2-8.3-2.07-16.67-1.58-25.15-1.56-10.37,0-20.74,0-31.11,0-9.8,0-19.81-.85-29.32,2-3.73,1.11-7.68,2.5-11.34.22-3.12-1.94-4.57-5.86-4.65-9.38-.07-3,.67-9.54,4.13-10.78C67.27,141,66.47,138,64.59,138.66Z"/></svg>