<svg xmlns="http://www.w3.org/2000/svg" viewBox="0 0 308 427"><defs><style>.a{fill:#700b1b;}.b{fill:#2f1a17;}.c{fill:#a29283;}.d{fill:#2c231e;opacity:0.5;}.e{fill:#2f2627;}.f{fill:#82756f;}.g{fill:#393029;}.h{fill:#645649;}.i{fill:#8b7965;}.j{fill:#53453a;}.k{fill:#473b33;}.l{fill:#8d7c68;}.m{fill:#5f5144;}.n{fill:#736759;}.o{fill:#988c80;}.p{fill:#9c8b77;}.q{fill:#0d0d0d;}.r{fill:#241e1e;}.s{fill:#95908c;}.t{fill:#a49383;}.u,.w{fill:none;stroke-miterlimit:10;stroke-width:5px;}.u{stroke:#584e45;}.v{fill:#584e45;}.w{stroke:#9b877e;}.x{fill:#9b877e;}.y{fill:#4e4f51;}.z{fill:#6e6057;}.aa{fill:#26211d;}.ab{fill:#83796d;}.ac{fill:#261b15;}.ad{fill:#bd0311;}.ae{fill:#380008;}.af{fill:#58111f;}.ag{fill:#40040c;}.ah{fill:#650415;}.ai{fill:#ab1427;}.aj{fill:#6e0412;}.ak{fill:#e63851;}.al{fill:#5d0008;}</style></defs><title>feature_north</title><path class="a" d="M230.39,100.51s33.25,71.92-4.92,190.17c-25.89-18.41-17.6-84.7-17.6-84.7Z"/><polygon class="b" points="175.84 204.05 122.28 175.97 130.46 119.87 165.15 146.1 175.84 204.05"/><path class="c" d="M123.76,310.81s7.69,38.94,0,98.28l-6.09,7.42s11.61,10.78,32.43,8.57S225,426.5,225,426.5s6.5-.71,10.53-1.56-17.42-29.09-17.42-29.09l.27-59.87V313.19s-24.84,4.24-36.79,2.65S123.76,310.81,123.76,310.81Z"/><path class="d" d="M126.11,329.91s4.64,10.65,10.9,11.1,15.89,17.22,15.89,17.22S164.3,394,166.15,394s1.06-17.48,4.77-18.28,6.09,8.22,15.36,2.65,1.33-14,6.89-15.1,6.24,14.84,15.63,10.6,5.3-36,5.3-36l-.27-39.74-80.53-7.41Z"/><path class="e" d="M228.39,116.67s5-.57,8.21,2.08,2.65,70.46,2.65,70.46l-1.59,8.48H225.47Z"/><path class="f" d="M180.63,3.77S151.31,2,142.13,38,126.94,84,131.89,120.34s-3.89,49.8-4.24,65.34,1.76,61.11,1.76,74.18-7.06,32.85-7.41,39.21-7.07,27.55,23.66,31.79c-6.71,25.07-13.42,89,2.12,93.6s26.85,0,26.85,0,7.77-21.19-6-22.25,5.3-61.46,8.48-65S193,313.9,173.57,303.3c3.71-15,14.13-28.61,14.13-28.61l7.86,28.7.52,13.51s11.84,25,9,40.54-5.38,51.48,11.57,65.61c8.3,3.45,17.35,2.18,22,1.43,4.09-.65,6.93-20.15-8.05-22.85-12.83-17.44-4.35-51.61-3.38-57.7,1-6.29,12-18,1.06-50.87s4.23-80.53,3.88-134.58-4.59-108.43-5.3-117.26S233.26-1.17,180.63,3.77Z"/><path class="g" d="M183.1,317.17h14.57s6.63-4.24,7.42-8.48-2.38-13-6.09-13-14.84,2.12-22,0S169.06,311.87,183.1,317.17Z"/><path class="h" d="M187.5,272.27s-3.73,10.59-9.69,13.56c-4,2-1.74,9.71-1.74,9.71s14.72,3.08,21.07.17-1.43-11.18-4.23-11.39C189.33,284.05,187.5,272.27,187.5,272.27Z"/><path class="i" d="M183,18.61c6.1-.84,10.73,12.54,20.09,13.6s15.54-13.42,20.31-11.13,4.87,38,4.87,38l-27.3,39.55s-50.16-5.88-56.16-10.53-4.95-25.49,1.06-37.68S162.35,21.44,183,18.61Z"/><path class="j" d="M151.67,56.55s-4.77,1.77-7.06,5,.18-11.66,3.53-12.89a23.74,23.74,0,0,1,5.12-1.42S151.32,54.08,151.67,56.55Z"/><path class="j" d="M150.32,72.46s-14.12,4.06-7.77,13.24,16.07,3,17.49-3C150.47,77.93,150.32,72.46,150.32,72.46Z"/><path class="k" d="M149.88,72.83s-7.68,2.29-7.68,5.74c-4-4.19,1.59-18.15,1.59-18.15s4.77-4.11,6.09-2.78S149.88,72.83,149.88,72.83Z"/><path class="k" d="M155.09,49s-4.24-.8-6.23,0,4.37-15.63,10.46-17.62,5.83,6.76,5.83,6.76S158.53,42.89,155.09,49Z"/><path class="l" d="M197.06,46.51s-2.65-3.71-6-3.88-7.59,2.12-9.71,1.94-7.24-12-16.78-10.42-18.72,17.66-15.37,36,38,24.37,58.11,28.43,22.08-9.18,22.08-9.18l-1.24-33a8.43,8.43,0,0,0-3.71-5.47C221.25,49,197.06,46.51,197.06,46.51Z"/><path class="j" d="M166.5,35.07c2.4,0,5.65,1.06,8.13,5.13s7.94,6.71,14.66,3.7,6.18,5.48,16.42,5.48,22.43,6.18,22.43,6.18l-1.77-26.14s.76-3.88-4.3-1.76-19,11.12-30,3.17S162.51,33.69,160,35.6a26.65,26.65,0,0,0-8.28,11.06S160.2,35.11,166.5,35.07Z"/><path class="m" d="M172,32.8s-9.63-2.82-2.43-8.65,9.31,2.65,8.43,4.32S174.4,32.8,172,32.8Z"/><path class="k" d="M184.64,27.12s-.69-10,7.27-5.28.75,9.66-1.13,9.41S185.48,29.4,184.64,27.12Z"/><path class="n" d="M177.68,28.32s-6.22-7.87,3-8.46,6.07,7.55,4.38,8.41S179.66,29.73,177.68,28.32Z"/><path class="o" d="M146.74,24.36S139.8,18,155.21,4,183.29,23,167.93,24.36,146.74,24.36,146.74,24.36Z"/><path class="p" d="M184.11,55s-17.44-7.14-19.92-.62.93,17,9.55,17.18,8.14,4.27,15.47,6.07S203.52,87.35,215.08,88c7.64.46,11.13-4,15-18.52-15.36,1-19.24,2.79-27.71-4.14S193,57.76,184.11,55Z"/><path class="q" d="M186,60s-13.34-4.59-15.5-.88,3,6.89,9.67,7.24,3.36,5.65,9,6.89,14.33,7.42,23.31,8.12c5.94.47,11-.88,14.48-9.18-12,.18-12.89.84-17.31-.53-4-1.23-3.53-1.67-9.89-5.91S192.86,61.78,186,60Z"/><path class="p" d="M183,58.21c-2.48,1.16-3.91,2.33-5.24,7.85L183,68S181.45,65.9,183,58.21Z"/><circle class="r" cx="182.97" cy="38.39" r="7.13"/><circle class="s" cx="182.97" cy="38.39" r="1.66"/><path class="h" d="M205.85,49.8s-9.27-5.56-9.53,4.77,10.33,5.56,14,6.36,5,3.18,9.53,2.38,9.54-7.42,3.18-13S209.56,49.54,205.85,49.8Z"/><path class="t" d="M206.77,48.81s-9.27-5.56-9.54,4.77,10.33,5.56,14,6.36,5,3.18,9.54,2.38,9.54-7.42,3.18-13S210.48,48.54,206.77,48.81Z"/><path class="h" d="M210,60.7s-12-1.77-8.3-5.3S210,60.7,210,60.7Z"/><path class="u" d="M163.06,99.58s30.73,26.39,44.15,26.06,20.84-19.54,20.84-19.54"/><polygon class="v" points="162.23 152.62 194.02 134.22 220.98 182.28 191.61 201.82 162.23 152.62"/><line class="u" x1="193.44" y1="134.37" x2="228.94" y2="196.37"/><path class="w" d="M163.08,98.12s30.73,26.39,44.16,26.05,20.84-19.53,20.84-19.53"/><circle class="x" cx="207.87" cy="134.22" r="7.06"/><path class="y" d="M228.47,214.08s5.23,2.62,7.92,0,6.66-18.68,4-22-9.53-1.12-9.53-1.12Z"/><path class="z" d="M158.33,100.94h-24s-5.3,55.11,6.35,62.17,14.13,19.7,41.68,15.68c6.71,0,6.36-22.74-2.82-23.8s-22.26-2.26-23-7.66S158.33,100.94,158.33,100.94Z"/><path class="aa" d="M148.74,121.66s1.34,19.15,7.7,21.73c0-10.5,3-42.45,3-42.45Z"/><path class="aa" d="M158.07,152.91a5.79,5.79,0,0,1,1.38,4,6.93,6.93,0,0,1-1.18,3.69,6.62,6.62,0,0,1-3,2.54,5.49,5.49,0,0,1-4.24.05,30,30,0,0,1,1.1-3.57,12.18,12.18,0,0,1,1.18-2.34,11.25,11.25,0,0,1,1.78-2A20.14,20.14,0,0,1,158.07,152.91Z"/><path class="aa" d="M140.05,141.72c1.25-.64,2-1,2.57-1.3a3.26,3.26,0,0,1,1.27-.4,2.34,2.34,0,0,1,1.06.48,17.05,17.05,0,0,0,2.52,1.22,3.58,3.58,0,0,1-3.79,4.3,3.75,3.75,0,0,1-3.63-4.3Z"/><path class="aa" d="M171.3,159.65a37.27,37.27,0,0,1,3.8-.67,31.21,31.21,0,0,1,3.88-.21,9.46,9.46,0,0,1,4,.45c.33.16.64.33,1,.51a6.66,6.66,0,0,1,.87.7,5.24,5.24,0,0,1,.72.91,3.17,3.17,0,0,1,.35,1.12l-.24.17c-.4-.08-.67-.18-1-.23l-.86-.11c-.3,0-.56-.06-.84-.09s-.56-.06-.84-.1a27.37,27.37,0,0,1-3.4-.95c-1.2-.24-2.42-.47-3.65-.67s-2.49-.36-3.75-.53Z"/><path class="aa" d="M167.91,165.22c1.54-.22,3.09-.33,4.64-.46s3.1-.17,4.66-.17a16.23,16.23,0,0,1,4.71.25,9.36,9.36,0,0,1,2.31,1,5.63,5.63,0,0,1,1.09.8,3.2,3.2,0,0,1,.47.6,1,1,0,0,1,.11.82h-.3c-.26-.22-.56-.17-.9-.2h-1.07c-.72,0-1.46,0-2.19,0A29.12,29.12,0,0,1,177,167l-9.1-1.47Z"/><path class="aa" d="M169.5,171.22a22.24,22.24,0,0,1,2.43-.49,18.59,18.59,0,0,1,2.49-.17,4.73,4.73,0,0,1,2.59.29,3.55,3.55,0,0,1,1.13,1,2.84,2.84,0,0,1,.42.72,1.85,1.85,0,0,1,.1.87l-.26.17a4,4,0,0,0-.71,0l-.57.07a5.36,5.36,0,0,1-1.05,0c-.69,0-1.3-.52-2-.77s-1.47-.47-2.22-.7-1.54-.46-2.32-.7Z"/><path class="ab" d="M223.15,194.76s-.35-1.58,5.12-3.53,7.95,5.83,7.95,5.83,1.23,15.19-2.83,16.6-16.95-.53-15.72-4.94,2.24-4.07,2.24-4.07A54.34,54.34,0,0,1,221,198.3,14.36,14.36,0,0,1,223.15,194.76Z"/><path class="ac" d="M228.54,205s-7.82-1.59-9.54,0"/><path class="ac" d="M230.92,199.29s-8.08-1.72-10.07,0"/><path class="ac" d="M230,194.39s-4.5-.79-6.22.53"/><path class="ad" d="M147.82,89.9h-9.21l-10.06,7.46v11.53s-8.48,15.8-8.66,19.51,2,18.37,2,18.37-35.15,51-40.09,61.63-27.91,36.74-33.56,35.33c2.12,13.06,30.38,5.65,37.79,7.77s21,16.95,32.06,16.95a17.05,17.05,0,0,0,8.44,10.9s6.42-16,3.66-63.18c-2.5-42.7,4.24-75.45,4.24-75.45l32.14-41.64Z"/><path class="ae" d="M207.87,100.6s-34.3.93-40.4,0-25.3-11.39-25.3-11.39,51.93,1.59,67.56,10.2S207.87,100.6,207.87,100.6Z"/><path class="af" d="M215.25,100.51s10.75-4.27,15.14,0l2,7.91s-8.9-6.64-11.62-4.9S215.25,100.51,215.25,100.51Z"/><polygon class="ag" points="212.07 110.58 216.66 150.5 227.26 169.92 237.85 166.74 212.07 110.58"/><polygon class="ah" points="223.81 119.87 230.17 135.99 223.81 138.46 223.81 119.87"/><path class="ai" d="M207.87,98.61s-31.79-11.26-57.62-9.14C164,95.83,207.87,98.61,207.87,98.61Z"/><path class="ai" d="M206.42,96.89l-3.78,6.25s12.36,33.21,14.84,33.21S227.72,125,227.72,125s-6.35-20.6-9.18-23C214.36,98.61,206.42,96.89,206.42,96.89Z"/><path class="aj" d="M133.28,103.52s-11.73,16.32-11,23.71,0,18.87,0,18.87S124.36,118.31,133.28,103.52Z"/><path class="aj" d="M139.91,107.07s-1.53-2.28-4.59,1.55-8.41,20.91-9.43,31.62c3.06-2.61,7-11.91,7-11.91S137.87,103.75,139.91,107.07Z"/><path class="aj" d="M144,107.62c-.18-.53,5.3-3.35,1.94,1.95s-11.66,9.18-12.54,14.13a41.17,41.17,0,0,1-2.65,8.83L129,133.94s1.94-10.42,4.06-12.89S144,107.62,144,107.62Z"/><path class="aj" d="M135.61,130.21s9-13.78,11.87-13.78S149.21,118.9,135.61,130.21Z"/><path class="ak" d="M128.5,107V97.62l6.72-5.83s4.94-3.18,8.65-2.65,21.33,12.19,24.37,11.48-24.9-.88-30,.71A31.17,31.17,0,0,0,128.5,107Z"/><path class="al" d="M134.83,139.66s-17,23.31-13.07,48,7.72,17.21,7.72,17.21S132.71,148.49,134.83,139.66Z"/></svg>