<svg xmlns="http://www.w3.org/2000/svg" xmlns:xlink="http://www.w3.org/1999/xlink" viewBox="0 0 271.57 447.2"><defs><style>.a{fill:none;}.b{fill:#9cb4b7;}.c,.f{fill:#cae6e8;}.c{stroke:#cae6e8;stroke-miterlimit:10;stroke-width:2px;}.d{fill:#7e9799;}.e{fill:#6b8988;}.g{clip-path:url(#a);}.h{clip-path:url(#b);}.i{fill:#1b1a1f;}.j{fill:#2a2a2f;}.k{fill:#564524;}.l{fill:#b39348;}.m{fill:#e5ddcc;}.n{fill:#fcfcf9;}.o{fill:#bfb7aa;}.p{fill:#444449;}</style><clipPath id="a"><path class="a" d="M155.72,58.3c-1.5-1.3-5.45-1.21-7.22-.33-3.13,1.54-4.4,5.3-5,8.73s-1.38,6.78-3.73,9.37a18.76,18.76,0,0,1-6.89,4.46c-2.57,1.07-5.73,2.34-6.41,5-2.37,9.36,3.14,16.36,5.63,16.36,4,0,6.06-2,8-2s-1,3,10,3c1.38,0,6-3,9-3,6,0,9,2,16,1,2.62-.38,6.71-4.62,7.62-7.1,1.3-3.57,1.51-9.78-1.2-12.43s-4.43-3.15-8-4.44a43.83,43.83,0,0,1-6.21-2.67,15.58,15.58,0,0,1-6.22-8A20.51,20.51,0,0,0,155.72,58.3Z"/></clipPath><clipPath id="b"><ellipse class="a" cx="94.56" cy="351.93" rx="22.56" ry="32"/></clipPath></defs><title>oucuo_oucuo</title><path class="b" d="M257.43,178.2c.63-4,1.09-69,.65-90.87a69.55,69.55,0,0,0-.9-11.72c-1.34-7-4.2-23.42-4.2-23.42,8.58-9.76,2.58-40.76-24.42-35.44-14.91-20.07-102-29.32-126.24,14.5-9.76-4.82-16.8,14.31-13.83,23.6C86.56,66.43,91.76,91,92.18,93.5c.69,4,.1,8.22.69,12.28.67,4.64,6.69,16.65,6.69,16.65-1,10.58-2,29,4,35,0,9,5,23,5,36,0,4.88-3.69,15.84-4.58,20.64-1.85,9.89-6.42,19.36-5.72,29.63-10.7,6.73-14.2,43.23-10.2,46.23-2.5,3.5-1,10,.5,12.5-2.47,4.49-2,11,1,14-.56,1-.86,3.24-1,6.32-16.15,2.38-20.11,32.16-12,48.68,4.44,9.07,13,12.54,24,9-1,12,2.44,36.88,3.69,37.85A8.35,8.35,0,0,0,108,419.6a503.5,503.5,0,0,0,104.17,7.08c14.73-.53,29.57-1.73,43.66-6,5.33-1.63,11.54-5.2,11-10.76-.33-3.55-3.44-6.21-4.56-9.61-1.89-5.71,2.15-11.46,4.13-17.14,3.59-10.24.46-21.49.93-32.33.23-5.32,1.34-10.57,2.18-15.83a162.27,162.27,0,0,0-13.47-94.5S254.38,197.74,257.43,178.2Z"/><path class="c" d="M148.47,13.58l.46,3.89,4.18-.76.07,0a1,1,0,0,1,.79.2,1.24,1.24,0,0,1,.41.86c.09.75-.19,1.19-.85,1.31l-4.32.79.53,4.55,6.7-1.12h.09a1,1,0,0,1,.8.22,1.27,1.27,0,0,1,.4.86c.1.83-.18,1.29-.84,1.41L141,28.35l-.09,0a.94.94,0,0,1-.77-.21,1.22,1.22,0,0,1-.41-.86c-.1-.8.18-1.25.82-1.35l6.56-1.1-.53-4.51-4.18.77h-.09a1,1,0,0,1-.73-.18,1.31,1.31,0,0,1-.47-.93,1,1,0,0,1,.84-1.26l4.35-.79-.46-3.88-4.95.92-.09,0c-.7.08-1.09-.26-1.18-1s.17-1.24.78-1.35l12.56-2.38H153c.73-.08,1.14.27,1.23,1.08s-.17,1.18-.79,1.3Z"/><path class="d" d="M104.06,68.93c-1.85-3.71-5-10-6-15-.39-2,113.68-18.85,114-16.49.47,3.65-1.51,10.08-4,17.49-3,9-10.24,17.13-25,20-36,7-18.77-16.76-32-15-15,2,6,20-22,23C118.12,84.1,107.06,74.93,104.06,68.93Z"/><circle class="e" cx="127.06" cy="68.93" r="12"/><circle class="e" cx="183.06" cy="61.93" r="13"/><path class="e" d="M100.32,56.48c2.1,1,4.59.52,6.71-.4s4-2.27,6.13-3.23a33.87,33.87,0,0,1,9.39-2.34q5.79-.84,11.59-1.48c3.08-.34,6.25-.64,9.25.18,1.82.49,3.53,1.39,5.36,1.84,3.75.93,7.71-.06,11.26-1.56s6.89-3.51,10.53-4.78c12.37-4.32,26.63.39,38.83-4.39,1.08-.42,2.25-1,2.54-2.17a2.71,2.71,0,0,0-1.48-2.85,8,8,0,0,0-3.34-.75l-9.56-.72c-8.87-.67-18-1.31-26.47,1.38-4.86,1.53-9.32,4.11-13.7,6.72-2.74,1.63-5.7,3.34-8.87,3.07-3.68-.31-6.67-3.21-10.3-3.87a16.79,16.79,0,0,0-6.34.43c-11.7,2.39-28.47-.14-34.28,10.31C96.92,53,98.22,55.53,100.32,56.48Z"/><rect class="f" x="141.06" y="29.93" width="20" height="15" rx="7" transform="translate(-4.05 24.7) rotate(-9.22)"/><rect class="f" x="161.56" y="25.8" width="15" height="11.25" rx="5.25" transform="translate(-2.26 16.7) rotate(-5.62)"/><rect class="f" x="178.56" y="23.8" width="15" height="11.25" rx="5.25"/><rect class="f" x="124.56" y="31.8" width="15" height="11.25" rx="5.25" transform="matrix(0.99, -0.16, 0.16, 0.99, -4.29, 21.65)"/><rect class="f" x="108.56" y="35.8" width="15" height="11.25" rx="5.25" transform="translate(-5.95 24.1) rotate(-11.56)"/><rect class="f" x="95.31" y="41.37" width="13.5" height="10.12" rx="4.72" transform="translate(-8.44 27.43) rotate(-14.7)"/><rect class="f" x="196.56" y="24.8" width="15" height="11.25" rx="5.25" transform="translate(5.91 -27.05) rotate(7.7)"/><path class="e" d="M145.08,34c0,1.78,12.2-1.08,11.66-2S145.07,32.81,145.08,34Z"/><path class="e" d="M145.08,38c0,1.78,12.2-1.08,11.66-2S145.07,36.81,145.08,38Z"/><path class="e" d="M146.08,42c0,1.78,12.2-1.08,11.66-2S146.07,40.81,146.08,42Z"/><path class="e" d="M137.85,36.47a3.51,3.51,0,0,0-4-2.84l-3.94.7a3.5,3.5,0,1,0,1.22,6.89l3.94-.69A3.52,3.52,0,0,0,137.85,36.47Zm-3.37,3.41-3.12.55a2.77,2.77,0,1,1-1-5.45l3.12-.56a2.77,2.77,0,1,1,1,5.46Z"/><path class="e" d="M121.85,40.47a3.51,3.51,0,0,0-4-2.84l-3.94.7a3.5,3.5,0,1,0,1.22,6.89l3.94-.69A3.52,3.52,0,0,0,121.85,40.47Zm-3.37,3.41-3.12.55a2.77,2.77,0,1,1-1-5.45l3.12-.56a2.77,2.77,0,1,1,1,5.46Z"/><path class="e" d="M106.26,45.92a3,3,0,0,0-3.62-2.2l-3.32.82a3,3,0,0,0,1.43,5.82l3.32-.82A3,3,0,0,0,106.26,45.92ZM103.58,49l-2.63.65a2.37,2.37,0,0,1-1.14-4.61l2.63-.64a2.37,2.37,0,1,1,1.14,4.6Z"/><path class="e" d="M174.91,30.92a3.51,3.51,0,0,0-3.81-3.16l-4,.37a3.5,3.5,0,0,0,.65,7l4-.37A3.51,3.51,0,0,0,174.91,30.92ZM171.27,34l-3.15.29a2.77,2.77,0,1,1-.52-5.51l3.16-.3a2.77,2.77,0,0,1,.51,5.52Z"/><path class="e" d="M191.94,29.38a3.52,3.52,0,0,0-3.53-3.47l-4,0a3.5,3.5,0,0,0,.06,7l4,0A3.51,3.51,0,0,0,191.94,29.38ZM188,32.19l-3.16,0a2.77,2.77,0,1,1,0-5.54l3.17,0a2.78,2.78,0,0,1,0,5.55Z"/><path class="e" d="M209.9,31.09a3.52,3.52,0,0,0-3.06-3.9l-4-.48a3.5,3.5,0,0,0-.84,6.95l4,.48A3.51,3.51,0,0,0,209.9,31.09Zm-4.22,2.28L202.53,33a2.77,2.77,0,0,1,.67-5.5l3.14.38a2.77,2.77,0,0,1-.66,5.5Z"/><circle class="f" cx="127.56" cy="70.43" r="9.5"/><ellipse class="f" cx="183.56" cy="63.93" rx="9.5" ry="10"/><circle class="e" cx="126.56" cy="72.43" r="5.5"/><circle class="e" cx="182.56" cy="66.43" r="5.5"/><circle class="f" cx="125.56" cy="75.43" r="1.5"/><circle class="f" cx="181.56" cy="69.43" r="1.5"/><path class="d" d="M215,98.41c-.93,3.85-27.66,1.61-25.92-4C190.5,89.84,216.05,94.12,215,98.41Z"/><path class="d" d="M131.38,101.21c1.06-4.14-20.22.33-19.76,4.43C111.79,107.15,130.12,106.12,131.38,101.21Z"/><path class="f" d="M155.72,58.3c-1.5-1.3-5.45-1.21-7.22-.33-3.13,1.54-4.4,5.3-5,8.73s-1.38,6.78-3.73,9.37a18.76,18.76,0,0,1-6.89,4.46c-2.57,1.07-5.73,2.34-6.41,5-2.37,9.36,3.14,16.36,5.63,16.36,4,0,6.06-2,8-2s-1,3,10,3c1.38,0,6-3,9-3,6,0,9,2,16,1,2.62-.38,6.71-4.62,7.62-7.1,1.3-3.57,1.51-9.78-1.2-12.43s-4.43-3.15-8-4.44a43.83,43.83,0,0,1-6.21-2.67,15.58,15.58,0,0,1-6.22-8A20.51,20.51,0,0,0,155.72,58.3Z"/><g class="g"><path class="d" d="M133.79,102.88a5.27,5.27,0,0,1,.59-4,4.13,4.13,0,0,1,2.69-1.78,1.85,1.85,0,0,1,1,0,4.32,4.32,0,0,1,1.7,1.86,3,3,0,0,1,.51,1.23,1.53,1.53,0,0,1-.92,1.46C137.62,102.72,133.79,102.88,133.79,102.88Z"/><path class="d" d="M156.43,101.48a5.86,5.86,0,0,1,3-5.56,8.6,8.6,0,0,1,11.86,3.85,1.59,1.59,0,0,1,.06,1.48,1.76,1.76,0,0,1-1.34.55C166,102.22,156.43,101.48,156.43,101.48Z"/></g><path class="f" d="M153.63,145.72c4.43,28.21,18.7,27.92,22,29a2.33,2.33,0,0,0,1.07.16c1-.17,1.28-1.43,1.33-2.43.47-8.61-.34-17.23-1.15-25.82C176.77,145.68,153.63,145.72,153.63,145.72Z"/><path class="f" d="M136.52,173c-.27,0-.57,0-.77-.15a1,1,0,0,1-.16-.84c.24-2.17,2.77-24.23,3.14-24.72S149.39,144,154,145.38C154,145.38,161.06,172.93,136.52,173Z"/><path class="f" d="M176.06,145.93s2,30,26,29c0,0-6-13-3-28C199.5,144.74,176.06,145.93,176.06,145.93Z"/><path class="f" d="M227.41,174.79c-4.65-3.85-11.87-28.47-12.35-28.86-.85-.68-15.87.21-19,1C196.06,146.93,206.06,174.93,227.41,174.79Z"/><path class="f" d="M137.86,148.52c1.35,3-.47,6.5-2.23,9.34-1.21,1.94-2.42,3.88-3.76,5.73a48.51,48.51,0,0,1-12.58,12c-.48.31-1.08.62-1.58.35s-.57-1-.56-1.56l.33-19.24a2.95,2.95,0,0,1,2.17-3.57c5.7-2.31,11.6-4.65,17.74-4.46Z"/><path class="f" d="M119.06,152.93c-1.17,8.28-3.93,18.64-12,27-.93-4.36-4-18-4-24C103.06,155.93,119.18,152.1,119.06,152.93Z"/><path class="f" d="M216.07,38.18c12.49,11.25,27.49,28.9,27.49,44.25,0,4,6,2,6-1,0-19.36-17-42-31-48C215.8,32.25,214.52,36.78,216.07,38.18Z"/><path class="f" d="M213.44,148.31c6.62,9.62,23.62,11.62,29.62,11.62-5.36-8.16-10.85-18.4-15.66-26.6C227.2,133,213.44,148.31,213.44,148.31Z"/><path class="f" d="M224.06,131.93c14.76,17,27.82,12.71,31,15-8-10-17.09-28.5-17.37-28.43S224.06,131.93,224.06,131.93Z"/><path class="f" d="M237.06,118.93s6,10,21,10v-18a30.27,30.27,0,0,1-16-16Z"/><path class="d" d="M100.06,149.93c2,10,5,8,10,7,11.81-2.36,30.86-9.88,47-10.52s32.26,1.56,48.08,4.8c4.41.9,10.31-1.35,13.93-5.28,5.08-5.52,5.46-7,10-13s14.92-16.58,16-24c.37-2.54.15-8.71-1-11-4-8-10-7.35-16-6s-20.5,13.32-26,16c-8.24,4-22.95,1.7-49,3-20,1-30.32,4-38,4-8,0-12.84-.16-14,1C98.06,118.93,97.64,137.8,100.06,149.93Z"/><path class="e" d="M223.06,104.93c-3.54,5.55-10,5.67-15,10s-10.09,4.7-12,11c-.55,1.83-.42,12.13,0,14s6.88,2.48,8.67,3.16c2.87,1.09,6-.8,8.18-3,2.83-2.83,5-6.24,7.62-9.27,3-3.44,6.5-6.36,9.63-9.67s5.91-7.15,6.9-11.6-.45-11.74-5-11.65C229.85,98,224.65,102.44,223.06,104.93Z"/><path class="e" d="M104.06,128.93c-.29,4.78,0,9,1,12,.82,2.47,3.93,5.93,6.44,6.19a10.76,10.76,0,0,0,5.56-1.19c4.12-2.44,1-3.92,1-4.79l-.1-11.38a1.86,1.86,0,0,0-.2-1c-.37-.58-1.19-.54-1.8-.83a4.13,4.13,0,0,1-1.55-1.79c-2.09-3.44-5.35-6.19-10.35-8.19C102.31,117.23,104.19,126.73,104.06,128.93Z"/><path class="e" d="M112.06,122.93c-2.45,1,.27,22.2,1,22,9.15-2.52,33.6-10.5,44.5-10.5s33.35,5.08,38.5,1.5c.65-.45,4.9-16.31,3-17C191.7,116.25,130.35,115.45,112.06,122.93Z"/><path class="f" d="M191.58,122.27c.48,2.66-.47,8.33-.52,11.66a110.3,110.3,0,0,0,10-11c11-4,28-21,31-25-1.47-.7-29.28,17.36-33,17-16.55-1.63-64-1-84,4-6-1-9.44-1.56-11-1,.32,1.91,1,2,4,4,2,4,7,12,10,15a43,43,0,0,1-2-12C129.06,120.93,183.06,120.93,191.58,122.27Z"/><path class="f" d="M200.06,126.93a36.73,36.73,0,0,1,0,8.85c-.18,1.83,14.63,2.52,13,4.15-1,1-3.89,4.7-9,3a36.59,36.59,0,0,0-7.84-1.32c-11.48-1.22-54.94-5.05-77.83,3.78-.45.18-6.33,3.54-9.33.54-1.5-1.51,3-4,6.16-5.87a30.41,30.41,0,0,1-1.16-7.13,28.77,28.77,0,0,0,4,6c12-6,55-7,75-4A87.8,87.8,0,0,0,200.06,126.93Z"/><path class="e" d="M239.25,36.93a7.76,7.76,0,0,1,6.65-5,7.3,7.3,0,0,1,7,4.35,6.88,6.88,0,0,1-2.09,7.89A13,13,0,0,1,246.87,46a2.68,2.68,0,0,1-2.18.06,2.86,2.86,0,0,1-1-1.69,17.33,17.33,0,0,0-4.08-6.68Z"/><path class="f" d="M138.08,238.7a12.43,12.43,0,0,0-.67,5.16c.42,3.54,3.17,6.49,6.4,8s6.89,1.83,10.46,1.9a28.34,28.34,0,0,0,10.79-2.84c4-2,5-5,5-9,0-3.43-11-19-16.62-23.35C153.44,218.58,140.56,230.78,138.08,238.7Z"/><path class="d" d="M141.43,235.21c4.41,7.19,16.28,4.37,21.25-.41,1.4-1.34-.72-3.46-2.12-2.12a13.15,13.15,0,0,1-8.06,3.74c-2.66.23-6.93-.2-8.48-2.72-1-1.65-3.6-.14-2.59,1.51Z"/><path class="d" d="M108.06,195.93l-1,6s21,16,46,17c0,0,19-13,31-14,0,0,34-4,46-11v-4s-34,9-46,9c-14,0-31,14-31,14S138.06,213.93,108.06,195.93Z"/><path class="d" d="M101.43,250.3c-1.87.14-1.73,44.71-.37,44.63S103.56,250.14,101.43,250.3Z"/><path class="f" d="M87.06,289.93c-.54.48-.55,9.16,0,9q10.5-3,15-3v-8C102.06,284.93,88.13,289,87.06,289.93Z"/><ellipse class="f" cx="94.56" cy="351.93" rx="22.56" ry="32"/><rect class="f" x="94.06" y="294.93" width="2" height="28"/><rect class="f" x="98.06" y="294.93" width="2" height="26"/><rect class="f" x="89.06" y="294.93" width="1" height="29"/><rect class="f" x="87.06" y="297.93" width="1" height="25"/><rect class="f" x="91.06" y="294.93" width="1" height="29"/><g class="h"><path class="d" d="M123.67,364.92c-4.2.87-8.47.94-12.43,2.72a41,41,0,0,0-8.93-2.5h-.14c-.26-1.8-.53-3.6-.79-5.41l2.81-3.51a20.64,20.64,0,0,0,2.77-3.7c1.4,0,2.8,0,4.2-.07l6.79,7.91c1.26,1.47,3.38-.66,2.12-2.12L118.13,356a5.06,5.06,0,0,1-2.78-3.24l-.28-.32h.19a6.21,6.21,0,0,1,0-3H115c.12-.16.26-.31.39-.46a5,5,0,0,1,2.94-3.16c.49-.49,1-1,1.49-1.43,1.45-1.28-.68-3.4-2.12-2.12a45.18,45.18,0,0,0-6.48,7.2c-1.52,0-3,0-4.54.07a2.16,2.16,0,0,0-.38.06c-1.39-2.19-2.8-4.55-4.89-6.07l.77-5.18a2.26,2.26,0,0,0,0-.45,53.6,53.6,0,0,1,7.77-3.3c3,.72,5.86,2.24,8.68,3.38,1.79.72,2.57-2.18.8-2.9-2.4-1-4.86-2.2-7.36-3q1-3.24,1.94-6.48c.56-1.86-2.34-2.65-2.89-.8l-.32,1.07a18.14,18.14,0,0,1-2.45-1,11.89,11.89,0,0,0-2.64-1.27,1.5,1.5,0,0,0-.9.05h-.12a29.67,29.67,0,0,0-5.61,1.21l-.89-1.58a9.57,9.57,0,0,0,1.21-1.93q1-2,2.08-4.05c.88-1.72-1.71-3.24-2.59-1.52-.54,1.07-1.09,2.14-1.64,3.2-.4.78-.79,2.11-1.56,2.6a.18.18,0,0,1-.07.05c-.06,0-.11,0-.18,0h-2.6a27.58,27.58,0,0,1-1.49-4.64c-.44-1.88-3.33-1.08-2.89.8a31.48,31.48,0,0,0,1.88,5.57,2.12,2.12,0,0,0,.12.2c-.3.54-.61,1.07-.9,1.62a33.52,33.52,0,0,1-5-1.46h0a1.56,1.56,0,0,0-1.39-.06,38.08,38.08,0,0,1-4.38,1.57c-.06-.25-.11-.51-.17-.76-.46-1.87-3.35-1.08-2.89.8l.24,1.06a1.61,1.61,0,0,0,.44,2.14c.25,1.34.46,2.69.62,4v0L67.94,336c-1.78.7-1,3.61.79,2.89l10-4c2.65.94,5.27,2,7.84,3.13a1.24,1.24,0,0,0,.1.2,32.71,32.71,0,0,1,1.06,5.53l-4.11,4.69a1.67,1.67,0,0,0-.33.59,1.77,1.77,0,0,0-.12.17c-1.56,0-3.14-.12-4.71-.23h0L74,341c-.94-1.69-3.53-.18-2.59,1.51.71,1.27,1.42,2.54,2.14,3.81a5.67,5.67,0,0,1,.71,1.09,6.12,6.12,0,0,1,.5,1.07l.2.36h-.1a5.7,5.7,0,0,1-2.41,6.48c-.57.87-1.16,1.72-1.81,2.55-1.17,1.51.94,3.64,2.12,2.12a42,42,0,0,0,2.89-4c.78-1.29,1.31-2.94,2.57-3.84l.08-.07c1.93.13,3.85.25,5.76.26.42.84.81,1.7,1.3,2.5l2.55,4.13a1.55,1.55,0,0,0,0,.21,33.12,33.12,0,0,1-1,5.84c-3.19.82-6.46,1.2-9.65,1.91l-9.28-3.54c-1.81-.69-2.59,2.2-.8,2.89l5.41,2.07-.5.19c-1.77.76-.25,3.34,1.51,2.59a20.79,20.79,0,0,1,2.25-.8c-.2,1.51-.43,3-.68,4.51a1.55,1.55,0,0,0-.51,2.76c-.09.45-.16.91-.26,1.37-.38,1.89,2.51,2.69,2.89.8.09-.42.15-.84.23-1.26l2.09.62-1.47.45c-1.84.55-1.06,3.45.8,2.89l6.87-2.08c1.61-.5,3-1.36,4.55-2l.82,1.64c-.64,1.45-1.24,2.93-1.76,4.43-.64,1.83,2.25,2.61,2.89.8.48-1.38,1-2.73,1.61-4.07a24,24,0,0,0,2.4.17h0c.42,1.25.84,2.51,1.27,3.76.61,1.82,3.51,1,2.89-.8q-.81-2.38-1.6-4.76c.23-.36.44-.73.64-1.11,1.76.66,3.43,1.78,5.1,2.57,1.93.91,3.9,1.73,5.9,2.48,1.81.69,2.59-2.21.8-2.89-.94-.35-1.85-.73-2.77-1.12,1.54-.28,3.09-.52,4.64-.73.09.29.17.58.26.86.6,1.83,3.5,1.05,2.9-.8-.87-2.67-1.63-5.37-2.32-8.09a1.77,1.77,0,0,0,.3-1c3.29-1.08,6.86-1.15,10.24-1.85C126.36,367.43,125.56,364.53,123.67,364.92Zm-24.53-37a1.25,1.25,0,0,0,.31-.07,26.1,26.1,0,0,1,5.24-1.23,2.35,2.35,0,0,0,.4-.09,18.52,18.52,0,0,1,2.43,1.24,23.94,23.94,0,0,0,2.42,1c-.3,1-.59,2-.89,3a57.25,57.25,0,0,0-7.79,3.27,31.63,31.63,0,0,0-2.8-3.42,1.32,1.32,0,0,0-.15-.29C98.59,330.15,98.86,329,99.14,327.9Zm-5.86-3.35h2.21l1,1.71h0l-1,4.3a17,17,0,0,0-1.89.05,1,1,0,0,0-.05-.24l-1.36-3.66C92.48,326,92.87,325.27,93.28,324.55Zm-.91,9.26a11.18,11.18,0,0,1,3.91-.19,27.29,27.29,0,0,1,3,3.85.25.25,0,0,1,0,.07c-.24,1.62-.48,3.24-.71,4.86a18.77,18.77,0,0,0-8,.15,36.61,36.61,0,0,0-1-5C90.57,336.36,91.5,335.1,92.37,333.81Zm-4.74,1.48c-2.52-1.11-5.06-2.13-7.65-3.06-.16-1.39-.36-2.77-.61-4.14a46,46,0,0,0,4.4-1.56h0a33.51,33.51,0,0,0,5.66,1.6l1.13,3a.46.46,0,0,0,.07.16l-.1.08a1.61,1.61,0,0,0-.47.47C89.3,333,88.48,334.18,87.63,335.29Zm-1.37,14.79,3.8-4.35.08,0c2.61-.57,6.55-1.31,8.86.07a1.31,1.31,0,0,0,.89.2c1.79,1.32,3,3.88,4.13,5.58l0,0a31.16,31.16,0,0,1-2.35,3l-2.5,3.12-.2.09c-2.12,1.27-5.6.74-8.18.21l-2.91-4.71C87.28,352.24,86.82,351.13,86.26,350.08Zm3.22,25.32s0,0,0,0c-1.44.59-2.78,1.37-4.27,1.88l-.25,0a15.08,15.08,0,0,1-4.5-1.07l-2.51-.75c.34-2,.64-4,.88-6,2.84-.57,5.74-.92,8.55-1.61.94,1.23,1.85,2.48,2.71,3.77a1.61,1.61,0,0,0,.47.47l.13.11A13.08,13.08,0,0,1,89.48,375.4ZM97,376.67a8.47,8.47,0,0,1-1,1.64,18,18,0,0,1-2.53-.21l-1-2a17,17,0,0,0,1.13-3.19,15.16,15.16,0,0,0,2.43,0q.47,1.6,1,3.18A1.54,1.54,0,0,0,97,376.67Zm-.68-6.75a11.18,11.18,0,0,1-3.91-.18q-1.31-1.92-2.73-3.75s0-.05,0-.07a35.86,35.86,0,0,0,1-4.93,18.45,18.45,0,0,0,8,.15c.23,1.63.47,3.25.71,4.87a.14.14,0,0,1,0,.07A26.65,26.65,0,0,1,96.28,369.92Zm7.62,7.37h-.05a27.26,27.26,0,0,0-3.85-1.86c-.47-1.25-.88-2.51-1.24-3.8a31.71,31.71,0,0,0,2.9-3.72,1.48,1.48,0,0,0,.65.22c2.81.3,5.76,1.53,8.52,2.52.42,1.74.89,3.46,1.39,5.17C109.43,376.22,106.65,376.69,103.9,377.29Z"/></g><path class="d" d="M238.06,293.93c8.16-13.45,12.5-36.5,14-47.28C248.56,289.43,238.06,293.93,238.06,293.93Z"/><path class="d" d="M210.06,291.93s9-14,9-26C219.06,265.93,220.06,283.93,210.06,291.93Z"/><path class="e" d="M239.38,292c-.32,6.95-29.32,1.95-29.32.57C210,288.93,239.75,283.93,239.38,292Z"/><path class="e" d="M251.35,307c-.72,11.59-1.35,23.74,3.55,34.26,1.74,3.74,4.06,8.43,1.36,11.54-1.33,1.53-3.45,2-5.34,2.76-7.6,3-12.4,11.9-10.58,19.87s15.61,13.46,23.72,12.51c-4,2-16.53.85-20.83-2.12s-6.17-6.88-6.17-9.88c0-16.73,10.08-22,14.86-24.39a4.53,4.53,0,0,0,2.15-1.82c.84-1.64-.21-3.57-1.14-5.16C246.48,333.48,251.35,307,251.35,307Z"/><path class="e" d="M193.71,66.78a2.56,2.56,0,0,0-2.05-2,2.63,2.63,0,0,0-2.81,1.3,3,3,0,0,0,.06,3,3.43,3.43,0,0,0,2.79,1.53,1.51,1.51,0,0,0,1.5-1.5,1.4,1.4,0,0,0-.17-.66A1.62,1.62,0,0,0,193.71,66.78Z"/><path class="e" d="M154,211a2.46,2.46,0,0,0-2.92-1.19,2.41,2.41,0,0,0-2.29,1.09,2.82,2.82,0,0,0-.35,2.46,2.5,2.5,0,0,0,4.25.77,1.58,1.58,0,0,0,.91-1.18A1.55,1.55,0,0,0,154,211Z"/><path class="e" d="M227.17,215.57c-.82-1.4-2.63-1.38-4-.83a1.92,1.92,0,0,0-.76.54,2.4,2.4,0,0,0-1.41,3c.68,1.9,2.94,2.05,4.51,1.25C226.94,218.82,228.07,217.11,227.17,215.57Z"/><path class="e" d="M132.46,159.17a1.45,1.45,0,0,0-1.4-1l-1.09.08a1.53,1.53,0,0,0-1.45,1.1,2.19,2.19,0,0,0,1.54,2.62,2.14,2.14,0,0,0,2.56-1.62A1.81,1.81,0,0,0,132.46,159.17Z"/><path class="e" d="M211.89,403.46a4,4,0,0,0-4.31,2.11,1.56,1.56,0,0,0,.33,1.9,1.89,1.89,0,0,0,0,.41,3.51,3.51,0,0,0,3.64,2.56,3.34,3.34,0,0,0,3.09-3.38A3.61,3.61,0,0,0,211.89,403.46Z"/><path class="e" d="M135.42,375.43a1.44,1.44,0,0,0-1-1.88,5.43,5.43,0,0,0-2.3-.14,4.19,4.19,0,0,0-1.78.15,1.44,1.44,0,0,0-1,1.7,1.33,1.33,0,0,0,.38,1.35,4.52,4.52,0,0,0,5.09.74A1.53,1.53,0,0,0,135.42,375.43Z"/><path class="e" d="M122.56,309.68h-1.7a1.5,1.5,0,0,0,0,3h1.7a1.5,1.5,0,0,0,0-3Z"/><path class="e" d="M120.26,227.29a1.51,1.51,0,0,0-1.84-1l-1,.25a1.5,1.5,0,0,0,.79,2.89l1-.25A1.53,1.53,0,0,0,120.26,227.29Z"/><path class="i" d="M62.08,417.49c.53-.08.1,2,.07,2.27,0,.53-10.26,2-10.63,2-.52,0-.67-.05-.73-.6,0-.22-.12-1.13-.17-1.31s0-.31.24-.37a21.57,21.57,0,0,0,3.72-.8C54.68,418.7,61.87,417.47,62.08,417.49Z"/><path class="j" d="M62.46,419.57a17.41,17.41,0,0,0-.31-1.92c-.07.3.08,1.81-.21,2s-9.87,1.82-10.24,1.84-.77.25-.83-.3c0-.17-.21-1.18-.25-1.31s0-.31.24-.37a21.57,21.57,0,0,0,3.72-.8l-4,.6c-.13,0-.25.06-.22.2l.16,1.08s.34,2.32.35,2.35,0-.19.07-.29,10.1-2.09,10.93-2.23c.4-.06.53-.27.58-.84Z"/><path class="k" d="M62.38,419c-.07-.45-.23-1.06-.3-1.51.15,0,.23-.15.3-.3,0,.06.06.31.08.38s.23,1,.3,1.29c0,0-.1-.09-.11-.08s0,.18,0,.27Z"/><path class="l" d="M51.47,423.92c-.34.05-.47-.11-.44-.44,0-.16-.11-.42.06-.52.69-.4,10.15-1.6,10.53-1.64s.49-.11.64.2a.31.31,0,0,0,.35.13c-.17-.64.11-1.4-.15-2,.06,0,.13-.2.25.06,0,.09.06.2.18.22s.3,1,.42,1.37l.29-.53a4.56,4.56,0,0,1,.14,1.76c-.15.15-.32.21-.49.05a.85.85,0,0,0-.79-.2S51.81,423.86,51.47,423.92Z"/><path class="m" d="M63.74,422.49c.06-.59-.81-4.33-.92-5.46.12-.19.18-.08.24,0C63.37,418.17,64.14,422.16,63.74,422.49Z"/><path class="n" d="M63.82,421.28c-.16-.25-.11-.89-.18-1.15a16.69,16.69,0,0,1-.58-3.06l.15.05C63.39,418.39,63.72,420,63.82,421.28Z"/><path class="k" d="M62.61,421.65c-.1.14-.3,0-.35-.13-.15-.31-.38-.22-.64-.2s-10.5,1.55-10.53,1.64a4.25,4.25,0,0,0-.07.66s-.15-.68-.14-.67-.06-.66.06-.75,10.11-1.63,10.94-1.77c.4-.06.52-.33.58-.9C62.52,419.56,63,421.13,62.61,421.65Z"/><path class="o" d="M62.46,419.69a.41.41,0,0,1,0-.12c.22-.13.21-.26.15-.52,0-.09-.06-.2,0-.27s.15.05.19.07a3.65,3.65,0,0,1,0,1c-.12,0-.13-.13-.18-.22C62.59,419.41,62.52,419.71,62.46,419.69Z"/><path class="l" d="M62.61,419.05c.15.23.07.39-.15.52,0-.08-.07-.52-.08-.57Z"/><path class="j" d="M62.78,418.93a7.49,7.49,0,0,1-.4-1.74c0-.18.16-.18.29-.15a8.38,8.38,0,0,1,.39,2.27C62.9,419.23,63,419,62.78,418.93Z"/><path class="k" d="M63.06,419.31a20.89,20.89,0,0,1-.39-2.27h.15c.24,1.14.7,3.85.7,3.87s0,.45-.21.36-.23-.71-.33-1h.08c.07.11.2-.48,0-.84Z"/><path class="p" d="M63.06,420.21H63a4.92,4.92,0,0,1-.2-1.29c.19.05.12.3.28.38v.9Z"/><path class="j" d="M63.06,419.37c.2.36.38.92.2,1.15C62.91,420.37,63.06,419.65,63.06,419.37Z"/><path class="i" d="M251.5,444.17c-.25.47-1.65-1.11-1.86-1.29-.4-.35,4.5-9.45,4.7-9.76s.44-.51.92-.23c.19.11,1,.58,1.15.65s.24.2.15.41-1.64,3-1.57,3.47C254.94,437.51,251.64,444,251.5,444.17Z"/><path class="j" d="M249.6,443.23c.08,0,1.3.74,1.73.91-.19-.24-1.5-1-1.48-1.38s4.42-9,4.62-9.31.26-.77.74-.49c.15.09,1.08.53,1.2.58s.24.2.15.41-1.64,3-1.57,3.47l1.9-3.57c.06-.11.09-.23,0-.29l-1-.52-2.11-1.12c0,.11.13.15.2.23s-4.35,9.36-4.73,10.1c-.18.36-.1.59.33,1Z"/><path class="k" d="M250.11,443.51c.41.21,1,.45,1.39.66-.09.12,0,.27.07.42l-.35-.16L250,443.9l.13,0c0-.12-.13-.13-.19-.19Z"/><path class="l" d="M252.67,431.82c.16-.31.37-.32.61-.1s.41.17.38.37c-.09.79-4.76,9.1-5,9.43s-.2.45-.54.4a.29.29,0,0,0-.31.19c.61.25,1.05.93,1.73,1.1-.07,0,.08.22-.2.17-.1,0-.2-.07-.29,0l-1.35-.48.25.55a4.48,4.48,0,0,1-1.49-.94c0-.21,0-.38.26-.42a.84.84,0,0,0,.62-.52S252.52,432.12,252.67,431.82Z"/><path class="m" d="M246.5,442.52c.44.41,3.95,1.93,4.93,2.52.08.2,0,.19-.18.17C250.19,444.8,246.52,443,246.5,442.52Z"/><path class="n" d="M247.43,443.31c.29,0,.77.44,1,.54a15.75,15.75,0,0,1,2.8,1.36l-.12.09C250,444.68,248.52,444,247.43,443.31Z"/><path class="k" d="M247.85,442.11c0-.16.2-.21.31-.19.34.05.41-.18.54-.4s5-9.36,5-9.43a3.94,3.94,0,0,0-.49-.45l.62.28c0,.11.57.34.57.5s-4.72,9.09-5.1,9.83c-.18.36,0,.62.38,1C249.59,443.29,248,442.73,247.85,442.11Z"/><path class="o" d="M249.52,443.16l.08.07c0,.25.09.32.34.44.08,0,.19.07.19.19s-.13.09-.17.1a3,3,0,0,1-.87-.57c.09-.08.19,0,.29,0C249.66,443.43,249.45,443.2,249.52,443.16Z"/><path class="l" d="M249.94,443.67c-.27,0-.36-.19-.34-.43l.51.27Z"/><path class="j" d="M249.93,443.88a6.92,6.92,0,0,1,1.64.71c.12.15.05.23-.06.32a8.24,8.24,0,0,1-2-1C249.62,443.79,249.77,444,249.93,443.88Z"/><path class="k" d="M249.46,443.87a22.06,22.06,0,0,1,2,1l-.08.13c-1.06-.49-3.51-1.74-3.52-1.75s-.37-.25-.17-.38.71.24,1,.36l-.05.07c-.12,0,.27.44.68.5Z"/><path class="p" d="M248.73,443.34l.05-.07a4.66,4.66,0,0,1,1.15.61c-.16.12-.31-.09-.47,0l-.05,0Z"/><path class="j" d="M249.41,443.84c-.41-.06-1-.25-1-.53C248.7,443.12,249.18,443.67,249.41,443.84Z"/><path class="i" d="M98.25,438.41c.5-.2.56,1.91.61,2.19.08.52-9.51,4.36-9.86,4.47-.5.16-.67.11-.86-.41-.07-.2-.38-1.07-.46-1.23s-.06-.31.15-.42,3.19-1.27,3.42-1.65C91.34,441.32,98,438.44,98.25,438.41Z"/><path class="j" d="M99.11,440.34a17.55,17.55,0,0,0-.75-1.8c0,.31.5,1.74.26,2s-9.16,4.08-9.51,4.19-.69.42-.88-.1c-.06-.16-.49-1.1-.55-1.21s-.06-.31.15-.42,3.19-1.27,3.42-1.65l-3.74,1.52c-.12.05-.22.12-.16.25s.27.69.4,1c0,0,.88,2.17.9,2.2a.57.57,0,0,0,0-.29c0-.17,9.33-4.41,10.1-4.74.38-.15.46-.39.38-.95Z"/><path class="k" d="M98.9,439.81c-.18-.43-.47-1-.65-1.4.15,0,.19-.2.22-.37l.17.35.59,1.19s-.11-.06-.12-.05,0,.17,0,.26Z"/><path class="l" d="M89.45,447.14c-.32.14-.49,0-.54-.32,0-.16-.2-.38-.06-.52.58-.54,9.5-3.94,9.86-4.06s.44-.22.66,0a.32.32,0,0,0,.37.05c-.31-.59-.21-1.39-.62-1.95.07,0,.08-.22.26,0s.1.17.23.17.52.89.72,1.23l.16-.58a4.5,4.5,0,0,1,.55,1.68c-.12.17-.27.28-.47.15a.89.89,0,0,0-.81,0S89.76,447,89.45,447.14Z"/><path class="m" d="M101,442.88c-.08-.6-1.8-4-2.17-5.09.06-.21.15-.13.24,0C99.66,438.77,101.35,442.46,101,442.88Z"/><path class="n" d="M100.83,441.68c-.21-.2-.31-.84-.44-1.08a15.64,15.64,0,0,1-1.28-2.83h.15C99.73,439,100.43,440.45,100.83,441.68Z"/><path class="k" d="M99.74,442.33c-.06.15-.29,0-.37-.05-.22-.26-.42-.13-.66,0s-9.85,4-9.86,4.06.09.5.09.66c0,0-.3-.62-.29-.62s-.22-.62-.12-.74,9.44-4,10.21-4.29c.38-.15.44-.44.36-1C99.16,440.31,100,441.73,99.74,442.33Z"/><path class="o" d="M99.13,440.45a.34.34,0,0,1,0-.11c.18-.18.14-.3,0-.55,0-.08-.1-.17,0-.26s.15,0,.2,0a3.43,3.43,0,0,1,.3,1c-.13,0-.17-.1-.23-.17S99.21,440.46,99.13,440.45Z"/><path class="l" d="M99.13,439.79c.2.19.16.37,0,.55,0-.08-.19-.49-.21-.53Z"/><path class="j" d="M99.27,439.64a7.18,7.18,0,0,1-.8-1.6c0-.19.11-.21.25-.21a8.28,8.28,0,0,1,.91,2.12C99.46,439.9,99.47,439.65,99.27,439.64Z"/><path class="k" d="M99.63,440a22.85,22.85,0,0,1-.91-2.12l.15,0c.5,1,1.58,3.58,1.58,3.59s.12.43-.12.4-.38-.63-.56-.93l.08,0c.08.09.07-.51-.2-.82C99.64,440,99.64,440,99.63,440Z"/><path class="p" d="M99.85,440.82l-.08,0a4.4,4.4,0,0,1-.5-1.21c.2,0,.19.26.36.31,0,0,0,0,0,.05Z"/><path class="j" d="M99.65,440c.27.31.58.81.47,1.08C99.74,441,99.71,440.28,99.65,440Z"/><path class="i" d="M11.25,435c.35.41-1.62,1.15-1.87,1.29-.46.25-7.21-7.59-7.43-7.88s-.32-.6.11-.94c.17-.14.89-.71,1-.85s.27-.14.44,0,2.24,2.61,2.68,2.71C6.26,429.45,11.16,434.86,11.25,435Z"/><path class="j" d="M9.7,436.49c.07-.06,1.15-.95,1.46-1.3-.29.1-1.49,1-1.81.9s-6.83-7.35-7-7.64-.62-.52-.19-.87c.14-.11.88-.82,1-.92s.27-.14.44,0,2.24,2.61,2.68,2.71l-2.65-3.05c-.09-.1-.19-.17-.29-.07l-.83.7S.66,428.5.64,428.53s.18-.06.27-.1,7.2,7.4,7.75,8c.27.3.52.31,1,.05Z"/><path class="k" d="M10.14,436.11c.34-.3.77-.76,1.11-1.07.09.13.25.11.42.1l-.28.26-.93,1a.37.37,0,0,0,0-.14c-.11-.05-.16.07-.24.11S10.16,436.17,10.14,436.11Z"/><path class="l" d="M.14,429.54c-.23-.25-.17-.45.13-.6.15-.07.29-.33.47-.23.71.37,6.8,7.71,7,8s.35.36.18.65a.29.29,0,0,0,.07.36c.45-.48,1.24-.65,1.64-1.22,0,.07.23,0,.09.25-.06.08-.14.16-.09.27l-.94,1.09.61,0a4.63,4.63,0,0,1-1.42,1.06c-.2-.05-.34-.16-.29-.39a.88.88,0,0,0-.26-.77S.37,429.8.14,429.54Z"/><path class="m" d="M7.92,439.13c.54-.27,3.23-3,4.12-3.7.22,0,.17.1.1.22C11.37,436.5,8.42,439.29,7.92,439.13Z"/><path class="n" d="M9,438.55c.11-.27.68-.57.87-.77a15.78,15.78,0,0,1,2.27-2.13l0,.15C11.2,436.63,10,437.77,9,438.55Z"/><path class="k" d="M8,437.72c-.17,0-.13-.26-.07-.36.17-.29,0-.44-.18-.65s-6.95-8-7-8a4,4,0,0,0-.59.3s.49-.5.49-.48.52-.41.67-.35,6.8,7.65,7.35,8.27c.27.3.56.27,1.07,0C9.75,436.52,8.68,437.76,8,437.72Z"/><path class="o" d="M9.61,436.54l.09-.05c.23.11.33,0,.53-.16s.13-.15.24-.11,0,.15,0,.2a3.18,3.18,0,0,1-.84.6c-.05-.11,0-.19.09-.27C9.9,436.51,9.62,436.61,9.61,436.54Z"/><path class="l" d="M10.23,436.33a.35.35,0,0,1-.53.16l.44-.38C10.16,436.17,10.2,436.26,10.23,436.33Z"/><path class="j" d="M10.42,436.41a7,7,0,0,1,1.25-1.27c.18-.06.24,0,.28.17a8.88,8.88,0,0,1-1.7,1.54C10.23,436.67,10.47,436.6,10.42,436.41Z"/><path class="k" d="M10.25,436.85a20.4,20.4,0,0,1,1.7-1.54l.09.12c-.83.81-2.88,2.65-2.89,2.66s-.37.26-.42,0,.48-.57.71-.84l.05.07c-.06.11.51-.1.71-.46Z"/><path class="p" d="M9.49,437.34l-.05-.07c0-.14.72-.67,1-.86.05.19-.19.26-.17.44l-.05,0Z"/><path class="j" d="M10.2,436.88c-.2.36-.58.82-.87.79C9.27,437.29,10,437,10.2,436.88Z"/></svg>