<svg xmlns="http://www.w3.org/2000/svg" viewBox="0 0 200 427"><defs><style>.a{fill:#42d17c;}.b{fill:#fff;}.c{fill:#428ae2;}.d{fill:#e5d541;}.e{fill:#fff24d;}.f{fill:#d3c037;}.g{fill:#ccd1d6;}.h{fill:#7dc4ff;}.i{fill:#c13808;}.j{fill:#f7be08;}.k{fill:#9b2100;}.l{fill:#2db564;}.m{fill:#4a514d;}</style></defs><title>feature_anchi</title><path class="a" d="M34,126.14S11.3,196.48,22.65,225.28c7,17.6,10.73,28.2-5,75.51-11.65,35,.74,46.1,2.08,89.25.82,26.38-5.05,36-5.05,36H187.32s-4.85-8.44-5.21-35.58c-.41-31.43,10.39-44-.66-87.34-4.36-17.06-16.61-52.83-7.76-72.49,10-22.15,9-70.92-6.05-104.45Z"/><path class="b" d="M38.31,85.81s-5.55-.33-6.05-19.58c-.13-5.11-11.63-26.2,3.3-32.62C46.28,29,47.34,32.44,47.1,35.35s-3.23,10.53,6.3,9.58L42.24,78.14Z"/><path class="b" d="M163.2,87.67S173.52,85.48,174,66.23c.14-5.11,10.87-26.29-4-32.7-10.73-4.62-11.79-1.18-11.55,1.73s3.23,10.53-6.3,9.58l8.26,34.56Z"/><path class="c" d="M38.53,83.33s-4.64.4-5.09-17.1c-.12-4.64-11-24.51,2.59-30.35,9.74-4.19,10.71-1.06,10.49,1.58S43.59,47,52.25,46.17L42.11,76.37Z"/><path class="c" d="M163.34,85.11s8.28-1.38,8.73-18.88c.12-4.64,11-24.51-2.59-30.35-9.74-4.19-10.71-1.06-10.49,1.58s2.93,9.58-5.72,8.71l7.5,31.42Z"/><path class="d" d="M40.65,31.81s6.91-2,13.14-1.14L55.59,43l-3.34,3.15s-8.39,2.16-7.57-5.36c.29-2.61,3.11-2.65,2.59-6.08C46.93,32.48,44.84,31.5,40.65,31.81Z"/><path class="d" d="M165.18,31.81s-7.24-1.95-13.46-1.11L150.24,43l3.34,3.15s8.39,2.16,7.57-5.36c-.29-2.61-3.11-2.65-2.59-6.08C158.9,32.48,161,31.5,165.18,31.81Z"/><path class="e" d="M34,126.14s-7.35-23,8.1-49.77c0,0,.24-23.05,13.48-33.35,0,0-9.73-24.19,17.76-30.57,0,0,28.47-25.66,57.69-.16,0,0,25.81,2.45,19.93,30.24a45.78,45.78,0,0,1,9.8,35.06s9.81,23.78,6.87,48.55Z"/><path class="d" d="M42.11,76.37s22.12,0,35.22-16c3-3.65,7-19.06,7.19-19.31-.61,5-2.58,9.73-3.19,12.2-.72,2.93-.19,3.71,0,4.49,0,0,22.23-6.37,40.71.25a6.72,6.72,0,0,0,.65-4.66A77.34,77.34,0,0,1,120.31,41c.25.32,3.37,16.47,5,19.55C128,65.71,138,74,160.77,77.59c0,0-27.13-1.06-40.94-16.67a111.11,111.11,0,0,0-36.53.49S65.4,77.59,42.11,76.37Z"/><path class="f" d="M81.33,57.73S75.7,46.62,101.44,46.62C129.39,46.62,122,58,122,58S108.14,52.34,81.33,57.73Z"/><path class="f" d="M55.59,43S43.94,18.62,76.12,17.28a60.79,60.79,0,0,1,53.27,0S158.14,15.93,151,42.53c0,0-12.72-7.14-23.3-7.8C111.29,23,97.31,23,80.23,34.73,69.38,35.24,55.59,43,55.59,43Z"/><path class="d" d="M55.59,43s11.89-7.9,24.64-8.29c0,0,21.33-22.89,47.44,0a39.51,39.51,0,0,1,23.3,7.8s-12.75-6.13-23.66-6.13c0,0-21-18.67-46.5.29C80.81,36.69,76.19,33.83,55.59,43Z"/><circle class="c" cx="78.79" cy="34.73" r="8.38"/><circle class="c" cx="125.81" cy="34.73" r="8.38"/><circle class="g" cx="77.66" cy="31.66" r="5.07"/><circle class="g" cx="126.73" cy="31.62" r="5.07"/><circle class="b" cx="77.66" cy="30.9" r="4.31"/><circle class="b" cx="126.73" cy="30.9" r="4.31"/><circle cx="77.61" cy="30.9" r="3.2"/><circle cx="126.73" cy="30.9" r="3.2"/><path class="c" d="M129.39,17.28s18.76.42,21.82,11.7c0,0,7.71-9.82-6.74-15.75C134.91,9.31,128.1,11,129.39,17.28Z"/><path class="c" d="M76.12,17.28S57.36,17.7,54.3,29c0,0-7.71-9.82,6.74-15.75C70.6,9.31,77.41,11,76.12,17.28Z"/><polygon class="b" points="34.01 126.14 39.9 171.38 47.53 151.77 51.42 170.27 61.48 143.3 68.14 162.18 76.86 137.93 87.22 157.77 94.08 140.11 99.52 157.52 107.81 136.54 113.22 155.89 122.91 141.59 131.8 159.97 140.59 147.83 150.24 171.66 167.64 126.14 34.01 126.14"/><path class="h" d="M34,126.14s7.77.9,26.73-16.43c0,0,39.07-7.84,78,2.29,0,0,18.26,11.93,28.93,14.14l-17.4,40.12-9-23-9.15,14-8.57-20.74-9.59,15.34-5.88-19.61-8.54,20.35-5.25-20.15-6.89,20.46L75.92,134.06,68.14,158,60.9,137.34l-8.65,27.78-4.13-18.63-7.47,19.77Z"/><path class="b" d="M66.3,80.78c20.27-11,49.36-10.63,73.72,1.31,2.33,1.14,3.61,2.29,10.22,2s12.65,3.27,14.54,6.33c1.82,6.58,3.41,16.94,3.32,22.21-4.63,2.62-24-15.79-24-15.79l-.16-3.45a51.87,51.87,0,0,1-19.62.64,143.45,143.45,0,0,0-41.6-2c-14.37,1.4-22.15.52-22.15.52L60.74,95s-25.87,19.94-28.46,15.07c0-5.26,1.41-14.55,3.51-19.68,3-4.71,15-7.55,19.8-7.06C61.61,84,63.72,82.17,66.3,80.78Z"/><path class="i" d="M58.45,85.81c-1-2.46-20.14,0-22.47,7-1.76,5.29-3.38,17.24-1,16.5,6.15-1.89,25.26-14.62,25.26-14.62S59.21,87.69,58.45,85.81Z"/><path class="i" d="M145.82,86c1.15-1.93,16.21-.2,18.55,6.83,1.76,5.29,3.27,18.75,1.64,18.26-6.16-1.85-21.91-14.3-21.91-14.3S144.78,87.75,145.82,86Z"/><path class="i" d="M71.29,92.71c6,.41,23.36-1.41,23.36-1.41l.17-5.49h13.73l.22,6s19.15,3.43,24.63,2.83c2.21-2.72-3.68-15.1-3.68-15.1s-31.47-11.36-55.33-.24C74.39,79.31,69.38,90.35,71.29,92.71Z"/><path class="g" d="M133.78,93.81c.55-1.87-1.68-8.53-1.68-8.53s7,3.38,9.27,7.56C141.37,92.84,135.93,94,133.78,93.81Z"/><path class="g" d="M71,92.26c-.54-1.87,1.59-8.59,1.59-8.59s-6.71,3.51-9,8.5A48.64,48.64,0,0,0,71,92.26Z"/><rect class="g" x="101.44" y="85.81" width="0.42" height="4.94"/><path class="i" d="M129.72,79.55s7.15,2.39,9.66,3.86,5,2.56,6.44,2.6a8.52,8.52,0,0,0-.55,1.66S135.58,81.48,129.72,79.55Z"/><path class="i" d="M74.39,79.31a49.68,49.68,0,0,0-10.1,4.14,15.52,15.52,0,0,1-6.51,1.83,2.39,2.39,0,0,1,1,1.64S68.46,81.7,74.39,79.31Z"/><path class="b" d="M180.85,300.79l.6,2.29s-24.26,5.13,3.19,15l.42,2.67S149.37,310.21,180.85,300.79Z"/><path class="b" d="M185.06,320.74l.29,2.05s-19.8,8.2,1.08,17.64l-.07,2.43S155.66,332.19,185.06,320.74Z"/><path class="b" d="M186.36,342.86l-.11,2.25s-11.75,5.09-1.45,14.06l-.32,2.31S160.28,351.55,186.36,342.86Z"/><path class="b" d="M17.63,300.79,16.91,303s20.32,4.3-3.72,16.81L13,322S52,309.21,17.63,300.79Z"/><path class="b" d="M13,322l-.1,1.33s18.28,5.74.63,16.8l.16,1.13S56.81,328.21,13,322Z"/><path class="b" d="M13.65,341.24,13.9,343S24,347.48,16.33,357.5l.24,1.46S34.14,346.45,13.65,341.24Z"/><path class="j" d="M77.38,222.92a22.67,22.67,0,0,0,10,12.33s-2.06-1.81-2.06,13.64c0,10.67,3,12.26,3,12.26s-2.53,2.58-2.53,10.63c0,12.75,1.57,12.75,1.57,12.75h9s-2.16,0-2.16-12.51c0-10.91,2.63-12.5,2.63-12.5s-2.84,1.47-2.84-10.87c0-14.14,1.72-18,1.72-18s-8.58-3.21-8.58-10.73Z"/><path class="k" d="M17.63,300.79s14.5-16.26,45.85-15.7c9.73.17,63.37-2.28,74.61-2.4,12-.13,37.34,8,42.76,18.1,0,0-30.62,8,4.21,19.95,0,0-24.09,10.36,1.3,22.12-11.7,3.46-9.16,15.71-1.88,18.62,0,0-20.93-1.19-38.74-18.68-16.12-15.82-26.4-31.32-44.58-31.32-33.31,0-25.87,22.17-43.79,34.86C31.85,364.43,16.57,359,16.57,359s11.26-10.22-2.92-17.72c13.77-4.93,10.48-18-.69-19.26C13,322,43.17,308.8,17.63,300.79Z"/><path class="b" d="M25.8,272.55s52.08,30.47,147.83.09l.84,4s-89,29.47-149.51-.56Z"/><path class="k" d="M26.34,270.08s51,30.37,146.71,0l.88,3.91S86,303.65,25.52,273.62Z"/><path class="j" d="M121.66,222.92a22.67,22.67,0,0,1-10,12.33s2.06-1.81,2.06,13.64c0,11.86-3,12.26-3,12.26s2.54,2.91,2.54,10.63c0,22.34-10.27,18.74-10.27,18.74l-.28-6s2.17,0,2.17-12.51c0-10.91-2.64-12.5-2.64-12.5s2.84,1.47,2.84-10.87c0-14.14-1.72-18-1.72-18S112,227.4,112,219.88Z"/><path class="j" d="M95.66,230.61a11,11,0,0,0,7.72,0s1.89,2.1,1.24,6.72a20,20,0,0,1-10.2,0S92.94,231.73,95.66,230.61Z"/><path class="j" d="M88.3,261.15c4.31-5.09,12.63-9.78,22.44,0C105.62,269.08,93.73,270.53,88.3,261.15Z"/><path class="j" d="M87.08,235.09s12-14.67,24.88.1Z"/><path class="k" d="M135.28,201l-.37-10.38a21.24,21.24,0,0,0-15.4-4.64c-1.56-1.19-9.83-13.1-20-4.33-10.13-9.06-19.35,3.66-20,4.33a21.24,21.24,0,0,0-15.4,4.64l-.37,9.4s2.21,5.48,7.44,6c-2.35,7.68,1,17.37,8.64,17.24,14.34-.26,18.42-17.6,18.42-17.6h2.52s4.09,17.34,18.42,17.6c7.66.13,11-9.56,8.64-17.24C132.89,205.52,135.28,201,135.28,201Z"/><path class="c" d="M104.48,186.68c-3.55,6,1.23,33.75,15.76,30.5,5.8-1.29,4.76-13.12-1-24.15C116.28,187.43,108.22,180.34,104.48,186.68Z"/><path class="c" d="M94.6,186.68c3.55,6-1.23,33.75-15.76,30.5-5.8-1.29-4.76-13.12,1-24.15C82.79,187.43,90.85,180.34,94.6,186.68Z"/><path class="c" d="M79.87,189.92H118.5s12.55-.84,12.55,5.73S118.27,201,118.27,201l-38.74.09S68,201.46,68,195.47,79.87,189.92,79.87,189.92Z"/><path class="j" d="M135.61,209.91,122,239.25s1.48,3.26,6.79,2.86L141,215Z"/><polygon class="j" points="153.5 163.13 147.85 177.08 153.87 178.82 158.53 166.26 153.5 163.13"/><path class="l" d="M25.92,187s22.23-11.9,34.49-8.32C60.41,178.71,53.87,171.17,25.92,187Z"/><path class="l" d="M172.91,187s-22.23-11.9-34.49-8.32C138.42,178.71,145,171.17,172.91,187Z"/><path class="b" d="M46.15,187s9.07-2.91,15.82-.94C62,186.09,55.1,182.94,46.15,187Z"/><path class="b" d="M41.74,193.56s12.62-2,20.23.62C62,194.18,54.36,189.76,41.74,193.56Z"/><path class="b" d="M43.7,202.51s12.75-1.59,15.81,0C59.51,202.51,54.12,199.33,43.7,202.51Z"/><path class="b" d="M152.44,187s-9.08-2.91-15.82-.94C136.62,186.09,143.49,182.94,152.44,187Z"/><path class="b" d="M156.85,193.56s-12.63-2-20.23.62C136.62,194.18,144.22,189.76,156.85,193.56Z"/><path class="b" d="M154.89,202.51s-12.75-1.59-15.82,0C139.07,202.51,144.47,199.33,154.89,202.51Z"/><path class="l" d="M20.12,214.78s1.19,9.39,3.09,11.91c0,0,4.67-10.08,20-13.35s16.34-9,16.34-9-9.15,4.91-17.77,4.74S20.12,214.78,20.12,214.78Z"/><path class="l" d="M178.22,214.78s-1.34,8.91-3,11.91c0,0-4.77-10.08-20.06-13.35s-16.34-9-16.34-9,9.15,4.91,17.77,4.74S178.22,214.78,178.22,214.78Z"/><path class="b" d="M60.41,178.71s11.42-.51,9.32,16.08c-2.78,21.9-16,23.94-22.29,25.53-5.76,1.45-18.9,5.94-22,12.24l-.51-1.42c-.14-.36,3.64-7.94,3.64-7.94l20.56-7L56.82,211,62,204.92,65,199.33V192l-.74-6v-4Z"/><path class="b" d="M138.4,178.71s-11.42-.51-9.32,16.08c2.78,21.9,16,23.94,22.3,25.53,5.75,1.45,18.37,5.94,21.51,12.24,0,0,.7-1.71.84-2.07s-3.45-7.29-3.45-7.29l-20.56-7L142,211l-5.14-6.05-3.07-5.59V192l.74-6v-4Z"/><path class="c" d="M23.21,226.69l1.69,4.45s2.12-5.58,15.86-10c17.16-5.52,21.36-6.78,25.38-16.23,4.43-10.41,4-25.58-5.73-26.21,0,0,4.13,4,1.56,7.38,0,0,2.69,5.27,0,8.09a6.42,6.42,0,0,1-2.46,8.33,1.81,1.81,0,0,1,0,1.84s-1.63,6.79-20.27,9.56C34.71,214.59,25.43,220.45,23.21,226.69Z"/><path class="c" d="M175.43,226.28s-1.05,2.92-1.73,4.33c0,0-1.84-5.05-15.58-9.46-17.17-5.52-21.36-6.78-25.38-16.23-4.44-10.41-4-25.58,5.72-26.21,0,0-4.13,4-1.55,7.38,0,0-2.7,5.27,0,8.09a6.41,6.41,0,0,0,2.45,8.33,1.84,1.84,0,0,0,0,1.84s1.64,6.79,20.27,9.56C164.16,214.59,173.21,220.05,175.43,226.28Z"/><path class="b" d="M153.5,163.13l14.14-37s9.77,15.4,12.24,52.57a27.25,27.25,0,0,1-4.45-5.5s-1.06,9.08,2.44,15.45c0,0-10.23-5.64-10.23-15a27.88,27.88,0,0,0,.45,6.83s-3.92-5.76-4.41-8.87a29.31,29.31,0,0,0-.21,7.16s-5.24-6.69-5-12.57Z"/><path class="k" d="M153.5,163.13l15.12-35.21s9,15.93,11.13,49a52.46,52.46,0,0,1-5.49-8.49s-1.58,9.34,1.17,16.5a23.5,23.5,0,0,1-7.79-15.15,25.69,25.69,0,0,0-.93,6.38s-3.12-6.38-3.36-9.08c0,0-1.12,5.1-.74,8.1,0,0-3.88-5.46-4.08-9Z"/><rect class="k" x="79.53" y="185.98" width="39.89" height="3.91"/><rect class="k" x="73.57" y="200.82" width="51.41" height="4.82"/><path class="k" d="M79.53,186s-6.7,9.3-8.33,20l4.17-.36S78.09,194.33,86,186Z"/><path class="k" d="M119.47,186s6.7,9.3,8.34,20l-4.17-.36S120.92,194.33,113,186Z"/><path class="k" d="M94.12,186s4.18,8-.71,19.65h4.85s3.51-9,1.26-24Z"/><path class="k" d="M105.05,186s-4.19,8,.7,19.65h-4.84s-3.52-9-1.27-24Z"/><path class="l" d="M19.91,362.74s5.36,15.53,9.69,19.62c0,0,8.09,6.86,16.95,4.9C46.55,387.26,22.37,397.72,19.91,362.74Z"/><path class="l" d="M181.93,362.74s-5.36,15.53-9.69,19.62c0,0-8.09,6.86-17,4.9C155.29,387.26,179.47,397.72,181.93,362.74Z"/><path class="m" d="M153.5,163.13l13.75-32s6.87,10.94,8,16,3.1,13.63,3.53,19.15a13,13,0,0,0-11.15-1.87c-2,.52-3,2.51-9.11,1.77Z"/><path class="b" d="M152.09,399.68s-.47,16.76,7.87,20.19A5,5,0,0,1,160,416a11.07,11.07,0,0,0,9.15,6.37,15.18,15.18,0,0,1-1.8-6s6.62,7.43,12.18,7.68c0,0-2.85-7.57-2.14-11.28,0,0,2.31,10.87,9.89,13.16l-4.59-22.13-17.87,5.95Z"/><path class="b" d="M49.73,399.64s.47,16.76-7.87,20.19a5,5,0,0,0-.08-3.84,11.09,11.09,0,0,1-9.15,6.37,15.44,15.44,0,0,0,1.8-6s-6.63,7.43-12.18,7.68c0,0,2.85-7.57,2.14-11.28,0,0-2.31,10.87-9.89,13.16l5-22L37,409.78Z"/><path class="c" d="M19.65,391.41A97.41,97.41,0,0,1,19.49,404a22.08,22.08,0,0,0,18.45,10.89c9.41,0,16.1-16.3,8.61-27.58,0,0-1.25,19.37-9.84,19.37S19.65,391.41,19.65,391.41Z"/><path class="c" d="M182.16,391.41s0,6.89.57,12.46a22.83,22.83,0,0,1-18.86,11c-9.41,0-16.1-16.3-8.61-27.58,0,0,1.25,19.37,9.84,19.37S182.16,391.41,182.16,391.41Z"/><path class="b" d="M122.49,308.8s8.86,23,26.64,27.74c22.57,6,19.46,31.6,2.91,47.41l.52-10.42-9.43,3.1s10.72-24.23,1.35-27.71c-15.82-5.88-23.56-17.39-27.1-32.44Z"/><path class="b" d="M76.8,309s-8.86,23-26.64,27.75c-22.57,6-19.46,31.59-2.91,47.4l-.52-10.42,9.43,3.1s-10.72-24.23-1.34-27.71c15.82-5.88,23.55-17.39,27.09-32.43Z"/><path class="k" d="M119.34,316.77s3.38,21.67,25.09,28.81c9.87,3.25,7.84,16.23,2.29,28.28,0,0,2.56.37,6.73-3.06a16.6,16.6,0,0,1,.13,8.61s24.68-31.4-5.8-41.88c-13.65-4.7-18.55-11.08-25.08-25.78Z"/><path class="k" d="M80,316.92s-3.38,21.67-25.09,28.81C45,349,47,362,52.57,374c0,0-2.56.37-6.73-3.06a16.63,16.63,0,0,0-.13,8.62S21,348.16,51.51,337.68c13.65-4.7,18.55-11.07,25.08-25.78Z"/><path class="j" d="M39.74,426s19.2-11.79,19.88-30.52c9.7-7.93,23.44-10.43,42.25-10.43s32.34,2.5,41.76,10.44c.66,16.6,18.94,30.47,18.94,30.47Z"/><rect class="e" x="95.56" y="276.07" width="8.17" height="32.73" rx="4.09"/><path class="j" d="M89.17,316.48s.47,12.1,11.22,12.1,11.22-12.1,11.22-12.1h4.65s.84,18.31-15.87,18.31S83,316.48,83,316.48Z"/><rect class="e" x="76.58" y="301.3" width="46.12" height="18.94" rx="9.47"/><path class="j" d="M103.73,289.13s23.33-8.22,23.33,6.66c0,14.48-23.33,9.7-23.33,9.7v-8.83s13.89,3.68,13.89-.72c0-3.7-13.89-.62-13.89-.62Z"/><path class="j" d="M95.56,289s-23.34-8.22-23.34,6.66c0,14.48,23.34,9.69,23.34,9.69V296.5s-13.9,3.68-13.9-.72c0-3.71,13.9-.63,13.9-.63Z"/><path class="j" d="M99.8,321.18a15.37,15.37,0,1,0,15.36,15.36A15.37,15.37,0,0,0,99.8,321.18Zm0,23.45a8.09,8.09,0,1,1,8.08-8.09A8.08,8.08,0,0,1,99.8,344.63Z"/><circle class="j" cx="99.8" cy="343.04" r="3.5"/><rect class="j" x="93.27" y="350.1" width="13.06" height="7.06" rx="3.53"/><path class="j" d="M102.73,357.15H96.79s-9.08,9.27-7.36,22.26H110.1C111.81,366.42,102.73,357.15,102.73,357.15Z"/></svg>