<svg xmlns="http://www.w3.org/2000/svg" viewBox="0 0 373.48 283.21"><defs><style>.a{fill:#d8d8d8;}.b{fill:#5b564f;}.b,.c,.j,.k,.l,.m,.n,.o,.p{fill-rule:evenodd;}.c{fill:#472d00;}.d{opacity:0.8;}.e{fill:#54b5d3;}.f{fill:#7ad2f4;}.g,.n{fill:#fff;}.g{opacity:0.5;}.h{fill:#ffe8ca;}.i{fill:#8c311f;}.j{fill:#e07438;}.k{fill:#ecd485;}.l{fill:#664834;}.m{fill:#faeab3;}.o{fill:#cc946e;}.p{fill:#355913;}</style></defs><title>south_ai</title><polygon class="a" points="91.2 198.23 114.28 57.01 201.95 42.67 285.62 81.01 266.29 228.96 91.2 198.23"/><path class="b" d="M141.53,218s-.19-108.15,52.38-95.39c26,6.31,32.25,49,12.86,106.09Z"/><polygon class="c" points="185.58 216.15 188.59 218.3 203.53 200.54 218.63 197.95 218.36 194.53 203.24 196.77 200.82 190.76 198.14 192.68 199.72 197.85 185.58 216.15"/><g class="d"><path class="e" d="M103.45,213.88c58.33,7.9,96,56.87,142.09,56.87,47,0,73.53-24.88,83.5-56,7.48-26.17,6.36-69.22-28.66-91-27.42-17-88.91-.83-88.66,40.9C212,205.16,248.86,206,248.86,206c-36.14,28.67-101.37-27-140-28.25C71.46,176.49,16.2,187.29,0,228.42,0,228.42,50.11,206.66,103.45,213.88Z"/></g><g class="d"><path class="f" d="M144.17,226.35c58.33,7.89,96,56.86,142.09,56.86,46.95,0,73.53-24.87,83.5-56,7.48-26.18,6.36-69.23-28.67-91-27.42-17-88.91-.83-88.66,40.9.24,40.53,37.15,41.36,37.15,41.36-36.15,28.67-101.38-27-140-28.25-37.4-1.25-92.65,9.56-108.86,50.69C40.71,240.89,90.83,219.13,144.17,226.35Z"/></g><path class="g" d="M247.62,260.34S349,293,358.29,183.67C358.29,183.67,341,271.67,247.62,260.34Z"/><path class="h" d="M145,24c-6-7-4.33-24,7-24s13.34,15,10.34,23C171.12,16,179,10.67,188,8.67,188.29,14,169,28,167.62,32c-1,3.67,3.33,13.67.67,16.67-1.34,2-27.67,9.66-28.34,1-.33-2.67,1.5-12.17.17-14.5-1.34-3-20.5-17.84-19.83-19.17C128.29,18,145,24,145,24Z"/><path class="h" d="M243.62,42.58c-1.67-9.07,8.3-22.93,18.11-17.24s4,19.67-2.62,25.08c11.16-1.62,20.61-2.3,29.4.49-2.39,4.78-26.14,7.18-29.3,10-2.71,2.67-4,13.49-7.79,14.75-2.16,1.06-28.78-5.53-25-13.36,1.05-2.48,7.41-9.77,7.43-12.46.35-3.27-8.78-25.72-7.53-26.53C232.22,29,243.62,42.58,243.62,42.58Z"/><path class="i" d="M203.08,23C163.34,34.34,92.66,59.84,88.32,66.34c-1.89,2.83,6.07,20.4,12.38,18.83,6.64-1.64,84.47-31.22,100.81-35.5C218,57,287.21,110.91,296,117c2.7,1.88,18-18.07,15.59-20.1C291.9,80.16,233.09,38.67,203.08,23Z"/><path class="j" d="M116.34,165.56s-2.23-2.17-.63-3.27c1-.71,2.2,0,3.2,2.33-.45-1.45-.48-4.52,2.37-4.07,1.6.25,2,2,1,4.41,1.33-2.36,2.45-2.43,3.77-1.52.94.66.77,2.38-1.53,3.51Z"/><path class="k" d="M160.29,186.37c-.64-1.8-1.14-2.14-2.8-4.1-.14-3.3-.78-6.57-1-9.84a37.25,37.25,0,0,1,.17-9.07,11,11,0,0,1,1.31-4,4.49,4.49,0,0,1,6.9-1.15,8.92,8.92,0,0,1,2.84,6.1,19.4,19.4,0,0,1-1.18,9.24,33.22,33.22,0,0,1-1.81,3.38.45.45,0,0,0,.07.61c.3.23.56-.1.68-.23a13,13,0,0,1,3.36-2.16c3-1.62,6-2.33,9.29-1.08,1.59.61,3.23,1.28,3.89,3.16a6.75,6.75,0,0,1,.05,3.37c-.43,2.49-3.43,3.7-5.69,4-2.82.37-5.55-.08-8.3-.21a16.26,16.26,0,0,0-6.62,1.16C161.05,185.68,160.3,186.11,160.29,186.37Z"/><path class="k" d="M167.25,167.27c1.79-1.61,6.6-4,8.55-2s.93,5.61-.9,8.14c-1.48,2-12.55,8.6-12.72,3.53C162.18,175.52,165.31,169,167.25,167.27Z"/><path class="l" d="M145.06,206.37a2.34,2.34,0,0,1,1.95-1.06c.47.25.51.5,1.69,1.41A17.33,17.33,0,0,0,160.84,210a4,4,0,0,0,1-.33c1-.31,1.9-.81,3,.22a4.2,4.2,0,0,0,3.25.67c.82-.07,1.59.14,1.51,1.06s-.95,1-1.69.85a4.22,4.22,0,0,0-1.85-.23,4.16,4.16,0,0,0,1.79,1.27.77.77,0,0,1-.3,1.45,2.88,2.88,0,0,1-1.85-.51,12.49,12.49,0,0,1-2.77-2.24,1.57,1.57,0,0,0-1.7-.53c-3.66.73-7-.13-10.37-1.6A21.89,21.89,0,0,1,145.06,206.37Z"/><path class="l" d="M138.8,208c.41-1,1.17-.89,1.83-.68.3.09.57.6,1.48,1.35a16.67,16.67,0,0,0,7.74,4,13.41,13.41,0,0,0,3,.09,2.16,2.16,0,0,1,2.06,1c.74,1.16,2.22,1.26,3.4,1.67.66.23.93.45.85,1.07-.1.79-.78.72-1.25.6a5.89,5.89,0,0,1-2.35-.85c.12.77.63,1,1,1.39s.65.9.25,1.41-.93.28-1.41,0a5.6,5.6,0,0,1-2.41-2.63c-.75-1.6-2-1.84-3.42-2.07a17.77,17.77,0,0,1-8-3.8A10.54,10.54,0,0,1,138.8,208Z"/><path class="j" d="M109.48,169.33c.61.52-3.61,7.62-3.75,7.72-2-1.51-5.46-8.93-4.46-8.94A21.12,21.12,0,0,1,109.48,169.33Z"/><path class="m" d="M157.84,197.92c-8.25,13.62-27.18,11.21-30.45,10.78a26.84,26.84,0,0,1-9.16-2.82,23.89,23.89,0,0,1-12.68-16.12c-.61-2.49-1.92-13.87,3.24-20.14,3.41-4.14,9.62-5.26,14.06-3.75a14.82,14.82,0,0,1,6.92,6.08c.06.1-1.67.26-2.32.72-3.26,2.32-5.56,5.22-5.08,9.45a10.91,10.91,0,0,0,5.49,8.39c3.49,2.1,6.87,1.59,10.24-.48,2.17-1.33,3-2.72,4.73-4.5.48-.5,0-1.31,2.57-1.34,1.47-.32,2.95-.29,4.39-.7a22.41,22.41,0,0,1,7.7-1.22,4,4,0,0,1,3.29,3.62C160.79,186,161.58,192.67,157.84,197.92Z"/><path class="k" d="M143.85,185c-2.21,2.44-4.24,5.2-7.3,6.5a10.78,10.78,0,0,1-5.25.62,10.09,10.09,0,0,1-6.41-3.52,10.36,10.36,0,0,1-2-10.8,11.3,11.3,0,0,1,4.45-5.15,74.79,74.79,0,0,1,7-3.46c2.95-1.16,5.79-2.61,8.76-3.71,1.72-.64,3.47-1.57,5.49-.87,3.22,1.12,2.24,5.36,1.71,7.86a23.6,23.6,0,0,1-.87,3.43,27.31,27.31,0,0,1-4.24,7.57C144.55,184.35,144.29,184.55,143.85,185Z"/><path class="n" d="M118,173.37a3.74,3.74,0,1,1-3.74-3.75A3.75,3.75,0,0,1,118,173.37Z"/><path class="l" d="M116.42,172.92a2.19,2.19,0,1,1-2.19-2.19A2.19,2.19,0,0,1,116.42,172.92Z"/><path class="n" d="M115.52,172.25a.57.57,0,1,1-.56-.57A.56.56,0,0,1,115.52,172.25Z"/><path class="o" d="M231.85,219.16c1,5.11-1.46,9.84-5.4,10.58s-7.9-2.81-8.85-7.92,1.46-9.85,5.39-10.58S230.9,214.05,231.85,219.16Z"/><path class="o" d="M289.94,253.47c-4.18,3.1-9.5,3-11.88-.22s-.94-8.33,3.24-11.42,9.49-3,11.88.21S294.11,250.38,289.94,253.47Z"/><path class="p" d="M82.05,182.8s-5.12.26-8.2,3.46C73.85,186.26,77.51,186.34,82.05,182.8Z"/><path class="p" d="M260.64,237.84s-5.12.26-8.2,3.45C252.44,241.29,256.1,241.38,260.64,237.84Z"/><path class="p" d="M92.47,218.24s-4.4-2.61-8.74-1.66C83.73,216.58,86.73,218.67,92.47,218.24Z"/><path class="p" d="M188.41,208.74s-1.72-4.83-5.67-6.87C182.74,201.87,183.72,205.41,188.41,208.74Z"/></svg>