<svg xmlns="http://www.w3.org/2000/svg" viewBox="0 0 200 427"><defs><style>.a{fill:#ffdda7;}.b{fill:#987852;}.c{fill:#f6d4a4;}.d{fill:#877857;}.e{fill:#d8ac6d;}.f{fill:#f7c787;}.g{fill:#b87741;}.h{fill:#502a21;}.i{fill:#ccba9b;}.j{fill:#b68a5d;}.k{fill:#d7c59f;}.l{fill:#ffd99b;}.m{fill:#fbd69f;}.n{fill:#765937;}.o{fill:#a49379;}.p{fill:#836d48;}.q{fill:#c4ae89;}.r{fill:#453d28;}.s{fill:#9d8964;}.t{fill:#867655;}.u{fill:#aa926e;}.v{fill:#fcdea8;}.w{fill:#cfbb98;}</style></defs><title>feature_south</title><path class="a" d="M69.37,16.85S61.56,15,57.44,15.41s-6.17-5.43-18.77,0c-4.13,7.18,9.39,25.05,9.39,25.05Z"/><path class="b" d="M39.9,26.64s1.9,8.16,6.94,12.74S59.36,29.3,59.36,29.3,45.24,30.62,39.9,26.64Z"/><path class="c" d="M81.28,12s41.92-14.66,70.79,2.75,28,45.82,24.74,109.05S164.44,209.52,163.52,248s-1.37,76.06-6.41,78.81-.46,82-.46,82-46.73,33.91-82,5.5L56.77,407S31,411.12,20.88,397.37c0-38.95,20.55-119.7,22.39-179.27s-2.94-41.51,5.25-88.31c8.55-48.87-3.81-36.53-1.93-61.09C48.69,41.08,39.05,16.78,81.28,12Z"/><path class="d" d="M137.54,109.14c-17.09,12.52-19.29,10.29-31.06,7.41-20.57-5-38-.39-46.05-.16S49.63,124,49.63,124s5.53-13.52,7.59-21.53S52,87.77,52,87.77s16.41,1.82,21.45-.24,18.56-3.9,21.08-4.59,8.7,1.15,12.37,0,10.83-4.58,13.78,1.38c1.2,2.43-1.93,10.54,0,13.51C125.33,102.43,137.54,109.14,137.54,109.14Z"/><path class="e" d="M137.54,108.34c-17.09,12.52-19.29,10.29-31.06,7.4-20.57-5-38-.38-46.05-.15s-10.8,7.56-10.8,7.56,5.53-13.52,7.59-21.54-7.59-16.26-7.59-16.26,18.82.23,23.86-1.83,18.56-4.36,21.08-5,11.91,1.14,15.57,0,10.84-4.59,13.78,1.37c1.21,2.44-1.93,14.2,0,17.18A162.78,162.78,0,0,0,137.54,108.34Z"/><path class="f" d="M59.36,87.41s14.83-.69,21.92-2.06,17.41-.23,25.43-4.12,15.73,0,15.88,8.47-8,11.23-13.07,7.33-16.33-1.14-20.22,3.44-5.65,4.26-14,5.5-8.24-.69-12.14,1.6S50.5,96.57,59.36,87.41Z"/><path class="g" d="M67.3,97.49,61.81,107.8s20.37-2,25-4.8,9.41-9.63,9.41-9.63Z"/><path class="h" d="M62.26,91.31s30.47-1.84,34.14-2.52-.23,4.58-.23,4.58L67.66,97.44Z"/><path class="i" d="M142.9,337.81,156,324.67s-.91,32.15-1.37,42S156,407.45,156,407.45L142.9,415.7Z"/><path class="j" d="M79.22,383.62S66,406.07,75,414.63c10.75,10.23,35.8,13.63,46.57,11,7.59-1.83,23.14-5.85,35.05-16.85,0-21.68-2.14-43.83-2.14-43.83S139,386.6,120.72,389.76c-16.13,2.78-22.85-7.67-29.13-9.57C87.82,379.05,79.22,383.62,79.22,383.62Z"/><path class="j" d="M58.37,333.91l3.43,5.66-.8,36s5.85,27.47-3.78,30.92-30.85,3-36.34-9.16a277.4,277.4,0,0,1,18.48-37A247.61,247.61,0,0,1,58.37,333.91Z"/><path class="k" d="M137,348.8s21.53-17.87,23.82-27,2.75-94.5,5-102.75,16-112.59,12.82-148.33S168.1,14.79,136,7.92s2.8,97.71,6.87,124.16c4.59,29.79.92,83.38.92,110.88C143.82,270,137,348.8,137,348.8Z"/><path class="l" d="M61.81,339.18l15.35,2.52,2.06,41.92s-7.17,16.58-4.19,31C59.6,408.16,56.77,407,56.77,407s8.93-19.47,4.12-29.32C61.58,366,61.81,339.18,61.81,339.18Z"/><path class="m" d="M63.87,339S45.08,327,62.49,300.69c-3-6.87.53-13.05,6.34-13.28s7.64,8.93,4.43,12.6c8,3,8.48,28.4,4.12,35.05a27.7,27.7,0,0,1,.92,5.27S76,342.39,63.87,339Z"/><polygon class="n" points="58.37 333.91 61.8 339.57 77.16 341.7 77.38 335.06 58.37 333.91"/><path class="o" d="M110.37,14.79S106,1.27,117,.82,131.91,2,131.91,13.09C131.91,22.12,110.83,22.12,110.37,14.79Z"/><path class="a" d="M109.46,7.8s.82-5.27,4.83-6.53,11.36-1,13.61.9c.93.78-1.26,3-4.7,3.8S115.3,8.83,109.46,7.8Z"/><path class="p" d="M74.69,57.7c6.12-1.2,15.58,2.44,21.69,7.94S94.7,78.47,87.29,76.33s-4.65,1.83-10.15,2.75-5.34-1.61-11.3,0c-2.51.67-3.52,4.2-5.5,2.75C57.53,79.77,60.64,60.45,74.69,57.7Z"/><path class="q" d="M74.69,55.64c6.12-1.2,15.58,2.44,21.69,7.94S94.7,76.41,87.29,74.27,82.64,76.1,77.14,77s-5.34-1.61-11.3,0c-2.51.67-3.52,4.2-5.5,2.75C57.53,77.71,60.64,58.39,74.69,55.64Z"/><path class="r" d="M46.6,59.32s6.11,5.5,11.3,4.27,9.16-5.49,12.22-6.41S79,58.4,86,57.18s9.17-5.8,14.66-6.11,9.78,2.44,14.36,2.44,5.8-8.24,5.5-11.91-4.58-7.94-9.16-6.41-8.56,1.22-13.75,1.22-10.65,4.28-14,4-1.24-3.67-6.74-3.05-6.72,4.58-9.47,6.1-7-1.52-10.69-.61.3,3.53-3.67,6.5S46,52.9,46.6,59.32Z"/><path class="s" d="M46.75,58.4s6.11,5.5,11.3,4.28,9.17-5.5,12.22-6.42,8.86,1.23,15.89,0,9.16-5.8,14.66-6.11,9.77,2.45,14.35,2.45,5.81-8.25,5.5-11.91-4.58-7.95-9.16-6.42S103,35.49,97.76,35.49s-10.64,4.28-14,4S82.49,35.8,77,36.41,70.27,41,67.52,42.52s-7-1.53-10.69-.61.31,3.52-3.66,6.49S46.14,52,46.75,58.4Z"/><path class="t" d="M60.73,65.19s-2,4.58-4.58,4.58a4.58,4.58,0,1,1,0-9.16C58.68,60.61,60.73,65.19,60.73,65.19Z"/><circle class="t" cx="100.18" cy="56.32" r="5.5"/><circle class="q" cx="99.62" cy="55.41" r="5.5"/><path class="q" d="M60.12,64.27s-2,4.58-4.58,4.58a4.58,4.58,0,0,1,0-9.16C58.07,59.69,60.12,64.27,60.12,64.27Z"/><path class="u" d="M46.1,144.26s-7.33,47.65-8.55,54.68-7.64,29.63,0,51.31S49.46,265.53,56.79,264,69,228.57,62,223.37s-11.61-1.22-15.28.31c1-9.5,4.49,5.35,1-27C47.67,196.66,44.58,157.4,46.1,144.26Z"/><path class="u" d="M91.46,234.76s-16.49,6.41-18.33,0-16.95,34.82,0,38.94,28.41-.46,36.2-9.16,20.62-1.83,22.91-1.83,9.62,0,22-31.62,18.79-51.31,19.7-56.81,1.73-32.74,1.73-32.74l-40.21,69.39S115.75,233.38,91.46,234.76Z"/><path class="v" d="M46.1,141.54s-7.33,47.65-8.55,54.68-7.64,29.63,0,51.32,11.91,15.27,19.24,13.74S69,225.85,62,220.66s-11.61-1.23-15.28.3c1-9.5,4.49,5.36,1-27C47.67,193.94,44.58,154.68,46.1,141.54Z"/><path class="w" d="M46.1,141.54s3,76,5.47,77.19c-1.33.64-1.94-.16-6.72,5.14C42.1,216,45.4,143.3,46.1,141.54Z"/><path class="v" d="M90.87,231.94s-16.5,6.42-18.33,0-17,34.83,0,38.95,28.41-.46,36.19-9.16,20.62-1.84,22.91-1.84,9.63,0,22-31.61,18.78-51.32,19.7-56.82S176,138.21,176,138.21l-41.12,69.91S115.15,230.57,90.87,231.94Z"/><path class="v" d="M48.61,220.66s10.5-6.9,15.84,0-1,42.47-6.87,39.28-6.3-1.85-11.45-11.94S45.17,224.64,48.61,220.66Z"/><path class="u" d="M52.35,227.14a7.7,7.7,0,0,1,3-3.07,9.4,9.4,0,0,1,3.93-1.24,8.09,8.09,0,0,1,4.32.74,4.83,4.83,0,0,1,2.85,3.57,17.05,17.05,0,0,0-3.69.28c-1,.13-2,.31-3.05.39a24.91,24.91,0,0,1-3.37.05A16.39,16.39,0,0,1,52.35,227.14Z"/><path class="u" d="M52.35,237.49a4.78,4.78,0,0,1,2.19-3.32,6.5,6.5,0,0,1,3.76-1.06,6.66,6.66,0,0,1,3.64,1.19,6.22,6.22,0,0,1,1.37,1.34,5.85,5.85,0,0,1,.87,1.85,12.93,12.93,0,0,1-1.91.37c-.58.12-1.07.11-1.56.18a22.55,22.55,0,0,1-2.54.07c-.78,0-1.55-.09-2.45-.2Z"/><path class="u" d="M54.83,245.19A6.67,6.67,0,0,1,57.2,244a3.64,3.64,0,0,1,1.79,0,3.25,3.25,0,0,1,1.48.83,12.61,12.61,0,0,1,1.61,2,3.82,3.82,0,0,1-4.3,2A3.65,3.65,0,0,1,56,247.69,4.63,4.63,0,0,1,54.83,245.19Z"/><path class="u" d="M65.62,261.91a34.78,34.78,0,0,0,5.62,1.52,49,49,0,0,0,5.2.67l1.32.11c.44,0,.89,0,1.34.05.9.11,1.82,0,2.76.15s1.91.06,2.92.18a19.22,19.22,0,0,1,3.14.37,15.9,15.9,0,0,1-2.56,2,21.23,21.23,0,0,1-2.91,1.32c-.51.15-1,.3-1.55.42a8.65,8.65,0,0,1-1.6.28c-.54.07-1.08.1-1.62.15L76,269.08a14.2,14.2,0,0,1-6.31-2A9,9,0,0,1,65.62,261.91Z"/><path class="u" d="M67.46,256.41a57.15,57.15,0,0,1,6.59-.39c2.1,0,4.13,0,6.15.05l6.07.12c2.08.08,4.13,0,6.54.22a14,14,0,0,1-5.9,3.66,20,20,0,0,1-6.8,1,22.41,22.41,0,0,1-6.71-1.17A15.89,15.89,0,0,1,67.46,256.41Z"/><path class="u" d="M70.82,247.86a27.62,27.62,0,0,1,5.14-.64c1.6-.06,3.12-.05,4.62,0s3,.13,4.47.26,3,.18,5,.36a8.77,8.77,0,0,1-4.31,3.51,13.83,13.83,0,0,1-5.37.87,15.1,15.1,0,0,1-5.18-1.18A11,11,0,0,1,70.82,247.86Z"/><path class="e" d="M83.85,104.42S99.31,100,99.76,92.9a35.59,35.59,0,0,0-1-11.16c9,12.4,8.7,20,8.7,20Z"/><path class="e" d="M61.19,86.27s1.72,20.41,6,21.21c-8.37,1.6-11,1-11,1S57.16,94.47,61.19,86.27Z"/><polygon class="e" points="60.73 105.62 99.26 100.58 99.62 105.62 61.65 111.69 60.73 105.62"/></svg>