<svg xmlns="http://www.w3.org/2000/svg" viewBox="0 0 308 427"><defs><style>.a{fill:#42d17c;}.b{fill:#fff;}.c{fill:#428ae2;}.d{fill:#e5d541;}.e{fill:#fff24d;}.f{fill:#d3c037;}.g{fill:#ccd1d6;}.h{fill:#7dc4ff;}.i{fill:#c13808;}.j{fill:#f7be08;}.k{fill:#9b2100;}.l{fill:#2db564;}.m{fill:#4a514d;}</style></defs><title>feature_anchi</title><path class="a" d="M88,126.07S65.33,196.41,76.68,225.2c6.94,17.61,10.72,28.21-5,75.52-11.65,35,.74,46.1,2.08,89.25.82,26.38-5,36-5,36H241.35s-4.85-8.44-5.21-35.58c-.41-31.44,10.38-44-.66-87.34-4.36-17.06-16.61-52.83-7.76-72.49,10-22.15,9-70.92-6.05-104.45Z"/><path class="b" d="M92.34,85.74s-5.55-.34-6-19.58c-.13-5.11-11.63-26.2,3.3-32.62,10.72-4.61,11.78-1.17,11.54,1.74s-3.23,10.53,6.3,9.58L96.27,78.07Z"/><path class="b" d="M217.22,87.6S227.55,85.4,228,66.16c.14-5.11,10.87-26.29-4.06-32.71-10.72-4.61-11.78-1.17-11.54,1.74s3.23,10.53-6.3,9.58l8.26,34.56Z"/><path class="c" d="M92.56,83.26s-4.64.39-5.09-17.1c-.12-4.64-11-24.51,2.59-30.35,9.74-4.19,10.71-1.06,10.49,1.58S97.62,47,106.28,46.1L96.13,76.29Z"/><path class="c" d="M217.37,85s8.28-1.39,8.73-18.88c.12-4.64,11-24.51-2.59-30.35-9.74-4.19-10.71-1.06-10.49,1.58S216,47,207.29,46.1l7.51,31.42Z"/><path class="d" d="M94.68,31.73s6.91-2,13.14-1.13L109.62,43l-3.34,3.15s-8.39,2.16-7.57-5.36c.28-2.61,3.1-2.65,2.59-6.09C101,32.41,98.87,31.43,94.68,31.73Z"/><path class="d" d="M219.21,31.73s-7.24-1.94-13.46-1.1L204.27,43l3.34,3.15s8.39,2.16,7.57-5.36c-.29-2.61-3.11-2.65-2.59-6.09C212.93,32.41,215,31.43,219.21,31.73Z"/><path class="e" d="M88,126.07s-7.35-23,8.09-49.78c0,0,.25-23,13.49-33.34,0,0-9.73-24.19,17.76-30.57,0,0,28.47-25.66,57.69-.16,0,0,25.81,2.45,19.93,30.24,0,0,12.5,13.48,9.8,35.06,0,0,9.81,23.78,6.87,48.55Z"/><path class="d" d="M96.13,76.29s22.13.06,35.23-16c3-3.65,6.95-19.06,7.19-19.31-.61,5-2.58,9.73-3.19,12.2-.72,2.93-.2,3.71,0,4.49,0,0,22.23-6.37,40.7.25a6.7,6.7,0,0,0,.66-4.66A77.34,77.34,0,0,1,174.34,41c.25.32,3.37,16.47,5,19.55C182,65.64,192,73.9,214.8,77.52c0,0-27.13-1.06-40.94-16.67a111.12,111.12,0,0,0-36.53.49S119.43,77.52,96.13,76.29Z"/><path class="f" d="M135.36,57.66s-5.64-11.11,20.11-11.11c27.95,0,20.59,11.36,20.59,11.36S162.17,52.27,135.36,57.66Z"/><path class="f" d="M109.62,43S98,18.55,130.15,17.2a60.8,60.8,0,0,1,53.27,0S212.17,15.86,205,42.46c0,0-12.72-7.14-23.3-7.81-16.38-11.72-30.36-11.77-47.44,0C123.41,35.16,109.62,43,109.62,43Z"/><path class="d" d="M109.62,43s11.89-7.9,24.64-8.3c0,0,21.33-22.88,47.44,0A39.57,39.57,0,0,1,205,42.46s-12.75-6.13-23.66-6.13c0,0-21-18.68-46.5.29C134.84,36.62,130.22,33.75,109.62,43Z"/><circle class="c" cx="132.82" cy="34.65" r="8.38"/><circle class="c" cx="179.84" cy="34.65" r="8.38"/><circle class="g" cx="131.69" cy="31.59" r="5.07"/><circle class="g" cx="180.76" cy="31.55" r="5.07"/><circle class="b" cx="131.69" cy="30.83" r="4.31"/><circle class="b" cx="180.76" cy="30.83" r="4.31"/><circle cx="131.64" cy="30.83" r="3.2"/><circle cx="180.76" cy="30.83" r="3.2"/><path class="c" d="M183.42,17.2s18.76.43,21.82,11.71c0,0,7.71-9.82-6.74-15.75C188.94,9.24,182.13,11,183.42,17.2Z"/><path class="c" d="M130.15,17.2s-18.76.43-21.82,11.71c0,0-7.71-9.82,6.74-15.75C124.63,9.24,131.44,11,130.15,17.2Z"/><polygon class="b" points="88.04 126.07 93.93 171.3 101.56 151.69 105.45 170.2 115.5 143.23 122.17 162.11 130.89 137.86 141.25 157.7 148.11 140.04 153.55 157.45 161.84 136.46 167.24 155.82 176.94 141.51 185.83 159.9 194.61 147.76 204.27 171.59 221.67 126.07 88.04 126.07"/><path class="h" d="M88,126.07s7.77.9,26.73-16.43c0,0,39.06-7.85,78,2.29,0,0,18.26,11.93,28.93,14.14l-17.4,40.12-9-23-9.15,14-8.57-20.75L168,151.81l-5.88-19.61-8.54,20.35L148.3,132.4l-6.89,20.46L130,134l-7.78,23.95-7.24-20.68-8.65,27.79-4.13-18.63-7.47,19.77Z"/><path class="b" d="M120.33,80.71c20.26-10.95,49.36-10.63,73.72,1.31,2.33,1.14,3.61,2.28,10.22,2s12.65,3.27,14.54,6.33c1.82,6.58,3.41,16.94,3.32,22.21-4.63,2.62-24-15.79-24-15.79L198,93.28a51.87,51.87,0,0,1-19.62.64,143.45,143.45,0,0,0-41.6-2c-14.37,1.39-22.15.52-22.15.52l.17,2.51S88.9,114.87,86.31,110c0-5.26,1.41-14.55,3.5-19.68,3-4.71,15-7.55,19.81-7.06C115.64,83.88,117.74,82.1,120.33,80.71Z"/><path class="i" d="M112.48,85.74c-1-2.46-20.14,0-22.48,7-1.75,5.29-3.37,17.24-1,16.5,6.15-1.89,25.26-14.63,25.26-14.63S113.24,87.61,112.48,85.74Z"/><path class="i" d="M199.85,85.94c1.15-1.93,16.21-.2,18.55,6.83,1.76,5.29,3.27,18.75,1.63,18.26-6.15-1.85-21.9-14.3-21.9-14.3S198.81,87.68,199.85,85.94Z"/><path class="i" d="M125.32,92.64c6,.41,23.36-1.41,23.36-1.41l.17-5.49h13.73l.22,6s19.15,3.42,24.63,2.82c2.21-2.71-3.68-15.09-3.68-15.09s-31.47-11.36-55.33-.24C128.42,79.24,123.41,90.28,125.32,92.64Z"/><path class="g" d="M187.81,93.74c.54-1.88-1.68-8.54-1.68-8.54s7,3.38,9.27,7.57C195.4,92.77,190,93.89,187.81,93.74Z"/><path class="g" d="M125.07,92.19c-.54-1.87,1.59-8.59,1.59-8.59s-6.71,3.51-9,8.5A48.64,48.64,0,0,0,125.07,92.19Z"/><rect class="g" x="155.47" y="85.74" width="0.42" height="4.94"/><path class="i" d="M183.75,79.48s7.15,2.39,9.66,3.86,5,2.56,6.44,2.6a8.24,8.24,0,0,0-.55,1.66S189.61,81.41,183.75,79.48Z"/><path class="i" d="M128.42,79.24a49.94,49.94,0,0,0-10.1,4.13,15.22,15.22,0,0,1-6.51,1.83,2.39,2.39,0,0,1,1,1.65S122.49,81.63,128.42,79.24Z"/><path class="b" d="M234.88,300.72l.6,2.29s-24.26,5.13,3.19,15l.42,2.67S203.4,310.14,234.88,300.72Z"/><path class="b" d="M239.09,320.67l.29,2s-19.8,8.2,1.07,17.65l-.06,2.43S209.69,332.12,239.09,320.67Z"/><path class="b" d="M240.39,342.79l-.11,2.24s-11.75,5.1-1.45,14.07l-.32,2.31S214.31,351.47,240.39,342.79Z"/><path class="b" d="M71.66,300.72l-.72,2.22s20.32,4.29-3.72,16.81L67,321.91S106,309.14,71.66,300.72Z"/><path class="b" d="M67,321.91l-.1,1.33s18.28,5.74.63,16.8l.16,1.12S110.84,328.14,67,321.91Z"/><path class="b" d="M67.68,341.16l.25,1.78s10.08,4.47,2.43,14.49l.24,1.46S88.17,346.38,67.68,341.16Z"/><path class="j" d="M131.41,222.85a22.66,22.66,0,0,0,10,12.32s-2.06-1.8-2.06,13.65c0,10.67,3,12.26,3,12.26s-2.53,2.58-2.53,10.63c0,12.75,1.57,12.75,1.57,12.75h9s-2.16,0-2.16-12.51c0-10.91,2.63-12.5,2.63-12.5S148,260.92,148,248.58c0-14.14,1.72-18.05,1.72-18.05s-8.58-3.2-8.58-10.72Z"/><path class="k" d="M71.66,300.72s14.5-16.26,45.85-15.7c9.73.17,63.37-2.28,74.61-2.4,12-.13,37.34,8,42.76,18.1,0,0-30.62,8,4.21,19.95,0,0-24.09,10.35,1.3,22.12-11.7,3.46-9.16,15.71-1.88,18.62,0,0-20.93-1.19-38.74-18.68-16.12-15.82-26.4-31.33-44.59-31.33-33.3,0-25.86,22.18-43.78,34.87-25.52,18.09-40.8,12.62-40.8,12.62s11.26-10.22-2.92-17.73c13.77-4.92,10.48-18-.69-19.25C67,321.91,97.2,308.73,71.66,300.72Z"/><path class="b" d="M79.83,272.48s52.08,30.46,147.83.09l.83,4S139.48,306,79,276Z"/><path class="k" d="M80.37,270s51,30.37,146.71,0l.88,3.9S140,303.58,79.55,273.55Z"/><path class="j" d="M175.69,222.85a22.66,22.66,0,0,1-10,12.32s2.06-1.8,2.06,13.65c0,11.85-3,12.26-3,12.26s2.53,2.9,2.53,10.63C167.3,294,157,290.45,157,290.45l-.28-6s2.17,0,2.17-12.51c0-10.91-2.64-12.5-2.64-12.5s2.84,1.47,2.84-10.87c0-14.14-1.72-18.05-1.72-18.05s8.58-3.2,8.58-10.72Z"/><path class="j" d="M149.69,230.53a10.94,10.94,0,0,0,7.72,0s1.89,2.1,1.24,6.72a19.87,19.87,0,0,1-10.2,0S147,231.66,149.69,230.53Z"/><path class="j" d="M142.33,261.08c4.3-5.09,12.63-9.78,22.44,0C159.65,269,147.76,270.46,142.33,261.08Z"/><path class="j" d="M141.11,235s12-14.67,24.88.1Z"/><path class="k" d="M189.31,200.93l-.37-10.38a21.24,21.24,0,0,0-15.4-4.64c-1.56-1.19-9.83-13.1-20-4.33-10.13-9.06-19.35,3.66-20,4.33a21.24,21.24,0,0,0-15.4,4.64l-.37,9.4s2.21,5.48,7.44,6c-2.35,7.68,1,17.37,8.64,17.23,14.34-.25,18.42-17.59,18.42-17.59h2.52s4.09,17.34,18.42,17.59c7.66.14,11-9.55,8.64-17.23A10.13,10.13,0,0,0,189.31,200.93Z"/><path class="c" d="M158.51,186.61c-3.55,6,1.23,33.75,15.76,30.5,5.8-1.29,4.76-13.12-1-24.15C170.31,187.36,162.25,180.27,158.51,186.61Z"/><path class="c" d="M148.63,186.61c3.55,6-1.23,33.75-15.76,30.5-5.8-1.29-4.76-13.12,1-24.15C136.82,187.36,144.88,180.27,148.63,186.61Z"/><path class="c" d="M133.9,189.85h38.63s12.55-.85,12.55,5.72-12.78,5.36-12.78,5.36l-38.74.09S122,201.39,122,195.4,133.9,189.85,133.9,189.85Z"/><path class="j" d="M189.64,209.83l-13.58,29.35s1.48,3.26,6.79,2.86L195,214.94Z"/><polygon class="j" points="207.53 163.06 201.88 177.01 207.9 178.75 212.56 166.19 207.53 163.06"/><path class="l" d="M80,187s22.23-11.89,34.49-8.31C114.44,178.64,107.9,171.1,80,187Z"/><path class="l" d="M226.94,187s-22.23-11.89-34.49-8.31C192.45,178.64,199,171.1,226.94,187Z"/><path class="b" d="M100.18,187s9.07-2.9,15.81-.94C116,186,109.13,182.87,100.18,187Z"/><path class="b" d="M95.77,193.49s12.62-2,20.22.62C116,194.11,108.39,189.69,95.77,193.49Z"/><path class="b" d="M97.73,202.44s12.75-1.59,15.81,0C113.54,202.44,108.15,199.25,97.73,202.44Z"/><path class="b" d="M206.46,187s-9.07-2.9-15.81-.94C190.65,186,197.52,182.87,206.46,187Z"/><path class="b" d="M210.88,193.49s-12.63-2-20.23.62C190.65,194.11,198.25,189.69,210.88,193.49Z"/><path class="b" d="M208.92,202.44s-12.75-1.59-15.82,0C193.1,202.44,198.5,199.25,208.92,202.44Z"/><path class="l" d="M74.15,214.71s1.19,9.39,3.09,11.9c0,0,4.67-10.07,20-13.34s16.34-9,16.34-9-9.15,4.9-17.77,4.74S74.15,214.71,74.15,214.71Z"/><path class="l" d="M232.25,214.71s-1.34,8.91-3,11.9c0,0-4.77-10.07-20.06-13.34s-16.34-9-16.34-9,9.15,4.9,17.77,4.74S232.25,214.71,232.25,214.71Z"/><path class="b" d="M114.44,178.64s11.42-.52,9.32,16.08c-2.78,21.9-16,23.94-22.3,25.52-5.75,1.45-18.89,5.94-22,12.25l-.51-1.42c-.14-.36,3.64-7.94,3.64-7.94l20.56-7,7.73-5.27,5.14-6.05,3.07-5.6V192l-.74-6v-4Z"/><path class="b" d="M192.43,178.64s-11.42-.52-9.32,16.08c2.78,21.9,16,23.94,22.3,25.52,5.75,1.45,18.37,5.94,21.51,12.25,0,0,.7-1.71.84-2.07s-3.45-7.29-3.45-7.29l-20.56-7L196,210.9l-5.14-6.05-3.07-5.6V192l.74-6v-4Z"/><path class="c" d="M77.24,226.61l1.69,4.46s2.12-5.58,15.86-10c17.16-5.52,21.36-6.78,25.38-16.23,4.43-10.42,4-25.58-5.73-26.21,0,0,4.13,4,1.55,7.37,0,0,2.7,5.28,0,8.1a6.41,6.41,0,0,1-2.45,8.33,1.81,1.81,0,0,1,0,1.84s-1.63,6.78-20.27,9.56C88.74,214.52,79.46,220.38,77.24,226.61Z"/><path class="c" d="M229.46,226.21s-1.05,2.92-1.73,4.32c0,0-1.85-5-15.58-9.45-17.17-5.52-21.36-6.78-25.38-16.23-4.44-10.42-4.05-25.58,5.72-26.21,0,0-4.13,4-1.55,7.37,0,0-2.7,5.28,0,8.1a6.41,6.41,0,0,0,2.45,8.33,1.81,1.81,0,0,0,0,1.84s1.63,6.78,20.27,9.56C218.19,214.52,227.24,220,229.46,226.21Z"/><path class="b" d="M207.53,163.06l14.14-37s9.77,15.4,12.24,52.57a27.25,27.25,0,0,1-4.45-5.5s-1.06,9.07,2.44,15.45c0,0-10.23-5.64-10.23-15a27.88,27.88,0,0,0,.45,6.83s-3.92-5.76-4.41-8.87a29.31,29.31,0,0,0-.21,7.16s-5.24-6.69-5-12.57Z"/><path class="k" d="M207.53,163.06l15.11-35.21s9,15.92,11.14,49a52.46,52.46,0,0,1-5.49-8.49s-1.58,9.33,1.17,16.5a23.5,23.5,0,0,1-7.79-15.15,25.94,25.94,0,0,0-.94,6.37s-3.11-6.37-3.35-9.07c0,0-1.12,5.09-.74,8.09,0,0-3.88-5.45-4.08-9Z"/><rect class="k" x="133.56" y="185.91" width="39.89" height="3.91"/><rect class="k" x="127.6" y="200.75" width="51.41" height="4.82"/><path class="k" d="M133.56,185.91s-6.7,9.3-8.33,20l4.17-.36s2.71-11.3,10.63-19.65Z"/><path class="k" d="M173.5,185.91s6.7,9.3,8.34,20l-4.17-.36S175,194.26,167,185.91Z"/><path class="k" d="M148.15,185.91s4.18,8-.71,19.65h4.85s3.51-9,1.26-24Z"/><path class="k" d="M159.07,185.91s-4.18,8,.71,19.65h-4.85s-3.51-9-1.26-24Z"/><path class="l" d="M73.94,362.67s5.36,15.53,9.69,19.62c0,0,8.09,6.86,17,4.9C100.58,387.19,76.4,397.65,73.94,362.67Z"/><path class="l" d="M236,362.67s-5.36,15.53-9.69,19.62c0,0-8.09,6.86-17,4.9C209.32,387.19,233.5,397.65,236,362.67Z"/><path class="m" d="M207.53,163.06l13.75-32s6.87,10.94,8,16,3.1,13.63,3.52,19.15a13,13,0,0,0-11.14-1.87c-2,.51-3,2.51-9.11,1.77Z"/><path class="b" d="M206.12,399.61s-.47,16.76,7.87,20.19a5,5,0,0,1,.08-3.84,11.07,11.07,0,0,0,9.15,6.37,15.25,15.25,0,0,1-1.8-6s6.62,7.43,12.18,7.68c0,0-2.85-7.57-2.14-11.28,0,0,2.31,10.87,9.89,13.16l-4.59-22.13-17.87,5.95Z"/><path class="b" d="M103.76,399.57s.47,16.76-7.87,20.19a5,5,0,0,0-.08-3.84,11.11,11.11,0,0,1-9.16,6.37,15.36,15.36,0,0,0,1.81-6s-6.63,7.43-12.18,7.68c0,0,2.85-7.57,2.14-11.28,0,0-2.31,10.87-9.89,13.16l5-22L91,409.71Z"/><path class="c" d="M73.68,391.33a97.55,97.55,0,0,1-.16,12.55A22.08,22.08,0,0,0,92,414.77c9.41,0,16.1-16.3,8.61-27.58,0,0-1.25,19.37-9.84,19.37S73.68,391.33,73.68,391.33Z"/><path class="c" d="M236.19,391.33s0,6.9.57,12.47a22.83,22.83,0,0,1-18.86,11c-9.41,0-16.1-16.3-8.61-27.58,0,0,1.25,19.37,9.84,19.37S236.19,391.33,236.19,391.33Z"/><path class="b" d="M176.52,308.73s8.86,23,26.64,27.74c22.57,6,19.46,31.59,2.91,47.41l.52-10.42-9.43,3.09s10.72-24.22,1.34-27.7C182.68,343,175,331.46,171.41,316.41Z"/><path class="b" d="M130.83,308.88s-8.86,23-26.64,27.74c-22.57,6-19.46,31.6-2.91,47.41l-.52-10.42,9.43,3.1S99.47,352.48,108.84,349c15.82-5.88,23.56-17.39,27.1-32.44Z"/><path class="k" d="M173.37,316.7s3.38,21.67,25.09,28.81c9.87,3.25,7.84,16.23,2.29,28.28,0,0,2.56.37,6.73-3.06a16.6,16.6,0,0,1,.13,8.61s24.68-31.4-5.8-41.89c-13.65-4.69-18.55-11.07-25.08-25.77Z"/><path class="k" d="M134,316.85s-3.38,21.67-25.09,28.81c-9.87,3.25-7.84,16.23-2.29,28.28,0,0-2.56.37-6.73-3.06a16.6,16.6,0,0,0-.13,8.61s-24.68-31.4,5.8-41.88c13.65-4.7,18.55-11.08,25.08-25.78Z"/><path class="j" d="M93.77,425.93s19.2-11.79,19.88-30.52c9.7-7.93,23.44-10.43,42.25-10.43s32.34,2.5,41.76,10.44c.66,16.6,18.94,30.47,18.94,30.47Z"/><rect class="e" x="149.58" y="276" width="8.17" height="32.73" rx="4.09"/><path class="j" d="M143.2,316.41s.47,12.1,11.22,12.1,11.22-12.1,11.22-12.1h4.65s.84,18.31-15.87,18.31-17.37-18.31-17.37-18.31Z"/><rect class="e" x="130.61" y="301.22" width="46.12" height="18.94" rx="9.47"/><path class="j" d="M157.76,289.06s23.33-8.22,23.33,6.66c0,14.48-23.33,9.7-23.33,9.7v-8.83s13.89,3.68,13.89-.72c0-3.7-13.89-.63-13.89-.63Z"/><path class="j" d="M149.59,288.9s-23.34-8.22-23.34,6.66c0,14.48,23.34,9.69,23.34,9.69v-8.82s-13.9,3.68-13.9-.73c0-3.7,13.9-.62,13.9-.62Z"/><path class="j" d="M153.83,321.11a15.36,15.36,0,1,0,15.36,15.36A15.37,15.37,0,0,0,153.83,321.11Zm0,23.44a8.08,8.08,0,1,1,8.08-8.08A8.07,8.07,0,0,1,153.83,344.55Z"/><circle class="j" cx="153.83" cy="342.97" r="3.5"/><rect class="j" x="147.3" y="350.03" width="13.06" height="7.06" rx="3.53"/><path class="j" d="M156.76,357.08h-5.94s-9.08,9.27-7.36,22.26h20.67C165.84,366.35,156.76,357.08,156.76,357.08Z"/></svg>