<svg xmlns="http://www.w3.org/2000/svg" viewBox="0 0 298.43 386.51"><defs><style>.a{fill:#6d5f3c;}.a,.b{fill-rule:evenodd;}.b{fill:#544a34;}.c{fill:#828282;}.d{fill:#6d6b6b;}.e{fill:#5580bf;}.f{fill:#426da0;}.g{fill:#d8caa7;}.h{fill:#afafaf;}.i{fill:#8e8e8e;}.j{fill:#fcedd0;}.k{fill:#fff5de;}.l{fill:#e26161;}.m{fill:#db7a0f;}.n{fill:#fa0;}.o{fill:#ff8b00;}.p{fill:#c1c1c1;}.q{fill:#efd875;}</style></defs><title>north_ai</title><path class="a" d="M38.15,289.56c-31.61-3.36-21.1,12-26.42,22.2-3.87,7.39-30.36,27.26,12,28.53,14,.42,20.52,2.82,32.4,9.16,23.78,11.88,52.68-3.82,76.46-7.79,33.29-5.54,64.94,6.94,98.23,8.53,10.3.79,30.37,8.33,39.83,3.48,14.45-7.39,6.66-31.7-6.34-34.52-11.44-2.48-19.34-7.54-27.27-13.88-7.13-4.75-11.83-16.41-22-19.58-9.08-2.82-18.76-1.5-27.48-3.87-13.47-4.76-45-25.28-58.47-29.24-19.81-6.34-35.93,21.31-54.95,22.89C55.85,276.27,54.71,291.33,38.15,289.56Z"/><path class="b" d="M50.83,311.05c2.68,6.42,25,9.51,32,9.16,10-.35,19.38-6.34,28.8-9.16,12.92-4.23,29.34-5.63,42.52-2.11,9.15,2.11,18.3,6,27.45,8.45,5.92,1.76,17.21,9,19.65,3.17,4.52-10.71-9.69-24.3-19.65-27.12-10.49-2.47-22.33-4.58-31.75-10.57-4.85-3.17-9.56-3.17-13.06-8.45-5.11-8.1-10.43-8.46-18-6.34-8.89,2.81-13.39,5.63-21.46,10.21-4.58,2.47-10,3.88-14.81,5.64-6.19,2.46-14.32,9.87-17.31,16.49C62.74,306,47.66,303.46,50.83,311.05Z"/><path class="a" d="M53.15,250.69c-8.18.46-17.6-1.63-22.93-8.5-2.92-4.14-1.63-8.38,4.47-7.61S53.15,250.69,53.15,250.69Z"/><path class="a" d="M89.71,255.11c-6.94-4.35-13.44-11.48-13.83-20.17,0-5.06,3.5-7.79,8-3.64S89.71,255.11,89.71,255.11Z"/><path class="a" d="M178.9,371.64c-3.13,1.72-6.66,4-6.89,7.59a3.32,3.32,0,0,0,1,2.72,4.18,4.18,0,0,0,1.76.81c3.95,1,8.1.58,12.17.35a128.48,128.48,0,0,1,34.6,2.7,16.85,16.85,0,0,0,6.1.6c2-.31,4.06-1.64,4.51-3.65.66-2.92-2.1-5.41-4.6-7.07-9.92-6.54-21.73-13-33.31-10.35A67.61,67.61,0,0,0,178.9,371.64Z"/><path class="c" d="M148,250.92s-1.18,7.21,18.35,7.21c7.79,0,19.79-4.22,24.81-21.75l-17,1.84Z"/><path class="c" d="M241.32,303.46s-1.24,8,15.38,7.75c0,0,16.26,0,16.62-7.75Z"/><path class="d" d="M246.59,276.71s2,12.75-3.49,16.75-1.78,10-1.78,10,15,10.5,32,0a10.77,10.77,0,0,0-1-4.11c-1.52-3.25-1.44-8.87-.81-14.39a7.22,7.22,0,0,0,0-8.25Z"/><path class="d" d="M166.16,226.26s.69,8.58-7.09,12-12.66,7.16-11.07,12.7c0,0,33.41,20.62,41.49-26.54Z"/><path class="e" d="M201.66,162.21s-35.84-13.83-37.5,3.17,2,60.88,2,60.88l23.33-1.88s1.67-25.34,0-35.34c0,0,10-3.95,27,4.15,0,0,19.51,5.79,26.56,60.65l3.49,22.87h24.9s-8-90.12-12.17-108.5Z"/><path class="e" d="M228.57,92.16s-18.58-.58-24.41,8.55a84.47,84.47,0,0,0-12,32c-1.84,11.75-2.17,17.5,9.16,19.5a19.44,19.44,0,0,0,.34,10s14.33,10.83,57.66,6c0,0,2.84-31.67,4.34-47.33,0,0,39.33,20.47,34.33-12.18,0,0-.08-5.76-4.47-14.26s-.53-2.9-.53-2.9Z"/><path class="f" d="M212.3,113.46s-5.3,8.53-5,15.27c0,0,14.53.23,22.53,3.48l-1.12,3.63,11,2.62s6.89-.5,12.92-9.37l5.77-13.94-.4-14.94s-.4,11.41-1.69,14.94c-3.68,10.08-15.61,17.56-15.61,17.56l-28.06-6.45Z"/><path class="f" d="M201.32,152.21s26.36,6.14,28.52-1.77c0,0,5.77-1.79,7.61.15s25.37-20.88,25.37-20.88l-2.68,29.36-.82-12.19s-4.77,14.61-7.8,10.14l-2.7,6.52a29.32,29.32,0,0,0,10.77,1.72l-.27,3s-40,5.17-57.66-6c0,0,14.26,2,14.88-5C216.54,157.21,210,157.54,201.32,152.21Z"/><rect class="g" x="240.02" y="107.8" width="9.67" height="105.35" rx="3.92" transform="translate(409.73 402.4) rotate(-157.52)"/><path class="h" d="M249.8,221.07,199.68,201s-38.57,57.54-3,72.34S249.8,221.07,249.8,221.07Z"/><rect class="h" x="221.61" y="197.46" width="9.65" height="17" transform="translate(356.9 482.87) rotate(-157.52)"/><path class="i" d="M214.42,242.19s10.71-15.8,13.65-27C228.07,215.21,221,230.69,214.42,242.19Z"/><path class="i" d="M210,240.76s3.06-18.85,8.59-29C218.63,211.77,213.14,227.87,210,240.76Z"/><path class="d" d="M212.3,65.54s-3.63-3.63-1-14.44l11.48,7.22-3.08,11.52Z"/><path class="j" d="M208.51,65.65c-5.12,8.7,7.48,13.45,8.31,12.69,2.06-1.9.83-7.14.3-9.89C217.12,68.45,211.82,60,208.51,65.65Z"/><path class="k" d="M216.07,79.71C218.2,88.59,235,98.05,241.45,98c12.2-.17,24.75-5,36.23-22.42a44.93,44.93,0,0,0,2.47-4c1.39-2.66,2.81-5.5,2.52-8.48-.11-1.21-7.38-9.3-9.31-9.82-12.32-3.37-51.23-2.38-56.63-.2C215.32,53.65,215.62,77.85,216.07,79.71Z"/><path class="j" d="M216.54,61.54S231.32,73.71,260,72c0,0,4.75-.51,1.75,4.79,0,0-2.92.13-3.83,6.46,0,0-3.71,3.5-2.65,7.59,0,0-1.35,6.83-19,6.08,0,0,21.27,8.69,44.22-23.07l4.45-14.68Z"/><path class="d" d="M271.16,66,269,76.71s10.17,1.6,15-6.87c0,0,8.83-8.3,6.33-15.3Z"/><circle class="d" cx="225.32" cy="75.71" r="2.34"/><circle class="d" cx="250.27" cy="79.22" r="2.35"/><path class="l" d="M232.55,85.71l11.94.83s3,2.17,1.83,7.17c0,0-7.08,2.13-13.25-.87Z"/><path class="m" d="M268.49,73.37a10.21,10.21,0,0,0-4.83,4.68s-1.72,5.16-1.19,8.33L283.66,97s9.1,1.2,8-11.82Z"/><path class="k" d="M229.41,136.13s-5.78,5.21-5.17,12.83c0,0,9.68,2.53,12.67,1.17,0,0,2.38,6.27,8.91-.17a6.81,6.81,0,0,0,5.81,1.63s.69,5.37,2.44,2.12a23,23,0,0,0,1.13-3.87s3.37-1,2.62-5.63a6.74,6.74,0,0,0,2.5-3.62s4.38.12.63-8.25c-.71-1.57-2.41-2.9-6-3.38-4.46-.59-6.88-.87-15.25,9.5Z"/><path class="k" d="M293,102.54s-3,9.86-11.67,1.17a6,6,0,0,1-1-4.17s.34-1.66-2.33-1.33c0,0-2.67,2-12-3,0,0-19.21-8.17-3.52-8.83L283.66,97s8.5.37,7-10.63c0,0-5.17-1.67-6.84-1,0,0,.67,15-4.16,5.83,0,0-1.52,5.33-4.51-3,0,0-1.33,1.52-4.66-3,0,0-1.5,4.49-5.33-3.84,0,0-2.11-4.37,5.66-8.17a13.72,13.72,0,0,1,11.84,0C288.16,75.88,297.82,84,293,91.54A47.49,47.49,0,0,1,293,102.54Z"/><path class="j" d="M229.41,136.13l1.42.32s-4.17,5.93-4.34,8.93c0,0,9.33,1.83,12.17.83,0,0,.73,6.68,6.2,1.63,0,0,9.21,4.34,9.94.61.31-1.57-.85-4-6.19-5.16,4.31-.85,5.76.18,7,1.55.28.31,2.67-4.38-3.66-6.63-.29-.1,2.58,0,7.54,1.46.62-3.46-4.25-6-5.25-6,4-2.17,7.83,4.46,7.83,5.92a2,2,0,0,1-1.58,1c-.56,1.07-1.54,3-2.59,3.46.71,4.12-1.62,5.34-2.66,5.71-.1,5.75-3.57,7.15-3.57,1.75a5.08,5.08,0,0,1-5.6-1.44s-6,6.25-9.12,0c0,0-2.34,1.75-12.67-1.17C224.24,149,223.23,142.24,229.41,136.13Z"/><path class="j" d="M264.68,94.62s-17.49-7.91-2.21-8.24L283.66,97s6-1.22,6.71-4.85c0,0,1.95-5.53-2.05-6.45a20.56,20.56,0,0,0-4.08,0,24.29,24.29,0,0,0-.42,7.67c.13,1.16-1.87,3.08-4.16-2.17,0,0-1.31,5.46-4.51-2.92,0,0-2.08,1.85-4.66-3.07,0,0-.42,1.07-1,1.16,0,0-4.83-5.75,3.42-10.25,0,0-4.25,3.45-2.5,5.43s5.41-2.34,5.41-2.34-5.41,9.11,6.34,2.34c0,0-3.84,3.07-1.75,4.73,0,0,1.5.84,2.75-1.66,0,0,1.91-3.17,6.08-1.67,0,0,2.9,1.18,3.31-1.15,0,0,3.77,5.28.44,9.73,0,0,3.95,19.2-7.58,15.25,0,0-5.63-1.66-5.09-7.25.1-1.05-2.36-.63-3.41-.54C273.87,99.28,274,99.09,264.68,94.62Z"/><path class="h" d="M263.66,78.05s-2.09,7.66-1.35,33.47c0,0-2.65.27-3.92,3.63C258.24,108.29,256.07,71.73,263.66,78.05Z"/><path class="h" d="M287.78,95.39s1.54,2.76-2.9,6.88S268,116.84,268,116.84s-1.53,4.18-3.27,8.39c0,0,2.45-4.27,12.89-12s13.19-12.62,13.19-12.62,3.15-5.06-.12-9.6A10.84,10.84,0,0,1,287.78,95.39Z"/><path class="n" d="M210.46,40.07c-12,16.39,9.83,23.15,13.14,24.56,11.81,5,38.22,6.5,47.39,4.08,15.39-4.06,23.5-11.7,23.5-22.75C270.53,68.43,213.07,50.63,210.46,40.07Z"/><path class="o" d="M210.2,40.21c1.25,13.5,10.25,18.63,22.62,21.38,11.71,2.6,47.38,5.75,61.13-13,3.57-4.88-1.95-23.21-8-30.46-4.07-4.83-14.84-14.75-30.34-15.92C241.47,1.15,230.09,5.59,222,14.09,216.2,20.09,209.6,33.81,210.2,40.21Z"/><path class="m" d="M238.87,3.66s-3.13,1.17-5.05,2c0,0-7.44,20.74-9,23.63-.54,1-4.92,10.28-9.51-5.56,0,0-3.88,7.17-4.05,9.55,0,0,1.31,14.93,23.06,21.26C234.32,54.54,244.81,9.18,238.87,3.66Z"/><path class="m" d="M274.32,8.46a33.31,33.31,0,0,1,4.92,3.17s-9.14,15.1-4.92,24.58c.18.39,4.07,8.69,18.17-5.33A37.88,37.88,0,0,1,295,42.4s-10.53,13.81-27.8,16.48a24.09,24.09,0,0,1-12-.92S262.65,13,274.32,8.46Z"/><path class="n" d="M274.32,8.46c-5.28,8.88-12,41.74-12.95,54.75-11.05,1.29-27.88-.08-37.77-4.5,0-16.75,6.31-46.25,15.27-55C247.16-1.62,270.57-2.12,274.32,8.46Z"/><path class="p" d="M214.1,26.13a5.29,5.29,0,0,0-1.78,4.75c2,28.41,62.09,33.5,83.92,6.91,0,0,.06-5.1-1.75-5.33C283,51.38,215.35,56.63,214.1,26.13Z"/><circle class="d" cx="239.03" cy="49.34" r="13.71"/><ellipse class="p" cx="239.57" cy="52.81" rx="11" ry="10.04"/><ellipse class="q" cx="239.07" cy="52.96" rx="9.25" ry="8.08"/></svg>