<svg xmlns="http://www.w3.org/2000/svg" viewBox="0 0 178.07 433.35"><defs><style>.a{fill:#42d17c;}.b{fill:#fff;}.c{fill:#428ae2;}.d{fill:#e5d541;}.e{fill:#fff24d;}.f{fill:#d3c037;}.g{fill:#ccd1d6;}.h{fill:#7dc4ff;}.i{fill:#c13808;}.j{fill:#f7be08;}.k{fill:#9b2100;}.l{fill:#2db564;}.m{fill:#4a514d;}</style></defs><title>feature_anchi</title><path class="a" d="M21.75,127.6S-1.41,199.32,10.17,228.68c7.08,17.95,10.93,28.76-5.13,77-11.87,35.67.77,47,2.13,91C8,423.57,2,433.35,2,433.35h176s-4.95-8.61-5.31-36.28c-.42-32.05,10.59-44.89-.68-89.06-4.44-17.4-16.93-53.87-7.91-73.91,10.17-22.59,9.15-72.32-6.17-106.5Z"/><path class="b" d="M26.14,86.47s-5.66-.34-6.17-20C19.83,61.3,8.11,39.8,23.32,33.25c10.94-4.7,12-1.19,11.77,1.78s-3.28,10.73,6.43,9.76L30.14,78.66Z"/><path class="b" d="M153.47,88.38s10.53-2.25,11-21.87c.14-5.21,11.08-26.8-4.14-33.35-10.93-4.7-12-1.19-11.76,1.77s3.28,10.74-6.43,9.77l8.42,35.24Z"/><path class="c" d="M26.36,84s-4.73.4-5.19-17.44c-.12-4.73-11.2-25,2.63-30.94,9.94-4.28,10.93-1.09,10.7,1.61s-3,9.76,5.84,8.88L30,76.85Z"/><path class="c" d="M153.62,85.76s8.44-1.41,8.9-19.25c.12-4.73,11.2-25-2.64-30.94C150,31.29,149,34.48,149.19,37.18s3,9.76-5.84,8.88l7.65,32Z"/><path class="d" d="M28.52,31.41s7.05-2,13.39-1.16l1.84,12.6-3.41,3.21s-8.55,2.2-7.71-5.46c.29-2.67,3.16-2.71,2.64-6.21C34.92,32.1,32.79,31.1,28.52,31.41Z"/><path class="d" d="M155.49,31.41s-7.37-2-13.72-1.13l-1.51,12.57,3.41,3.21s8.55,2.2,7.72-5.46c-.3-2.67-3.17-2.71-2.64-6.21C149.09,32.1,151.22,31.1,155.49,31.41Z"/><path class="e" d="M21.75,127.6S14.25,104.1,30,76.85c0,0,.25-23.5,13.75-34,0,0-9.91-24.67,18.11-31.17,0,0,29-26.17,58.83-.17,0,0,26.31,2.5,20.31,30.84,0,0,12.75,13.75,10,35.75,0,0,10,24.25,7,49.5Z"/><path class="d" d="M30,76.85s22.56.05,35.92-16.34C69,56.8,73,41.08,73.25,40.83c-.62,5.08-2.63,9.92-3.25,12.43-.73,3-.2,3.79,0,4.59,0,0,22.67-6.5,41.5.25a6.84,6.84,0,0,0,.67-4.75,78.43,78.43,0,0,1-2.42-12.52c.24.33,3.43,16.79,5.09,19.93C117.59,66,127.75,74.41,151,78.1c0,0-27.66-1.09-41.75-17A113.39,113.39,0,0,0,72,61.6S53.75,78.1,30,76.85Z"/><path class="f" d="M70,57.85S64.25,46.51,90.5,46.51c28.5,0,21,11.59,21,11.59S97.34,52.35,70,57.85Z"/><path class="f" d="M43.75,42.85S31.88,18,64.69,16.6a62,62,0,0,1,54.31,0s29.32-1.38,22,25.75c0,0-13-7.29-23.75-8-16.71-12-31-12-48.37,0C57.82,34.91,43.75,42.85,43.75,42.85Z"/><path class="d" d="M43.75,42.85s12.13-8.06,25.13-8.46c0,0,21.75-23.34,48.37,0a40.26,40.26,0,0,1,23.75,8s-13-6.25-24.12-6.25c0,0-21.44-19-47.41.29C69.47,36.39,64.75,33.47,43.75,42.85Z"/><circle class="c" cx="67.4" cy="34.39" r="8.54"/><circle class="c" cx="115.35" cy="34.39" r="8.54"/><circle class="g" cx="66.25" cy="31.26" r="5.17"/><circle class="g" cx="116.29" cy="31.22" r="5.17"/><circle class="b" cx="66.25" cy="30.49" r="4.39"/><circle class="b" cx="116.29" cy="30.49" r="4.39"/><circle cx="66.2" cy="30.49" r="3.27"/><circle cx="116.29" cy="30.49" r="3.27"/><path class="c" d="M119,16.6s19.13.43,22.25,11.93c0,0,7.86-10-6.87-16.06C124.63,8.47,117.69,10.22,119,16.6Z"/><path class="c" d="M64.69,16.6S45.56,17,42.44,28.53c0,0-7.86-10,6.87-16.06C59.06,8.47,66,10.22,64.69,16.6Z"/><polygon class="b" points="21.75 127.6 27.75 173.72 35.53 153.73 39.5 172.6 49.75 145.1 56.55 164.35 65.44 139.62 76 159.85 83 141.85 88.54 159.59 97 138.2 102.51 157.93 112.39 143.35 121.46 162.1 130.42 149.72 140.26 174.01 158 127.6 21.75 127.6"/><path class="h" d="M21.75,127.6s7.92.91,27.25-16.75c0,0,39.84-8,79.5,2.33,0,0,18.63,12.17,29.5,14.42l-17.74,40.9-9.17-23.4-9.32,14.25L113,138.2l-9.78,15.65-6-20L88.54,154.6l-5.35-20.55-7,20.86L64.48,135.68,56.55,160.1,49.17,139l-8.83,28.34-4.2-19L28.52,168.5Z"/><path class="b" d="M54.67,81.35C75.34,70.18,105,70.51,129.84,82.68c2.38,1.17,3.68,2.33,10.42,2s12.9,3.34,14.83,6.46c1.86,6.7,3.47,17.27,3.39,22.64-4.73,2.67-24.48-16.1-24.48-16.1l-.16-3.52a52.83,52.83,0,0,1-20,.65,146.6,146.6,0,0,0-42.42-2c-14.66,1.42-22.59.53-22.59.53L49,95.85s-26.37,20.33-29,15.36c0-5.36,1.43-14.83,3.57-20.07,3.11-4.8,15.33-7.69,20.19-7.19C49.89,84.58,52,82.77,54.67,81.35Z"/><path class="i" d="M46.67,86.47c-1-2.5-20.53,0-22.92,7.18-1.79,5.39-3.44,17.57-1,16.82C29,108.54,48.5,95.56,48.5,95.56S47.45,88.39,46.67,86.47Z"/><path class="i" d="M135.75,86.68c1.18-2,16.53-.21,18.92,7,1.79,5.39,3.33,19.11,1.67,18.61C150.06,110.38,134,97.68,134,97.68S134.69,88.46,135.75,86.68Z"/><path class="i" d="M59.76,93.51c6.12.42,23.82-1.44,23.82-1.44l.17-5.6h14L98,92.61s19.52,3.49,25.11,2.87c2.26-2.76-3.75-15.38-3.75-15.38s-32.09-11.59-56.42-.25C62.92,79.85,57.82,91.1,59.76,93.51Z"/><path class="g" d="M123.48,94.63c.55-1.91-1.71-8.7-1.71-8.7s7.11,3.45,9.45,7.72C131.22,93.65,125.67,94.79,123.48,94.63Z"/><path class="g" d="M59.51,93.05c-.56-1.91,1.62-8.76,1.62-8.76S54.29,87.87,52,93A49.19,49.19,0,0,0,59.51,93.05Z"/><rect class="g" x="90.5" y="86.47" width="0.43" height="5.04"/><path class="i" d="M119.34,80.1s7.29,2.43,9.85,3.93,5.06,2.61,6.56,2.65a9,9,0,0,0-.56,1.7S125.32,82.06,119.34,80.1Z"/><path class="i" d="M62.92,79.85a50.57,50.57,0,0,0-10.29,4.21A15.66,15.66,0,0,1,46,85.93a2.44,2.44,0,0,1,1,1.68S56.88,82.28,62.92,79.85Z"/><path class="b" d="M171.47,305.68l.61,2.33s-24.73,5.23,3.26,15.28l.43,2.73S139.38,315.28,171.47,305.68Z"/><path class="b" d="M175.77,326l.29,2.08s-20.19,8.37,1.1,18l-.07,2.49S145.79,337.69,175.77,326Z"/><path class="b" d="M177.09,348.58l-.11,2.28s-12,5.2-1.48,14.34l-.32,2.36S150.5,357.43,177.09,348.58Z"/><path class="b" d="M5,305.68l-.73,2.26S25,312.32.52,325.08l-.23,2.2S40.08,314.26,5,305.68Z"/><path class="b" d="M.29,327.28l-.11,1.36s18.65,5.85.65,17.13L1,346.92S45,333.64.29,327.28Z"/><path class="b" d="M1,346.92l.25,1.81s10.28,4.56,2.48,14.77L4,365S21.89,352.24,1,346.92Z"/><path class="j" d="M66,226.28a23.19,23.19,0,0,0,10.16,12.57S74,237,74,252.76c0,10.88,3.08,12.5,3.08,12.5s-2.59,2.63-2.59,10.84c0,13,1.61,13,1.61,13h9.14s-2.2,0-2.2-12.75c0-11.13,2.69-12.75,2.69-12.75s-2.9,1.5-2.9-11.09c0-14.41,1.75-18.4,1.75-18.4s-8.75-3.26-8.75-10.93Z"/><path class="k" d="M5,305.68s14.8-16.58,46.76-16c9.92.17,64.61-2.32,76.07-2.45,12.26-.13,38.08,8.2,43.6,18.46,0,0-31.22,8.17,4.3,20.34,0,0-24.57,10.56,1.32,22.56-11.93,3.52-9.34,16-1.91,19,0,0-21.34-1.21-39.51-19.05-16.44-16.13-26.92-31.94-45.46-31.94-34,0-26.37,22.61-44.64,35.55C19.54,370.57,4,365,4,365s11.48-10.42-3-18.07c14-5,10.68-18.37-.7-19.64C.29,327.28,31.09,313.85,5,305.68Z"/><path class="b" d="M13.38,276.88s53.1,31.07,150.73.1l.85,4.07s-90.76,30-152.44-.58Z"/><path class="k" d="M13.93,274.36s52,31,149.59,0l.9,4S74.76,308.6,13.09,278Z"/><path class="j" d="M111.12,226.28A23.13,23.13,0,0,1,101,238.85s2.1-1.85,2.1,13.91c0,12.09-3.07,12.5-3.07,12.5s2.58,3,2.58,10.84c0,22.77-10.46,19.1-10.46,19.1l-.29-6.1s2.21,0,2.21-12.75c0-11.13-2.69-12.75-2.69-12.75s2.9,1.5,2.9-11.09c0-14.41-1.75-18.4-1.75-18.4s8.74-3.26,8.74-10.93Z"/><path class="j" d="M84.61,234.11a11.19,11.19,0,0,0,7.88,0s1.92,2.15,1.26,6.86a20.28,20.28,0,0,1-10.4,0S81.84,235.26,84.61,234.11Z"/><path class="j" d="M77.11,265.26c4.38-5.19,12.87-10,22.88,0C94.76,273.35,82.64,274.83,77.11,265.26Z"/><path class="j" d="M75.86,238.68s12.23-15,25.37.11Z"/><path class="k" d="M125,203.93l-.38-10.58a21.65,21.65,0,0,0-15.7-4.74c-1.59-1.21-10-13.36-20.38-4.41-10.33-9.24-19.73,3.73-20.38,4.41a21.69,21.69,0,0,0-15.71,4.74l-.37,9.58s2.25,5.58,7.58,6.08c-2.39,7.84,1,17.72,8.81,17.58,14.62-.26,18.78-17.94,18.78-17.94h2.57s4.17,17.68,18.79,17.94c7.81.14,11.2-9.74,8.81-17.58C122.57,208.53,125,203.93,125,203.93Z"/><path class="c" d="M93.6,189.33c-3.62,6.12,1.25,34.41,16.07,31.1,5.91-1.32,4.85-13.38-1-24.63C105.64,190.09,97.42,182.86,93.6,189.33Z"/><path class="c" d="M83.53,189.33c3.62,6.12-1.26,34.41-16.07,31.1-5.92-1.32-4.86-13.38,1-24.63C71.49,190.09,79.71,182.86,83.53,189.33Z"/><path class="c" d="M68.51,192.63H107.9s12.79-.86,12.79,5.84-13,5.46-13,5.46l-39.5.09s-11.76.38-11.76-5.73S68.51,192.63,68.51,192.63Z"/><path class="j" d="M125.34,213l-13.85,29.92s1.52,3.33,6.93,2.92l12.38-27.64Z"/><polygon class="j" points="143.59 165.31 137.83 179.54 143.97 181.31 148.71 168.5 143.59 165.31"/><path class="l" d="M13.5,189.68s22.67-12.13,35.17-8.48C48.67,181.2,42,173.51,13.5,189.68Z"/><path class="l" d="M163.37,189.68s-22.66-12.13-35.16-8.48C128.21,181.2,134.87,173.51,163.37,189.68Z"/><path class="b" d="M34.13,189.68s9.25-3,16.12-1C50.25,188.72,43.25,185.51,34.13,189.68Z"/><path class="b" d="M29.63,196.35s12.87-2,20.62.62C50.25,197,42.5,192.47,29.63,196.35Z"/><path class="b" d="M31.63,205.47s13-1.62,16.12,0C47.75,205.47,42.25,202.22,31.63,205.47Z"/><path class="b" d="M142.5,189.68s-9.25-3-16.13-1C126.37,188.72,133.37,185.51,142.5,189.68Z"/><path class="b" d="M147,196.35s-12.88-2-20.63.62C126.37,197,134.12,192.47,147,196.35Z"/><path class="b" d="M145,205.47s-13-1.62-16.13,0C128.87,205.47,134.37,202.22,145,205.47Z"/><path class="l" d="M7.58,218s1.22,9.58,3.15,12.14c0,0,4.77-10.27,20.36-13.61s16.66-9.16,16.66-9.16-9.33,5-18.12,4.83S7.58,218,7.58,218Z"/><path class="l" d="M168.79,218s-1.37,9.08-3,12.14c0,0-4.87-10.27-20.45-13.61s-16.67-9.16-16.67-9.16,9.34,5,18.13,4.83S168.79,218,168.79,218Z"/><path class="b" d="M48.67,181.2s11.65-.52,9.5,16.4c-2.83,22.33-16.33,24.41-22.73,26-5.87,1.48-19.27,6.06-22.47,12.49,0,0-.38-1.08-.52-1.45s3.71-8.1,3.71-8.1l21-7.09L45,214.1l5.25-6.17,3.13-5.71v-7.45l-.75-6.16v-4.08Z"/><path class="b" d="M128.19,181.2s-11.65-.52-9.5,16.4c2.83,22.33,16.33,24.41,22.73,26,5.86,1.48,18.74,6.06,21.94,12.49,0,0,.71-1.74.85-2.11s-3.51-7.44-3.51-7.44l-21-7.09-7.88-5.37-5.25-6.17-3.12-5.71v-7.45l.75-6.16v-4.08Z"/><path class="c" d="M10.73,230.12l1.73,4.54s2.16-5.69,16.17-10.19c17.5-5.62,21.78-6.91,25.88-16.54,4.52-10.62,4.12-26.08-5.84-26.73,0,0,4.21,4.08,1.58,7.52,0,0,2.75,5.38,0,8.25a6.54,6.54,0,0,1-2.5,8.5,1.85,1.85,0,0,1,0,1.88s-1.66,6.91-20.66,9.75C22.47,217.78,13,223.76,10.73,230.12Z"/><path class="c" d="M166,229.71s-1.07,3-1.77,4.4c0,0-1.88-5.14-15.89-9.64-17.5-5.62-21.78-6.91-25.88-16.54-4.52-10.62-4.12-26.08,5.84-26.73,0,0-4.21,4.08-1.58,7.52,0,0-2.75,5.38,0,8.25a6.54,6.54,0,0,0,2.5,8.5,1.85,1.85,0,0,0,0,1.88s1.66,6.91,20.66,9.75C154.45,217.78,163.68,223.35,166,229.71Z"/><path class="b" d="M143.59,165.31,158,127.6s10,15.7,12.48,53.6a27.89,27.89,0,0,1-4.53-5.6s-1.08,9.25,2.49,15.75c0,0-10.44-5.75-10.44-15.25a28,28,0,0,0,.46,7s-4-5.87-4.5-9a30.48,30.48,0,0,0-.21,7.3s-5.35-6.82-5.05-12.82Z"/><path class="k" d="M143.59,165.31,159,129.41s9.21,16.24,11.36,50a53.67,53.67,0,0,1-5.61-8.65s-1.6,9.52,1.2,16.82A24,24,0,0,1,158,172.1a26.67,26.67,0,0,0-.95,6.5s-3.17-6.5-3.42-9.25c0,0-1.15,5.19-.75,8.25,0,0-4-5.57-4.17-9.19Z"/><rect class="k" x="68.17" y="188.61" width="40.67" height="3.99"/><rect class="k" x="62.09" y="203.74" width="52.42" height="4.91"/><path class="k" d="M68.17,188.61s-6.83,9.49-8.5,20.4l4.25-.36s2.77-11.53,10.84-20Z"/><path class="k" d="M108.89,188.61s6.83,9.49,8.5,20.4l-4.25-.36s-2.77-11.53-10.85-20Z"/><path class="k" d="M83,188.61s4.26,8.18-.72,20h4.94s3.58-9.18,1.29-24.45Z"/><path class="k" d="M94.18,188.61s-4.27,8.18.72,20H90s-3.58-9.18-1.29-24.45Z"/><path class="l" d="M7.37,368.85s5.47,15.83,9.88,20c0,0,8.25,7,17.29,5C34.54,393.85,9.88,404.51,7.37,368.85Z"/><path class="l" d="M172.57,368.85s-5.46,15.83-9.88,20c0,0-8.25,7-17.28,5C145.41,393.85,170.06,404.51,172.57,368.85Z"/><path class="m" d="M143.59,165.31l14-32.66s7,11.16,8.17,16.33,3.15,13.89,3.59,19.52A13.22,13.22,0,0,0,158,166.6c-2,.52-3.08,2.56-9.29,1.81Z"/><path class="b" d="M142.15,406.51s-.48,17.09,8,20.59a5.13,5.13,0,0,1,.08-3.92,11.31,11.31,0,0,0,9.34,6.5,15.71,15.71,0,0,1-1.85-6.08s6.76,7.58,12.43,7.83c0,0-2.91-7.72-2.19-11.5,0,0,2.36,11.08,10.09,13.42l-4.68-22.57-18.22,6.07Z"/><path class="b" d="M37.77,406.47s.48,17.08-8,20.58a5.06,5.06,0,0,0-.08-3.91,11.33,11.33,0,0,1-9.33,6.5,15.68,15.68,0,0,0,1.84-6.09s-6.76,7.58-12.43,7.84c0,0,2.92-7.72,2.19-11.5,0,0-2.35,11.08-10.09,13.41L7,410.88l17.79,5.92Z"/><path class="c" d="M7.1,398.07A100.4,100.4,0,0,1,7,410.86,22.5,22.5,0,0,0,25.75,422c9.6,0,16.42-16.62,8.79-28.12,0,0-1.28,19.75-10,19.75S7.1,398.07,7.1,398.07Z"/><path class="c" d="M172.81,398.07s0,7,.58,12.71A23.25,23.25,0,0,1,154.16,422c-9.6,0-16.41-16.62-8.78-28.12,0,0,1.27,19.75,10,19.75S172.81,398.07,172.81,398.07Z"/><path class="b" d="M112,313.85s9,23.45,27.16,28.28c23,6.14,19.84,32.22,3,48.34l.53-10.62L133,383s10.93-24.7,1.37-28.25c-16.13-6-24-17.73-27.63-33.07Z"/><path class="b" d="M65.38,314s-9,23.45-27.16,28.29c-23,6.14-19.85,32.21-3,48.34L34.72,380l9.61,3.16S33.41,358.46,43,354.9c16.13-6,24-17.73,27.63-33.07Z"/><path class="k" d="M108.75,322s3.45,22.1,25.59,29.38c10.06,3.31,8,16.54,2.33,28.83,0,0,2.62.38,6.87-3.12a17,17,0,0,1,.13,8.79s25.16-32-5.92-42.72c-13.91-4.78-18.91-11.28-25.57-26.28Z"/><path class="k" d="M68.59,322.13S65.14,344.22,43,351.5c-10.07,3.31-8,16.55-2.33,28.83,0,0-2.62.38-6.87-3.12a17,17,0,0,0-.13,8.79s-25.17-32,5.91-42.71C53.51,338.5,58.51,332,65.17,317Z"/><path class="j" d="M27.59,433.35s19.57-12,20.28-31.12c9.89-8.09,23.89-10.63,43.07-10.63s33,2.54,42.58,10.63c.68,16.93,19.32,31.07,19.32,31.07Z"/><rect class="e" x="84.5" y="280.47" width="8.33" height="33.37" rx="4.17"/><path class="j" d="M78,321.68S78.47,334,89.43,334s11.44-12.33,11.44-12.33h4.74s.86,18.67-16.18,18.67-17.71-18.67-17.71-18.67Z"/><rect class="e" x="65.16" y="306.19" width="47.02" height="19.31" rx="9.66"/><path class="j" d="M92.84,293.79s23.79-8.38,23.79,6.79c0,14.77-23.79,9.89-23.79,9.89v-9s14.16,3.75,14.16-.74c0-3.77-14.16-.63-14.16-.63Z"/><path class="j" d="M84.5,293.62s-23.79-8.38-23.79,6.8c0,14.76,23.79,9.88,23.79,9.88v-9s-14.16,3.75-14.16-.74c0-3.77,14.16-.63,14.16-.63Z"/><path class="j" d="M88.83,326.47a15.67,15.67,0,1,0,15.66,15.66A15.67,15.67,0,0,0,88.83,326.47Zm0,23.9a8.24,8.24,0,1,1,8.24-8.24A8.24,8.24,0,0,1,88.83,350.37Z"/><circle class="j" cx="88.83" cy="348.76" r="3.57"/><rect class="j" x="82.17" y="355.95" width="13.31" height="7.19" rx="3.6"/><path class="j" d="M91.82,363.15h-6s-9.27,9.45-7.52,22.7H99.33C101.08,372.6,91.82,363.15,91.82,363.15Z"/></svg>