<svg xmlns="http://www.w3.org/2000/svg" xmlns:xlink="http://www.w3.org/1999/xlink" viewBox="0 0 200 427"><defs><style>.a{fill:none;}.b{fill:#9cb4b7;}.c,.f{fill:#cae6e8;}.c{stroke:#cae6e8;stroke-miterlimit:10;stroke-width:2px;}.d{fill:#7e9799;}.e{fill:#6b8988;}.g{clip-path:url(#a);}.h{clip-path:url(#b);}</style><clipPath id="a"><path class="a" d="M83.93,58.3c-1.5-1.3-5.45-1.22-7.22-.34-3.13,1.55-4.4,5.31-5,8.74s-1.38,6.78-3.73,9.36a18.64,18.64,0,0,1-6.89,4.46c-2.57,1.07-5.73,2.34-6.41,5-2.37,9.35,3.14,16.35,5.63,16.35,4,0,6.06-2,8-2s-1,3,10,3c1.38,0,6-3,9-3,6,0,9,2,16,1,2.62-.37,6.71-4.61,7.62-7.09,1.3-3.57,1.51-9.78-1.2-12.44s-4.43-3.14-8-4.44a43.79,43.79,0,0,1-6.21-2.66,15.6,15.6,0,0,1-6.22-8A20.4,20.4,0,0,0,83.93,58.3Z"/></clipPath><clipPath id="b"><ellipse class="a" cx="22.77" cy="351.92" rx="22.56" ry="32"/></clipPath></defs><title>feature_oucuo</title><path class="b" d="M185.64,178.2c.63-4,1.09-69,.65-90.87a69.66,69.66,0,0,0-.9-11.73c-1.34-7-4.2-23.41-4.2-23.41,8.58-9.77,2.58-40.77-24.42-35.45-14.91-20.06-102-29.32-126.24,14.5-9.76-4.82-16.8,14.31-13.83,23.61C14.77,66.42,20,91,20.4,93.5c.68,4,.09,8.21.68,12.28.67,4.64,6.69,16.64,6.69,16.64-.95,10.59-2,29,4,35,0,9,5,23,5,36,0,4.89-3.69,15.85-4.58,20.65-1.85,9.88-6.42,19.35-5.72,29.62-10.7,6.73-14.2,43.23-10.2,46.23-2.5,3.5-1,10,.5,12.5-2.47,4.49-2,11,1,14-.56,1-.86,3.25-1,6.33-16.15,2.37-20.11,32.16-12,48.67,4.44,9.07,13,12.55,24,9-1,12,2.44,36.89,3.69,37.86a8.35,8.35,0,0,0,3.79,1.32,503.5,503.5,0,0,0,104.17,7.08c14.73-.53,29.57-1.74,43.66-6.05,5.33-1.63,11.54-5.2,11-10.75-.33-3.56-3.44-6.22-4.56-9.61-1.89-5.71,2.15-11.47,4.13-17.15,3.59-10.23.46-21.49.93-32.32.23-5.33,1.34-10.57,2.18-15.83a162.25,162.25,0,0,0-13.47-94.5S182.59,197.74,185.64,178.2Z"/><path class="c" d="M76.68,13.57l.46,3.89,4.18-.75.07,0a1,1,0,0,1,.79.2,1.21,1.21,0,0,1,.41.85c.09.76-.19,1.2-.85,1.31l-4.32.8L78,24.4l6.7-1.13h.09a1,1,0,0,1,.8.22,1.32,1.32,0,0,1,.4.87c.1.82-.18,1.29-.84,1.4l-15.94,2.6-.09,0a1,1,0,0,1-.77-.21,1.24,1.24,0,0,1-.41-.86c-.1-.8.18-1.25.82-1.36l6.56-1.09-.53-4.51-4.18.76h-.08a1,1,0,0,1-.74-.17,1.31,1.31,0,0,1-.47-.93,1,1,0,0,1,.84-1.26L74.46,18,74,14.08l-5,.91L69,15c-.7.09-1.09-.25-1.18-1s.17-1.23.78-1.35l12.56-2.37h.09q1.1-.13,1.23,1.08c.09.74-.17,1.17-.79,1.29Z"/><path class="d" d="M32.27,68.92c-1.85-3.7-5-10-6-15-.39-2,113.68-18.84,114-16.48.47,3.65-1.51,10.07-4,17.48-3,9-10.24,17.13-25,20-36,7-18.77-16.76-32-15-15,2,6,20-22,23C46.34,84.1,35.27,74.92,32.27,68.92Z"/><circle class="e" cx="55.27" cy="68.92" r="12"/><circle class="e" cx="111.27" cy="61.92" r="13"/><path class="e" d="M28.53,56.48a8.42,8.42,0,0,0,6.71-.4c2.12-.92,4-2.28,6.13-3.24a34.58,34.58,0,0,1,9.39-2.34q5.79-.84,11.59-1.48c3.08-.34,6.25-.63,9.25.18,1.82.5,3.53,1.4,5.36,1.85,3.75.92,7.71-.06,11.26-1.56S95.11,46,98.75,44.71c12.37-4.32,26.63.39,38.83-4.39,1.08-.43,2.25-1,2.54-2.17a2.7,2.7,0,0,0-1.48-2.85,7.89,7.89,0,0,0-3.34-.75l-9.56-.72c-8.87-.67-18-1.31-26.47,1.37-4.86,1.54-9.32,4.12-13.7,6.73-2.74,1.63-5.7,3.33-8.87,3.06C73,44.68,70,41.78,66.4,41.12a16.8,16.8,0,0,0-6.34.44c-11.7,2.38-28.47-.14-34.28,10.3C25.13,53,26.43,55.53,28.53,56.48Z"/><rect class="f" x="69.27" y="29.92" width="20" height="15" rx="7" transform="translate(-4.97 13.19) rotate(-9.22)"/><rect class="f" x="89.77" y="25.8" width="15" height="11.25" rx="5.25" transform="translate(-2.61 9.67) rotate(-5.62)"/><rect class="f" x="106.77" y="23.8" width="15" height="11.25" rx="5.25"/><rect class="f" x="52.77" y="31.8" width="15" height="11.25" rx="5.25" transform="translate(-5.22 10.15) rotate(-9.22)"/><rect class="f" x="36.77" y="35.8" width="15" height="11.25" rx="5.25" transform="translate(-7.4 9.71) rotate(-11.56)"/><rect class="f" x="23.52" y="41.36" width="13.5" height="10.12" rx="4.72" transform="translate(-10.79 9.2) rotate(-14.7)"/><rect class="f" x="124.77" y="24.8" width="15" height="11.25" rx="5.25" transform="translate(5.27 -17.44) rotate(7.7)"/><path class="e" d="M73.29,34c0,1.79,12.2-1.08,11.66-2C84.32,31,73.28,32.81,73.29,34Z"/><path class="e" d="M73.29,38c0,1.79,12.2-1.08,11.66-2C84.32,35,73.28,36.81,73.29,38Z"/><path class="e" d="M74.29,42c0,1.79,12.2-1.08,11.66-2C85.32,39,74.28,40.81,74.29,42Z"/><path class="e" d="M66.06,36.46A3.5,3.5,0,0,0,62,33.63l-3.94.7a3.5,3.5,0,1,0,1.22,6.89l3.94-.7A3.51,3.51,0,0,0,66.06,36.46Zm-3.37,3.42-3.12.55a2.77,2.77,0,1,1-1-5.46l3.11-.55a2.77,2.77,0,1,1,1,5.46Z"/><path class="e" d="M50.06,40.46A3.5,3.5,0,0,0,46,37.63l-3.94.7a3.5,3.5,0,1,0,1.22,6.89l3.94-.7A3.51,3.51,0,0,0,50.06,40.46Zm-3.37,3.42-3.12.55a2.77,2.77,0,1,1-1-5.46l3.11-.55a2.77,2.77,0,1,1,1,5.46Z"/><path class="e" d="M34.48,45.91a3,3,0,0,0-3.63-2.19l-3.32.82A3,3,0,0,0,29,50.35l3.32-.81A3,3,0,0,0,34.48,45.91ZM31.79,49l-2.63.64A2.37,2.37,0,1,1,28,45.06l2.63-.65A2.37,2.37,0,0,1,31.79,49Z"/><path class="e" d="M103.12,30.91a3.5,3.5,0,0,0-3.81-3.16l-4,.38a3.5,3.5,0,0,0,.65,7l4-.38A3.51,3.51,0,0,0,103.12,30.91ZM99.48,34l-3.15.29a2.77,2.77,0,0,1-.52-5.52L99,28.52A2.77,2.77,0,0,1,99.48,34Z"/><path class="e" d="M120.15,29.38a3.5,3.5,0,0,0-3.53-3.47l-4,0a3.5,3.5,0,0,0,.06,7l4,0A3.52,3.52,0,0,0,120.15,29.38Zm-3.9,2.8-3.16,0a2.77,2.77,0,1,1,0-5.54l3.17,0a2.77,2.77,0,0,1,0,5.54Z"/><path class="e" d="M138.11,31.09a3.51,3.51,0,0,0-3.06-3.9l-4-.48a3.5,3.5,0,0,0-.84,6.95l4,.48A3.51,3.51,0,0,0,138.11,31.09Zm-4.22,2.28L130.74,33a2.77,2.77,0,0,1,.67-5.5l3.14.38a2.77,2.77,0,0,1-.66,5.51Z"/><circle class="f" cx="55.77" cy="70.42" r="9.5"/><ellipse class="f" cx="111.77" cy="63.92" rx="9.5" ry="10"/><circle class="e" cx="54.77" cy="72.42" r="5.5"/><circle class="e" cx="110.77" cy="66.42" r="5.5"/><circle class="f" cx="53.77" cy="75.42" r="1.5"/><circle class="f" cx="109.77" cy="69.42" r="1.5"/><path class="d" d="M143.23,98.41c-.93,3.84-27.66,1.61-25.92-4C118.71,89.83,144.26,94.12,143.23,98.41Z"/><path class="d" d="M59.59,101.21c1.06-4.15-20.22.33-19.76,4.42C40,107.15,58.33,106.11,59.59,101.21Z"/><path class="f" d="M83.93,58.3c-1.5-1.3-5.45-1.22-7.22-.34-3.13,1.55-4.4,5.31-5,8.74s-1.38,6.78-3.73,9.36a18.64,18.64,0,0,1-6.89,4.46c-2.57,1.07-5.73,2.34-6.41,5-2.37,9.35,3.14,16.35,5.63,16.35,4,0,6.06-2,8-2s-1,3,10,3c1.38,0,6-3,9-3,6,0,9,2,16,1,2.62-.37,6.71-4.61,7.62-7.09,1.3-3.57,1.51-9.78-1.2-12.44s-4.43-3.14-8-4.44a43.79,43.79,0,0,1-6.21-2.66,15.6,15.6,0,0,1-6.22-8A20.4,20.4,0,0,0,83.93,58.3Z"/><g class="g"><path class="d" d="M62,102.88a5.26,5.26,0,0,1,.6-4,4.11,4.11,0,0,1,2.68-1.77,1.67,1.67,0,0,1,1,0A4.26,4.26,0,0,1,68,99a2.92,2.92,0,0,1,.51,1.22,1.55,1.55,0,0,1-.92,1.47C65.83,102.72,62,102.88,62,102.88Z"/><path class="d" d="M84.64,101.47a5.85,5.85,0,0,1,3-5.55,8.6,8.6,0,0,1,11.86,3.84,1.56,1.56,0,0,1,.06,1.48,1.73,1.73,0,0,1-1.34.56C94.2,102.21,84.64,101.47,84.64,101.47Z"/></g><path class="f" d="M81.84,145.71c4.43,28.21,18.7,27.93,22,29a2.34,2.34,0,0,0,1.07.17c1-.17,1.28-1.43,1.33-2.43.47-8.61-.34-17.24-1.15-25.82C105,145.68,81.84,145.71,81.84,145.71Z"/><path class="f" d="M64.73,173a1.07,1.07,0,0,1-.77-.16,1,1,0,0,1-.16-.84c.24-2.17,2.77-24.22,3.14-24.72S77.6,144,82.17,145.37C82.17,145.37,89.27,172.92,64.73,173Z"/><path class="f" d="M104.27,145.92s2,30,26,29c0,0-6-13-3-28C127.71,144.73,104.27,145.92,104.27,145.92Z"/><path class="f" d="M155.62,174.79c-4.65-3.86-11.87-28.48-12.35-28.87-.85-.68-15.87.22-19,1C124.27,146.92,134.27,174.92,155.62,174.79Z"/><path class="f" d="M66.07,148.52c1.35,3-.47,6.5-2.23,9.33-1.21,1.94-2.42,3.89-3.76,5.74a48.63,48.63,0,0,1-12.58,12c-.48.32-1.08.63-1.58.36s-.57-1-.56-1.57l.33-19.23a4,4,0,0,1,.74-2.76,4.24,4.24,0,0,1,1.43-.82c5.7-2.3,11.6-4.64,17.74-4.45Z"/><path class="f" d="M47.27,152.92c-1.17,8.29-3.93,18.65-12,27-.93-4.35-4-18-4-24C31.27,155.92,47.39,152.09,47.27,152.92Z"/><path class="f" d="M144.29,38.17c12.48,11.25,27.48,28.91,27.48,44.25,0,4,6,2,6-1,0-19.35-17-42-31-48C144,32.24,142.74,36.78,144.29,38.17Z"/><path class="f" d="M141.65,148.31c6.62,9.61,23.62,11.61,29.62,11.61-5.36-8.15-10.85-18.39-15.66-26.59C155.41,133,141.65,148.31,141.65,148.31Z"/><path class="f" d="M152.27,131.92c14.76,17,27.82,12.72,31,15-8-10-17.09-28.5-17.37-28.43S152.27,131.92,152.27,131.92Z"/><path class="f" d="M165.27,118.92s6,10,21,10v-18a30.27,30.27,0,0,1-16-16Z"/><path class="d" d="M28.27,149.92c2,10,5,8,10,7,11.81-2.36,30.86-9.87,47-10.52s32.26,1.57,48.08,4.81c4.41.9,10.31-1.35,13.93-5.29,5.08-5.52,5.46-7,10-13s14.92-16.57,16-24c.37-2.53.15-8.7-1-11-4-8-10-7.34-16-6s-20.5,13.32-26,16c-8.24,4-23,1.7-49,3-20,1-30.32,4-38,4-8,0-12.84-.15-14,1C26.27,118.92,25.85,137.79,28.27,149.92Z"/><path class="e" d="M151.27,104.92c-3.54,5.55-10,5.67-15,10s-10.09,4.7-12,11c-.55,1.84-.42,12.14,0,14s6.88,2.49,8.67,3.17c2.87,1.08,6-.81,8.18-3,2.83-2.82,5-6.23,7.62-9.26,3-3.45,6.5-6.37,9.63-9.68s5.91-7.15,6.9-11.59-.45-11.74-5-11.66C158.06,98,152.86,102.43,151.27,104.92Z"/><path class="e" d="M32.27,128.92c-.29,4.79,0,9,1,12,.83,2.47,3.93,5.94,6.44,6.2a10.77,10.77,0,0,0,5.56-1.2c4.12-2.43,1-3.91,1-4.79l-.1-11.37a1.84,1.84,0,0,0-.2-1c-.37-.58-1.19-.55-1.8-.83a4.15,4.15,0,0,1-1.54-1.79c-2.1-3.45-5.36-6.2-10.36-8.2C30.52,117.22,32.4,126.73,32.27,128.92Z"/><path class="e" d="M40.27,122.92c-2.45,1,.27,22.2,1,22,9.15-2.51,33.6-10.5,44.5-10.5s33.35,5.09,38.5,1.5c.65-.45,4.9-16.3,3-17C119.91,116.24,58.56,115.44,40.27,122.92Z"/><path class="f" d="M119.79,122.27c.48,2.65-.47,8.33-.52,11.65a110.3,110.3,0,0,0,10-11c11-4,28-21,31-25-1.47-.69-29.28,17.37-33,17-16.55-1.62-64-1-84,4-6-1-9.44-1.56-11-1,.32,1.91,1,2,4,4,2,4,7,12,10,15a43,43,0,0,1-2-12C57.27,120.92,111.27,120.92,119.79,122.27Z"/><path class="f" d="M128.27,126.92a36.73,36.73,0,0,1,0,8.85c-.18,1.83,14.64,2.52,13,4.15-1,1-3.89,4.71-9,3a36.59,36.59,0,0,0-7.84-1.32c-11.48-1.21-54.94-5-77.83,3.79-.45.17-6.33,3.53-9.33.53-1.5-1.5,3-4,6.16-5.86a30.48,30.48,0,0,1-1.16-7.14,28.77,28.77,0,0,0,4,6c12-6,55-7,75-4A87.8,87.8,0,0,0,128.27,126.92Z"/><path class="e" d="M167.46,36.93a7.74,7.74,0,0,1,6.65-5,7.27,7.27,0,0,1,7,4.34A6.9,6.9,0,0,1,179,44.2,13.2,13.2,0,0,1,175.08,46a2.68,2.68,0,0,1-2.18.07,2.92,2.92,0,0,1-1-1.69,17.14,17.14,0,0,0-4.08-6.68Z"/><path class="f" d="M66.29,238.69a12.47,12.47,0,0,0-.67,5.16c.42,3.55,3.17,6.49,6.4,8s6.89,1.84,10.46,1.9a28.16,28.16,0,0,0,10.79-2.84c4-2,5-5,5-9,0-3.43-11-19-16.62-23.34C81.65,218.58,68.78,230.77,66.29,238.69Z"/><path class="d" d="M69.64,235.21c4.41,7.19,16.28,4.36,21.26-.41,1.39-1.34-.73-3.46-2.13-2.12a13.15,13.15,0,0,1-8.06,3.74c-2.66.22-6.93-.2-8.48-2.73-1-1.64-3.6-.14-2.59,1.52Z"/><path class="d" d="M36.27,195.92l-1,6s21,16,46,17c0,0,19-13,31-14,0,0,34-4,46-11v-4s-34,9-46,9c-14,0-31,14-31,14S66.27,213.92,36.27,195.92Z"/><path class="d" d="M29.64,250.3c-1.87.14-1.73,44.71-.37,44.62S31.77,250.14,29.64,250.3Z"/><path class="f" d="M15.27,289.92c-.54.49-.55,9.16,0,9q10.5-3,15-3v-8C30.27,284.92,16.34,289,15.27,289.92Z"/><ellipse class="f" cx="22.77" cy="351.92" rx="22.56" ry="32"/><rect class="f" x="22.27" y="294.92" width="2" height="28"/><rect class="f" x="26.27" y="294.92" width="2" height="26"/><rect class="f" x="17.27" y="294.92" width="1" height="29"/><rect class="f" x="15.27" y="297.92" width="1" height="25"/><rect class="f" x="19.27" y="294.92" width="1" height="29"/><g class="h"><path class="d" d="M51.88,364.92c-4.2.87-8.47.93-12.43,2.72a40.47,40.47,0,0,0-8.93-2.5h-.14c-.26-1.81-.53-3.61-.79-5.41l2.81-3.52a20.23,20.23,0,0,0,2.77-3.69c1.4,0,2.8,0,4.2-.07l6.79,7.91c1.26,1.47,3.38-.66,2.13-2.12L46.34,356a5.08,5.08,0,0,1-2.78-3.24l-.28-.33h.19a6.21,6.21,0,0,1,0-3h-.26l.39-.46a5,5,0,0,1,2.94-3.16c.49-.48,1-1,1.49-1.42,1.45-1.29-.68-3.4-2.12-2.12a45.11,45.11,0,0,0-6.48,7.19c-1.51,0-3,0-4.54.08a1.51,1.51,0,0,0-.38.06c-1.39-2.19-2.8-4.56-4.89-6.08l.77-5.17a2.26,2.26,0,0,0,0-.45,53.65,53.65,0,0,1,7.77-3.31c3,.73,5.86,2.24,8.68,3.38,1.79.72,2.57-2.18.8-2.89-2.4-1-4.86-2.21-7.35-3,.64-2.16,1.29-4.32,1.93-6.49.56-1.85-2.34-2.64-2.89-.79L39,325.84a16.94,16.94,0,0,1-2.45-1,11.85,11.85,0,0,0-2.64-1.26,1.51,1.51,0,0,0-.9.05.48.48,0,0,0-.12,0,29.65,29.65,0,0,0-5.61,1.2l-.89-1.57a9.68,9.68,0,0,0,1.22-1.94l2.07-4.05c.88-1.71-1.71-3.23-2.59-1.51l-1.64,3.2c-.4.78-.79,2.1-1.56,2.6l-.07.05a1,1,0,0,0-.18,0h-2.6a28.17,28.17,0,0,1-1.49-4.64c-.44-1.88-3.33-1.09-2.89.8a31.1,31.1,0,0,0,1.88,5.56,1,1,0,0,0,.12.2c-.3.54-.61,1.08-.9,1.63a32.41,32.41,0,0,1-5-1.47h0a1.6,1.6,0,0,0-1.39-.06A38.08,38.08,0,0,1,7,325.13c-.06-.25-.11-.5-.17-.75-.46-1.88-3.35-1.08-2.89.8l.24,1.06a1.61,1.61,0,0,0,.44,2.14c.25,1.34.46,2.68.62,4v0L-3.85,336c-1.78.7-1,3.6.8,2.89l10-4c2.65.94,5.27,2,7.84,3.12a2,2,0,0,0,.1.21A32.33,32.33,0,0,1,16,343.82l-4.11,4.69a1.59,1.59,0,0,0-.33.59,1,1,0,0,0-.12.17c-1.56,0-3.13-.13-4.71-.24h0l-4.53-8.08c-.94-1.68-3.53-.17-2.59,1.52l2.14,3.8a5.24,5.24,0,0,1,.71,1.09,5.89,5.89,0,0,1,.5,1.08l.2.36H3a5.7,5.7,0,0,1-2.41,6.48c-.57.87-1.16,1.73-1.81,2.56-1.17,1.5.94,3.64,2.12,2.12a39.31,39.31,0,0,0,2.89-4c.78-1.28,1.31-2.93,2.57-3.83l.08-.07c1.93.13,3.85.25,5.76.26.42.84.81,1.69,1.3,2.5l2.55,4.13a1.3,1.3,0,0,0,0,.21A32.84,32.84,0,0,1,15,365c-3.19.82-6.46,1.21-9.65,1.92l-9.28-3.55c-1.81-.69-2.59,2.21-.8,2.89l5.41,2.07-.5.19c-1.77.77-.25,3.35,1.51,2.59a23.17,23.17,0,0,1,2.25-.8c-.2,1.51-.43,3-.68,4.52a1.54,1.54,0,0,0-.51,2.75c-.09.46-.16.92-.26,1.38-.38,1.88,2.51,2.69,2.9.79.08-.41.14-.83.22-1.25l2.09.62-1.47.44c-1.84.56-1.06,3.46.8,2.89l6.87-2.08c1.61-.49,3-1.35,4.55-2l.82,1.64c-.64,1.46-1.24,2.93-1.76,4.44-.64,1.82,2.26,2.61,2.89.79.48-1.37,1-2.73,1.61-4.06a24,24,0,0,0,2.4.17h0c.42,1.26.84,2.51,1.27,3.76.61,1.83,3.51,1,2.89-.79q-.81-2.38-1.6-4.77c.23-.35.44-.73.64-1.1,1.76.66,3.43,1.78,5.1,2.57,1.93.91,3.9,1.73,5.9,2.48,1.81.68,2.59-2.22.8-2.89-.94-.35-1.85-.74-2.77-1.13,1.54-.27,3.09-.52,4.64-.72.09.28.17.57.26.86.6,1.82,3.5,1,2.9-.8-.87-2.67-1.63-5.37-2.31-8.1a1.81,1.81,0,0,0,.29-1c3.29-1.08,6.86-1.15,10.24-1.85C54.57,367.42,53.77,364.53,51.88,364.92Zm-24.53-37,.31-.07a25.43,25.43,0,0,1,5.24-1.23,1.89,1.89,0,0,0,.41-.1,20.44,20.44,0,0,1,2.42,1.24,21.81,21.81,0,0,0,2.42,1c-.3,1-.59,2-.89,3A57.3,57.3,0,0,0,29.47,335a31.74,31.74,0,0,0-2.8-3.43,1.25,1.25,0,0,0-.15-.28C26.8,330.15,27.07,329,27.35,327.9Zm-5.86-3.35H23.7l1,1.72h0l-1.05,4.3a14.91,14.91,0,0,0-1.89.05,1.11,1.11,0,0,0,0-.25c-.45-1.21-.91-2.43-1.36-3.65C20.69,326,21.08,325.26,21.49,324.55Zm-.91,9.25a11.42,11.42,0,0,1,3.91-.18,26.2,26.2,0,0,1,3,3.85.14.14,0,0,1,0,.06c-.24,1.62-.48,3.25-.71,4.87a18.61,18.61,0,0,0-8,.15,36.31,36.31,0,0,0-1-5C18.78,336.35,19.71,335.1,20.58,333.8Zm-4.74,1.49c-2.52-1.11-5.06-2.13-7.65-3.07-.16-1.38-.36-2.76-.61-4.14a46,46,0,0,0,4.4-1.56h0a33.51,33.51,0,0,0,5.66,1.6l1.13,3a1,1,0,0,0,.07.15l-.1.09a1.7,1.7,0,0,0-.47.46C17.51,333,16.69,334.17,15.84,335.29Zm-1.37,14.78c1.27-1.45,2.54-2.89,3.8-4.34l.08,0c2.61-.56,6.55-1.31,8.86.07a1.38,1.38,0,0,0,.89.21c1.79,1.31,3,3.88,4.13,5.58l0,0a32.48,32.48,0,0,1-2.35,3l-2.49,3.11-.21.09c-2.12,1.27-5.6.75-8.18.22l-2.91-4.72C15.49,352.23,15,351.12,14.47,350.07Zm3.22,25.33s0,0,0,0c-1.45.58-2.79,1.37-4.28,1.88l-.25,0a15.17,15.17,0,0,1-4.5-1.08l-2.5-.74c.33-2,.63-4,.87-6,2.84-.58,5.74-.92,8.55-1.61q1.42,1.83,2.71,3.77a1.7,1.7,0,0,0,.47.46l.13.12A13.08,13.08,0,0,1,17.69,375.4Zm7.48,1.27a8.78,8.78,0,0,1-1,1.64,21.58,21.58,0,0,1-2.53-.21l-1-2a17.29,17.29,0,0,0,1.13-3.19,16.42,16.42,0,0,0,2.43,0q.46,1.62,1.05,3.18A1.55,1.55,0,0,0,25.17,376.67Zm-.68-6.75a11.42,11.42,0,0,1-3.91-.18c-.87-1.29-1.78-2.53-2.73-3.75,0,0,0-.05,0-.08a36,36,0,0,0,1-4.92,18.61,18.61,0,0,0,8,.15c.23,1.62.47,3.24.71,4.87a.14.14,0,0,1,0,.06A26.2,26.2,0,0,1,24.49,369.92Zm7.62,7.36,0,0a28.46,28.46,0,0,0-3.85-1.87c-.47-1.24-.88-2.51-1.24-3.79a31.71,31.71,0,0,0,2.9-3.72,1.61,1.61,0,0,0,.65.22c2.81.29,5.76,1.52,8.52,2.52.42,1.73.89,3.45,1.39,5.17C37.64,376.21,34.86,376.69,32.11,377.28Z"/></g><path class="d" d="M166.27,293.92c8.16-13.44,12.5-36.5,14-47.27C176.77,289.42,166.27,293.92,166.27,293.92Z"/><path class="d" d="M138.27,291.92s9-14,9-26C147.27,265.92,148.27,283.92,138.27,291.92Z"/><path class="e" d="M167.59,292c-.32,6.95-29.32,1.95-29.32.58C138.25,288.92,168,283.93,167.59,292Z"/><path class="e" d="M179.56,307c-.72,11.58-1.35,23.73,3.55,34.26,1.74,3.73,4.06,8.43,1.36,11.54-1.33,1.53-3.45,2-5.34,2.76-7.6,3-12.4,11.89-10.58,19.86s15.61,13.47,23.72,12.51c-4,2-16.53.85-20.83-2.12s-6.17-6.88-6.17-9.88c0-16.72,10.08-22,14.86-24.39a4.46,4.46,0,0,0,2.15-1.81c.84-1.64-.21-3.57-1.14-5.17C174.69,333.48,179.56,307,179.56,307Z"/><path class="e" d="M121.92,66.78a2.57,2.57,0,0,0-2-2,2.64,2.64,0,0,0-2.82,1.31,3,3,0,0,0,.06,3,3.43,3.43,0,0,0,2.79,1.53,1.52,1.52,0,0,0,1.5-1.5,1.48,1.48,0,0,0-.17-.67A1.6,1.6,0,0,0,121.92,66.78Z"/><path class="e" d="M82.18,211a2.45,2.45,0,0,0-2.92-1.19A2.4,2.4,0,0,0,77,210.86a2.83,2.83,0,0,0-.35,2.46,2.51,2.51,0,0,0,4.25.78,1.62,1.62,0,0,0,.91-1.18A1.55,1.55,0,0,0,82.18,211Z"/><path class="e" d="M155.38,215.57c-.82-1.41-2.63-1.39-4-.84a2,2,0,0,0-.76.55,2.39,2.39,0,0,0-1.41,3c.69,1.9,2.94,2.05,4.51,1.24C155.15,218.81,156.28,217.11,155.38,215.57Z"/><path class="e" d="M60.67,159.16a1.44,1.44,0,0,0-1.4-1l-1.09.08a1.53,1.53,0,0,0-1.45,1.1,2.19,2.19,0,0,0,1.54,2.62,2.14,2.14,0,0,0,2.56-1.62A1.85,1.85,0,0,0,60.67,159.16Z"/><path class="e" d="M140.1,403.46a4,4,0,0,0-4.31,2.11,1.56,1.56,0,0,0,.33,1.9,1.8,1.8,0,0,0,0,.4,3.5,3.5,0,0,0,3.64,2.56,3.34,3.34,0,0,0,3.09-3.37A3.6,3.6,0,0,0,140.1,403.46Z"/><path class="e" d="M63.63,375.42a1.43,1.43,0,0,0-1-1.87,5.27,5.27,0,0,0-2.3-.15,4.36,4.36,0,0,0-1.78.15,1.45,1.45,0,0,0-1,1.71,1.31,1.31,0,0,0,.38,1.34,4.48,4.48,0,0,0,5.09.74A1.52,1.52,0,0,0,63.63,375.42Z"/><path class="e" d="M50.77,309.67h-1.7a1.5,1.5,0,1,0,0,3h1.7a1.5,1.5,0,0,0,0-3Z"/><path class="e" d="M48.47,227.29a1.52,1.52,0,0,0-1.84-1l-1,.25a1.5,1.5,0,1,0,.79,2.89l1-.25A1.51,1.51,0,0,0,48.47,227.29Z"/></svg>