<svg xmlns="http://www.w3.org/2000/svg" viewBox="0 0 363.25 310.74"><defs><style>.a{fill:#443e39;}.b{fill:#a6925c;}.c{fill:#6b9970;}.d{fill:#6c9a71;}.e{fill:#527c53;}.f{fill:#fee;}.g{fill:#4c4c4c;}.h{fill:#60605e;}.i{fill:#ddd2ce;}.j{fill:#121511;}.k{fill:#897645;}.l{fill:#eac7c7;}</style></defs><title>oucuo_soldier</title><path class="a" d="M108.77,61.32c-3.69-1-11.52-2-14.58-2.52-2.49-.45-5.94-4.55-7.77-2.07-2.52,3.41-3.34,11.53-2.5,15.65.64,3.13.5,7.39,8.61,8.17,2.87.28,5.56-5,6-6.73C99.61,69,105.4,64.81,108.77,61.32Z"/><path class="b" d="M4.73,223.91C-2,230.85-.79,238.16,3.59,245.75c1.75,3.05,3.5,5,7.59,5.16a40.14,40.14,0,0,1,16.42,5c4.21,2.57,29-25.52,28.41-28.46S27.43,220.65,17.79,220C11,219.59,5.55,223.06,4.73,223.91Z"/><path class="b" d="M158,281.28c4.6-6.15,7.18-5.81,11.73-7,2-.51,4.84-.52,5.37-2.75s-22.71-28-29.11-22.8c-7.86,3.45-15.83,9.29-22.16,13.42-8.61,5.62-10.67,14-2.86,20.91,13.59,11.95,27.17,24.38,46.42,27.3,12.28,1.86,15.64-4.13,12.88-13.7a38.65,38.65,0,0,0-3-7.94C172.89,280.84,168.76,279.73,158,281.28Z"/><path class="c" d="M30.67,252.59c.1,11.65,5,22.06,8.54,32.82l4.49,1.26c13.63,2,26.86.66,38.83-6.44C93,274,101,264.94,109.49,256.39c3.92-4,7.5-8.25,11.3-12.32,1.45-1.55,3-4.38,5.29-2.85,2.53,1.72-1.36,3.61-.9,6.86,23.11-3.24,45.69-8.67,68.22-14.68-7.08,8.2-16.9,9.48-26.3,10.92-4.65.71-10.13,1.86-14.89,2-1.41,0-1.93,2.79-.46,4.53,8.27,9.76,13.42,23.39,29.21,24a31.54,31.54,0,0,0,4.66,0c18.15-2.06,38.14-22,40.29-40.23.73-6.12-1.36-11.09-6.79-14.14-9.88-5.55-40-16.77-40.56-15.7-5.32,9.79-107,11.45-114.17,6.9-7.22,13.12-20,29.18-28.66,41.11L38.61,242C33.75,244.81,33.14,249.39,30.67,252.59Z"/><path class="c" d="M169.19,162.06c-.57-4.78-19.36-21.14-24.56-13.2-3.39,5.17-6.78,5.6-11.31,4.71-4.34-.84-18-31.71-24.58-34.71-3.73-1.71-.84-12.08-2.94-15.35-2.69-4.2-10.28,3.34-13,6.37a103.4,103.4,0,0,0-17.9,26.44c-7.51,16.51-7.79,33.6-4.42,51,.46,2.4.18,7.12.67,9.51.61,2.93-2.31,2.92-3.62,3.19-2.94.6-5,5.8-4.56,10,.15,1.29,3,3.54,4.93,4.65,31.57,17.87,70.94,22.75,103.94,4.91,8.13-4.39,8-19.13,8.91-28.12C180.87,190.18,170.21,170.69,169.19,162.06Z"/><path class="d" d="M190.13,49.69c8.9-.91,8.61-16.75,6.21-22.49-3.94-9.4-14.78-16.5-23.74-20.5a79.78,79.78,0,0,0-30-6.66c-11.13-.32-24.84,1.07-34.69,6.76C96.78,11.91,89,19.51,86.66,32.11,85.4,38.76,85.48,45.35,85.13,52c-.23,4.32,1.5,5.7,5.37,7,17.26,5.95,34.44,4,51.79.74C158.32,56.79,173.83,51.35,190.13,49.69Z"/><path class="e" d="M183.26,191.81c1.26,8.1,5.45,10.63,13.19,7.82,3.51-1.27,10.54-4.15,14.48-7-7.73-5.29-4.22-23.08-1.44-30.89,1.06-3-17.41-4.22-20.11-2.6-3.23,1.93-6.56,14.12-6.48,19.06S183.84,191.47,183.26,191.81Z"/><path class="f" d="M185,190.81c.52-1.55-1.1-3.13.51-4.21a10.37,10.37,0,0,0,4.82-10.72c-.3-2.41.91-3.77,3.29-4.08,2.69-.35,3.51-2,3.73-4.56.27-3.12-1.87-3.54-3.87-4.5-6.3-3-19.82-4.78-27.14-5.6,4.74,8.21,3.87,21.84,4.38,30.3.12,2,4.09,2.94,6,3.17,2.2.27,4.36,1.57,6.55,1.2C183.92,191.69,184.78,191.44,185,190.81Z"/><path class="f" d="M100.75,103.81c3.83,6.2,14.85,15.1,20.66,19.13.51-.35,1.29-4.9,1.38-5.18,4.32-13.35,7.26-6.38,12.43-5,15.3,4.09,28.24,9.44,43.66,13.06,8,1.87,13.52-7.31,13.07-15.38-.11-2,.92-5.84,2.22-5.49,1.67.44,3.28-3.36,3.72-8.72.26-3.3-1.06-11.18-1.72-14.32-3.86-.66-60.67,5.54-80.33-15.94-6.55-7.16-10.83-1.94-18,4.91-1.11,1.07-.66,3-1.2,4.34-1.51,3.83-3.7,5.15-7.59,3.17s-5,.41-5.59,3.73C82.39,88.36,86.12,95,93.06,98.78,94.54,99.16,99.82,102.3,100.75,103.81Z"/><path class="g" d="M215.49,131.11c6.37-10.43-.82-13.64-4.45-11.12-1,.7-3,4.35-2.83,6.55C208.68,134.06,213.87,133.76,215.49,131.11Z"/><path class="h" d="M177.23,121.23c-.57,8.73-2.18,15.77-6,22.09a25.9,25.9,0,0,0-2.9,6.56c-1.34,4.71-1.9,8,3.23,8.65,16.79,2.21,71,13.25,79.69,15.29,4.78,1.13,9.23,2,12.92,5.42a11.2,11.2,0,0,0,3.44,2.15c12.44,5,12.94,4.61,16.76-9,6-21.62,6.39-21.3-14.14-26.45-28.59-7.18-56.73-16.11-85.69-21.87A53.27,53.27,0,0,1,177.23,121.23Z"/><path class="e" d="M189.55,49.64c-24.43,3.17-53.72,12.66-81.13,13,9.77,11.36,21.4,23.08,35.66,26.12s28.25,3.45,42.25-.9c7.43-2.63,13.57-7.21,19.19-12.6,2.4-2.31,3.71-4-.12-6.53C199.44,64.7,189.86,50.07,189.55,49.64Z"/><path class="h" d="M129.38,109.77c-2.45-.69-4.33-.64-5.88,1.85-4.62,7.43-4.07,29.14,1.08,36.42,4,5.67,14.08,4.91,17.94-.87,4.69-7,10.61-13,19.52-14.18,5.08-.69,6.74-3.1,7-8.2.3-5.74-3.63-5.5-7-6.45-4.86-1.37-9.77-2.63-14.65-3.94C147.4,114.47,135.35,111.45,129.38,109.77Z"/><path class="h" d="M239.16,115.79a86,86,0,0,1-38.45-10c-2.73-1.42-6.24-6.72-8.94.24-2,5.23-5.33,12,2.71,13.84C208,123,221.82,124.94,234.56,131,236,131.71,241.5,120.36,239.16,115.79Z"/><path class="h" d="M228.34,207c-1.24-6.23,1.45-11.73,2.95-17.44.8-3.05,6.69-17.72,6.62-20.18-.36-11.72-18-2-24.76-5.24a16.11,16.11,0,0,0-4.31-1.15c-2.13.44-9.26,21.42-7.55,22.76,9,7.08,16.09,16.27,27.13,21.18Z"/><path class="f" d="M248.31,172.13c-2.46-3.66-2.84-4.92-5.08-6.91-1.91-1.68-6.39-2-7.17.86-.34,1.3,2-2.24,4.83,2.68l1.9,3.28c-3.54-2.33-3.8-3.24-7.07-4.66-1.56-.68-3.23-.64-4.58,1.55-.88,1.44,6.83-.65,5.43,5.61-.39,1.76-2.25,4.22-1,3.88,4-1.11,14.29.76,18.2-.68s4.34-.22,9.41,1.13c1.29.35-3.19-3.62-8.37-5-2.21-.59-2.41-11.74-7-10.19-3.59,1.22,2,1.75,1.55,4.58C249.05,170.16,249,171.75,248.31,172.13Z"/><path class="g" d="M177.41,129.46c3.19-6.39,2.09-9-3.07-9.92-3.22-.56-6.74-1.64-6.88,3.07-.12,4.21-3.69,10,3.22,12.11C176.89,136.67,176.4,130.46,177.41,129.46Z"/><path class="h" d="M284.85,165.26l76.32,20.41,2.08-7.76L286.9,157.49Z"/><path class="i" d="M115.74,257c-1,.17-1.36.92-1.38,1.85,0,.18.19.38.3.57L116,257.5Z"/><path class="j" d="M190,51.32l1.42,1.5Z"/><path class="k" d="M170.23,274.22s-16.9-3-19.2,11.1c7.35-5.41,17.36-4.21,17.36-4.21l-5.51-1.48C163.62,276.88,170.23,274.22,170.23,274.22Z"/><path class="k" d="M28,254.64s4.06-10,12.26-14.75L37.79,249s16.58-20.52,16.93-21.82C54.72,227.13,28.22,238.07,28,254.64Z"/><path class="e" d="M85.31,164.59s-.11,26.32,18.78,43.85c0,0,14.91,22,66.71-5.73,0,0,4.57-1.55,6.91-5.09a27.1,27.1,0,0,0,3-6.12,72.73,72.73,0,0,1-10-4.06s3.1,9.15-40.22,15.59c-6.63,1-18.56,2-26.83-8.57S85.31,164.59,85.31,164.59Z"/><path class="e" d="M100.28,103.42s4.74,8.2,20.53,16.58c0,0-.8,28.91,9.9,30.39,0,0,7.76,2.07,11.14-5.34.77-1.7,12.35-20.27,33.66-11.8-2.77,10.35-5.48,10.69-7.09,16.13-1.3,4.39,2.37,8.88,3.1,9.15-17.52-1.91-36.42,1.35-39.7,3.25,0,0-8.18-16.06-16.2-22.36,0,0-14.75-12.27-20.27-12.36a26.33,26.33,0,0,1,16.22,1.57S102,117.75,100.28,103.42Z"/><path class="e" d="M68.56,175.37s2.54,15.7,2.23,22.78c-.08,1.66-1.64.95-3.28,1.9,1.08,2.13,7.65,5.17,9.31,6.65C76.82,206.7,73.38,198.84,68.56,175.37Z"/><path class="e" d="M50.4,232.91S9.45,292.68,78.84,282.12c0,0-18.2,14.24-39.7,3.25-7.28-3.72-17-11.43-11.19-30.73,1.37-4.59,4.06-10,12.26-14.75L37.79,249Z"/><path class="e" d="M97.92,267.81s14.85-14.06,23.14-24.32c0,0,2.34-3.54,4.92-2.84,1,.27,2.25,2,.26,4.23,0,0,1.48,2.78,16.57.27,16-2.67,43.07-10.67,51.87-12.48-10,16.73-53.55,14-62.31,15.23C122.2,249.28,112.43,255.31,97.92,267.81Z"/><path class="e" d="M63.1,211.35s63.73,57.26,116.76-6.22C179.86,205.13,134.17,256.7,63.1,211.35Z"/><polygon class="l" points="177.95 103.39 183.81 102.19 180.79 108.31 177.95 103.39"/></svg>