<svg xmlns="http://www.w3.org/2000/svg" viewBox="0 0 362 337.93"><defs><style>.a{fill:#dae291;}.b{fill:#a0988d;}.c{fill:#c4bcae;}.d{fill:#b2aca3;}.e{fill:#fff;}.f{fill:#e73231;}</style></defs><title>foreword_down</title><ellipse class="a" cx="181" cy="306.93" rx="181" ry="31"/><polygon class="b" points="137.51 255.11 136.42 307.89 190.18 313.3 255 298.59 255 216.93 137.51 255.11"/><path class="c" d="M203,259.3c4,1.34,34.33-4.37,42.67-7,3.33-1,9.66-2.66,11.33-5.66,1.33-2,.33-7.67.33-9.67-.33-5.33-1-7.67-6.66-7-4.34.67-48,15.67-49.67,18S198.33,257.64,203,259.3Z"/><path class="d" d="M125.07,102.16c4,25.51,4.18,78.16,2.85,103.67-1.33,20-7.78,22.35-6.45,42.39.63,16.2,1.2,40.26,5.57,56.64-2,1.07-4.38,4-4,5.07.45,1.4,7-3,8-3-2,1-4.12,4.69-3,5s5.88-4.05,7-4c-1,1-2,4-1,5s5.55-3.6,6-4c.14-.15-3,5-1,5a5.92,5.92,0,0,0,5.47-3.11c5-6.73,3-19.71,3-27.51,0-4.56-2.33-28-1-31.67a73.13,73.13,0,0,0,26.46-.55c0,14.28-.54,47.55,6.74,61.16.19.37-5.7,4.68-2.7,4.68,2,0,5-2,6-3-1,1-3,4-1,4,3,0,4-3,5-4-1,1-3,5-1,5s4.35-3.68,5-4c-1,1-1.66,4,0,4,3,0,7.36-6.69,8-8,4.67-7.29,5-23.75,5.67-32.86s1.16-22.56,2-28.25c5.66-.23,32.28-3.66,37-9.56,13-16.19,7.66-70.63,4.33-103.44-.67-10-1.33-19.14-3.33-28.25C242,93.08,241.33,94,230,94c-16.67,0-33.33-1.82-49.33,4.56-10,3.64-23.67,4.14-34.34,5C139,104.51,125.07,102.16,125.07,102.16Z"/><path class="b" d="M204.67,182.93c-3.53,7-20.95,5.88-20.67,12.33.21,4.79,22.52-1.65,25.67-10.71,3.21-9.25-2-53.67-4.67-67.67l-4-.28S207,178.26,204.67,182.93Z"/><path class="b" d="M135.38,118.05c-.8,5.38.62,46.88,2.12,50.13,2.25,4.75,9.45,3.16,9.5,7.75s-10.58-.25-13.47-5.5c-1.81-3.29-.78-52.38-.78-52.38Z"/><path class="b" d="M183.75,200.18h-1.59a1.5,1.5,0,0,0,0,3h.09a1.5,1.5,0,0,0,0-3h-.09a1.5,1.5,0,0,0,0,3h1.59a1.5,1.5,0,0,0,0-3Z"/><path class="b" d="M182,207.93h1.25a1.5,1.5,0,0,0,0-3H182a1.5,1.5,0,0,0,0,3Z"/><path class="b" d="M183.44,211.24a2.33,2.33,0,0,0,3.12,0,1.51,1.51,0,0,0,0-2.12,1.53,1.53,0,0,0-2.12,0,.79.79,0,0,1,1.12,0,1.54,1.54,0,0,0-2.12,0,1.51,1.51,0,0,0,0,2.12Z"/><path class="b" d="M187,214.93a2.13,2.13,0,0,0,1.56-.69,1.5,1.5,0,0,0-2.12-2.12c-.22.18-.12.17.28-.05s.52-.16.28-.14a1.5,1.5,0,0,0,0,3Z"/><path class="b" d="M143.4,181.87a.86.86,0,0,1-.63-.22,1.53,1.53,0,0,0,2.12,0,1.51,1.51,0,0,0,0-2.12,2.3,2.3,0,0,0-2.29-.55,1.55,1.55,0,0,0-1,1.85,1.52,1.52,0,0,0,1.85,1Z"/><path class="b" d="M142,185.93h.5a1.5,1.5,0,0,0,0-3H142a1.5,1.5,0,0,0,0,3Z"/><path class="b" d="M141.33,188.43a1.5,1.5,0,0,0,0-3,1.5,1.5,0,0,0,0,3Z"/><path class="b" d="M139.33,190.93a1.5,1.5,0,0,0,0-3,1.5,1.5,0,0,0,0,3Z"/><path class="c" d="M173.59,132.23a4.37,4.37,0,1,1-4.37-4.37A4.37,4.37,0,0,1,173.59,132.23Z"/><path class="c" d="M139.92,254.51c0,7.5,21.33,8.55,33.28,6.54V251s-18.95,1-30.62-1.56C140.29,250.85,139.92,252.43,139.92,254.51Z"/><path class="d" d="M127.33,19.26c-4.16,1.5-5.83,4.5-6.16,8.67-.34,4.66,2.33,7.33,3.83,11.33.83,2.17,0,3.33-.17,5.5a16.26,16.26,0,0,0,1.67,6.17c.33.66,1.33,1.83,1.33,2.5.17,1.5-.66,1.83-1,3.16-.5,2,0,4.34-.16,6.34-.5,4.33.66,7.83.83,12,.33,7.5-.67,14.83-1.83,22-.5,3.16-.5,6.33-1.34,9.33,3.17,1.83,10.84.5,14.34.5,7,0,14.33.67,21.33,0,7.83-.67,15.67-3.17,23.67-3.33,4.66,0,9-1.34,13.66-1.34,3.34,0,6.5-.16,9.67-.33,7-.5,13.83.67,21,.67,6.5,0,12.67.16,19,1.66.83-2.33-.5-7.83-.5-10.66,0-4.34-.67-8.34-1-12.5-.5-7.84-2-15.5-3.17-23.17a170.27,170.27,0,0,0-6.16-23.67c-1.5-4.16-3.5-8.33-4.67-12.66-1.17-4.17-2-8.34-4.17-12.17-5.16-9-13.83-11.67-23.16-7-3.67,1.83-5.84,3.33-10,3.33-3.67,0-7.17,0-10.84-.16-7.83-.17-16.83-1-24.66.16-8,1.34-15,8.67-20.67,14C138,19.59,131.17,17.76,127.33,19.26Z"/><path class="b" d="M137.37,47.33c4-.48,7.36-.2,11.35-.48,4.83-.38,7.7-1.62,12.09-2.78,7-1.82,18.24-3.25,22.9-6.37,1.55-1,3.31-1.79,4.53-2.77.43.78,1.27,3.51,2.14,3.82-3,1.34-7.94,2.35-11.5,3.4-3.73,1.15-7.65,2-11.57,2.93-7.19,1.63-14.66,3.71-22.27,4.64-1.65.2-3.32.33-4.95.67C137.67,48.43,137.37,47.33,137.37,47.33Z"/><path class="c" d="M147.88,57.49c-4.75,2.81-4.38,9.56.12,10.56,3.5.88,6.13.25,9.38-1.12a29.83,29.83,0,0,1,9.12-2.88c3.13-.5,6.38-.12,9.63-.5,5.25-.62,12.41-5,7.41-11.25-3.25-4.12-6.29-3.37-11.79-3.37-4.34,0-3.54-4.6-12.81-2.19C151.28,48.73,154.61,53.5,147.88,57.49Z"/><path class="b" d="M151.63,68.55c0-2.62-.25-5.12,2.87-5.62a4.46,4.46,0,0,1,5.13,3.37c-2.63.88-5.25,2-7.88,2.75Z"/><path class="b" d="M169.88,64.3c-.38-6.37,7-6.12,7.87-.37-2.12.75-5.12.37-7.37.62Z"/><path class="c" d="M203,28.31a.64.64,0,0,1-.1.13,10.48,10.48,0,0,1-2.77,1.85s-.09.06-.09.05-2.67-2.69-4-3a5.66,5.66,0,0,0-3,0c-.76.15-4,3-4,3-1.25-1.68-2.73-3.44-2.21-5.69a2,2,0,0,1,1.48-1.35,2.65,2.65,0,0,1,1.45-.06,3.42,3.42,0,0,1,1.62,1.19c.21.24.38.51.57.77a5.26,5.26,0,0,1,.66,1,4.57,4.57,0,0,1-.25-2.56,2.88,2.88,0,0,1,3.05-2.33,2.6,2.6,0,0,1,2.08,1.35,5.19,5.19,0,0,1,.67,2.64,7.69,7.69,0,0,1-.11,1.27,3.46,3.46,0,0,1,.24-.57c.08-.21.16-.42.25-.62a4.32,4.32,0,0,1,.65-1.12,2.29,2.29,0,0,1,3-.31,2.77,2.77,0,0,1,1.43,1.93A3.12,3.12,0,0,1,203,28.31Z"/><path class="c" d="M129,45.82a.9.9,0,0,1,.09-.49c.24-.39.85-.33,1.22-.06s.62.68,1,.93a4.69,4.69,0,0,1-.65-2,1.89,1.89,0,0,1,.09-.88.89.89,0,0,1,.65-.57,1.29,1.29,0,0,1,1,.53,7.39,7.39,0,0,1,1.06,1.48,6,6,0,0,1-.37-1.8,2,2,0,0,1,.7-1.64,1,1,0,0,1,.56-.21.94.94,0,0,1,.4.13,3.13,3.13,0,0,1,1.53,2.4l.15,1.26h-1c-2.48.18-3.46,1.57-4,4C131.5,48.93,129.07,46.93,129,45.82Z"/><path class="b" d="M189.52,29.44c-3.3,3.64-1.08,9.56,2.51,12.08,2.62,1.85,7.86,2.13,9.36-1.33a10.06,10.06,0,0,0,.46-4.81,11.31,11.31,0,0,0-2.64-6.25C196.68,26.36,192,26.75,189.52,29.44Z"/><path class="b" d="M131.53,47.77l0,0a8.32,8.32,0,0,0-.33,3.54,14.43,14.43,0,0,0,.47,3c.52,1.79,2,3.28,4,2.78,3.19-.81,4.73-4.9,4.3-7.88-.35-2.46-2-5-4.86-4.34A5.15,5.15,0,0,0,131.53,47.77Z"/><path class="d" d="M134,48.47a4.15,4.15,0,0,0-.78,2.29c-.11,1.24-.19,3.09,1,3.87,1.58,1,2.94-.84,3.31-2.22a3.8,3.8,0,0,0-1.65-4.32,1.56,1.56,0,0,0-1.25-.07A1.69,1.69,0,0,0,134,48.47Z"/><path class="d" d="M193,30.27c-3.07,1.53-2.3,6.23-.07,8.08,1.65,1.36,4.26,1.83,5.7,0a5.78,5.78,0,0,0,.74-5.15,4.26,4.26,0,0,0-1-1.68A4.85,4.85,0,0,0,193,30.27Z"/><path class="c" d="M198.1,34.06c.46,2.12-.47,4.13-2.09,4.49s-3.3-1.08-3.77-3.2.47-4.14,2.09-4.49S197.63,31.94,198.1,34.06Z"/><ellipse class="c" cx="135.34" cy="51.56" rx="1.66" ry="2.63"/><path class="e" d="M136.5,50.41c0,.56-.26,1-.58,1s-.58-.46-.58-1,.26-1,.58-1S136.5,49.84,136.5,50.41Z"/><path class="e" d="M197.13,32.86a1.35,1.35,0,1,1-1.34-1.56A1.47,1.47,0,0,1,197.13,32.86Z"/><path class="b" d="M140,74.48c3.16.8,6.77,4.45,10.52,4.45,4-.25,6.5-3.75,10-5.25,6.25-2.25,12,.25,18-1,12.5-2.75,20-22.75,33.75-20.5,4.75.75,8,9.25,6,14-2.5,5.75-10.5,7.25-15.75,9-7,2.5-11.5,8.25-18,11.5s-12,7-19.25,7.25c-5,0-8-2.5-12.5-3.5s-9.5-.5-14-1.5c-4.5-.75-11-3.75-9-9.75C131,75.43,136.88,73.69,140,74.48Z"/><path class="e" d="M137,87c.33-1.67,2.5-6.91,3.67-8.25,1.5,1.84,2,6.84,2.16,9.17A32,32,0,0,1,137,87Z"/><path class="e" d="M199,64.76c1.67,0,7.75,5.75,9.25,7.08-3.5,1.12-6.94,1.92-9.1,3.42C199.15,75.26,198.83,67.93,199,64.76Z"/><path class="b" d="M224.25,49.68c2.5,6,3.25,11,3.5,17.5.25,7.25-6,21-6,21a65.75,65.75,0,0,1,4.5,12.5c.35,1.73,2.75,13.37,6,10.87,2.25-1.5-1.75-13.12-2.25-15.12-1-2.5-2.75-9-2.75-9s2.5-5,3.5-7.75c4.25-11.75,2.75-23-3.25-33.75-2.75-5-6-10.5-12.25-12C215.25,33.93,222.25,44.68,224.25,49.68Z"/><path class="b" d="M220.17,8.26c1.66-3.83,2.66-1.33,4,1.5.66,1.33,2.83,5.67,1.83,6.83-1.17,1.34-6.67-.66-7.83-1.5A65.65,65.65,0,0,1,220.17,8.26Z"/><path class="b" d="M123.5,30.3a3.42,3.42,0,0,1,2.38,3.75C124.13,34.3,123.5,30.3,123.5,30.3Z"/><path class="f" d="M144.47,105c-8.95,6.32-12.69,27.67-13.34,33.22-3.08,26-2.71,57.79-3,64-.62,11.72-1.42,19.08-4.42,25.41-5.17-7.92-6.34-15-7.34-23a202.44,202.44,0,0,1-1.66-28.33c0-17.67-1.13-38.09,1.66-56,1.08-6.88,2-14,11.34-14.34C134.1,105.71,139.48,103.47,144.47,105Z"/><path class="f" d="M208.16,107.23c26.6,13,23.24,76,30,104.27,4.28,16,11,31.3,12.85,48.85a175.85,175.85,0,0,1-1.22,47.33c6.72,1.52,14.07-10.69,22-11.45,3.06,0,6.11.76,9.17,0,8-2.29,5.51.76,4.9-7.64s-3.06-16-3.06-25.19c0-8.39.61-16.79-1.84-24.42-3.06-10.69-9.78-16.79-12.84-27.48a162.44,162.44,0,0,0-6.73-22.9c-6.12-16-4.28-34.35-6.12-52.66-1.83-16.8-1.11-34.6-5.26-35.6-13-3.14-36.64-1.6-54.08.09C199.59,102,205,105.67,208.16,107.23Z"/><path class="f" d="M140,104.47c8-.54,11.33-.87,15.67.13,7.33,1.33,11.33,1,18.33-1,5.67-1.67,16.26-2.51,21.92-3.17,6.67-1,11.68,1.95,13.75,4.83-3.34,2-13-2.66-17.34-2.66-6.66,0-12,1.67-18,3.33-6.87,2.13-28.08-3.75-34.41,4C137.9,112.47,140,104.47,140,104.47Z"/><path class="f" d="M177.63,114.55c6.12,3.5,12,7.63,18.5,10.38,8.37,3.62,17.87,4.5,26.25,8.12-1.38.5-3.38.63-4.88,1.13a66.79,66.79,0,0,1-6.5,2.25c-4.12.87-6.62-1.75-10.25-3.63-8.62-4.5-16.62-10.25-24.62-15.87a44.14,44.14,0,0,1-7.13-5.5c-.87-1-4.12-5.75-1.12-6.25C167.88,105.18,173.75,112.18,177.63,114.55Z"/><path class="f" d="M168.13,134.3c.87,2.88,1.87,8.75,5.62,7.38,2.63-.88,7.88-3.13,9.5-5.25-2.87-2-5.75-2.88-8.25-5.63a31.21,31.21,0,0,1-5.37-9,38.8,38.8,0,0,1-1.75-10c-.13-1.12-.13-3.87-.63-4.87C166.13,104.68,165.38,125.8,168.13,134.3Z"/><path class="f" d="M164,106c-1.37.56-4.05,9.75-4.47,12.19s-1,6,.22,8c1.72,2.81,4.81,1.87,6.14-1.19a33.19,33.19,0,0,0,2.37-9.75c.23-2.25-.42-8.69-.73-9.06-.11-.13-1.64-.44-1.75-.19s.25,6-.13,9.26a14.27,14.27,0,0,1-1.85,6.11c-1.15,1.82-2.11,1.35-2-1.28a34,34,0,0,1,1.65-7.15c.57-1.69,2-6.25,1.6-6.94Z"/><path class="f" d="M171.31,105c1.38.56,4.06,9.75,4.48,12.19s1,6-.23,8c-1.72,2.81-4.81,1.87-6.14-1.19a32.87,32.87,0,0,1-2.36-9.75c-.23-2.25.41-8.69.72-9.06.11-.13,1.64-.44,1.75-.19s-.25,6,.13,9.26a14.13,14.13,0,0,0,1.86,6.11c1.14,1.82,2.11,1.35,1.95-1.28a34,34,0,0,0-1.65-7.15c-.57-1.69-2-6.25-1.6-6.94Z"/></svg>