<svg xmlns="http://www.w3.org/2000/svg" viewBox="0 0 241.5 338.63"><defs><style>.a{fill:#9b9b9b;}.b{fill:#d8ac77;}.c{fill:#ad8559;}.d{fill:#6b563f;}.e{fill:#7a7a7a;}.f{fill:#e2e2e2;}.g{fill:#e5bd91;}</style></defs><title>foreword_up</title><path class="a" d="M0,268.63l4,70,237.5-51v-73s-44.48,4.39-86.26,12c-3.2.58-5.59,2.92-8.74,3.54-23.67,4.63-43.5,11-56.5,15a111.37,111.37,0,0,1-30.5,5.5C32.5,251.63,9.65,258.69,0,268.63Z"/><path class="b" d="M149.25,0c9,.17,6.58,11.63,6.92,17.3.33,12,7.58,20.83,3.66,35,3-3.34,7-1.34,10.67-2.34s9.5-11.33,12.25-4.08c.68,1.79,2.85,0,3.75.75,1.61,1.28,1.88,4.43,1.67,7-.34,5-3.92,12.87-10.67,14.12-7,6.34-7.71,6-12.37,15-1.67,3.34-1.17,10.46-1.5,14.13-.34,5.33-1.38,7-1.38,7,4.63-.13,10.88.62,14.25,6.75,18.63-3.5,16.75,6.75,16.63,8.25,1.89,2.9,4.25,3.87,3.75,8.75,4.25,1.37,6,3.91,8.25,6.5,3.87,2,5.37,4.5,2.75,7.12.39,2.87,1.25,4.88-4.38,10.38,1,5-1.87,8.46-1.87,15.12,3.75-1.37,7-.62,7.75.88-.66,2.27-4.75,4.71-4.75,7.12-.34,2.34,5.75,1.88,5.75,5.88,0,7.62-6.71,6.29-7.71,6.92-.34,2.66-.17,3.45-2.42,5.08,1,2.25,2.25,4.58.56,7.87.27,8.29,1.77,13.29,4.94,18.38-8.83,1-17.25,2.58-26.82,4-1.19-4.56-1-4.06-2.3-7-3.71-5.34-5.88-7.59-14.25-8-3,.33-17.38,4-19.38,6.33.25,4.75,0,6.75.63,15.42-7.38.37-9.67.62-15,.62-3.34,0-7.88-.5-7.88-.5s.94,6.51-.12,11.13c-5.13,1.12-15.67,1.17-21,1.5a138.85,138.85,0,0,0-3.63-28,18.69,18.69,0,0,0-6.25-4,18.43,18.43,0,0,0-15.5,4.5c-8.37,7.12-18.12,27.37-19.75,35.5-6,.34-25.83,2-28.5,1.63,3.33-12.29,15.19-36.5,30.88-57.26,8.37-11.08,17.66-19.16,21.95-23.45-6.33-.17-8.83-4.17-5.83-7.92,2.06-2.58,10.38-4.88,20.63-2.88,1.5-5.25,5.25-10.62,8.5-15.25-1.75-4.37.62-3.5-1.38-9.5a32.18,32.18,0,0,1,0-12.12c.57-2.61,3.12-3.83,3.25-5.13,1-9.33,3.83-11.2,5.5-19.87.33-1.33.82-2,1.15-3.37-3-.33-8.27-7-9.27-9.63-1.34-3,.79-8.33,3.12-11,5-5.22,10.25.76,13-.5.94-.43.59-2.45,1.5-5,2.45-6.86.71-10.88,2.71-17.88.34-2,2.62-4.91,3.29-7.25.33-2-.67-2.75,0-4.75,1.33-4.33,7.25-9.64,8.63-14.25,2.12-7.12,5-8.7,8.37-12.37,0,0,0-3-1-4.5C140.57,4.34,141.3-.14,149.25,0Z"/><path class="c" d="M153.58,131.92a4.67,4.67,0,0,1,4.14.76,28,28,0,0,1,3.24,2.93,2.49,2.49,0,0,0,1.2.72,2.39,2.39,0,0,0,1.35-.32c2.1-1,4-2.35,6.07-3.37a10.56,10.56,0,0,1,6.7-1.26,1.14,1.14,0,0,1,.62.28c.42.45.36,1.57.95,1.39a.92.92,0,0,0,.38-.33,1.77,1.77,0,0,1,2.82.41c.24.53.37,1.32.95,1.33a1.4,1.4,0,0,0,.7-.32,3,3,0,0,1,4.72,2.58,2.58,2.58,0,0,1,4.85,1,1.14,1.14,0,0,0,.18.72c.26.28.73.13,1.09,0a3.18,3.18,0,0,1,1.92-.2,1.65,1.65,0,0,1,1.28,1.33c.07.64-.33,1.32-.08,1.91a1.9,1.9,0,0,0,.59.67c2.19,1.77,7.25,5.47,9.25,6a7,7,0,0,1-3,3.5c1,1.5-1.5,12-1.5,15a25.33,25.33,0,0,1-6.5,1c-1.73-.8-.35-3-.67-4.9l-2-11.68a8.25,8.25,0,0,0-.89-2.93,8.34,8.34,0,0,0-3.84-2.83c-6.72-3.16-13.75-6.4-21.17-6.17a39.34,39.34,0,0,0-5.41.64,1.91,1.91,0,0,1-2.31-.87l-5.73-6.73Z"/><path class="c" d="M184.75,126.38c4.21,1.2,7.23,6,11,3.5,4.5-3-1.5-10-3.31-10.7.31-3.5-2.66-5.19-4.78-5.47s-5.41,1.17-5.91,3.17c-4.75-1.75-7.53,3.53-7.25,5.75C175,126.63,181.25,125.38,184.75,126.38Z"/><path class="c" d="M207.84,141.26a3,3,0,0,0-1.84-2.13,3.63,3.63,0,0,0,2-3C211,138.63,207.84,141.26,207.84,141.26Z"/><path class="d" d="M157.17,133c-1.17-1.17-4.34-2.83-4,.17,0,.66,2.33,4.66,2.66,5.66.5,1.5,1,3.17,1.67,4.84a111.41,111.41,0,0,0,7.33,15.66c1.34-1.33,1.84-5,3.67-5.5,2.67-1,7.17,7,9,8.17s18.5,7,19.5,5.67c1.17-1.5-1.5-8.34-1.67-10.17-.66-4.33,1.67-8.33-2-11.33-2-1.84-3.5-1.34-5.83-2.17-1.83-.83-3.33-2.5-5-3.67-3.5-2.33-6.17-4.5-10.5-4.16-4,.33-7.33,4.33-11.5,2C159.83,137.79,158,134.13,157.17,133Z"/><path class="c" d="M121.83,239.13a74.13,74.13,0,0,1-22.2,3.25,80.93,80.93,0,0,0-.9-12.47c-1-6.89-2.64-15.47-3.17-16-5.81-5.32-12.52-4.45-19.39-.32-7,4.22-15.38,19.27-20.67,32.27-1.11,2.73.12-2.91,1.38-6.63,5.78-17,20-36.56,24.95-42.31,2.5-3,6.84-8.17,11-8.67,2-.16,3.67.84,5.5-.16,2-1,3.67-3.34,5.5-4.67,1.67,2.5,1.34,6.5,5.67,5.83,2-.16,7.92-2.83,8.58-4.66,0,0-4,23.32-2.63,45.35l6.38-.85C122.5,231.62,123.08,236.63,121.83,239.13Z"/><path class="c" d="M143,214.13s14.52-5.84,19.83-5.92c5.66-.09,14.25,4.33,16.17,14.67l26.75-4s-4.5-9.25-4.75-16.75c0,0,2-5.75-.25-9.75,0,0,3.1-1.47,2.5-4.42,0-.11-.05-.22-.08-.33s7.5.58,7-5.67c0,0-9,.67-16.34-1.75a29.61,29.61,0,0,0-18.25-3.5s-16.66-3.33-25.66-13.58c0,0,7.8,7.55-3.42,33.33A40.91,40.91,0,0,0,143,214.13Z"/><path class="c" d="M116.5,229.9s5-9,12-14c0,0-5,10-5,13a33.31,33.31,0,0,0,10-12s1,4-1,11c0,0,5-3,6-7,0,0,1,0,1,4l-8,5Z"/><path class="e" d="M106.5,256.9v2s4-2.13,5-2c8,1,24,0,24,0l4-24,7-2v-1l-9,1-3,24-23-1Z"/><path class="e" d="M19.5,275.9v1s9,1,15-4c4.92-4.1,6-5,5-19l20-2v-2l-21,2Z"/><path class="f" d="M106.5,231.63c-3.07,5.73,0,26,0,26s4.26-3.43,6-2.73c5,2,22.17.73,22.17.73l3.5-24L146.5,230l-2.5-5a36.86,36.86,0,0,0-5.5-.06,35.07,35.07,0,0,0-4.93,1.92S108.5,227.9,106.5,231.63Z"/><path class="f" d="M33,234.07S18.33,251.13,19.17,276A19.77,19.77,0,0,0,34.5,271.9c4.29-3.46,5.67-4.94,4.17-18.94l20.83-2.17s.2-8.15-1.13-10.48c0,0-1.16,2.22-1.87,2.59-.54.27-1,2.94-2,3s1.09-3.64,0-4c-.85-.29-1.79-1.15-3-1-1,.11.87-4.37,0-4-1.33.56-2.1,1.95-3,2-1.46.08-3.27-2.24-5-3-2-.87-5,2.14-7,3C35.26,239.44,31.71,239.9,33,234.07Z"/><path class="c" d="M161,159.13c-4,.5-16.5-23.5-15.21-33C145.79,126.16,158.66,154.68,161,159.13Z"/><path class="c" d="M171,163.13c2,.5,3,.5,4,1,.84.42,3.62,1.19,4.5,1.5,1.3.45,5.17.17,6.5.5,4,1,6.18,2.43,11.36,5.5a74.72,74.72,0,0,0,7.14,3,2.45,2.45,0,0,0,.63,1.36,2.11,2.11,0,0,1-1.59-.24c-6.34-2.82-12.12-7.58-19-8-2.18-.14-4.42.15-6.5-.5a21.88,21.88,0,0,1-3-1.41c-2.45-1.24-5.24-2.8-8-3.18Z"/><path class="c" d="M173.49,111.24c-6.49-4.11-9.3-.46-11.49.39A6.54,6.54,0,0,1,173.49,111.24Z"/><circle class="g" cx="170.5" cy="111.88" r="1.75"/><path class="c" d="M172.25,111.88a1.75,1.75,0,0,1-3.5,0,1.85,1.85,0,0,0,3.5,0Z"/><path class="c" d="M170.05,116.84a24.23,24.23,0,0,1,2.88-2.69,8.67,8.67,0,0,1-2.44.43,15.17,15.17,0,0,1-3.19-1.34,4.53,4.53,0,0,0-3.61.34S169,115.63,170.05,116.84Z"/><path class="c" d="M143.33,112.84a7.75,7.75,0,0,0-2.63-.3c-2.68.06-5.42.44-8-.32a22.07,22.07,0,0,0-3.66-1.13c-2.21-.25-4.29,1-6.18,2.14-1.38.86-2.84,1.81-3.45,3.32a5,5,0,0,0,1.32,5.17,10.33,10.33,0,0,0,5,2.49,2.43,2.43,0,0,1,1.17.51c.44.45.42,1.16.56,1.77.39,1.69,2,2.74,3,4.16a7.76,7.76,0,0,1,1.16,5.27,21.38,21.38,0,0,1-1.45,5.3,19.52,19.52,0,0,1-3.26,6.21c-.65.74-1.4,1.38-2,2.15a13.61,13.61,0,0,0-2.1,4.27,55.63,55.63,0,0,0-1.67,6.07l3.72-4.36a39.87,39.87,0,0,0,4.62-6.21,39.72,39.72,0,0,0,2.2-4.94,42.69,42.69,0,0,0,1.81-5.24c1.09-4.29.86-8.78,1.13-13.19.07-1.24.43-2.77,1.63-3.06a1.27,1.27,0,0,0,.47-.13,1,1,0,0,0,.38-.84,12.1,12.1,0,0,1,.36-2.69,2.46,2.46,0,0,1,1.86-1.78,3.5,3.5,0,0,1,2.51,1.24l2.27,2.06a5.93,5.93,0,0,0,1.7,1.21,2,2,0,0,0,2-.2c.95-.8.53-2.31.15-3.49s-.41-2.88.78-3.24a5.57,5.57,0,0,1,1.08-.1,3,3,0,0,0,2.23-1.75,8.85,8.85,0,0,0,.71-2.84c.08-.61.11-1.34-.38-1.7s-1.25-.09-1.83.21C148,110.26,144.49,113.24,143.33,112.84Z"/><path class="c" d="M132.22,46.18A2.14,2.14,0,0,0,131,47.79a.61.61,0,0,0,0,.3.62.62,0,0,0,.32.32,1.81,1.81,0,0,0,1.55-.13c.48-.24.89-.59,1.35-.86a4.8,4.8,0,0,1,5.94,1,5.14,5.14,0,0,0,.73.81,1.05,1.05,0,0,0,1,.24,1,1,0,0,0,.55-.88,2,2,0,0,0-.32-1,5.81,5.81,0,0,0-4.54-2.73,9.05,9.05,0,0,0-5.26,1.3Z"/><path class="c" d="M132.07,41a5.79,5.79,0,0,0-1.57.89,2,2,0,0,0-.77,1.58,2.27,2.27,0,0,0,2.3-.62c.29-.25.66-.53,1-.4s.45.95.87,1.26a1.34,1.34,0,0,0,.72.16l5,.15a1.24,1.24,0,0,0,.57-.08c.21-.11.33-.33.52-.49a1.28,1.28,0,0,1,1.36-.07,4.82,4.82,0,0,1,1.13.89,11.34,11.34,0,0,0,3.2,2.09,13.05,13.05,0,0,0-3.83-4.83,3,3,0,0,0-1.27-.83c-.64-.16-1.36.1-2-.16a3.84,3.84,0,0,1-1.06-.92,2.14,2.14,0,0,0-2.39-.47c-.47.26-.79.76-1.28,1a4.27,4.27,0,0,1-1.28.24,1.34,1.34,0,0,0-1.09.63Z"/><path class="c" d="M151.86,34.64c1.89-5.26-14.11-17.76-19.7-4.08C132.16,30.56,142.25,19.38,151.86,34.64Z"/><path class="c" d="M150,20.5a9.52,9.52,0,0,1-1.12,1.93.77.77,0,0,0,.27,1,.78.78,0,0,0,1-.27,10,10,0,0,0,1.11-1.93.77.77,0,0,0-.27-1,.76.76,0,0,0-1,.27Z"/><path class="c" d="M151.54,23.14a6.9,6.9,0,0,1-.64.89c-.62.73.43,1.79,1.06,1.06a8.6,8.6,0,0,0,.88-1.2c.5-.82-.8-1.58-1.3-.75Z"/><path class="c" d="M153.24,25.28a6.23,6.23,0,0,1-1,.94.75.75,0,0,0,0,1.06.76.76,0,0,0,1.06,0,6.23,6.23,0,0,0,1-.94c.62-.73-.43-1.8-1.06-1.06Z"/><path class="c" d="M154.66,27.85a5.93,5.93,0,0,1-.78.43.75.75,0,0,0-.27,1,.77.77,0,0,0,1,.27,5.4,5.4,0,0,0,.78-.44c.8-.53.05-1.83-.75-1.29Z"/><path class="c" d="M155.42,30.12a3.32,3.32,0,0,1-.75.32.75.75,0,0,0,.4,1.44,5.41,5.41,0,0,0,1.11-.46c.84-.47.09-1.77-.76-1.3Z"/><path class="c" d="M156.05,32.15a2.58,2.58,0,0,0-.76.33c-.8.53,0,1.83.76,1.3a1,1,0,0,1,.4-.18.75.75,0,0,0-.4-1.45Z"/><path class="c" d="M147.27,19.24a11.24,11.24,0,0,0-.75,1.75c-.3.92,1.15,1.31,1.45.4a8.64,8.64,0,0,1,.59-1.4c.45-.85-.84-1.61-1.29-.75Z"/><path class="c" d="M136.75,19.63a2.9,2.9,0,0,0,.29,1.19c.41.87,1.7.11,1.3-.76a.92.92,0,0,1-.09-.43c0-1-1.54-1-1.5,0Z"/><path class="c" d="M138.5,21.63a1,1,0,0,0,.42.94,16.76,16.76,0,0,0,6.36.48.63.63,0,0,0,.46-.16.6.6,0,0,0,.11-.3,8.12,8.12,0,0,0,.1-1.21.58.58,0,0,0-.65-.64C144.46,20.67,139.2,19.66,138.5,21.63Z"/><circle class="g" cx="142.5" cy="18.63" r="3.25"/><path class="c" d="M131.38,33.24l4.39,1.48a5.36,5.36,0,0,0,1,.26,5.22,5.22,0,0,0,1.52-.17,35.81,35.81,0,0,1,10.43-.64L145.43,39c-.35.51-.82,1.08-1.43,1s-.93-.55-1.27-1a8.35,8.35,0,0,0-3.72-2.7,3.52,3.52,0,0,0-1.28-.26,4.43,4.43,0,0,0-2,.74L133.63,38a1,1,0,0,1-.87.17.85.85,0,0,1-.35-.33C131.54,36.65,131.38,33.24,131.38,33.24Z"/><path class="g" d="M133.45,34.81a1.16,1.16,0,0,0-.58.7.75.75,0,1,0,1.44.4l-.1.19c.87-.41.11-1.7-.76-1.29Z"/><path class="g" d="M142.58,36.44c.37.54.76,1.25,1.54,1.06a1.34,1.34,0,0,0,.95-1.4,1.42,1.42,0,0,0-2.66-.58.75.75,0,0,0,1.29.76c.06-.09-.07.12-.11-.06,0,0-.06-.14.08-.16h.39c.19,0,.24.24,0-.05l-.23-.33c-.54-.78-1.84,0-1.29.76Z"/><path class="c" d="M141.65,4.56a1.22,1.22,0,0,0,1.08.42c1.32,0,2.63-.39,4-.26,1.15.11,2.26.62,3.41.48a7.74,7.74,0,0,1,2.16-.32.5.5,0,0,1,.24.09c.19.18,0,.5-.13.69a3.08,3.08,0,0,1-2.69.62c-.94-.16-1.84-.53-2.79-.67-1.64-.24-3.44.24-4.91-.53Z"/><path class="c" d="M141.92,12.67l3.89-.31a9.73,9.73,0,0,1,2.8.06,8.19,8.19,0,0,1,2.07.87A16.17,16.17,0,0,1,156,18.63a52,52,0,0,0,0-11.5,14.6,14.6,0,0,0-4.16,2c-.78.76-2,1.38-2.94.85s-1.26-1.76-2.24-1.79a2.25,2.25,0,0,0-1,.31A5.06,5.06,0,0,1,141,8.13,17.61,17.61,0,0,1,141.92,12.67Z"/><path class="c" d="M127.15,56.19a7.07,7.07,0,0,0,2.73,1.22c1.06.13,2.14-.22,3.2-.14a15.31,15.31,0,0,1,2.94.82,8.23,8.23,0,0,0,4.51,0c1.76-.51,3.42-1.61,5.25-1.47a3.16,3.16,0,0,0,1.37,0,2.21,2.21,0,0,0,1-1.57l1.53-5.3a7.31,7.31,0,0,0,.32-1.53c0-.45,0-.91,0-1.37a6.34,6.34,0,0,1,1.07-2.66l1.21-2a1.18,1.18,0,0,1,.13-.18c.34-.29.78.2,1,.59a4.62,4.62,0,0,0,6.09,1.65,16.11,16.11,0,0,1,.07,2.6.48.48,0,0,1-.13.38c-.21.17-.5,0-.69-.25a4.71,4.71,0,0,0-6.16-.34c-1.08.89-1.26,2.21-1.6,3.57a6,6,0,0,0,0,2.5,5.66,5.66,0,0,0,1,3c.15.2,7.28-3.38,7.5-3.5,8.26-4.68-7.53,5.16-7.76,5.34L146,61.88a2.13,2.13,0,0,1-1.62.62,4,4,0,0,1-1.08-.62c-1.5-.88-3.37.21-5.11.14-1.06,0-2.07-.53-3.14-.55-2.46,0-4.33,2.39-6.76,2.78a1.64,1.64,0,0,1-1.54-.38,1.83,1.83,0,0,1-.34-.84,19.73,19.73,0,0,1-.47-4.84c0-.66.15-1.45.77-1.71Z"/><path class="d" d="M125,41.6a3.88,3.88,0,0,1-.08,2.79,30.54,30.54,0,0,0-3.71,8.68,80.09,80.09,0,0,0-.66,8.06c-.42,5.38-3.38,13.1-3.09,13.15,2.09.35,4.09,1.27,3.91,3.17a29.88,29.88,0,0,0,7.21-15.78,6.53,6.53,0,0,0-.4-4c-.31-.59-.78-1.08-1.12-1.64a9.38,9.38,0,0,1-1-3.69,18,18,0,0,1-.24-3.1,18.6,18.6,0,0,1,.39-2.89c.94-4.9.36-9.42,2.87-13.73C129,32.63,124,37.63,125,41.6Z"/><path class="g" d="M154.09,40.16v.16a2.57,2.57,0,0,0,1.13,2.08,2.65,2.65,0,0,0,2.94.11,2.82,2.82,0,0,0,.7-2.24c0-1.64-1.52-5.15-3.42-3.07A5.21,5.21,0,0,0,154.09,40.16Z"/><path class="c" d="M112.5,73.13c-1.23-.34-.77-.16-2-.5a10.27,10.27,0,0,0-4.86.43c-1.37.7-1.61,2.55-2.6,3.73-.58.68-1.42,1.15-1.84,1.95a4.47,4.47,0,0,0-.38,1.89L100.65,84a3.58,3.58,0,0,0,.21,1.75c.46,1,1.14,1.46,1.64,2.41a14.58,14.58,0,0,1,1.07,2.08,5.46,5.46,0,0,0,.85,1.4,9.49,9.49,0,0,0,2.87,2.81,6.85,6.85,0,0,0,3.71.71c1.73,0,4-3,4.77-4.53,1.16-2.42,3.23-5,3.43-7.21-.7.74-2.2.74-3.7.24-2-.67-3.49-1.84-3.52-3.95,0-1.76,1.75-4.33,3-5.55C115,74.13,113,73.27,112.5,73.13Z"/><path class="c" d="M126.37,72.49l.82,1.18c.55.78,1.85,0,1.3-.76l-.82-1.17c-.55-.79-1.85,0-1.3.75Z"/><path class="c" d="M130.64,68.48a9.12,9.12,0,0,1,.42,2.32c.05,1,1.55,1,1.5,0a10.34,10.34,0,0,0-.47-2.71c-.29-.92-1.74-.53-1.45.39Z"/><path class="c" d="M136.43,66.59a15.18,15.18,0,0,1-1.24,2.83c-.47.85.83,1.6,1.3.76A17.71,17.71,0,0,0,137.88,67c.3-.92-1.15-1.31-1.45-.4Z"/><path class="c" d="M125.71,86.58A4.21,4.21,0,0,0,128.09,85a.75.75,0,0,0-.27-1,.77.77,0,0,0-1,.27,2.65,2.65,0,0,1-1.47.93.75.75,0,0,0,.39,1.44Z"/><path class="c" d="M127.88,88.23l2.15-.89a.78.78,0,0,0,.52-.93.75.75,0,0,0-.92-.52l-2.14.89a.78.78,0,0,0-.53.93.75.75,0,0,0,.92.52Z"/><path class="c" d="M124.21,85.34,125.55,84A.75.75,0,0,0,124.48,83l-1.33,1.33a.75.75,0,0,0,1.06,1.06Z"/><path class="c" d="M121.54,85.16l.2-1.5a.77.77,0,0,0-.52-.92.75.75,0,0,0-.92.53l-.21,1.49a.77.77,0,0,0,.52.92.76.76,0,0,0,.93-.52Z"/><path class="c" d="M123,81.82c2.87-1.58,4.73-.53,7.54.06a7,7,0,0,0,4.91-.88c.85-.46.09-1.76-.76-1.29-2.73,1.5-4.53.06-7.18-.29a8.52,8.52,0,0,0-5.27,1.11c-.85.46-.09,1.76.76,1.29Z"/><path class="c" d="M137.8,84.6c-.37,1.8-2,3.45-3.19,4.8A40.78,40.78,0,0,1,131,93.08c-.71.65.35,1.71,1.06,1.07a42.93,42.93,0,0,0,4.43-4.62c1.1-1.35,2.42-2.78,2.79-4.53.2-.94-1.25-1.35-1.45-.4Z"/><path class="c" d="M137.81,89.83a2.82,2.82,0,0,1,1.32.67c.7.66,1.76-.4,1.06-1.06a4.33,4.33,0,0,0-2-1.06c-.94-.21-1.34,1.24-.39,1.45Z"/><path class="c" d="M136.48,92.47a3.85,3.85,0,0,1,1.8.88c.72.64,1.78-.41,1.06-1.06A5.3,5.3,0,0,0,136.87,91c-.94-.2-1.34,1.25-.39,1.44Z"/><path class="c" d="M135.3,95.19l3,.73c.94.23,1.34-1.22.4-1.45l-3-.72c-.94-.23-1.34,1.21-.4,1.44Z"/><path class="c" d="M109.71,110.05l2.32-.39c1-.16.55-1.61-.4-1.45l-2.32.4c-1,.16-.55,1.61.4,1.44Z"/><path class="c" d="M110.5,106.88H113a.75.75,0,0,0,0-1.5h-2.5a.75.75,0,0,0,0,1.5Z"/><path class="c" d="M107.46,114.08a10.68,10.68,0,0,0,2.71.12c1-.09,1-1.59,0-1.5a8.92,8.92,0,0,1-2.31-.07c-1-.15-1.36,1.29-.4,1.45Z"/><path class="c" d="M121,89.36a15.93,15.93,0,0,1,3.46.86c.9.33,1.3-1.12.39-1.45a18.13,18.13,0,0,0-3.85-.91c-1-.11-1,1.39,0,1.5Z"/><path class="c" d="M119,91.87a21.49,21.49,0,0,0,7.37,1.67c1,.06,1-1.45,0-1.5a20.42,20.42,0,0,1-7-1.61c-.89-.38-1.28,1.08-.4,1.44Z"/><path class="c" d="M125.19,77.51c4-1.75,8.16.22,11.93-2.25.8-.53,0-1.82-.76-1.29-2.34,1.53-4.35,1.13-7,1.13a12,12,0,0,0-5,1.11c-.88.39-.12,1.68.76,1.3Z"/><path class="c" d="M102.5,137.53a6.5,6.5,0,0,0,3.67-1.47c.75-.61-.31-1.67-1.06-1.06a4.71,4.71,0,0,1-2.61,1c-1,.07-1,1.57,0,1.5Z"/><path class="c" d="M106,133.11a22.52,22.52,0,0,0,3-3.37c.57-.78-.73-1.53-1.3-.76a20.31,20.31,0,0,1-2.79,3.07c-.71.65.35,1.71,1.06,1.06Z"/><path class="c" d="M101.92,128.46a6.16,6.16,0,0,0,2.45.49c1.59-.24,2.43-1.68,4.19-1.49,2.28.25,3.74.87,6-.11.88-.39.12-1.68-.76-1.3-2.27,1-4-.39-6.21-.15a3.87,3.87,0,0,0-1.36.4c-1.35.65-2.23,1.13-3.89.72a.75.75,0,0,0-.4,1.44Z"/><path class="c" d="M109,124.5a5.72,5.72,0,0,0,2.08.38.75.75,0,0,0,0-1.5,4.6,4.6,0,0,1-1.68-.32.75.75,0,0,0-.92.52.76.76,0,0,0,.52.92Z"/><path class="c" d="M118.43,125.31A32.16,32.16,0,0,0,123,126c1,.08,1-1.42,0-1.5a30.9,30.9,0,0,1-4.17-.65c-.94-.22-1.34,1.23-.4,1.44Z"/><path class="c" d="M119.38,128.88h3.12a.75.75,0,0,0,0-1.5h-3.12a.75.75,0,0,0,0,1.5Z"/><path class="c" d="M102.81,140.83a5.06,5.06,0,0,0,5.18-1.46c.64-.71-.41-1.78-1.06-1.06a3.53,3.53,0,0,1-3.72,1.07.75.75,0,0,0-.4,1.45Z"/><path class="c" d="M103.62,125.27a2.42,2.42,0,0,1,2.16-.36c.93.29,1.32-1.16.4-1.44a3.84,3.84,0,0,0-3.32.5c-.78.55,0,1.85.76,1.3Z"/><path class="c" d="M101.8,133.71l1,.16a.77.77,0,0,0,.92-.52.75.75,0,0,0-.52-.92l-1-.16a.77.77,0,0,0-.92.52.75.75,0,0,0,.52.92Z"/><path class="c" d="M119,82.63a42.55,42.55,0,0,1-2,6.5A7.41,7.41,0,0,1,115.1,92c-.65.62-1.26,3.33-2.1,3.68-1.57.65-3.56-.59-5-1.5-1.28-.81-1.87-2-3-3-.75-.68-2.4-3.35-3-4-1.06-1.16-1.5-4.5-.5-7,.37-.39,4.62,1.17,5,2a6.71,6.71,0,0,0,2.38,2.17,15.16,15.16,0,0,0,3.73.38,6.59,6.59,0,0,0,1.89-1.05C115.83,82.35,119,82.63,119,82.63Z"/><circle class="g" cx="116.75" cy="78.88" r="5"/><path class="c" d="M122,100.67a1.78,1.78,0,0,1,.49,2.85c-.58.51-1.43.57-2,1a3.11,3.11,0,0,0-1,2.84,30.13,30.13,0,0,1,.42,3.11c0,1.64-.89,3.18-.92,4.82a4.81,4.81,0,0,0,1.29,3.34l.05-6.68a12.75,12.75,0,0,1,.13-2.14,6.68,6.68,0,0,1,2.77-4.34c1.61-1.11,3.62-1.45,5.32-2.4a1.65,1.65,0,0,0,.88-.9c.23-.82-.7-1.47-1.51-1.73a10.54,10.54,0,0,0-5.57-.22Z"/><path class="c" d="M138.77,98.8a11.6,11.6,0,0,1,7.88,2.08c2.33,1.51,6.56,5.82,6.7,5.73,4.65-3,8.45-2.22,8.65-2.48,1.5-2,2.11-10.1,2-15a12.08,12.08,0,0,1,1-6,13.18,13.18,0,0,1,3-4c3.59-2.75,6.48-7.25,9-11-4.17-2.79-5.08-2.87-8.25-6.75-4.54,3.52-10.11,6.35-14.31,10.27-1.7,1.58-3.76,2.74-5.4,4.38-2.82,2.83-4.12,6.78-5.34,10.58C142.4,90.69,138.77,98.8,138.77,98.8Z"/><path class="c" d="M156.5,108a4.17,4.17,0,0,1,1.46,1.49.75.75,0,0,0,1.3-.75,5.67,5.67,0,0,0-2-2,.75.75,0,0,0-.75,1.29Z"/><path class="c" d="M159.46,106.77l.88,1.5a.75.75,0,0,0,1.29-.76l-.88-1.5a.75.75,0,0,0-1.29.76Z"/><path class="c" d="M162.68,106.32l.22.88a.75.75,0,0,0,1.44-.4l-.22-.88a.75.75,0,0,0-1.44.4Z"/><path class="c" d="M165.75,107a.75.75,0,0,0,0-1.5.75.75,0,0,0,0,1.5Z"/><path class="g" d="M110.5,95.13a18,18,0,0,0-2,7.5c5.74-2.92,13.34-2.72,19.21-.06a1.82,1.82,0,0,0,1,.23,1.85,1.85,0,0,0,.69-.37,19.36,19.36,0,0,1,9.44-3.73c-7.26-3.37-18.34-5.76-26.3-6.57A21.49,21.49,0,0,0,110.5,95.13Z"/><path class="c" d="M111.7,137.7a6.12,6.12,0,0,1,3.3-5.33c2.44-1.23,5.38-.66,8.08-1.13a17.6,17.6,0,0,1,1.79-.31,5.17,5.17,0,0,1,5.21,3.64.57.57,0,0,1,0,.29c-.07.34-.56.32-.89.22-1.82-.52-3.81-1-5.56-.27-1.24.52-2.41,1.63-3.71,1.3-.32-.07-.61-.24-.92-.31a3.82,3.82,0,0,0-2.28.52,16.14,16.14,0,0,1-4.83,1.24Z"/><path class="c" d="M77.39,167.65a50.92,50.92,0,0,0,5.56,1c-1.8,1.13-5.27,3.92-5.45,4a19.21,19.21,0,0,1-5-3,3.5,3.5,0,0,1-1-2.8,5.92,5.92,0,0,1,.34-1.44,6.62,6.62,0,0,1,.3-.66l.36-.6S75.6,167.05,77.39,167.65Z"/><path class="c" d="M105.3,146.93a3.16,3.16,0,0,1,2.2-1c1-.05,1-1.55,0-1.5a4.74,4.74,0,0,0-3.26,1.44c-.67.7.39,1.76,1.06,1.06Z"/><path class="c" d="M101.71,150.77a10.7,10.7,0,0,1,2.82-1.27.75.75,0,0,0-.4-1.45,12.12,12.12,0,0,0-3.18,1.43c-.81.51-.06,1.81.76,1.29Z"/><path class="c" d="M105.69,148.4q-2.44,6.75-5.2,13.38c-.37.89,1.08,1.28,1.44.4q2.77-6.63,5.2-13.38c.33-.91-1.12-1.31-1.44-.4Z"/><path class="c" d="M117,138.87c-5,7.2-7.16,14.86-9.07,23.29-.22.94,1.23,1.34,1.44.39,1.89-8.3,4-15.81,8.92-22.92.55-.8-.75-1.55-1.29-.76Z"/><path class="c" d="M123.42,142.36a27.33,27.33,0,0,0-3.49,12.6.75.75,0,0,0,1.5,0,25.49,25.49,0,0,1,3.29-11.84c.47-.85-.83-1.6-1.3-.76Z"/><path class="c" d="M80.8,164.84a19.15,19.15,0,0,1,4.35,1.38c.87.4,1.63-.89.75-1.29a20.54,20.54,0,0,0-4.7-1.54c-.94-.18-1.34,1.26-.4,1.45Z"/><path class="c" d="M79,162.46a20.64,20.64,0,0,1,4.58-.05,13.2,13.2,0,0,1,4.69,1.89A.75.75,0,0,0,89,163a15.71,15.71,0,0,0-10-2c-1,.08-1,1.58,0,1.5Z"/><path class="c" d="M94.65,165.82c.32,1.42.57,2.88,1,4.28a3.44,3.44,0,0,0,1.49,2.21c2.1,1.16,4.41-1.12,5.92-2.3.76-.6-.31-1.65-1.06-1.06-1.18.92-4,3.59-4.85,1a45.43,45.43,0,0,1-1-4.48c-.21-.94-1.66-.54-1.45.4Z"/><path class="c" d="M113.5,164.13a10.48,10.48,0,0,1,2.65-2.37,6.6,6.6,0,0,1,4.46-1,7.77,7.77,0,0,1,4.68,3,11.7,11.7,0,0,1,1.27,2.08,5.4,5.4,0,0,1-1.21,5.87,8.15,8.15,0,0,1-6.13,2.77c-2,.13-3.26-1.09-4.27-2.69a10.45,10.45,0,0,1-1.72-5.6A10.9,10.9,0,0,1,113.5,164.13Z"/><path class="d" d="M113.46,164.25a18.63,18.63,0,0,0,.76,5.82,5.55,5.55,0,0,0,8.47,3.32,19,19,0,0,0,3.66-2.92l-4.78,7.25a24.05,24.05,0,0,0-2.57,4.62c-.52,1.38-.81,2.91-1.79,4a8.65,8.65,0,0,1-4.21,2.28c-2.22.59-5.15,1.36-7,0-2-1.48-2.34-5-2-7.5a31.62,31.62,0,0,1,4-11.5S111.48,165.29,113.46,164.25Z"/><path class="d" d="M93,162.11a54.14,54.14,0,0,0,3,18.48c.18.5.53,1.1,1,1,.31-.07.49-.42.63-.73A25.76,25.76,0,0,1,108.49,169a33.37,33.37,0,0,0-3,15.87c.08.83-7.85,5.27-10.68,5.23a36.26,36.26,0,0,1-4.82-.5,13.66,13.66,0,0,0,1.5-5.73C91.53,181.92,93,162.11,93,162.11Z"/></svg>