<svg xmlns="http://www.w3.org/2000/svg" viewBox="0 0 132.82 157.22"><defs><style>.a{fill:#eaeaea;}.b{fill:#ccc;}.c{fill:#5e5e5e;}.d{fill:#ff2707;}.e{fill:#b7b7b7;}</style></defs><title>logo</title><path class="a" d="M123.09,156.13H9.73a2.33,2.33,0,0,1-2.32-2.32l10-83.37a2.33,2.33,0,0,1,2.32-2.31h93.36a2.33,2.33,0,0,1,2.32,2.31l10,83.37A2.33,2.33,0,0,1,123.09,156.13Z"/><path class="b" d="M87.08,118.3s4.16,1.28,4.16,9.34-.5,28.77,6.34,28.77H34.74c6.84,0,6.34-20.72,6.34-28.77s4.16-9.34,4.16-9.34a80.5,80.5,0,0,1,20.92-2.63A90.63,90.63,0,0,1,87.08,118.3Z"/><path class="c" d="M44.68,117.72c-5.39,1.93-5,9.15-5,13.73,0,3.67,1,23.66-4.69,24.19-1.4.13-2.43,1.74-.41,1.55,6.6-.62,7.17-9.6,7.61-14.62.35-4.11.39-8.24.38-12.36,0-3-.51-10,3.28-11.34,1.91-.68.17-1.61-1.13-1.15Z"/><path class="c" d="M85.92,119c6.2,2.22,3.79,16.78,4.09,21.84.29,4.86.29,15.77,7,16.39,1.08.11,3.08-1.42,1.14-1.6-6.27-.58-5.42-18.32-5.45-22.38,0-4.62,1.21-13.59-4.47-15.62-.85-.31-3.47,1-2.31,1.37Z"/><path class="a" d="M106.77,68.13H26.05a1.66,1.66,0,0,1-1.65-1.65l5-59.37a1.65,1.65,0,0,1,1.65-1.65S45.24,1,66.16,1c17.25,0,35.61,4.42,35.61,4.42a1.65,1.65,0,0,1,1.65,1.65l5,59.37A1.66,1.66,0,0,1,106.77,68.13Z"/><path class="a" d="M40.07,6c-2.35-.33-4.41-1.66-6.38-3s-4-2.65-6.37-3-5.05.61-6,2.79a7.93,7.93,0,0,0-.43,3c-.06,3.2-.08,6.54,1.33,9.42A16.63,16.63,0,0,0,26,20a46.37,46.37,0,0,0,7,5.36"/><path class="a" d="M92.33,6c2.34-.33,4.4-1.66,6.38-3s4-2.65,6.37-3,5,.61,6,2.79a8.14,8.14,0,0,1,.44,3c0,3.2.07,6.54-1.34,9.42A16.46,16.46,0,0,1,106.37,20a46.28,46.28,0,0,1-7,5.36"/><path class="d" d="M28.23,67.65c-3,.7-6.19-1.36-9.15-.51A6.61,6.61,0,0,0,15,71.36a20.5,20.5,0,0,0-.94,6,267.29,267.29,0,0,1-6.12,43,66.71,66.71,0,0,1-3.06,10.49c-.93,2.3-2.1,4.52-2.9,6.86C.41,142.2.21,147,0,151.81a5.25,5.25,0,0,0,.19,2.09c.54,1.46,2.2,2.15,3.74,2.42a14.44,14.44,0,0,0,13.47-5,21.52,21.52,0,0,0,3.92-9c2.91-12.81.11-26.45,3.4-39.17,1.5-5.82,4.23-11.25,6.05-17s2.67-12.09.39-17.65c-.32-.79-1.13-1.69-1.84-1.22"/><path class="d" d="M104.59,67.65c3,.7,6.19-1.36,9.15-.51a6.62,6.62,0,0,1,4.1,4.22,20.49,20.49,0,0,1,.93,6,268.41,268.41,0,0,0,6.12,43A66.71,66.71,0,0,0,128,130.82c.94,2.3,2.1,4.52,2.91,6.86,1.55,4.52,1.75,9.36,1.94,14.13a5.25,5.25,0,0,1-.19,2.09c-.54,1.46-2.2,2.15-3.73,2.42a14.45,14.45,0,0,1-13.48-5,21.65,21.65,0,0,1-3.92-9c-2.91-12.81-.11-26.45-3.4-39.17-1.5-5.82-4.23-11.25-6-17s-2.67-12.09-.39-17.65c.32-.79,1.14-1.69,1.84-1.22"/><path class="d" d="M27.24,70.62c7.49-2.12,15.23-4,22.94-1.84C55.89,70.35,61,72.5,67,72.83a44,44,0,0,0,14.57-1.71c4-1.15,7.59-2.58,11.82-2.31A34.18,34.18,0,0,1,105,72c.9.41,3.54-.89,2.3-1.44-5.22-2.32-10.78-3.93-16.54-3.4-7.82.72-14.56,4.45-22.68,4-7.35-.44-13.71-4.15-20.93-4.9-6.9-.72-13.77,1-20.36,2.87-1.73.49-1.34,2,.42,1.54Z"/><path class="d" d="M70.35,71.86C68,70,64.88,71.9,63,73.53s-2.81,3.74-3.73,6.06c-.81,2-1.89,4.52-1.71,6.75.28,3.42,4.17,1.81,5.84.36,3.94-3.41,5.39-9.89,6.87-14.64.22-.72-2.62-.35-2.87.46-.8,2.57-1.6,5.16-2.64,7.65-.3.72-3.11,7.4-4.29,5.78-1-1.36,1.6-6.68,2.11-7.88s3.05-6.82,5.07-5.17c.65.54,3.27-.58,2.71-1Z"/><path class="d" d="M68.29,72.94a18.88,18.88,0,0,1,8.7,3.7,7.18,7.18,0,0,1,2.52,4.21c.09.49,0,4.63-.76,4.43-.47-.12-1.52-3.5-1.73-4-.62-1.41-1.27-2.82-2-4.18a10.84,10.84,0,0,0-4.2-4.85c-.81-.46-3.48.73-2.3,1.4,4.37,2.49,4.67,8.27,7.17,12.13,1.26,1.94,3.75,1.75,5.27.12,2.29-2.46,1.87-6.6,0-9.11-2.44-3.2-7.1-4.71-10.88-5.43-.92-.17-3.4,1.26-1.77,1.57Z"/><path class="d" d="M67.33,74.62a54.69,54.69,0,0,1-7.21,28.32c-.68,1.19,2.22.92,2.7.07a56.22,56.22,0,0,0,7.4-29.17c0-.92-2.91-.36-2.89.78Z"/><path class="d" d="M68.2,74.72a103.72,103.72,0,0,1,6.74,30.65c.06.85,3,.27,2.9-.78A104,104,0,0,0,71.1,74c-.36-1-3.23-.09-2.9.77Z"/><path class="e" d="M57.33,35.05c.7-1.32,2.25-1.91,3.7-2.24a36.07,36.07,0,0,1,5.38-.74c3.33-.26,7-.24,9.56,2a4.15,4.15,0,0,1,1.52,2.51A2.38,2.38,0,0,1,76.2,39c-1.52.62-3.24-.88-4.82-.43-1,.29-1.62,1.28-2.31,2.07s-1.81,1.48-2.73,1c-.72-.39-.93-1.31-1.35-2a3.38,3.38,0,0,0-5.25-.34c-.28.36-.57.82-1,.81s-.72-.46-.92-.86a8.94,8.94,0,0,1-.94-2.54A2.27,2.27,0,0,1,57.33,35.05Z"/></svg>