<svg xmlns="http://www.w3.org/2000/svg" viewBox="0 0 910.55 138.06"><title>logo_Logotype</title><rect x="16.64" y="5.43" width="111.22" height="7.86"/><path d="M43.6,13.29H70S59.15,36.77,55.4,45.56c0,0-14.43,31.61-38.76,26.15Z"/><rect x="62.77" y="42.82" width="65.08" height="7.86"/><path d="M97.1,49.53,62,127.6s18.32,2.68,26.68-6.74c9-10.11,20.79-31.45,36.23-71.33Z"/><rect y="120.09" width="144.49" height="7.86"/><path d="M66.51,88.74c-3.87-1.33-7.33-2.87-11-3.69C50.89,84,49.17,81,48.9,76.69c-.35-5.57,3.13-10.81,8-12.3,4.41-1.34,7.6.44,10,4C71.3,74.75,70.86,83.77,66.51,88.74Z"/><path d="M57.33,101.84c-3.54,2.06-7,3.68-9.95,5.88-3.85,2.85-7.27,2.17-10.68-.42-4.45-3.37-6.14-9.43-4.08-14.1,1.86-4.21,5.3-5.46,9.57-5C49.86,89.07,56.4,95.31,57.33,101.84Z"/><rect x="184.51" y="17.82" width="123.01" height="7.86"/><rect x="235.94" width="20.15" height="64.32"/><rect x="197.47" y="63.56" width="20.15" height="74.26"/><rect x="273.37" y="63.56" width="20.15" height="74.26"/><rect x="204.66" y="63.56" width="82.71" height="3.93"/><rect x="197.47" y="120.09" width="62.18" height="7.86"/><rect x="515.19" y="16.59" width="70.3" height="7.86"/><rect x="540.26" y="6.64" width="20.15" height="29.06"/><rect x="520.11" y="34.93" width="20.15" height="57.27"/><rect x="560.41" y="34.93" width="20.15" height="57.27"/><rect x="515.19" y="95.38" width="70.3" height="7.86"/><rect x="529.14" y="63.76" width="44.64" height="3.93"/><rect x="529.14" y="49.52" width="44.64" height="3.93"/><rect x="529.14" y="78.01" width="44.64" height="3.93"/><path d="M521.83,136.59a61.52,61.52,0,0,0,9-41.21h18.52C553.55,113.6,540.46,133.69,521.83,136.59Z"/><path d="M577.56,134.28c-3.87-1.34-7.33-2.87-10.95-3.69-4.67-1.06-6.39-4.09-6.66-8.37-.35-5.57,3.13-10.81,8-12.3,4.41-1.34,7.6.45,10,4C582.35,120.29,581.9,129.31,577.56,134.28Z"/><rect x="458.36" y="8.37" width="45.27" height="3.93"/><rect x="460.59" y="61.8" width="45" height="7.86"/><path d="M464.32,11.75l-12.08,36s10.1,1.29,16.19-3.5S483.64,12,483.64,12Z"/><path d="M483.64,12s2.91,33.45,31.55,36.87A66.22,66.22,0,0,1,503.67,12.3Z"/><rect x="475.56" y="31.26" width="15.43" height="90.62"/><path d="M495.74,86.41V108.2c7.73.86,13.12-7.89,13.46-21.79Z"/><path d="M472.13,86.41H459.28s-2.09,22,9.5,38.51h8A118.1,118.1,0,0,1,472.13,86.41Z"/><path d="M452.24,124v10.5s32.55-3.94,45.38-12c11.58-7.23,14-12.58,14-12.58S481.56,119.78,452.24,124Z"/><rect x="635.24" y="10.48" width="107.31" height="7.86"/><path d="M635.24,18.34s.57,89.27-13.51,119.72c0,0,13.83-2.25,19-11.62,8-18.59,11.21-54.57,13.67-108.1Z"/><path d="M742.2,27.85s-.39,82.66,10.41,110.21c0,0-23.91-6.89-25.07-110.21Z"/><rect x="666.91" y="29.23" width="48.12" height="7.86"/><rect x="661.44" y="60.31" width="14.22" height="30.85"/><rect x="706.27" y="60.31" width="14.22" height="30.85"/><rect x="651.72" y="128.69" width="54.55" height="7.86"/><path d="M713.39,115.64c.23,4.09.77,7.83.58,11.54-.24,4.78,2.2,7.26,6.25,8.67,5.27,1.85,11.25-.08,14-4.38,2.49-3.88,1.63-7.43-1.13-10.73C728.15,114.81,719.35,112.8,713.39,115.64Z"/><rect x="681.05" y="35.04" width="20.15" height="95.86"/><rect x="780.85" y="45.66" width="129.7" height="8.12"/><rect x="796.99" y="21.27" width="72.62" height="8.12"/><rect x="813.16" y="71.34" width="21.25" height="66.44"/><rect x="868.46" y="71.34" width="21.25" height="66.44"/><rect x="813.16" y="71.34" width="71.47" height="4.06"/><rect x="813.15" y="121.3" width="46.46" height="8.12"/><rect x="813.15" y="94.29" width="46.46" height="8.12"/><rect x="832.14" y="6.64" width="21.25" height="47.15"/><path d="M888.65,16.8s-67.94,56.74-112.4,70.61c0,0,33.15,16.76,132-70.61Z"/><path d="M368.72,68.19c.24,4.08.78,7.83.59,11.54-.25,4.78,2.2,7.26,6.24,8.67,5.27,1.85,11.26-.08,14-4.38,2.49-3.88,1.64-7.43-1.12-10.73C383.49,67.36,374.68,65.35,368.72,68.19Z"/></svg>