<svg xmlns="http://www.w3.org/2000/svg" viewBox="0 0 693.06 333.62"><defs><style>.a{fill:#fff;stroke:#702b2a;stroke-miterlimit:10;stroke-width:6.17px;}</style></defs><title>win</title><path class="a" d="M683.78,73.56c-69.94,50.78-199.84,39.76-249.7,33.19a55.36,55.36,0,0,0-20.21-3.06h0a55.55,55.55,0,0,0-5.68,110.53h0a55.5,55.5,0,0,0,34.74-6.52C506.39,193.94,638.62,156.14,683.78,73.56Z"/><path class="a" d="M234.85,92.91a66.27,66.27,0,0,0-66.32-66.33C145,6.2,113-7.37,83.35,13.6c-21,14.8-25.9,41.94-13.56,64.14,8.63,14.8,24.67,22.2,40.7,21,14.8-2.47,29.6-12.34,32.07-28.37,2.47-17.27-8.63-34.54-25.9-34.54-11.1,0-22.2,8.63-19.74,21,1.24,6.17,8.64,11.1,14.8,6.17C113,61.7,110.49,58,114.19,58c4.94,1.24,6.17,6.17,3.7,11.1-2.47,3.7-6.17,4.94-8.63,6.17-12.34,2.47-23.44-9.87-23.44-21,0-9.87,6.17-21,16-25.9,16-8.63,34.53-2.47,44.4,11.1,16,21,8.64,49.34-12.33,64.14-32.07,19.74-74,0-82.74-35.64a45.68,45.68,0,0,0-4.1-9.63,66.43,66.43,0,0,0-33.85,69,64.69,64.69,0,0,0,2.49,10.16c-13.78,19.13-17.48,45-5.15,67.23,16,27.14,51.81,34.54,76.48,14.81,17.26-14.81,23.43-40.71,8.63-59.21-8.63-11.1-22.2-17.27-37-14.8-9.87,1.23-17.27,7.4-22.21,16-4.93,9.87-4.93,22.21,2.47,30.84,7.4,7.4,18.5,9.87,27.14,4.93,3.7-3.7,7.4-7.4,6.16-13.56-1.23-4.94-7.4-12.34-12.33-6.17-1.23-1.24-2.47-3.7-1.23-4.94,3.7-3.7,8.63-3.7,13.56-1.23,6.17,4.93,9.87,13.57,6.17,21-8.63,19.73-35.77,18.5-48.1,2.47-8.64-13.57-7.4-28.37,0-40.71,9.86-16,30.83-22.2,48.1-17.27,25.9,8.64,40.71,37,33.3,62.91-6.16,22.2-25.9,35.77-47.45,41.68-4.65,1.34-5.84,2.32-8.12,3.21a66.33,66.33,0,1,0,92.14-88.67,66.33,66.33,0,0,0,86.56-63.16Z"/><path class="a" d="M409.18,234a66.27,66.27,0,0,0,57.9-73.79c3.58-13.35,14.68-22,15.91-36.78,4.94-32.07-19.73-65.38-53-60.44-12.34,1.23-23.44,8.63-30.84,18.5-8.63,14.8-7.4,33.3,7.4,44.4,11.1,8.64,28.37,4.94,33.3-7.4,1.24-4.93,0-11.1-4.93-13.57-2.47,0-6.17-1.23-7.4,2.47-7.4-3.7-2.47-12.33,3.7-13.57,8.63-2.46,16,2.47,19.73,9.87,9.87,18.5-6.16,39.47-25.9,41.94-22.2,2.46-43.17-14.8-46.87-37C374.45,82.67,390.49,58,413.88,48A61.85,61.85,0,0,0,421,43.4,66.4,66.4,0,0,0,343.4,19.73a61.4,61.4,0,0,1-8.73-2.81c-25.59-12-60.13-3.32-72.46,23.81-4.94,12.34-6.17,27.14,0,39.47,7.4,16,28.37,24.67,44.4,17.27,7.4-3.7,12.34-8.63,14.8-16,1.24-7.4,0-14.8-6.17-19.74-6.16-3.7-14.8-1.23-13.56,6.17-6.17,1.23-8.64-4.93-7.4-9.87,1.23-3.7,3.7-8.63,8.63-9.87,16-3.7,32.07,7.41,33.3,23.44,2.47,18.5-9.86,35.77-27.13,41.94-24.67,8.63-50.57-3.7-62.46-24.88-4.77-8.89-7.32-11.76-9.59-13.89a66.33,66.33,0,1,0,99.07,80.85A66.33,66.33,0,0,0,409.18,234Z"/><path class="a" d="M294.65,133.6a64.45,64.45,0,0,0-54-63.59c-1.85-.5-3.72-1-5.79-1.62-12.13-14.09-28.17-24-47.9-20.26-22.21,4.94-35.77,27.14-27.14,48.11,4.93,9.87,14.8,18.5,25.9,17.27,9.87-1.24,17.27-7.4,18.5-17.27a11.77,11.77,0,0,0-11.1-13.57c-3.7,0-8.63,6.17-9.87,4.94-11.1-7.41,2.47-21,12.34-21,21,1.23,32.07,23.43,24.67,41.93-12.34,32.07-55.51,28.37-75.17,6.5a39.57,39.57,0,0,0-7.85,5.06,64.45,64.45,0,0,0-15.6,81.32c1.3,2.32,2.63,4.61,3.94,6.87-10.17,11.27-18.8,22.37-18.8,37.17a42.35,42.35,0,0,0,23.44,38.24c13.56,6.16,29.6,2.46,39.47-9.87,3.7-6.17,6.16-12.34,4.93-19.74-1.23-8.63-6.17-16-16-18.5a13.1,13.1,0,0,0-16,16c2.47,6.16,6.17,2.46,11.1,2.46,6.17,1.24,2.47,7.4,1.24,9.87-2.47,2.47-6.17,4.93-9.87,4.93-8.64,0-14.8-6.16-18.5-13.56-6.17-17.27,7.4-35.77,24.67-38.24,13.56-2.47,27.13,4.93,35.77,14.8,13.56,18.5,6.16,39.47.13,57.7a64.37,64.37,0,0,0,20.37,3.28,64.42,64.42,0,0,0,52.31-102A64.41,64.41,0,0,0,294.65,133.6Z"/><path class="a" d="M232.92,177a64.46,64.46,0,0,0-3,97.55,62.75,62.75,0,0,0,7.24,5.75c2.8,20.73,13.91,42.94,36.11,49.1,19.73,4.94,40.7-6.16,46.87-24.67,2.47-7.4,2.47-16-1.23-23.43-7.41-13.57-22.21-21-37-13.57-9.87,6.17-13.57,19.74-6.17,28.37,3.7,3.7,12.34,3.7,13.57-1.23,1.24-3.7-2.46-8.64,3.7-9.87,6.17,0,8.64,4.93,8.64,9.87,0,12.33-12.34,18.5-23.44,16-13.57-3.7-19.73-16-19.73-28.37,1.23-14.8,12.33-27.13,27.13-30.83,33.31-7.41,55.51,25.9,50.31,56.09,1.2,1.16,2.71,1.2,4.26,1.07a64.63,64.63,0,0,0,41.34-19.88,23,23,0,0,1,3.93-2.9c24.74.15,51.88-13.42,53.11-40.55,0-16-7.4-30.84-22.2-37-18.5-7.4-43.17,6.17-39.47,28.37,2.46,11.1,13.57,18.51,23.43,12.34,2.47-1.24,7.4-6.17,3.7-11.1-2.46-2.47-6.16,0-7.4-1.24-1.23-2.46,0-7.4,3.7-8.63,9.87-3.7,16,6.17,17.27,14.8,0,7.4-4.93,13.57-11.1,18.5-11.1,6.17-23.44,3.7-33.3-3.7-17.27-16-14.8-41.94,2.46-56.74,11.11-8.63,25.91-12.33,39.66-8.86,8.54,1.83,9.86.83,10.26-.64a64.46,64.46,0,0,0-91.49-65c-2.36.19-4.59.51-10.92-1.47-21.51-7.88-44.95-3-57.28,16.79-7.4,13.57-8.64,28.37,0,41.94a35.61,35.61,0,0,0,33.3,16c12.33-1.23,21-9.87,24.67-21,2.47-11.1-2.47-22.2-13.57-27.13-7.4-3.71-17.27,0-21,6.16-1.23,3.7-1.23,11.1,3.7,13.57,2.47,1.23,7.4,1.23,6.17-3.7,6.17,1.23,2.47,9.87-2.47,11.1-11.1,1.23-17.27-9.87-16-19.73,2.46-13.57,16-18.51,28.37-17.27,7.4,1.23,13.57,6.16,18.5,12.33,13.57,21,1.23,48.11-23.44,54.27-27.13,6.17-50.57-14.8-55.68-40.86a64.14,64.14,0,0,0-8,4.07A65,65,0,0,0,232.92,177Z"/><path class="a" d="M234.85,92.91a66.27,66.27,0,0,0-66.32-66.33C145,6.2,113-7.37,83.35,13.6c-21,14.8-25.9,41.94-13.56,64.14,8.63,14.8,24.67,22.2,40.7,21,14.8-2.47,29.6-12.34,32.07-28.37,2.47-17.27-8.63-34.54-25.9-34.54-11.1,0-22.2,8.63-19.74,21,1.24,6.17,8.64,11.1,14.8,6.17C113,61.7,110.49,58,114.19,58c4.94,1.24,6.17,6.17,3.7,11.1-2.47,3.7-6.17,4.94-8.63,6.17-12.34,2.47-23.44-9.87-23.44-21,0-9.87,6.17-21,16-25.9,16-8.63,34.53-2.47,44.4,11.1,16,21,8.64,49.34-12.33,64.14-32.07,19.74-74,0-82.74-35.64a45.68,45.68,0,0,0-4.1-9.63,66.43,66.43,0,0,0-33.85,69,64.69,64.69,0,0,0,2.49,10.16c-13.78,19.13-17.48,45-5.15,67.23,16,27.14,51.81,34.54,76.48,14.81,17.26-14.81,23.43-40.71,8.63-59.21-8.63-11.1-22.2-17.27-37-14.8-9.87,1.23-17.27,7.4-22.21,16-4.93,9.87-4.93,22.21,2.47,30.84,7.4,7.4,18.5,9.87,27.14,4.93,3.7-3.7,7.4-7.4,6.16-13.56-1.23-4.94-7.4-12.34-12.33-6.17-1.23-1.24-2.47-3.7-1.23-4.94,3.7-3.7,8.63-3.7,13.56-1.23,6.17,4.93,9.87,13.57,6.17,21-8.63,19.73-35.77,18.5-48.1,2.47-8.64-13.57-7.4-28.37,0-40.71,9.86-16,30.83-22.2,48.1-17.27,25.9,8.64,40.71,37,33.3,62.91-6.16,22.2-25.9,35.77-47.45,41.68-4.65,1.34-5.84,2.32-8.12,3.21a66.33,66.33,0,1,0,92.14-88.67,66.33,66.33,0,0,0,86.56-63.16Z"/><path class="a" d="M294.65,133.6a64.45,64.45,0,0,0-54-63.59c-1.85-.5-3.72-1-5.79-1.62-12.13-14.09-28.17-24-47.9-20.26-22.21,4.94-35.77,27.14-27.14,48.11,4.93,9.87,14.8,18.5,25.9,17.27,9.87-1.24,17.27-7.4,18.5-17.27a11.77,11.77,0,0,0-11.1-13.57c-3.7,0-8.63,6.17-9.87,4.94-11.1-7.41,2.47-21,12.34-21,21,1.23,32.07,23.43,24.67,41.93-12.34,32.07-55.51,28.37-75.17,6.5a39.57,39.57,0,0,0-7.85,5.06,64.45,64.45,0,0,0-15.6,81.32c1.3,2.32,2.63,4.61,3.94,6.87-10.17,11.27-18.8,22.37-18.8,37.17a42.35,42.35,0,0,0,23.44,38.24c13.56,6.16,29.6,2.46,39.47-9.87,3.7-6.17,6.16-12.34,4.93-19.74-1.23-8.63-6.17-16-16-18.5a13.1,13.1,0,0,0-16,16c2.47,6.16,6.17,2.46,11.1,2.46,6.17,1.24,2.47,7.4,1.24,9.87-2.47,2.47-6.17,4.93-9.87,4.93-8.64,0-14.8-6.16-18.5-13.56-6.17-17.27,7.4-35.77,24.67-38.24,13.56-2.47,27.13,4.93,35.77,14.8,13.56,18.5,6.16,39.47.13,57.7a64.37,64.37,0,0,0,20.37,3.28,64.42,64.42,0,0,0,52.31-102A64.41,64.41,0,0,0,294.65,133.6Z"/><path class="a" d="M232.92,177a64.46,64.46,0,0,0-3,97.55,62.75,62.75,0,0,0,7.24,5.75c2.8,20.73,13.91,42.94,36.11,49.1,19.73,4.94,40.7-6.16,46.87-24.67,2.47-7.4,2.47-16-1.23-23.43-7.41-13.57-22.21-21-37-13.57-9.87,6.17-13.57,19.74-6.17,28.37,3.7,3.7,12.34,3.7,13.57-1.23,1.24-3.7-2.46-8.64,3.7-9.87,6.17,0,8.64,4.93,8.64,9.87,0,12.33-12.34,18.5-23.44,16-13.57-3.7-19.73-16-19.73-28.37,1.23-14.8,12.33-27.13,27.13-30.83,33.31-7.41,55.51,25.9,50.31,56.09,1.2,1.16,2.71,1.2,4.26,1.07a64.63,64.63,0,0,0,41.34-19.88,23,23,0,0,1,3.93-2.9c24.74.15,51.88-13.42,53.11-40.55,0-16-7.4-30.84-22.2-37-18.5-7.4-43.17,6.17-39.47,28.37,2.46,11.1,13.57,18.51,23.43,12.34,2.47-1.24,7.4-6.17,3.7-11.1-2.46-2.47-6.16,0-7.4-1.24-1.23-2.46,0-7.4,3.7-8.63,9.87-3.7,16,6.17,17.27,14.8,0,7.4-4.93,13.57-11.1,18.5-11.1,6.17-23.44,3.7-33.3-3.7-17.27-16-14.8-41.94,2.46-56.74,11.11-8.63,25.91-12.33,39.66-8.86,8.54,1.83,9.86.83,10.26-.64a64.46,64.46,0,0,0-91.49-65c-2.36.19-4.59.51-10.92-1.47-21.51-7.88-44.95-3-57.28,16.79-7.4,13.57-8.64,28.37,0,41.94a35.61,35.61,0,0,0,33.3,16c12.33-1.23,21-9.87,24.67-21,2.47-11.1-2.47-22.2-13.57-27.13-7.4-3.71-17.27,0-21,6.16-1.23,3.7-1.23,11.1,3.7,13.57,2.47,1.23,7.4,1.23,6.17-3.7,6.17,1.23,2.47,9.87-2.47,11.1-11.1,1.23-17.27-9.87-16-19.73,2.46-13.57,16-18.51,28.37-17.27,7.4,1.23,13.57,6.16,18.5,12.33,13.57,21,1.23,48.11-23.44,54.27-27.13,6.17-50.57-14.8-55.68-40.86a64.14,64.14,0,0,0-8,4.07A65,65,0,0,0,232.92,177Z"/></svg>